<svg xmlns="http://www.w3.org/2000/svg" width="34" height="53" viewBox="0 0 34 53"><g fill="none" fill-rule="evenodd"><rect width="34" height="53" fill="#FFF" rx="4"/><path fill="#2874F0" d="M10.81 43.014H7.505L6.813 45h-1.54l3.222-8.531h1.33L13.054 45h-1.547l-.697-1.986zm-2.89-1.196h2.474L9.157 38.28l-1.236 3.54zM14.02 45v-8.531h2.52c.754 0 1.423.168 2.007.504a3.436 3.436 0 0 1 1.356 1.43c.32.617.48 1.324.48 2.12v.428c0 .809-.16 1.52-.483 2.133a3.395 3.395 0 0 1-1.377 1.418c-.595.332-1.278.498-2.047.498H14.02zm1.483-7.336v6.152h.967c.777 0 1.374-.243 1.79-.73.416-.485.628-1.184.636-2.094v-.474c0-.926-.202-1.633-.604-2.122-.402-.488-.986-.732-1.752-.732h-1.037zM21.86 45v-8.531h2.52c.754 0 1.423.168 2.007.504a3.436 3.436 0 0 1 1.356 1.43c.32.617.48 1.324.48 2.12v.428c0 .809-.16 1.52-.483 2.133a3.395 3.395 0 0 1-1.377 1.418c-.595.332-1.278.498-2.048.498H21.86zm1.483-7.336v6.152h.967c.777 0 1.374-.243 1.79-.73.416-.485.628-1.184.635-2.094v-.474c0-.926-.2-1.633-.603-2.122-.403-.488-.986-.732-1.752-.732h-1.037z"/><rect width="24" height="24" x="5" y="5" fill="#F5FAFF" stroke="#2874F0" stroke-width="1.5" rx="2"/><path fill="#2874F0" d="M23 18.199h-5.212v5.528h-1.576V18.2H11v-1.67h5.212V11h1.576v5.528H23z"/></g></svg>
