<svg id="Capa_1" enable-background="new 0 0 512 512" height="512" viewBox="0 0 512 512" width="512" xmlns="http://www.w3.org/2000/svg"><g><path d="m407.369 374.079-134.747-44.916-24.955 7.17-134.745 44.916c-23.755 7.918-39.778 30.149-39.778 55.189v57.799l8.331 16.346c2.599.918 5.397 1.416 8.311 1.416h332.431c13.77 0 24.932-11.163 24.932-24.932v-57.799c-.001-25.039-16.025-47.27-39.78-55.189z" fill="#a4ccff"/><g><g><path d="m247.689 453.825h16.622v58.175h-16.622z" fill="#8bb3ea"/></g></g><g><g><path d="m109.888 389.846 134.75-44.914-5.259-15.769h-.003l-134.745 44.915c-23.755 7.919-39.778 30.15-39.778 55.19v57.799c0 10.84 6.96 20.082 16.622 23.517v-81.314c-.001-17.916 11.418-33.759 28.413-39.424z" fill="#8bb3ea"/></g></g><g><g><path d="m422.215 179.569c0 11.655 15.321 24.656 13.142 35.672-2.245 11.349-21.42 17.507-25.75 27.949-4.405 10.624 4.753 28.525-1.569 37.968-6.371 9.516-26.435 7.871-34.503 15.939s-6.422 28.133-15.938 34.504c-9.443 6.323-27.346-2.834-37.971 1.572-10.444 4.331-16.602 23.507-27.953 25.753-11.016 2.179-24.018-13.142-35.673-13.142s-24.656 15.321-35.671 13.142c-11.35-2.245-17.507-21.42-27.949-25.75-10.624-4.405-28.525 4.753-37.969-1.569-9.516-6.37-7.871-26.435-15.939-34.503s-28.133-6.422-34.504-15.937c-6.323-9.444 2.834-27.347-1.572-37.972-4.331-10.443-23.507-16.602-25.753-27.953-2.179-11.016 13.142-24.018 13.142-35.674 0-11.655-15.321-24.656-13.142-35.672 2.245-11.349 21.42-17.507 25.75-27.949 4.405-10.624-4.753-28.525 1.569-37.968 6.371-9.516 26.435-7.871 34.503-15.939s6.422-28.133 15.938-34.504c9.443-6.323 27.346 2.834 37.971-1.572 10.444-4.331 16.602-23.507 27.953-25.753 11.016-2.178 24.017 13.143 35.673 13.143 11.655 0 24.656-15.321 35.671-13.142 11.35 2.245 17.507 21.42 27.949 25.75 10.624 4.405 28.525-4.753 37.969 1.569 9.516 6.37 7.871 26.435 15.939 34.503s28.133 6.422 34.504 15.937c6.323 9.444-2.834 27.347 1.572 37.972 4.331 10.443 23.507 16.602 25.753 27.953 2.179 11.016-13.142 24.017-13.142 35.673z" fill="#b3e59f"/></g></g><g><g><path d="m222.757.177c-.813-.012-1.637-.122-2.43.035-11.351 2.246-17.51 21.422-27.953 25.753-10.625 4.406-28.528-4.751-37.971 1.572-9.516 6.371-7.87 26.436-15.938 34.504s-28.132 6.423-34.503 15.939c-6.322 9.443 2.837 27.344-1.569 37.968-4.33 10.443-23.505 16.6-25.75 27.949-2.179 11.015 13.142 24.017 13.142 35.672 0 11.656-15.321 24.657-13.142 35.674 2.246 11.351 21.422 17.51 25.753 27.953 4.406 10.625-4.751 28.528 1.572 37.972 6.371 9.515 26.435 7.869 34.504 15.937 8.068 8.068 6.423 28.133 15.939 34.503 9.443 6.322 27.344-2.837 37.969 1.569 10.442 4.33 16.6 23.505 27.949 25.75.793.157 1.616.047 2.428.035z" fill="#95d6a4"/></g></g><path d="m355.69 343.462c-16.126-4.996-32.771-8.813-49.833-11.349h-81.857l-72.667 23.26c5.226 59.415 43.886 97.96 104.659 97.96s104.449-38.546 109.675-97.96z" fill="#ffe07d"/><g><g><path d="m366.172 346.899c-3.484-1.206-6.947-2.343-10.481-3.438.017.763.039 1.556.039 2.323 0 55.079-44.65 99.729-99.729 99.729-43.981 0-81.219-28.5-94.455-68.023-3.073-9.178 2.273-19.02 11.619-21.536 11.649-3.137 23.479-5.628 35.406-7.402l-2.443-16.439h-.001c-20.783 3.089-40.946 8.079-60.308 14.784-3.544 1.227-5.92 4.748-5.591 8.484 5.229 59.411 54.994 106.032 115.764 106.032 60.831 0 110.635-46.715 115.78-106.211.319-3.7-2.091-7.087-5.6-8.303z" fill="#ffd064"/></g></g><g><g><path d="m256 395.649c-26.497 0-48.167-20.667-49.77-46.76l22.103-13.889 77.531.342v10.442c.001 27.54-22.325 49.865-49.864 49.865z" fill="#eceaec"/></g></g><g><g><path d="m206.135 295.92v49.865l.095 3.104 16.924-1.965c10.032-1.175 20.121-1.43 30.219-1.173.873.022 1.749.034 2.627.034 17.742 0 34.586-3.762 49.865-10.442v-39.423z" fill="#dad8db"/></g></g><g><g><path d="m376.506 171.259h-4.155c-9.18 0-16.622-7.442-16.622-16.622v-25.136c0-13.175-13.388-23.235-25.458-17.952-2.169.95-4.705 1.534-7.825 1.534-16.641 0-16.641-16.622-33.283-16.622-16.615 0-16.615 16.622-33.229 16.622-16.61 0-16.61-16.622-33.221-16.622-16.608 0-16.608 16.622-33.216 16.622-3.115 0-5.646-.584-7.812-1.534-.161-.071-.322-.138-.483-.203l-11.702 18.114-5 91.663c0 28.877 31.831 107.002 91.5 107.002 0 0 11.343.593 16.825-.264 51.678-8.081 91.215-52.792 91.215-106.738v-8.311h12.466c11.475 0 20.777-9.302 20.777-20.777 0-11.474-9.302-20.776-20.777-20.776z" fill="#fff"/></g></g><g><g><path d="m181.203 221.123v-109.777c-11.917-4.813-24.932 5.137-24.932 18.114v25.177c0 9.18-7.442 16.622-16.622 16.622h-4.155c-11.475 0-20.777 9.302-20.777 20.777s9.302 20.777 20.777 20.777h12.466v8.311c0 59.669 48.371 108.04 108.04 108.04 5.667 0 11.393-.461 16.825-1.302-51.756-8.015-91.622-52.738-91.622-106.739z" fill="#eceaec"/></g></g><g><g><path d="m206.135 196.191c-4.594 0-8.311-3.721-8.311-8.311v-8.311c0-4.59 3.717-8.311 8.311-8.311s8.311 3.721 8.311 8.311v8.311c0 4.59-3.717 8.311-8.311 8.311z" fill="#78c2a4"/></g></g><g><g><path d="m305.865 196.191c-4.594 0-8.311-3.721-8.311-8.311v-8.311c0-4.59 3.717-8.311 8.311-8.311s8.311 3.721 8.311 8.311v8.311c-.001 4.59-3.718 8.311-8.311 8.311z" fill="#78c2a4"/></g></g><g><g><path d="m280.932 212.812c0 4.499-1.192 8.72-3.277 12.364-4.296 7.509-12.385 8.324-21.656 8.324-13.77 0-21-6.918-21-20.688 0-9.252 1.107-17.327 8.59-21.629 3.654-2.101 7.892-3.303 12.41-3.303 13.771 0 24.933 11.163 24.933 24.932z" fill="#ff8086"/></g></g><g><g><path d="m214.438 162.948c-1.25 0-2.516-.28-3.709-.877l-16.622-8.311c-4.107-2.053-5.77-7.045-3.717-11.151 2.053-4.103 7.045-5.779 11.151-3.717l16.622 8.311c4.107 2.053 5.77 7.045 3.717 11.151-1.461 2.914-4.39 4.594-7.442 4.594z" fill="#a4ccff"/></g></g><g><g><path d="m297.562 162.948c-3.052 0-5.982-1.68-7.442-4.594-2.053-4.107-.39-9.098 3.717-11.151l16.622-8.311c4.107-2.061 9.09-.386 11.151 3.717 2.053 4.107.39 9.098-3.717 11.151l-16.622 8.311c-1.193.597-2.459.877-3.709.877z" fill="#a4ccff"/></g></g><g><g><path d="m255.992 287.609c-34.12 0-64.092-23.041-72.89-56.033-1.185-4.435 1.453-8.988 5.884-10.173 4.423-1.173 8.984 1.445 10.169 5.888 6.866 25.728 30.232 43.696 56.836 43.696s49.97-17.969 56.836-43.696c1.185-4.435 5.746-7.057 10.169-5.888 4.431 1.185 7.069 5.738 5.884 10.173-8.796 32.992-38.769 56.033-72.888 56.033z" fill="#ff8086"/></g></g><g><g><path d="m265.263 228.481c-13.77 0-24.932-11.163-24.932-24.932 0-4.497 1.176-8.723 3.26-12.366-7.51 4.296-12.523 12.357-12.523 21.629 0 13.77 11.163 24.932 24.932 24.932 9.273 0 17.36-5.058 21.656-12.569-3.643 2.085-7.895 3.306-12.393 3.306z" fill="#e5646e"/></g></g></g></svg>