<svg height="512" viewBox="0 0 60 60" width="512" xmlns="http://www.w3.org/2000/svg"><g id="Page-1" fill="none" fill-rule="evenodd"><g id="041---Disk-Alert" fill-rule="nonzero"><path id="Shape" d="m53 5v40.98l-12.13-20.91c-.3888029-.663993-1.1005493-1.0720164-1.87-1.0720164s-1.4811971.4080234-1.87 1.0720164l-1.96 3.38c-1.7513117-3.536764-5.8201844-5.2679326-9.5828882-4.0771969-3.7627039 1.1907357-6.0948611 4.9475579-5.4926273 8.8479561.6022337 3.9003983 3.9588977 6.7788486 7.9055155 6.7792408.16 0 .31 0 .47-.01l-2.9 5.01h-13.57c-1.6568542 0-3 1.3431458-3 3v5h-4c-2.209139 0-4-1.790861-4-4v-44c0-2.209139 1.790861-4 4-4h5v14c0 2.209139 1.790861 4 4 4h26c2.209139 0 4-1.790861 4-4v-14h5c2.209139 0 4 1.790861 4 4z" fill="#607d8b"/><path id="Shape" d="m11 19h3c-2.209139 0-4-1.790861-4-4v-14h-3v14c0 2.209139 1.790861 4 4 4z" fill="#37474f"/><path id="Shape" d="m49 1h-3c2.209139 0 4 1.790861 4 4v35.809l3 5.171v-40.98c0-2.209139-1.790861-4-4-4z" fill="#37474f"/><path id="Shape" d="m23 19h-9c-2.209139 0-4-1.790861-4-4v-14h9v14c0 2.209139 1.790861 4 4 4z" fill="#37474f"/><path id="Shape" d="m44 1v14c0 2.209139-1.790861 4-4 4h-17c-2.209139 0-4-1.790861-4-4v-14z" fill="#f5f5f5"/><path id="Shape" d="m41 1v14c0 2.209139-1.790861 4-4 4h3c2.209139 0 4-1.790861 4-4v-14z" fill="#cfd8dc"/><path id="Shape" d="m35 9v-2c0-1.1045695.8954305-2 2-2h1c1.1045695 0 2 .8954305 2 2v6c0 1.1045695-.8954305 2-2 2h-1c-1.1045695 0-2-.8954305-2-2z" fill="#37474f"/><path id="Shape" d="m25.57 45-4.64 8h-11.93v-5c0-1.6568542 1.3431458-3 3-3z" fill="#545c60"/><path id="Shape" d="m35.17 28.45-6.69 11.54h-.01c-.16.01-.31.01-.47.01-3.9466178-.0003922-7.3032818-2.8788425-7.9055155-6.7792408-.6022338-3.9003982 1.7299234-7.6572204 5.4926273-8.8479561 3.7627038-1.1907357 7.8315765.5404329 9.5828882 4.0771969z" fill="#cfd8dc"/><path id="Shape" d="m28 24c-.5150017.0008401-1.028719.0514081-1.534.151 2.4697266.4589378 4.5804765 2.051258 5.7 4.3l-6.5 11.2c.7564099.2313373 1.5430051.3489559 2.334.349.16 0 .31 0 .47-.01h.01l6.69-11.54c-1.3497167-2.7257453-4.1283849-4.4503023-7.17-4.45z" fill="#9e9e9e"/><path id="Shape" d="m56.84 59h-35.68c-.7626904.0104015-1.47234-.3891472-1.8589849-1.0466504-.386645-.6575032-.3908499-1.4718889-.0110151-2.1333496l1.64-2.82 4.64-8 2.9-5.01h.01l6.69-11.54 1.96-3.38c.3888029-.663993 1.1005493-1.0720164 1.87-1.0720164s1.4811971.4080234 1.87 1.0720164l12.13 20.91 5.71 9.84c.3798348.6614607.3756299 1.4758464-.0110151 2.1333496-.3866449.6575032-1.0962945 1.0570519-1.8589849 1.0466504z" fill="#ffdc00"/><path id="Shape" d="m58.713 55.823-17.841-30.753c-.3375769-.5702238-.9164915-.9556486-1.5728031-1.0471273-.6563117-.0914788-1.3185569.1209492-1.7991969.5771273.1454685.1399055.2706786.2994474.372.474l17.841 30.749c.3777992.6616658.3722452 1.4750032-.014555 2.1314477-.3868002.6564446-1.0955811 1.055416-1.857445 1.0455523h3c.7618639.0098637 1.4706448-.3891077 1.857445-1.0455523.3868002-.6564445.3923542-1.4697819.014555-2.1314477z" fill="#fec108"/><path id="Shape" d="m39 46c-1.1675722.0321302-2.1674456-.8303528-2.307-1.99l-.681-7.66c-.0334174-.6246681.1968417-1.2346899.63469-1.6814738.4378482-.446784 1.0430943-.6893185 1.66831-.6685262h1.37c.6258986-.0219408 1.2322202.220088 1.6709615.6670069.4387413.446919.6695329 1.0576064.6360385 1.6829931l-.681 7.66c-.1396837 1.1612159-1.1419141 2.0242355-2.311 1.99z" fill="#37474f"/><rect id="Rectangle-path" fill="#37474f" height="4" rx="1" width="4" x="37" y="50"/><g fill="#000"><path id="Shape" d="m5 54h14.188l-.766 1.321c-.5606599.9572834-.5606599 2.1427166 0 3.1.5600529.9821686 1.6063948 1.5858127 2.737 1.579h35.682c1.1317081.0090259 2.1801413-.5935747 2.742-1.576.5602366-.9573982.5602366-2.1426018 0-3.1l-5.583-9.617v-40.707c-.0033061-2.76005315-2.2399468-4.99669388-5-5h-44c-2.76005315.00330612-4.99669388 2.23994685-5 5v44c.00330612 2.7600532 2.23994685 4.9966939 5 5zm5-2v-4c0-1.1045695.8954305-2 2-2h11.83l-3.481 6zm47.85 5.425c-.2072804.3603544-.5933176.5803459-1.009.575h-35.682c-.4156824.0053459-.8017196-.2146456-1.009-.575-.2007171-.339198-.2007171-.760802 0-1.1l17.843-30.754c.2117205-.3544133.594163-.5714354 1.007-.5714354s.7952795.2170221 1.007.5714354l17.841 30.754c.2013342.338833.2021007.7604371.002 1.1zm-29.956-18.431c-3.3796267-.0400284-6.247991-2.489158-6.8171369-5.820757s1.3234917-6.5940632 4.4981627-7.7537797c3.1746711-1.1597166 6.7245948.1145642 8.4369742 3.0285367zm15.106-36.994v13c0 1.6568542-1.3431458 3-3 3h-17c-1.6568542 0-3-1.3431458-3-3v-13zm-41 3c0-1.65685425 1.34314575-3 3-3h4v13c.00330612 2.7600532 2.2399468 4.9966939 5 5h1c.5522847 0 1-.4477153 1-1s-.4477153-1-1-1h-1c-1.6568542 0-3-1.3431458-3-3v-13h7v13c.0033061 2.7600532 2.2399468 4.9966939 5 5h17c2.7600532-.0033061 4.9966939-2.2399468 5-5v-13h4c1.6568542 0 3 1.34314575 3 3v37.259l-10.264-17.692c-.5694329-.9707226-1.6105862-1.5670427-2.736-1.5670427s-2.1665671.5963201-2.736 1.5670427l-1.139 1.963c-2.473272-3.2265039-6.8040578-4.3916655-10.5623926-2.8417231-3.7583347 1.5499425-6.0087885 5.4292164-5.4886518 9.461196s3.6814045 7.2131262 7.7100444 7.7585271l-1.794 3.092h-12.99c-2.209139 0-4 1.790861-4 4v4h-3c-1.65685425 0-3-1.3431458-3-3z"/><circle id="Oval" cx="28" cy="32" r="1"/><path id="Shape" d="m38 14h-1c-.5522847 0-1-.4477153-1-1s-.4477153-1-1-1-1 .4477153-1 1c0 1.6568542 1.3431458 3 3 3h1c1.6568542 0 3-1.3431458 3-3v-6c0-1.65685425-1.3431458-3-3-3h-1c-1.6568542 0-3 1.34314575-3 3v2c0 .55228475.4477153 1 1 1s1-.44771525 1-1v-2c0-.55228475.4477153-1 1-1h1c.5522847 0 1 .44771525 1 1v6c0 .5522847-.4477153 1-1 1z"/><path id="Shape" d="m5 50c.55228475 0 1-.4477153 1-1v-1c0-.5522847-.44771525-1-1-1s-1 .4477153-1 1v1c0 .5522847.44771525 1 1 1z"/><path id="Shape" d="m5 46c.55228475 0 1-.4477153 1-1v-2c0-.5522847-.44771525-1-1-1s-1 .4477153-1 1v2c0 .5522847.44771525 1 1 1z"/><path id="Shape" d="m6 8c.55228475 0 1-.44771525 1-1v-2c0-.55228475-.44771525-1-1-1s-1 .44771525-1 1v2c0 .55228475.44771525 1 1 1z"/><path id="Shape" d="m48 8c.5522847 0 1-.44771525 1-1v-2c0-.55228475-.4477153-1-1-1s-1 .44771525-1 1v2c0 .55228475.4477153 1 1 1z"/><path id="Shape" d="m38.315 33c-.9465794-.0040704-1.8515415.3887448-2.495 1.083-.591776.6349015-.8855654 1.491545-.808 2.356l.681 7.66c.1768175 1.681601 1.6166934 2.9447035 3.307 2.901 1.6873008.0400424 3.1228967-1.2215419 3.3-2.9l.681-7.66c.0775654-.864455-.216224-1.7210985-.808-2.356-.6416311-.6928297-1.5437013-1.0858538-2.488-1.084zm2.685 3.262-.682 7.66c-.0977256.6442444-.6671719 1.1099978-1.318 1.078-.6487581.0283056-1.2145212-.4369827-1.312-1.079l-.688-7.659c-.0244791-.3050359.0812337-.6061902.291-.829.2655944-.2814235.6370772-.4385056 1.024-.433h1.37c.3855373-.0043822.7553522.1526078 1.02.433.2112195.2221343.3184147.523371.295.829z"/><path id="Shape" d="m40 49h-2c-1.1045695 0-2 .8954305-2 2v2c0 1.1045695.8954305 2 2 2h2c1.1045695 0 2-.8954305 2-2v-2c0-1.1045695-.8954305-2-2-2zm-2 4v-2h2v2z"/></g></g></g></svg>