<svg id="Capa_1" enable-background="new 0 0 512 512" height="512" viewBox="0 0 512 512" width="512" xmlns="http://www.w3.org/2000/svg"><g><path d="m365.976 193.42-49.119-6.724c-12.881-1.764-24.07-9.496-29.931-20.685l-21.967-41.931c-3.484-6.649-14.432-6.651-17.916 0l-21.967 41.931c-5.861 11.189-17.05 18.921-29.93 20.685l-49.12 6.724c-7.57 1.037-11.125 8.912-5.637 13.951l35.543 32.64c9.664 8.874 14.055 21.742 11.746 34.422l-8.391 46.086c-1.231 6.763 7.328 12.102 14.578 8.508l43.934-21.759c11.395-5.644 25.004-5.645 36.401-.001l43.934 21.76c7.213 3.57 15.818-1.703 14.578-8.508l-8.391-46.087c-2.308-12.68 2.084-25.547 11.747-34.421l35.543-32.639c5.489-5.039 1.937-12.915-5.635-13.952z"/><path d="m449.704 0h-387.408c-13.785 0-25 11.215-25 25v451.986c0 11.839 5.912 22.781 15.813 29.272 5.805 3.805 12.464 5.742 19.17 5.741 4.732 0 9.488-.965 13.98-2.919l167.747-72.978c1.268-.553 2.721-.553 3.988 0l167.746 72.978c10.859 4.723 23.251 3.668 33.151-2.822 9.901-6.49 15.813-17.433 15.813-29.272v-451.986c0-13.785-11.215-25-25-25zm-57.8 229.47-35.542 32.638c-2.063 1.895-2.982 4.428-2.522 6.951l8.391 46.087c5.653 31.061-27.998 55.336-57.409 40.764l-43.933-21.759c-3.014-1.492-6.759-1.492-9.773 0l-43.936 21.759c-29.448 14.588-63.05-9.778-57.409-40.764l8.391-46.087c.459-2.523-.46-5.057-2.523-6.951l-35.543-32.639c-24.003-22.039-11.159-61.252 21.86-65.772l49.119-6.724c3.282-.449 6.058-2.276 7.425-4.884l21.967-41.931c14.705-28.069 56.361-28.069 71.066 0l21.967 41.931c1.366 2.608 4.143 4.435 7.426 4.884l49.118 6.724c33.001 4.517 45.88 43.716 21.86 65.773z"/></g></svg>