<svg id="Capa_1" enable-background="new 0 0 512.001 512.001" height="512" viewBox="0 0 512.001 512.001" width="512" xmlns="http://www.w3.org/2000/svg"><g><path d="m412.878 409.494-12.256-4.325c-12.139-4.284-21.311-12.973-26.52-23.5l-11.477-8.168 8.854-26.731c1.081-3.29 2.56-6.519 4.46-9.629 12.968-21.231 20.448-46.171 20.448-72.882v-99.097c0-60.303-38.028-111.706-91.407-131.582-5.11-1.903-9.26-5.552-11.824-10.365-4.86-9.119-12.458-16.827-22.134-20.454-12.42-4.656-25.207-3.193-35.467 2.654l-19.555 30.586c-52.962 20.088-91.9 69.157-91.9 129.161v95.418c0 27.77 8.043 54.029 21.9 76.333 15.522 24.983 2.874 58.018-24.862 67.807l-13.53 8.281c-19.81 6.992-33.057 22.21-33.057 43.217v31.009l8.03 23.363c2.583.913 5.362 1.412 8.258 1.412h330.323c13.682 0 24.774-11.092 24.774-24.774v-31.009c0-21.009-13.248-39.733-33.058-46.725z" fill="#e5646e"/><g><g><path d="m256 90.839c-59.291 0-107.355 48.064-107.355 107.355v33.032c0 59.29 48.064 107.355 107.355 107.355 59.29 0 107.355-48.064 107.355-107.355v-33.032c0-59.29-48.064-107.355-107.355-107.355z" fill="#4b3f4e"/></g></g><g><g><path d="m256 107.356c-50.169 0-90.839 40.67-90.839 90.839v33.032c0 50.169 40.67 90.839 90.839 90.839 50.169 0 90.839-40.67 90.839-90.839v-33.032c0-50.17-40.67-90.839-90.839-90.839z" fill="#5d5360"/></g></g><g><g><circle cx="305.549" cy="206.452" fill="#db4655" r="24.774"/></g></g><g><g><path d="m374.102 381.669c-5.265-10.639-6.48-23.155-2.623-34.899-25.796 35.02-67.44 57.876-114.586 57.876-32.732 0-62.778-11.051-86.733-29.517-5.849-4.509-9.083-11.448-9.573-18.816-.656-9.865-3.693-19.502-9.045-28.116-12.701-20.442-19.413-43.824-19.413-67.617v-92.192c0-52.946 33.11-98.838 81.735-119.788.338-.146.674-.296 1.008-.45 11.557-5.335 18.809-17.103 19.957-29.781.37-4.092.683-8.383.713-11.489l.013-1.465c-6.64 3.794-12.256 9.448-15.987 16.445l-.635 1.191c-2.712 5.088-7.316 8.782-12.706 10.827-52.961 20.088-90.613 71.28-90.613 131.283v95.418c0 27.77 8.043 54.029 21.901 76.334 15.521 24.983 2.873 58.017-24.862 67.806l-13.53 4.775c-19.81 6.992-33.057 25.716-33.057 46.723v31.009c0 10.771 6.916 19.95 16.516 23.362v-54.371c0-14.005 8.832-26.488 22.039-31.149l11.341-4.003c12.37-4.366 23.486-11.941 31.472-22.142 2.762-3.528 7.761-4.061 11.387-1.43 27.546 19.985 61.373 31.926 98.074 31.926 45.651.001 87.043-18.259 117.207-47.75z" fill="#db4655"/></g></g><g><g><circle cx="206.452" cy="206.452" fill="#db4655" r="24.774"/></g></g><g><g><circle cx="206.452" cy="206.452" fill="#e5646e" r="8.258"/></g></g><g><g><circle cx="305.549" cy="206.452" fill="#e5646e" r="8.258"/></g></g></g></svg>