<svg id="Capa_1" enable-background="new 0 0 512 512" height="512" viewBox="0 0 512 512" width="512" xmlns="http://www.w3.org/2000/svg"><g><path d="m437.687 412.37-332.369-9.306c-9.373 11.715-14.479 26.271-14.479 41.273v42.888c0 13.682 11.092 24.774 24.774 24.774h305.548c13.682 0 24.774-11.092 24.774-24.774v-42.891c.001-11.25-2.859-22.226-8.248-31.964z" fill="#dad8db"/><g><g><path d="m431.46 403.066-18.554-23.195h-313.805l-18.557 23.194c-9.373 11.715-14.479 26.271-14.479 41.274v42.888c0 13.682 11.092 24.774 24.774 24.774h24.774v-60.958c0-4.568 3.709-8.268 8.277-8.258l1.788.023c2.624 0 6.872 0 9.174 1.118 1.886.916 5.706 5.939 8.233 9.263 6.088 8.006 13.665 17.968 26.006 21.637 3.034.902 6.277 1.359 9.639 1.359 8.196 0 15.908-2.686 22.713-5.056 4.492-1.564 9.584-3.337 12.508-3.337.188 0 .372.006.554.032 2.081.293 7.273 4.001 10.708 6.455 8.076 5.769 18.127 12.948 30.787 12.948s22.711-7.179 30.787-12.948c3.435-2.454 8.626-6.162 10.709-6.455.181-.026.366-.032.553-.032 2.924 0 8.016 1.773 12.508 3.337 6.805 2.37 14.518 5.056 22.714 5.056 3.361 0 6.604-.458 9.639-1.359 12.341-3.669 19.918-13.632 26.006-21.638 2.528-3.324 6.348-8.346 8.233-9.263 2.301-1.118 8.448-1.118 11.072-1.118l2.451.008 2.6.009c9.561 0 20.524-.567 29.624-7.34 8.229-6.125 12.158-14.861 14.791-23.113-1.799-3.256-3.879-6.37-6.227-9.305z" fill="#c8c5c9"/></g></g><path d="m422.146 374.527c-16.99-17.077-27.638-39.624-29.893-63.863l-18.956-203.771c-5.633-60.573-56.463-106.893-117.297-106.893-28.052 0-53.976 9.849-74.323 26.403l-14.677 35.597 1 379c12.621 3.751 35.136.739 48.81 2.667 13.065 1.842 25.399 16.667 39.19 16.667s26.125-13.825 39.19-15.667c13.674-1.927 30.393 10.085 43.014 6.333 13.27-3.944 21.075-24.929 32.88-30.667l17.045 5.957c9.292-.003 18.753.522 24.906-4.057 8.37-6.23 9.739-19.709 13.479-30.261 2.168-6.118.211-12.843-4.368-17.445z" fill="#eceaec"/><path d="m198.194 165.161v15.632c0 8.227 5.622 15.853 13.742 17.174.938.153 1.865.226 2.774.226l8.665-28.193-8.375-11.125z" fill="#ffc250"/><path d="m280.774 165.161v15.632c0 8.227 5.622 15.853 13.742 17.174.938.153 1.865.227 2.774.227l8.876-19.694-11.833-19.667z" fill="#ffc250"/><g><g><path d="m256 239.5c-31.925 0-57.806 12-57.806 33.016v23.889c0 8.227 5.622 15.853 13.742 17.175 10.347 1.684 19.29-6.259 19.29-16.29 0-13.682 11.092-24.774 24.774-24.774h.885c13.194 0 23.889 10.696 23.889 23.889 0 8.227 5.622 15.853 13.742 17.175.938.153 1.864.226 2.773.226l6.96-16.516v-29.624c.001-13.682-16.324-28.166-48.249-28.166z" fill="#ffc250"/></g></g><g><g><path d="m305.548 148.645h-8.258c-9.121 0-16.516 7.394-16.516 16.516 9.122 0 16.516 7.395 16.516 16.516v16.517c9.113-.01 16.516-7.401 16.516-16.517v-24.774c0-4.561-3.697-8.258-8.258-8.258z" fill="#ffa95f"/></g></g><g><g><path d="m231.226 165.161c0-9.122-7.395-16.516-16.516-16.516h-8.258c-4.561 0-8.258 3.697-8.258 8.258v8.258c9.121 0 16.516 7.394 16.516 16.516v16.515c9.113-.01 16.516-7.399 16.516-16.515z" fill="#ffa95f"/></g></g><g><g><path d="m256 231.226c-31.925 0-57.806 11.092-57.806 24.774v16.516c0-13.682 25.881-24.774 57.806-24.774 7.425 0 14.519.602 21.036 1.696 11.785 1.98 20.254 12.437 20.254 24.387v39.975c9.113-.01 16.516-7.394 16.516-16.51v-41.29c0-13.682-25.881-24.774-57.806-24.774z" fill="#ffa95f"/></g></g><g><g><path d="m362.71 414.215c-8.971 4.36-14.876 12.126-20.087 18.977-2.483 3.265-7.104 9.341-9.352 9.96-2.609 0-7.519-1.71-11.851-3.219-6.965-2.425-14.859-5.174-23.37-5.174-1.755 0-3.492.119-5.164.355-10.09 1.422-18.169 7.193-25.297 12.284-3.31 2.364-9.472 6.766-11.586 6.795-2.116-.029-8.278-4.43-11.588-6.795-7.129-5.091-15.207-10.862-25.298-12.285-1.672-.235-3.409-.355-5.163-.355-.085 0-.171.001-.259.002-17.373.288-32.015-12.709-32.015-30.085v-378.271c-23.738 19.345-39.943 47.881-42.976 80.489l-18.956 203.771c-2.255 24.238-12.903 46.786-29.892 63.862-4.579 4.602-6.536 11.328-4.367 17.447 3.74 10.551 5.109 24.031 13.479 30.261 10.495 7.811 30.617.767 43.105 6.836 11.805 5.737 18.457 25.979 31.726 29.923 2.477.736 5.142.695 7.881.368v.052c10.255-1.23 21.944-8.139 32.274-8.139.966 0 1.919.061 2.859.194 13.066 1.842 25.399 19.241 39.19 19.241s26.124-17.399 39.19-19.241c.939-.133 1.894-.194 2.859-.194 11.328 0 24.314 8.393 35.222 8.393 1.7 0 3.348-.204 4.933-.674 13.27-3.945 19.921-24.186 31.726-29.923 5.166-2.511 11.641-2.776 18.2-2.778 0-9.935-9.498-17.18-19.058-14.48-2.149.606-4.279 1.39-6.365 2.403z" fill="#dad8db"/></g></g></g></svg>