<svg id="Capa_1" enable-background="new 0 0 512 512" height="512" viewBox="0 0 512 512" width="512" xmlns="http://www.w3.org/2000/svg"><g><path d="m403.506 256.282-7.464-124.39c-4.445-74.086-65.823-131.892-140.042-131.892-50.544 0-95.2 26.977-119.907 67.48l58.907 312.391 61-1.604 90.839 1.604c34.323-28.975 59.583-74.984 56.667-123.589z" fill="#c3ddff"/><g><g><path d="m181.677 99.097v-18.156c0-24.69-32.737-34.545-45.585-13.461-11.532 18.926-18.721 40.837-20.135 64.412l-7.464 124.39c-2.916 48.605 22.344 94.614 56.667 123.589l90.84-1.603v-163.558z" fill="#a4ccff"/></g></g><g><g><path d="m399.385 396.474-71.798-25.34c-13.207-4.661-22.039-17.144-22.039-31.149v-20.037l-92.048-22.658v42.694c0 14.005-10.793 30.855-24 35.516l-63.5 21c-14.931 5.27-28.157 10.583-40.5 20.5l-11.177 4.161 57.81 74.323h247.739l66.064-74.323-20.803-12.539c-8.149-4.911-16.776-8.982-25.748-12.148z" fill="#dbeaff"/></g></g><g><g><path d="m447.754 394.14c12.588-5.755 26.247 5.599 22.89 19.027l-20.017 80.068c-2.757 11.028-12.666 18.765-24.035 18.765h-104.527l-77.935-24.775z" fill="#edf4ff"/></g></g><g><g><path d="m127.177 408.847 62.732-22.139c19.81-6.991 33.058-25.716 33.058-46.724 0-7.156 6.428-12.439 13.488-11.276 6.362 1.047 12.883 1.615 19.544 1.615 17.629 0 34.367-3.738 49.548-10.376v-22.657h-99.097v42.694c0 14.005-8.832 26.488-22.038 31.149l-62.738 22.143c-14.929 5.269-28.86 13.026-41.201 22.943l-6.151 4.943h27.736c7.88-5.007 16.256-9.185 25.119-12.315z" fill="#c3ddff"/></g></g><g><g><path d="m256 312.542c-59.291 0-89-46.8-89-106.09v-74.323l14.677-33.032h148.645c18.243 0 33.032 14.789 33.032 33.032v74.323c0 53.583-39.256 97.997-90.576 106.051-5.466.858-11.07.039-16.778.039z" fill="#edf4ff"/></g></g><g><g><path d="m181.677 206.452v-107.355c-18.243 0-33.032 14.789-33.032 33.032v74.323c0 59.29 48.065 107.355 107.355 107.355 5.632 0 11.381-.468 16.778-1.303-51.428-7.964-91.101-52.394-91.101-106.052z" fill="#dbeaff"/></g></g><g><g><path d="m206.452 207.169c-4.565 0-8.258-3.698-8.258-8.258v-8.258c0-4.56 3.694-8.258 8.258-8.258s8.258 3.698 8.258 8.258v8.258c0 4.561-3.694 8.258-8.258 8.258z" fill="#a4ccff"/></g></g><g><g><path d="m305.548 207.169c-4.565 0-8.258-3.698-8.258-8.258v-8.258c0-4.56 3.694-8.258 8.258-8.258s8.258 3.698 8.258 8.258v8.258c0 4.561-3.693 8.258-8.258 8.258z" fill="#a4ccff"/></g></g><g><g><path d="m214.71 173.419h-16.516c-4.565 0-8.258-3.698-8.258-8.258s3.694-8.258 8.258-8.258h16.516c4.565 0 8.258 3.698 8.258 8.258s-3.694 8.258-8.258 8.258z" fill="#dbeaff"/></g></g><g><g><path d="m313.806 173.419h-16.516c-4.565 0-8.258-3.698-8.258-8.258s3.694-8.258 8.258-8.258h16.516c4.565 0 8.258 3.698 8.258 8.258s-3.693 8.258-8.258 8.258z" fill="#dbeaff"/></g></g><g><g><path d="m256 66.065-24.774 33.032 24.774 49.548 24.773-49.548z" fill="#fff"/></g></g><g><g><path d="m231.226 99.097-24.774 33.032-24.775-33.032 24.775-24.774z" fill="#fff"/></g></g><g><g><path d="m330.323 99.097-24.775 33.032-24.774-33.032 24.774-24.774z" fill="#fff"/></g></g><g><g><path d="m272.516 256h-33.032c-4.565 0-8.258-3.698-8.258-8.258s3.694-8.258 8.258-8.258h33.032c4.565 0 8.258 3.698 8.258 8.258s-3.693 8.258-8.258 8.258z" fill="#dbeaff"/></g></g><g><g><path d="m64.246 394.14c-12.588-5.755-26.247 5.599-22.89 19.027l20.017 80.068c2.757 11.028 12.667 18.765 24.035 18.765h236.657z" fill="#c3ddff"/></g></g><g><g><path d="m256 396.387c-25.315 0-48.718-14.815-59.629-37.742-1.96-4.121-.21-9.044 3.911-11.004 4.129-1.964 9.048-.206 11.008 3.907 8.185 17.206 25.734 28.323 44.71 28.323s36.524-11.117 44.71-28.323c1.968-4.113 6.879-5.883 11.008-3.907 4.121 1.96 5.871 6.883 3.911 11.004-10.911 22.928-34.315 37.742-59.629 37.742z" fill="#edf4ff"/></g></g><g><g><path d="m250.161 385.71-14.376 14.376c-2.679 2.68-3.192 6.839-1.242 10.088l14.376 23.959c3.207 5.346 10.955 5.346 14.162 0l14.376-23.959c1.95-3.249 1.438-7.409-1.242-10.088l-14.376-14.376c-3.225-3.225-8.453-3.225-11.678 0z" fill="#fff"/></g></g></g></svg>