<svg id="Capa_1" enable-background="new 0 0 512 512" height="512" viewBox="0 0 512 512" width="512" xmlns="http://www.w3.org/2000/svg"><g><g><g><path d="m482.807 99.097h-82.581l-16.516-16.516 16.516-16.516h82.581c4.561 0 8.258 3.697 8.258 8.258v16.516c0 4.561-3.698 8.258-8.258 8.258z" fill="#d19a6e"/></g></g><g><g><path d="m29.263 66.065c-5.002 0-8.95 4.435-8.246 9.387 4.558 32.04 32.103 56.677 65.403 56.677h57.806v-66.064z" fill="#e5646e"/></g></g><g><g><path d="m301.129 132.129h90.839c4.561 0 8.258-3.697 8.258-8.258v-57.806h-99.097z" fill="#dad8db"/></g></g><path d="m292.871 328.301v-20.841l-109.087-18.428v39.269c0 10.99-7.24 27.691-17.784 30.792l95 94.907 43.029-105c-6.833-4.495-11.158-12.205-11.158-20.699z" fill="#f5ebcd"/><g><g><path d="m177.258 289.032v39.269c0 8.553-4.403 16.286-11.332 20.745l2.011 10.047 7.935 3.041c8.99-6.223 15.317-15.831 17.267-26.698.856-4.768 3.314-9.094 7.223-11.955 3.888-2.845 8.764-4.17 13.505-3.316 6.896 1.242 13.977 1.899 21.197 1.899 20.782 0 40.457-5.337 57.806-14.604v-18.428z" fill="#f4dbb3"/></g></g><path d="m397.691 377.668-60.916-17.916s-66.19 54.376-94.105 72.056c-2.375 1.505-5.042 2.257-7.71 2.257s-5.336-.752-7.71-2.257c-25.896-16.404-50.098-39.848-72.302-69.843l-103.948 33.702-7 91.559 9.387 23.364c2.583.913 5.363 1.41 8.259 1.41h346.839c13.682 0 24.774-11.092 24.774-24.774v-62.023c-.001-21.98-14.481-41.333-35.568-47.535z" fill="#ffa95f"/><g><g><path d="m346.549 165.161h-4.129v-90.838h-197.92l.417 132.129c4.23 55.419 33.645 98.048 90.147 98.048 5.679 0 11.254.607 16.693-.243 48.674-7.607 86.44-47.957 90.245-97.805h4.546c11.402 0 20.645-9.243 20.645-20.645.001-11.403-9.242-20.646-20.644-20.646z" fill="#faf5dc"/></g></g><g><g><path d="m127.71 74.323v90.839h-2.95c-10.799-.001-20.641 7.77-21.717 18.515-1.238 12.358 8.433 22.775 20.538 22.775h4.546c4.23 55.419 50.435 99.097 106.938 99.097 5.649 0 11.282-.45 16.693-1.291-51.454-7.941-91.015-52.387-91.015-106.064v-66.065c0-18.243 14.789-33.032 33.032-33.032h49.775c6.877 5.121 15.314 8.258 24.547 8.258 6.781 0 13.084-1.791 18.728-4.687 10.937 8.101 24.417 12.945 39.078 12.945 5.714 0 11.228-.801 16.516-2.165v-39.125z" fill="#f5ebcd"/></g></g><path d="m375.452 49.548c0-27.364-22.184-49.548-49.549-49.548h-115.612c-50.874 0-85.513 23.109-81.624 62l15.559 50.171c0-18.243 14.789-33.032 33.032-33.032h69.798c4.373 7.022 12.159 11.699 21.041 11.699 8.004 0 15.117-3.799 19.646-9.688 9.088 10.962 22.808 17.946 38.16 17.946l-.001 49.548c0 9.122 7.395 16.517 16.516 16.517h4.13c2.233 0 4.108.401 4.108.401l5.924-77.12c11.489-9.073 18.872-23.117 18.872-38.894z" fill="#6f6571"/><g><g><path d="m260.532 247.742c-2.097 0-4.194-.79-5.798-2.379-2.75-2.714-9.371-5.879-18.976-5.879-9.613 0-16.226 3.165-18.968 5.875-3.25 3.202-8.476 3.177-11.677-.073-3.21-3.242-3.177-8.472.065-11.677 6.75-6.661 18.177-10.641 30.581-10.641 12.387 0 23.823 3.976 30.573 10.637 3.25 3.202 3.282 8.431.081 11.677-1.614 1.637-3.752 2.46-5.881 2.46z" fill="#f4dbb3"/></g></g><g><g><path d="m207.871 151.065c-3.226-3.226-8.452-3.226-11.677 0l-6.548 6.548-6.548-6.548c-3.226-3.226-8.452-3.226-11.677 0-3.226 3.226-3.226 8.452 0 11.677l6.548 6.548-6.548 6.548c-3.226 3.226-3.226 8.452 0 11.677 1.613 1.613 3.726 2.419 5.839 2.419s4.226-.806 5.839-2.419l6.548-6.548 6.548 6.548c1.613 1.613 3.726 2.419 5.839 2.419s4.226-.806 5.839-2.419c3.226-3.226 3.226-8.452 0-11.677l-6.548-6.548 6.548-6.548c3.224-3.226 3.224-8.452-.002-11.677z" fill="#5d5360"/></g></g><g><g><path d="m292.855 169.29 6.548-6.548c3.226-3.226 3.226-8.452 0-11.677-3.226-3.226-8.452-3.226-11.677 0l-6.548 6.548-6.548-6.548c-3.226-3.226-8.452-3.226-11.677 0-3.226 3.226-3.226 8.452 0 11.677l6.548 6.548-6.548 6.548c-3.226 3.226-3.226 8.452 0 11.677 1.613 1.613 3.726 2.419 5.839 2.419s4.226-.806 5.839-2.419l6.548-6.548 6.548 6.548c1.613 1.613 3.726 2.419 5.839 2.419s4.226-.806 5.839-2.419c3.226-3.226 3.226-8.452 0-11.677z" fill="#5d5360"/></g></g><path d="m310.655 352.069c-2.395-.705-4.618-1.747-6.626-3.069-21.306 29.434-44.456 52.302-69.069 68.133-20.811-13.385-40.593-31.83-59.087-54.999l-42.699-2.33-60.735 17.863c-21.087 6.202-35.568 25.555-35.568 47.535v62.023c0 10.771 6.916 19.949 16.516 23.363v-85.387c0-14.548 9.75-27.581 23.71-31.686l66.289-19.5c22.972 30.57 48.112 54.696 75.017 71.738 4.976 3.157 10.702 4.827 16.557 4.827s11.581-1.669 16.548-4.823c30.959-19.607 59.589-48.594 85.267-86.007z" fill="#ff8b5a"/><g><g><path d="m165.927 349.047c-1.971 1.277-4.113 2.334-6.452 3.022l-26.301 7.735c3.355 4.887 6.766 9.612 10.221 14.209l20.743-6.102c4.307-1.267 8.174-3.29 11.736-5.777-3.393-4.245-6.644-8.526-9.947-13.087z" fill="#ff7350"/></g></g><g><g><path d="m210.291 0h-34.355c-39.085 0-69.625 33.747-65.736 72.638l9.336 93.138s2.569-.615 5.225-.615h2.949c9.121 0 16.516-7.394 16.516-16.516l.001-41.291v-41.29c-.001-36.486 29.577-66.064 66.064-66.064z" fill="#5d5360"/></g></g></g></svg>