<svg width="800" height="600" xmlns="http://www.w3.org/2000/svg">
 <!-- Created with Method Draw - http://github.com/duopixel/Method-Draw/ -->

 <g>
  <title>Layer 1</title>
  <path id="svg_4" d="m612.14405,414.79542c-39.71342,68.4919 -113.59578,114.67387 -198.52309,114.82788c-126.86292,-0.22002 -229.41375,-102.79285 -229.65577,-229.58976c0.24202,-126.86292 102.79285,-229.41375 229.65577,-229.65577c84.90531,0.15401 158.76567,46.31399 198.50109,114.80588l87.1715,50.25233l3.14627,1.80416c-28.84448,-133.11146 -147.10466,-232.86805 -288.81886,-232.91205c-163.32006,0.044 -295.66145,132.3854 -295.68345,295.70546c0.044,163.25405 132.3854,295.59545 295.68345,295.63945c141.7362,-0.044 260.04039,-99.8446 288.81886,-232.97806l-3.10227,1.78215l-87.19351,50.31833zm94.91617,-114.76188l-157.31354,-90.84582l0,50.53835l-241.47079,0l0,80.54893l241.47079,0l0,50.53835l157.31354,-90.77981z" fill-opacity="null" stroke-opacity="null" stroke-width="1.5" stroke="null" fill="#000000"/>
 </g>
</svg>