<svg xmlns="http://www.w3.org/2000/svg" data-name="Layer 1" viewBox="0 0 100 125" x="0px" y="0px"><title>Artboard 114</title><path d="M18.26,48.53A20.91,20.91,0,0,0,6.7,64.33a20.87,20.87,0,0,0-.22,3.35l.1,2.87Q7.06,81.86,8,93.16H8c.06.47.83.84,1.77.84s1.71-.37,1.77-.85V93q1-11.31,1.45-22.61c.05-.91.06-2,.14-2.76a13.34,13.34,0,0,1,.32-2.27,16.1,16.1,0,0,1,1.62-4.22,15.21,15.21,0,0,1,6.5-6,13.92,13.92,0,0,1,4.27-1.31,18.16,18.16,0,0,1,2.33-.19l2.83-.06,11.31-.37c6.9-.3,13.81-.76,20.71-1.34A128.47,128.47,0,0,0,52.85,64.46h0c-.12.21.3.88,1,1.55s1.34,1.08,1.54,1l.06,0a128,128,0,0,0,17-14.3h0a3.71,3.71,0,0,0,0-5.24,127.39,127.39,0,0,0-17.11-14.3c-.19-.14-.85.27-1.51.93s-1.07,1.32-.93,1.51l0,0A129.12,129.12,0,0,0,63.08,48.14c-6.95-.58-13.9-1-20.85-1.34l-11.31-.38-2.83-.05a24,24,0,0,0-3.33.19A20.14,20.14,0,0,0,18.26,48.53Z"/><path d="M92.9,89.08a12,12,0,0,0,.43-2.72l0-2,0-3.84.13-30.67L93.4,19.16l0-3.84a14.58,14.58,0,0,0-.61-4.88,11.51,11.51,0,0,0-7.6-7.37,11.3,11.3,0,0,0-2.69-.45c-1-.05-1.39,0-2.12,0l-3.83.05-7.67.12-30.66.6a10.67,10.67,0,0,0-8.62,4.23,10.34,10.34,0,0,0-1.92,4.54,25.73,25.73,0,0,0-.07,4.24L28,31.72h0C28.1,33,28.87,34,29.81,34s1.71-1,1.77-2.28v-.36l.46-15.32.05-1.92a5.4,5.4,0,0,1,.2-1.38,5.63,5.63,0,0,1,1.27-2.34,5.7,5.7,0,0,1,5-1.77l30.66.6,7.67.11c2.48.12,5.56-.15,6.46.37a4.49,4.49,0,0,1,2.78,3.09,3.76,3.76,0,0,1,.14,1.06v1.8l0,3.84L86.1,50.18l.13,30.67c0,2.41.22,5.66-.15,6.55a4.58,4.58,0,0,1-2.93,3,8.67,8.67,0,0,1-2.8.25l-3.83.05-7.67.12-30.66.62a5.58,5.58,0,0,1-4.81-2C32.12,88,32,86.48,32,83.62l-.46-15.33C31.5,67,30.74,66,29.81,66s-1.69,1-1.72,2.28v.36L27.61,84l-.05,1.92a11.12,11.12,0,0,0,.21,2.41,10.34,10.34,0,0,0,2.12,4.44,10.58,10.58,0,0,0,4,3,11.71,11.71,0,0,0,4.7.88l30.67.62,7.66.11,3.84,0a13,13,0,0,0,4.92-.61A11.48,11.48,0,0,0,92.9,89.08Z"/></svg>