<svg width="800" height="600" xmlns="http://www.w3.org/2000/svg">
 <!-- Created with Method Draw - http://github.com/duopixel/Method-Draw/ -->

 <g>
  <title>Layer 1</title>
  <path id="svg_5" d="m418.89837,0.53907c-134.11635,0 -247.52867,87.13279 -286.62631,207.44735l72.07156,0c35.93484,-82.56444 118.23504,-140.41527 214.55476,-140.59354c129.29364,0.22285 233.91291,104.15822 234.11479,232.58438c-0.20188,128.44844 -104.82116,232.38381 -234.11479,232.60666c-96.31972,-0.15599 -178.64235,-58.05138 -214.57719,-140.63811l-72.04913,0c39.12007,120.31456 152.50996,207.46963 286.64875,207.5142c166.41733,-0.04457 301.4085,-134.06416 301.43093,-299.46046c-0.04486,-165.41859 -135.03603,-299.41589 -301.45336,-299.46046zm-93.06719,391.38444l160.38333,-91.94626l-160.38333,-92.01312l0,51.18773l-246.1828,0l0,81.58392l246.1828,0l0,51.18773z" fill-opacity="null" stroke-opacity="null" stroke-width="1.5" stroke="null" fill="#000000"/>
  <path id="svg_6" d="m963.36067,334.58007c-0.02989,0 -0.05517,0.01955 -0.06389,0.04654l0.01606,0c0.00801,-0.01852 0.02635,-0.0315 0.04782,-0.03154c0.02882,0.00005 0.05214,0.02337 0.05218,0.05218c-0.00004,0.02882 -0.02336,0.05214 -0.05218,0.05219c-0.02147,-0.00003 -0.03982,-0.01302 -0.04783,-0.03155l-0.01606,0c0.00872,0.02699 0.03399,0.04655 0.06389,0.04656c0.03709,-0.00001 0.06718,-0.03008 0.06719,-0.06719c-0.00001,-0.03711 -0.0301,-0.06718 -0.06719,-0.06719zm-0.02074,0.08781l0.03575,-0.02063l-0.03575,-0.02064l0,0.01148l-0.05487,0l0,0.0183l0.05487,0l0,0.01148z" fill-opacity="null" stroke-opacity="null" stroke-width="1.5" stroke="null" fill="#000000"/>
  <path id="svg_7" d="m658.64144,416.66771c-0.02989,0 -0.05517,0.01955 -0.06389,0.04654l0.01606,0c0.00801,-0.01852 0.02635,-0.0315 0.04782,-0.03154c0.02882,0.00005 0.05214,0.02337 0.05218,0.05218c-0.00004,0.02882 -0.02336,0.05214 -0.05218,0.05219c-0.02147,-0.00003 -0.03982,-0.01302 -0.04783,-0.03155l-0.01606,0c0.00872,0.02699 0.03399,0.04655 0.06389,0.04656c0.03709,-0.00001 0.06718,-0.03008 0.06719,-0.06719c-0.00001,-0.03711 -0.0301,-0.06718 -0.06719,-0.06719zm-0.02074,0.08781l0.03575,-0.02063l-0.03575,-0.02064l0,0.01148l-0.05487,0l0,0.0183l0.05487,0l0,0.01148z" fill-opacity="null" stroke-opacity="null" stroke-width="1.5" stroke="null" fill="#000000"/>
  <path id="svg_8" d="m632.52266,444.03026c-0.02989,0 -0.05517,0.01955 -0.06389,0.04654l0.01606,0c0.00801,-0.01852 0.02635,-0.0315 0.04782,-0.03154c0.02882,0.00005 0.05214,0.02337 0.05218,0.05218c-0.00004,0.02882 -0.02336,0.05214 -0.05218,0.05219c-0.02147,-0.00003 -0.03982,-0.01302 -0.04783,-0.03155l-0.01606,0c0.00872,0.02699 0.03399,0.04655 0.06389,0.04656c0.03709,-0.00001 0.06718,-0.03008 0.06719,-0.06719c-0.00001,-0.03711 -0.0301,-0.06718 -0.06719,-0.06719zm-0.02074,0.08781l0.03575,-0.02063l-0.03575,-0.02064l0,0.01148l-0.05487,0l0,0.0183l0.05487,0l0,0.01148z" fill-opacity="null" stroke-opacity="null" stroke-width="1.5" stroke="null" fill="#000000"/>
 </g>
</svg>