<svg id="Capa_1" enable-background="new 0 0 512 512" height="512" viewBox="0 0 512 512" width="512" xmlns="http://www.w3.org/2000/svg"><g><path d="m418.626 369.41-38.569-11.344-12.64.268-5.661-5.65-19.556-5.752-14.856 2.1-2.509-8.375c-2.569-1.714-4.779-3.884-6.531-6.38l-9.72-3.776 5.223-12.328v-18.26l-102.807 2.587-14.5 44-103.126 30-24.874 20-5.5 84.5 11.323 29.591c2.583.913 5.362 1.409 8.257 1.409h62.347l18.073-8.333 5.88 8.333h25.598l15.356-5.167 8.596 5.167h210.989c13.682 0 24.774-11.092 24.774-24.774v-70.281c.001-21.98-14.48-41.333-35.567-47.535z" fill="#5d5360"/><g><g><path d="m331.59 343.811c-2.444-.719-4.716-1.795-6.756-3.155l-68.834 65.559-56.774-54.071c4.214-3.445 7.729-7.681 10.335-12.449 14.726 4.508 30.254 7.144 46.439 7.144 22.096 0 43.114-4.473 62.303-12.562-2.861-4.071-4.497-8.997-4.497-14.233v-1.871c-17.721 7.77-37.251 12.151-57.806 12.151-14.437 0-28.279-2.353-41.413-6.373.505-3.109 2.147-5.942 4.38-8.183l.386-.387c3.409-3.423 8.304-4.717 13.049-3.811 7.653 1.462 15.538 2.238 23.598 2.238 20.756 0 40.406-5.019 57.806-13.894v-35.654h-115.612v55.785c0 10.99-7.24 20.666-17.784 23.768l-87.036 25.597c-21.087 6.202-35.568 25.555-35.568 47.535v70.281c0 10.771 6.916 19.954 16.516 23.366v-93.649c0-14.652 9.653-27.552 23.71-31.685l85.586-25.167 60.405 57.53-99.096 94.379h23.953l173.32-165.069z" fill="#4b3f4e"/></g></g><g><g><path d="m256 296.25c-56.416 0-91-69.917-94-97.45l-8.843-79.59 28.521-99.434c17.462-12.424 38.862-19.776 62.137-19.776h24.37c62.775 0 111.877 53.534 107.038 115.612l-6.14 8.304 4.365 8.212-7.408 66.672c-5.596 50.364-44.403 89.715-93.129 97.203-5.521.848-11.169.247-16.911.247z" fill="#6f6571"/></g></g><g><g><path d="m272.516 247.742h-33.032c-4.565 0-8.258-3.694-8.258-8.258s3.694-8.258 8.258-8.258h33.032c4.565 0 8.258 3.694 8.258 8.258s-3.693 8.258-8.258 8.258z" fill="#5d5360"/></g></g><g><g><path d="m181.677 99.613v-79.837c-30.513 21.738-49.054 58.996-44.561 99.434l8.843 79.589c6.23 56.071 53.624 98.491 110.04 98.491 5.681 0 11.446-.457 16.911-1.288-51.519-7.884-91.234-52.344-91.234-106.067v-40.269l156.903-17.538h34.867l1.435-12.919c.135-1.21.25-2.394.344-3.597h-177.55c-8.834.001-15.998-7.163-15.998-15.999z" fill="#5d5360"/></g></g><g><g><path d="m173.419 132.129v33.032c0 18.243 14.789 33.032 33.032 33.032h99.097c18.243 0 33.032-14.789 33.032-33.032v-33.032z" fill="#4b3f4e"/></g></g><g><g><path d="m206.452 173.419c-4.565 0-8.258-3.694-8.258-8.258v-8.258c0-4.565 3.694-8.258 8.258-8.258s8.258 3.694 8.258 8.258v8.258c0 4.565-3.694 8.258-8.258 8.258z" fill="#a4ccff"/></g></g><g><g><path d="m305.548 173.419c-4.565 0-8.258-3.694-8.258-8.258v-8.258c0-4.565 3.694-8.258 8.258-8.258s8.258 3.694 8.258 8.258v8.258c0 4.565-3.693 8.258-8.258 8.258z" fill="#a4ccff"/></g></g><g><g><path d="m194.477 512h23.953l161.626-153.934-18.3-5.383z" fill="#6f6571"/></g></g></g></svg>