
<svg xmlns="http://www.w3.org/2000/svg" viewBox="0 0 170 170"><rect stroke="#000000" stroke-width="1.5" x="66" y="102.6" width="38" height="44" fill="#8c8580"/><path fill="#000000" opacity="0.12" d="M66,107.4c6.4,5.2,13.4,11.2,19.5,11.2c11.3,0,18.5-6.6,18.5-6.6l0-9.5H66V107.4z"/><path stroke="#000000" stroke-width="1.5" d="M85,34.4c18.5,3.4,39.6,11.8,34,40.7c-2.1,10.6-5.4,24-8.6,26.9c-8,7.1-18.2,14.6-25.4,14.6c-7.2,0-17.4-7.4-25.4-14.6C56.3,99.1,53,85.7,51,75.1C45.4,46.2,68.3,31.3,85,34.4z" fill="#8c8580"/><path fill="#000000" opacity="0.18" d="M101.6,90.6c0,0.5-0.4,0.9-0.9,0.9c-0.5,0-0.9-0.4-0.9-0.9s0.4-0.9,0.9-0.9C101.2,89.7,101.6,90.1,101.6,90.6z M67.8,95.8c-0.4,0-0.8,0.3-0.8,0.8s0.3,0.8,0.8,0.8s0.8-0.3,0.8-0.8S68.2,95.8,67.8,95.8z M69.4,92.2c-0.6,0-1.2,0.5-1.2,1.2c0,0.6,0.5,1.2,1.2,1.2s1.2-0.5,1.2-1.2C70.5,92.8,70,92.2,69.4,92.2z M55,71.7c-0.9,0-1.7,0.8-1.7,1.7c0,0.9,0.8,1.7,1.7,1.7s1.7-0.8,1.7-1.7C56.7,72.5,55.9,71.7,55,71.7z M56.1,76.1c-0.6,0-1.1,0.5-1.1,1.1c0,0.6,0.5,1.1,1.1,1.1s1.1-0.5,1.1-1.1C57.2,76.6,56.7,76.1,56.1,76.1z M75.6,46.6c-0.9,0-1.6,0.7-1.6,1.6c0,0.9,0.7,1.6,1.6,1.6c0.9,0,1.6-0.7,1.6-1.6C77.2,47.3,76.5,46.6,75.6,46.6z M72.6,49.8c-0.6,0-1,0.5-1,1c0,0.6,0.5,1,1,1c0.6,0,1-0.5,1-1C73.7,50.3,73.2,49.8,72.6,49.8z M74.9,52.6c-0.4,0-0.7,0.3-0.7,0.7s0.3,0.7,0.7,0.7c0.4,0,0.7-0.3,0.7-0.7S75.3,52.6,74.9,52.6z M103.9,91.5c-0.5,0-0.9,0.4-0.9,0.9s0.4,0.9,0.9,0.9s0.9-0.4,0.9-0.9S104.4,91.5,103.9,91.5z M108.1,98.4c-0.7,0-1.3,0.6-1.3,1.3s0.6,1.3,1.3,1.3s1.3-0.6,1.3-1.3S108.9,98.4,108.1,98.4z M105.8,87.8c-0.7,0-1.2,0.5-1.2,1.2c0,0.7,0.5,1.2,1.2,1.2c0.7,0,1.2-0.5,1.2-1.2C107,88.4,106.5,87.8,105.8,87.8z"/><path fill="none" stroke="#000000" stroke-width="0.75" stroke-linecap="round" opacity="0.2" d="M100.8,104.9c-1.7-9.8-6.1-7.6-10.7-14.2 M89.1,110.6c0,0-5.6,2.2-9.3-1.6 M109.3,68.1c-6.1-10.2-11.6-3.8-20.1-8 M80.9,60c-8.5,4.3-14-2.2-20.1,8 M79.9,90.6c-4.6,6.6-9,4.4-10.7,14.2"/><path fill="#000000" stroke="#000000" stroke-width="0.75" d="M93.7,99.8c1.7,1.7-1,4.9-5.9,3.1c-4.4-1.6-5-0.3-6.7-1.3c-2.5-1.4,1.3-5.9,5.9-3.8C90.3,99.3,92,98.1,93.7,99.8z"/><path fill="#7A5A77" stroke="#000000" stroke-width="0.5" d="M94.3,100.9c-2.1-2.6-4.7-0.6-4.7-0.6c-3.4-1.1-4.2,1.8-4.2,1.8c4.8,1.5,4.4,2,6.4,3.9C94.7,108.9,98.6,106.2,94.3,100.9z"/><path fill="#7A5A77" stroke="#000000" stroke-width="0.5" opacity="0.45" d="M89.5,100.3c0,0,2.6,0.9,4,3.5"/><path fill="url(#EyeshadowGradient)" d="M107.6,78.7c0,5.9-5.3,8-11.4,8S85,81.8,85,75.9c0-5.9,5-10.8,11.2-10.8S107.6,72.7,107.6,78.7z M62.4,78.7c0,5.9,5.3,8,11.4,8S85,81.8,85,75.9c0-5.9-5-10.8-11.2-10.8S62.4,72.7,62.4,78.7z"/><circle fill="#D8BCBC" cx="74.8" cy="75.3" r="9.2"/><circle fill="#D8BCBC" cx="95.1" cy="75.3" r="9.2"/><path fill="#FFFFFF" opacity="0.2" d="M65.7,75.3c0,6.8,7.2,11,12.7,8.5c-4.9,0.6-10-2.2-10.8-6.5c-1.3-6.8,3.6-11.1,8-11.1C71.9,65.5,65.7,68.7,65.7,75.3z"/><path fill="#FFFFFF" opacity="0.2" d="M85.9,75.3c0,6.8,7.2,11,12.7,8.5c-4.9,0.6-10-2.2-10.8-6.5c-1.3-6.8,3.6-11.1,8-11.1C92.2,65.5,85.9,68.7,85.9,75.3z"/><circle fill="none" stroke="#000000" stroke-width="0.3" cx="74.8" cy="75.3" r="9.2"/><circle fill="none" stroke="#000000" stroke-width="0.3" cx="95.1" cy="75.3" r="9.2"/><path fill="#681C1C" d="M79.3,72.6c-0.8,0-1.4-0.6-1.4-1.4c0-0.6,0.4-1.1,0.9-1.3c-0.2-0.1-0.4-0.1-0.6-0.1c-1.3,0-2.4,1.1-2.4,2.4c0,1.3,1.1,2.4,2.4,2.4c1.3,0,2.4-1.1,2.4-2.4c0-0.2,0-0.4-0.1-0.6C80.4,72.2,79.9,72.6,79.3,72.6z"/><path fill="#681C1C" d="M92.7,75.6c-0.8,0-1.4-0.6-1.4-1.4c0-0.6,0.4-1.1,0.9-1.3c-0.2-0.1-0.4-0.1-0.6-0.1c-1.4,0-2.4,1.1-2.4,2.4c0,1.3,1.1,2.4,2.4,2.4c1.3,0,2.4-1.1,2.4-2.4c0-0.2,0-0.4-0.1-0.6C93.8,75.2,93.3,75.6,92.7,75.6z"/><path d="M-18.25-25" fill="#000000"/><path stroke="#000000" stroke-width="1.5" fill="url(#ShirtGradient-1-Shirt-Shirt)" d="M113.1,110.5c-4,0.9-8.6,0-8.6,0c-3.1,7.7-7.8,9.6-19.5,13.1c-11,3.3-16.4-5.4-19.5-13.1H57c-7.4,0-15.2,4.5-13.5,13.5c0.7,3.5,0,10.2,0,10.2c0,3.6,1.6,7.4,1.6,7.4s1.7-0.4,2.5-2.7c1.1,1.4,1.4,3.2,1.4,3.2s2.1-1.3,3.4-3.9l1.3,15.8c0,0.9,0.8,1.7,1.7,1.7h59c0.9,0,1.7-0.8,1.7-1.7l1.6-15.8c3.3-0.3,6.1-1.2,8.9-4c0,0-2.1-2.9,0-10.2C128.9,115.6,122.5,108.4,113.1,110.5z"/><path fill="#492f1d" opacity="0.12" d="M62.4,121.8c0,1.4-2.6,2.9-4.3,8.9c-1.4,5-2.7-7.3-2.7-8.8c0-1.4,0.7-5.4,2.6-2.6C59.8,122.2,62.4,120.4,62.4,121.8z M60.3,128.5c-2.3,2.3-0.3,7.1,0.2,3.7C61.1,128.7,62.6,126.2,60.3,128.5z M94.8,146.5c-3.6,2.9-3.7,3.1-3.6,4c0.2,0.9,3,0.5,5.2-1c2.2-1.5,3.3-0.3,4.1-1.4C101.4,146.9,98.5,143.6,94.8,146.5z M119.4,129.5c0.2,1.8-1.4,2.4-3.5,3.2s2.1,5.9,7-2.1C124.8,127.3,119.2,127.7,119.4,129.5z M116.2,127.2c-0.9,0-1.7,0.7-1.7,1.7c0,0.9,0.7,1.7,1.7,1.7c0.9,0,1.7-0.7,1.7-1.7C117.9,128,117.1,127.2,116.2,127.2z M106,113.6c-0.5-2.5-1.3,2.6-3.3,3.5s-6.5,7.3-4,5.2c1.6-1.2,1.6-2.6,4.5-3.9C104.8,117.6,106.5,116.1,106,113.6z M72.4,124.2c-7.1-4.7-6.8-10.8-7.2-8.6c-1,4.8,5,16,5,27c0,7.9,3.9-3.3,4.6-7.6c1.2-7,10.4-6.8,12.4-9.2C89.1,123.6,79.5,128.9,72.4,124.2z M77.4,136.9c-0.6-1.2-2-0.4-2,1.8C75.3,141,70.2,149,72,148C73.9,147.1,78,138.3,77.4,136.9z M94.6,130.8c-0.5,4.3-3.8,2.5-5.2,6.3c-1.4,3.8,5.2-2.7,10.3,0.4s7.3-3.4,3.8-4.6C100,131.6,95.4,125,94.6,130.8z"/><path stroke="#2c302c" stroke-width="1" stroke-linecap="round" fill="none" d="M48.6,80.3c0.6-4.6-2.8-4.8-3.6-7.2c-1.5-4.7,0.5-10,2.6-13.9c3.4-6.3-2.6-10.1,4.1-16.3s11.7,0.4,17.4-3.3 M119.4,41.8c-4.2-2.2-4.5,2.8-10.3-1.3c-4.3-3.1-7.7-7.1-10.2-6.7c-4.8,0.8-5.9-1.5-9.4-1.5c-3.7,0-2.4,2.1-7.7,5.5 M126.3,63.3c-2.5-2.1-2.9-7-2.7-9c0.4-3.8-3.6-3.4-6.4-5.7c-3-2.5,0-7.2-3.6-8.3c-3.3-1-4.6-3.6-7.6-3.5c-3.4,0.1-3.8,0-8.6,4 M121.8,88.4c-3.6-4.9,0.6-7.6,0-12.4c-0.9-6.9,3.8-8.2,1.8-11.1c-3.5-5.1,0.7-14-9.9-11.7 M62.5,45.2c-11.4-3.3-10.1,4.4-17.2,11.6c-2.5,2.6,3.6,8.7,2.6,15.5 M75.8,38.8c-4.7-3.2-0.5-9.1-9.2-5.2c-5.1,2.2-7.8-2.4-9.8,3.2"/><linearGradient id="HairGradient" x1="0%" x2="0%" y1="100%" y2="0%"><stop offset="0%" stop-color="#000000"/><stop offset="100%" stop-color="#000000"/></linearGradient><linearGradient id="EyeshadowGradient" x1="0%" x2="0%" y1="100%" y2="0%"><stop offset="0%" stop-color="#000000" stop-opacity="0.65"/><stop offset="100%" stop-color="#000000" stop-opacity="0.75"/></linearGradient><linearGradient id="ShirtGradient-1-Shirt-Shirt" x1="0%" x2="0%" y1="100%" y2="0%"><stop offset="0%" stop-color="#9ca38b"/><stop offset="100%" stop-color="#b7bfa6"/></linearGradient></svg>