<svg id="Capa_1" enable-background="new 0 0 512 512" height="512" viewBox="0 0 512 512" width="512" xmlns="http://www.w3.org/2000/svg"><g><path d="m308.883 446.989c32.713 12.184 60.078 35.348 77.626 65.011h-261.025c17.549-29.664 44.917-52.829 77.632-65.013" fill="#ffd064"/><path d="m232.902 446.991c-14.287 12.186-26.247 35.342-33.911 65.009h-73.507c17.553-29.667 44.922-52.823 77.638-65.009z" fill="#ffc250"/><path d="m308.887 446.991-52.885 65.009-38.124-46.859-14.761-18.15c6.788-2.534 13.803-4.584 21.014-6.129v-55.234h63.742v55.234c7.211 1.545 14.226 3.595 21.014 6.129z" fill="#ffddce"/><path d="m224.131 385.628v42.574 12.66c-7.211 1.545-14.226 3.595-21.014 6.129l14.761 18.15c12.897-12.886 29.193-10.507 29.193-10.507v-43.923h18.449c7.654 0 15.132-.773 22.353-2.235v-22.847h-63.742z" fill="#ffcbbe"/><path d="m114.336 232.092-17.054-117.015c-5.509-37.801 14.45-74.735 49.09-90.839 69.508-32.315 149.733-32.315 219.242-.002l.005.002c34.64 16.104 54.6 53.038 49.091 90.839l-17.054 117.014-8.558 42.552-268.538-1.756" fill="#365e7d"/><path d="m255.995 0c-11.31 0-22.621 8.086-33.128 24.238-9.312 14.329-15.101 45.128-15.101 78.369 0 4.131.082 8.303.268 12.474l5.161 117.008-58.05 40.811-40.808-40.811-17.049-117.007c-.608-4.192-.906-8.364-.906-12.505 0-33.22 19.191-64.01 49.99-78.339 34.755-16.152 72.189-24.238 109.623-24.238z" fill="#2b4d66"/><g fill="#ffcbbe"><circle cx="114.339" cy="272.901" r="40.806"/><circle cx="397.661" cy="272.901" r="40.806"/></g><g fill="#eaac9d"><path d="m136.418 284.718c-2.796 0-5.508-1.476-6.964-4.092-2.498-4.493-6.793-6.986-13.128-7.622-5.184-.521-9.671.501-9.714.511-4.272 1.046-8.58-1.564-9.627-5.833-1.048-4.269 1.563-8.58 5.833-9.627.712-.175 7.188-1.686 15.1-.89 11.575 1.163 20.375 6.6 25.449 15.724 2.137 3.842.754 8.688-3.088 10.825-1.224.68-2.552 1.003-3.861 1.004z"/><path d="m375.581 284.718c-1.31 0-2.636-.324-3.862-1.005-3.841-2.137-5.224-6.983-3.087-10.825 5.075-9.124 13.875-14.561 25.45-15.724 7.909-.795 14.387.715 15.1.89 4.269 1.048 6.881 5.358 5.833 9.627-1.046 4.258-5.34 6.866-9.594 5.841-.158-.036-4.812-1.087-10.127-.479-6.132.702-10.302 3.182-12.749 7.582-1.456 2.617-4.168 4.092-6.964 4.093z"/></g><path d="m338.864 160.162-26.154-53.978-13.349 53.978h-164.587v116.007c0 61.694 50.013 111.707 111.707 111.707h19.038c61.694 0 111.707-50.013 111.707-111.707v-116.007z" fill="#ffddce"/><path d="m292.506 384.59c-8.632 2.153-17.676 3.286-26.978 3.286h-19.046c-61.692 0-111.703-50.011-111.703-111.703v-116.009h72.982v116.009c-.001 52.39 36.073 96.365 84.745 108.417z" fill="#ffcbbe"/><g fill="#2b4d66"><path d="m198.422 231.938c-7.454 0-13.517 8.308-13.517 18.52s6.063 18.52 13.517 18.52 13.518-8.308 13.518-18.52-6.064-18.52-13.518-18.52z"/><path d="m313.577 231.938c-7.454 0-13.517 8.308-13.517 18.52s6.063 18.52 13.517 18.52 13.518-8.308 13.518-18.52-6.064-18.52-13.518-18.52z"/></g><path d="m215.801 218.359c-1.977 0-3.955-.754-5.463-2.263-6.131-6.129-16.103-6.129-22.233 0-3.017 3.017-7.909 3.017-10.927 0-3.017-3.018-3.017-7.909.001-10.927 12.153-12.154 31.932-12.154 44.085 0 3.018 3.017 3.018 7.909.001 10.927-1.51 1.508-3.488 2.263-5.464 2.263z" fill="#365e7d"/><path d="m330.523 218.359c-1.977 0-3.955-.754-5.463-2.263-6.131-6.129-16.103-6.129-22.233 0-3.017 3.017-7.909 3.017-10.927 0-3.017-3.018-3.017-7.909.001-10.927 12.153-12.154 31.932-12.154 44.085 0 3.018 3.017 3.018 7.909.001 10.927-1.509 1.508-3.487 2.263-5.464 2.263z" fill="#365e7d"/><path d="m256 314.991c-14.266 0-27.074-9.541-31.149-23.201-1.219-4.089 1.108-8.393 5.196-9.612 4.086-1.219 8.392 1.106 9.613 5.196 2.136 7.162 8.855 12.164 16.34 12.164 7.494 0 14.212-4.999 16.338-12.156 1.215-4.091 5.517-6.422 9.606-5.207 4.091 1.215 6.423 5.516 5.207 9.606-4.058 13.666-16.868 23.21-31.151 23.21z" fill="#eaa598"/></g></svg>