<svg xmlns="http://www.w3.org/2000/svg" xmlns:xlink="http://www.w3.org/1999/xlink" version="1.1" x="0px" y="0px" viewBox="0 0 32 40" style="enable-background:new 0 0 32 32;" xml:space="preserve"><style type="text/css">
	.st0{fill:#000000;}
</style><path d="M9.24467,29.90527c0.0293,0.00293,0.05957,0.00488,0.08887,0.00488c0.375,0,0.69824-0.28027,0.74414-0.66211  c0.13574-1.14453,0.60156-2.35059,1.38477-3.58301c0.60461-0.95233,1.34491-1.84576,2.12018-2.74469  c0.7442,0.27618,1.55573,0.40582,2.30463,0.40582c0.36426,0,0.71192-0.02539,1.02442-0.07031  c0.54584-0.0777,1.06396-0.26715,1.55426-0.51892c0.20349,0.24091,0.43048,0.4436,0.63324,0.61951L19.231,23.4707  c1.43457,1.26074,2.41699,3.06934,2.69434,4.96094c0.05469,0.37207,0.375,0.64062,0.74121,0.64062  c0.03613,0,0.07324-0.00293,0.11035-0.00781c0.40918-0.06055,0.69238-0.44141,0.63281-0.85156  c-0.3291-2.2373-1.49121-4.37695-3.18848-5.86914l-0.14062-0.12207c-0.13678-0.11835-0.26892-0.23346-0.38-0.34814  c1.14624-1.05176,1.94263-2.57935,2.07825-4.27002c0.08496-1.0459-0.07227-1.96533-0.4668-2.73145  c-0.46191-0.89795-1.24707-1.53662-2.13379-1.74951c-0.05664-0.0957-0.13574-0.18066-0.23535-0.24561  c-1.53516-1.00146-3.64356-0.78027-5.93555,0.62305c-1.94531,1.18945-2.47949,2.77002-2.58594,3.88672  c-0.18652,1.9707,0.81152,3.85254,1.81738,4.76758c0.00647,0.00592,0.01508,0.00903,0.02161,0.01489  c-0.74304,0.86798-1.45947,1.73895-2.0636,2.69116c-0.90527,1.4248-1.44629,2.84082-1.60938,4.21191  C8.53862,29.4834,8.83256,29.85645,9.24467,29.90527z M11.91459,17.52832c0.10742-1.12842,0.73828-2.05322,1.87598-2.74902  c0.71875-0.43945,1.87988-1.02246,2.98438-1.02246c0.47266,0,0.93457,0.10693,1.34766,0.37598  c0.00781,0.00488,0.01465,0.00928,0.02148,0.01367c0.10547,0.21484,0.31152,0.37549,0.56641,0.41211  c0.50195,0.07275,0.98828,0.45557,1.26758,0.99951c0.26562,0.51416,0.36816,1.16162,0.30566,1.92432  c-0.15039,1.87891-1.53223,3.99707-3.58301,4.28906c-1.35156,0.19141-2.77246-0.10645-3.45215-0.72656  C12.48588,20.35156,11.78276,18.9209,11.91459,17.52832z"/><path d="M15.37358,17.50391c-0.06738-0.40918-0.46094-0.68066-0.8623-0.61816l-1.56738,0.25781  c-0.4082,0.06641-0.68555,0.45215-0.61914,0.86133c0.06055,0.36719,0.37793,0.62891,0.73926,0.62891  c0.04004,0,0.08105-0.00293,0.12207-0.00977l1.56934-0.25781C15.16362,18.29883,15.44096,17.91309,15.37358,17.50391z"/><path d="M16.98491,18.57812c0.46973-0.00879,0.93262,0.08008,1.35449,0.28223c0.10449,0.05078,0.21484,0.07422,0.32324,0.07422  c0.28027,0,0.54785-0.15723,0.67676-0.42578c0.17969-0.37305,0.02246-0.82129-0.35156-1  c-0.64062-0.30859-1.35156-0.46582-2.05957-0.42871c-0.41406,0.01562-0.7373,0.36426-0.7207,0.77734  C16.22221,18.27246,16.58549,18.62988,16.98491,18.57812z"/><path d="M15.94389,3.60352c0.26758-0.02148,0.53809-0.01758,0.8125,0.00537l-0.10938,0.09277  c-0.32031,0.26562-0.80469,0.66699-0.85742,1.32715c-0.02344,0.30371,0.05762,0.56201,0.11816,0.75684l0.32129,1.01172  c0.10059,0.31982,0.39648,0.52441,0.71484,0.52441c0.07422,0,0.15039-0.01123,0.22559-0.03467  c0.39551-0.12451,0.61426-0.5459,0.48926-0.94092l-0.32129-1.01465c-0.01953-0.06396-0.0498-0.15967-0.05664-0.16309  c0.0293-0.06836,0.21387-0.2207,0.32324-0.31201l0.20117-0.16992c0.39355-0.35156,0.63574-0.87842,0.61719-1.3418  c-0.01367-0.36426-0.17871-0.68408-0.46289-0.90039c-0.21973-0.16699-0.45703-0.22656-0.65918-0.26318  c-0.48438-0.08691-0.98047-0.1123-1.47363-0.07275c-0.41309,0.03223-0.72168,0.39355-0.68945,0.80664  C15.17045,3.32764,15.53959,3.63672,15.94389,3.60352z"/><path d="M17.11088,9.03418C16.89994,9.24219,16.73393,9.5,16.63139,9.7793c-0.14258,0.38916,0.05664,0.81982,0.44629,0.9624  c0.08496,0.03125,0.17188,0.0459,0.25781,0.0459c0.30566,0,0.59277-0.18799,0.7041-0.4917  c0.02637-0.07275,0.06934-0.13965,0.12402-0.19336c0.29492-0.29053,0.29883-0.76562,0.00781-1.06055  C17.88041,8.74658,17.4058,8.74365,17.11088,9.03418z"/><text x="0" y="47" fill="#000000" font-size="5px" font-weight="bold" font-family="'Helvetica Neue', Helvetica, Arial-Unicode, Arial, Sans-serif">Created by Valerie Lamm</text><text x="0" y="52" fill="#000000" font-size="5px" font-weight="bold" font-family="'Helvetica Neue', Helvetica, Arial-Unicode, Arial, Sans-serif">from the Noun Project</text></svg>