<svg xmlns="http://www.w3.org/2000/svg" viewBox="0 0 170 170"><rect stroke="#101010" stroke-width="1.5" x="66.4" y="96.1" width="38" height="44.6" fill="#f2c897"/><path fill="#000000" opacity="0.14" d="M67.4,108.4c6.4,5.2,12.7,10.5,18.3,10.5h0c5.5,0,12.4-1.6,18.7-6.6v-5.1c-6.3,4.9-12,9-18.7,9.2C78.9,116.6,67.4,108.4,67.4,108.4z"/><path stroke="#101010" stroke-width="1.5" d="M85.4,34.4c18.4,0,39.6,11.8,34,40.7c-2.1,10.6-5.4,24-8.6,26.9c-8,7.1-18.2,14.6-25.4,14.6c-7.2,0-17.4-7.4-25.4-14.6c-3.2-2.9-6.5-16.3-8.6-26.9C45.8,46.2,67,34.4,85.4,34.4z" fill="#f2c897"/><path fill="none" stroke="#000000" stroke-width="1.3" stroke-linecap="round" d="M80.8,99c0,0,0.7,1.6,4.6,1.6S90,99,90,99"/><circle fill="#FFFFFF" cx="75.3" cy="75.3" r="9.2"/><circle fill="#FFFFFF" cx="95.5" cy="75.3" r="9.2"/><path fill="#CDECFC" opacity="0.65" d="M66.1,75.3c0,6.8,7.2,11,12.7,8.5c-4.9,0.6-10-2.2-10.8-6.5c-1.3-6.8,3.6-11.1,8-11.1C72.3,65.5,66.1,68.7,66.1,75.3z"/><path fill="#CDECFC" opacity="0.65" d="M86.4,75.3c0,6.8,7.2,11,12.7,8.5c-4.9,0.6-10-2.2-10.8-6.5c-1.3-6.8,3.6-11.1,8-11.1C92.6,65.5,86.4,68.7,86.4,75.3z"/><circle fill="none" stroke="#B0B0B0" stroke-width="0.3" cx="75.3" cy="75.3" r="9.2"/><circle fill="none" stroke="#B0B0B0" stroke-width="0.3" cx="95.5" cy="75.3" r="9.2"/><path fill="#000000" d="M76.3,75.6c-0.8,0-1.4-0.6-1.4-1.4c0-0.6,0.4-1.1,0.9-1.3c-0.2-0.1-0.4-0.1-0.6-0.1c-1.3,0-2.4,1.1-2.4,2.4c0,1.3,1.1,2.4,2.4,2.4s2.4-1.1,2.4-2.4c0-0.2,0-0.4-0.1-0.6C77.4,75.2,76.9,75.6,76.3,75.6z"/><path fill="#000000" d="M96.6,75.6c-0.8,0-1.4-0.6-1.4-1.4c0-0.6,0.4-1.1,0.9-1.3c-0.2-0.1-0.4-0.1-0.6-0.1c-1.4,0-2.4,1.1-2.4,2.4c0,1.3,1.1,2.4,2.4,2.4c1.3,0,2.4-1.1,2.4-2.4c0-0.2,0-0.4-0.1-0.6C97.7,75.2,97.2,75.6,96.6,75.6z"/><path fill="#542d09" d="M106.8,66.3c0,0-5.6-2.6-9.3-3c-4.4-0.6-7.2,0-8.2-0.2c-1-0.1-1.2-1.6,0-1.9c1.3-0.2,4.1-0.3,8.1,0.2C102,62.2,106.8,66.3,106.8,66.3z M81.6,61.2c-1.3-0.2-4.1-0.3-8.1,0.2c-4.7,0.8-9.5,4.9-9.5,4.9s5.6-2.6,9.3-3c4.4-0.6,7.2,0,8.2-0.2C82.5,63,82.8,61.5,81.6,61.2z"/><path stroke="#101010" stroke-width="1.5" fill="url(#ShirtGradient-1-Shirt-Shirt)" d="M113.4,110.5h-8.6c-3.1,7.7-10.7,13.1-19.5,13.1c-8.8,0-16.4-5.4-19.5-13.1h-8.5c-7.4,0-13.5,6-13.5,13.5v10.2c2.7,2.1,5.6,3.7,8.9,4l1.3,15.8c0,0.9,0.8,1.7,1.7,1.7h59c0.9,0,1.7-0.8,1.7-1.7l1.6-15.8c3.3-0.3,6.2-2,8.9-4v-10.2C126.9,116.5,120.9,110.5,113.4,110.5z"/><path stroke="#542d09" stroke-width="1" stroke-miterlimit="50" fill="url(#HairGradient)" d="M109.6,100.1c-6.2,5.6-13.2,11-17.3,12.4c-5,1.7-6.8-4.2-6.8-4.2s-1.7,5.9-6.8,4.2c-4.2-1.4-11.2-6.8-17.3-12.4C57.2,96.2,52.9,81,52.9,81s2.1,15.1,5.9,20.4c3.3,4.6,20.5,16.2,20.5,16.2c3.3-0.2,6.3,2,6.3,2c0,0,3-2.2,6.3-2c0,0,17.2-11.6,20.5-16.2c3.7-5.3,5.9-20.4,5.9-20.4S113.9,96.2,109.6,100.1z"/><path stroke="#542d09" stroke-width="1.5" stroke-miterlimit="50" fill="url(#HairGradient)" d="M51.8,78.7c-5.2-21.9,0.5-32.2,1.2-35.1c0.7-2.9-3.7-6-3.7-6c2.8-0.6,6.1,1.1,6.1,1.1s0-2.7-2.7-4.1c5.9-0.5,8.2,1.4,8.2,1.4s5.9-3.2,12.9-4.1c10-1.2,16.9,0.2,19.7,0.8c2.8,0.6,6.3,2.4,12-0.8c-1,1.8,0,2.3,0,2.3s1.7-1,5.9-2c-2.2,2.7-1,3.3-1,3.3s2.3-1.5,6.2-1.7c0,0-3.3,2.3-3,4.7c0.2,1.9,3,4.5,4.9,8.5c1.8,4,4.8,14.4,0.3,31.6c-0.2-13.6-2.2-24.3-6-28.1c-2.3-2.2-8.2-4.5-8.2-4.5s-1.6,3-6.1,2.3c3.4-3.1,2.1-4,2.1-4s-14.8,4-25.9-0.2c-4.7-1.8-13.7,3-16.2,6.8C56.5,54.1,54.4,60.1,51.8,78.7z"/><linearGradient id="HairGradient" x1="0%" x2="0%" y1="100%" y2="0%"><stop offset="0%" stop-color="#784c20"/><stop offset="100%" stop-color="#835428"/></linearGradient><linearGradient id="ShirtGradient-1-Shirt-Shirt" x1="0%" x2="0%" y1="100%" y2="0%"><stop offset="0%" stop-color="#9e0e1e"/><stop offset="100%" stop-color="#bb3333"/></linearGradient></svg>