<svg id="Capa_1" enable-background="new 0 0 512 512" height="512" viewBox="0 0 512 512" width="512" xmlns="http://www.w3.org/2000/svg"><g><g><g><g><g><g><path d="m498.164 164.999-111.168-41.597v106.385h125.004v-44.838c0-8.885-5.515-16.836-13.836-19.95z" fill="#cf0e50"/></g><g><path d="m13.836 348.33 111.168 41.597v-121.837h-125.004v60.29c0 8.885 5.515 16.837 13.836 19.95z" fill="#cf0e50"/></g></g><g><path d="m265.186 43.93 21.141-8.754c8.97-3.715 19.295-1.661 26.161 5.204l16.182 16.178c4.502 4.501 10.607 7.03 16.973 7.03l22.882.002c9.709.001 18.462 5.849 22.178 14.819l8.759 21.139c2.437 5.881 7.109 10.554 12.991 12.991l21.139 8.759c8.97 3.716 14.818 12.469 14.819 22.178l.002 22.882c.001 6.366 2.529 12.471 7.03 16.973l16.178 16.182c6.865 6.866 8.918 17.191 5.204 26.161l-8.754 21.141c-2.436 5.882-2.436 12.49 0 18.371l8.754 21.141c3.715 8.97 1.661 19.295-5.204 26.161l-16.178 16.182c-4.501 4.502-7.03 10.607-7.03 16.973l-.002 22.882c-.001 9.709-5.849 18.462-14.819 22.178l-21.139 8.759c-5.881 2.437-10.554 7.109-12.991 12.99l-8.759 21.139c-3.716 8.97-12.469 14.818-22.178 14.819l-22.882.002c-6.366.001-12.471 2.529-16.973 7.03l-16.182 16.178c-6.866 6.865-17.191 8.918-26.161 5.204l-21.141-8.754c-5.882-2.436-12.49-2.436-18.371 0l-21.141 8.754c-8.97 3.715-19.295 1.661-26.161-5.204l-16.182-16.178c-4.502-4.501-10.607-7.03-16.973-7.03l-22.882-.002c-9.709-.001-18.462-5.849-22.178-14.819l-8.759-21.139c-2.437-5.881-7.109-10.554-12.991-12.99l-21.139-8.759c-8.97-3.716-14.818-12.469-14.819-22.178l-.002-22.882c-.001-6.366-2.529-12.471-7.03-16.973l-16.178-16.182c-6.865-6.866-8.918-17.191-5.204-26.161l8.754-21.141c2.436-5.882 2.436-12.49 0-18.371l-8.754-21.141c-3.715-8.97-1.661-19.295 5.204-26.161l16.178-16.182c4.501-4.502 7.03-10.607 7.03-16.973l.002-22.882c.001-9.709 5.849-18.462 14.819-22.178l21.139-8.759c5.881-2.437 10.554-7.109 12.991-12.991l8.759-21.139c3.716-8.97 12.469-14.818 22.178-14.819l22.882-.002c6.366-.001 12.471-2.529 16.973-7.03l16.182-16.178c6.866-6.865 17.191-8.918 26.161-5.204l21.141 8.754c5.881 2.436 12.489 2.436 18.371 0z" fill="#fcb44d"/><g fill="#fb9927"><path d="m471.617 312.485-16.174 16.184c-4.502 4.502-7.026 10.611-7.036 16.977v22.88c0 1.679-.175 3.327-.515 4.935-20.892 4.914-42.382 7.428-63.892 7.428-49.542 0-98.289-13.186-140.991-38.117-34.82-20.336-74.595-31.091-115.009-31.091-25.827 0-51.396 4.389-75.564 12.867l-12.053-12.063c-6.871-6.861-8.921-17.184-5.202-26.156l8.746-21.139c2.442-5.882 2.442-12.496 0-18.378l-8.746-21.139c-3.719-8.973-1.669-19.295 5.202-26.156l2.184-2.184c27.526-8.818 56.454-13.382 85.433-13.382 49.541 0 98.289 13.186 140.991 38.117 34.82 20.346 74.595 31.091 115.009 31.091 30.627 0 60.884-6.171 88.905-18.018l-4.832 11.672c-2.442 5.882-2.442 12.496 0 18.378l8.746 21.139c3.719 8.971 1.669 19.294-5.202 26.155z"/><path d="m476.819 286.328c3.721 8.971 1.671 19.294-5.203 26.156l-16.177 16.189c-4.492 4.492-7.028 10.607-7.028 16.971v22.874c0 9.718-5.855 18.465-14.826 22.186l-21.132 8.759c-5.878 2.43-10.56 7.111-12.989 12.989l-8.759 21.132c-3.721 8.971-12.468 14.826-22.186 14.826h-22.874c-6.364 0-12.48 2.536-16.972 7.028l-16.189 16.177c-6.862 6.874-17.185 8.924-26.156 5.203l-21.143-8.747c-5.878-2.441-12.492-2.441-18.37 0l-21.143 8.747c-8.972 3.721-19.294 1.671-26.156-5.203l-8.746-8.734c1.292-.273 2.56-.664 3.804-1.185l19.697-8.154c5.475-2.264 11.638-2.264 17.114 0l19.686 8.154c8.367 3.461 17.979 1.552 24.379-4.847l15.063-15.075c4.195-4.184 9.884-6.542 15.81-6.542h21.321c9.043 0 17.197-5.452 20.657-13.807l8.154-19.686c2.275-5.487 6.625-9.837 12.1-12.1l19.698-8.166c8.355-3.461 13.807-11.615 13.807-20.657v-21.309c0-5.938 2.358-11.626 6.542-15.81l15.075-15.075c6.388-6.4 8.308-16.012 4.847-24.367l-8.154-19.698c-2.275-5.475-2.275-11.638 0-17.114l8.154-19.698c3.461-8.355 1.541-17.967-4.847-24.367l-15.075-15.075c-4.184-4.184-6.542-9.872-6.542-15.81v-21.309c0-9.043-5.452-17.197-13.807-20.657l-19.698-8.166c-5.475-2.264-9.825-6.613-12.1-12.1l-8.155-19.686c-3.461-8.355-11.615-13.807-20.657-13.807h-21.321c-5.926 0-11.615-2.358-15.81-6.542l-15.063-15.075c-6.4-6.4-16.011-8.308-24.379-4.847l-19.686 8.154c-5.475 2.264-11.638 2.264-17.114 0l-19.697-8.154c-1.244-.521-2.513-.913-3.804-1.185l8.746-8.734c6.862-6.874 17.185-8.924 26.156-5.203l21.143 8.747c5.878 2.441 12.492 2.441 18.37 0l21.143-8.747c8.972-3.721 19.294-1.671 26.156 5.203l16.189 16.177c4.492 4.492 10.607 7.028 16.972 7.028h22.874c9.718 0 18.465 5.855 22.186 14.826l8.759 21.132c2.429 5.878 7.111 10.56 12.989 12.989l21.132 8.759c8.971 3.721 14.826 12.468 14.826 22.186v22.874c0 6.364 2.536 12.48 7.028 16.971l16.177 16.189c6.874 6.862 8.924 17.185 5.203 26.156l-8.747 21.143c-2.441 5.878-2.441 12.492 0 18.37z"/></g></g><g><g><path d="m225.036 95.519 14.272-10.33c6.056-4.383 14.156-4.687 20.523-.771l15.007 9.23c4.175 2.568 9.199 3.372 13.967 2.237l17.139-4.081c7.272-1.732 14.872 1.087 19.256 7.142l10.333 14.27c2.875 3.97 7.208 6.636 12.048 7.412l17.396 2.788c7.382 1.183 13.324 6.695 15.057 13.967l4.085 17.138c1.137 4.768 4.12 8.889 8.295 11.458l15.005 9.233c6.367 3.918 9.748 11.284 8.566 18.666l-2.784 17.397c-.775 4.84.405 9.79 3.278 13.76l10.33 14.272c4.383 6.056 4.687 14.156.771 20.523l-9.23 15.007c-2.568 4.175-3.372 9.199-2.237 13.967l4.082 17.139c1.732 7.272-1.087 14.872-7.142 19.256l-14.27 10.333c-3.97 2.875-6.636 7.208-7.412 12.048l-2.788 17.396c-1.183 7.382-6.695 13.324-13.967 15.057l-17.138 4.085c-4.768 1.137-8.889 4.12-11.458 8.295l-9.233 15.005c-3.918 6.367-11.284 9.748-18.666 8.566l-17.397-2.784c-4.84-.775-9.79.405-13.76 3.278l-14.272 10.33c-6.056 4.383-14.156 4.687-20.523.771l-15.007-9.23c-4.175-2.568-9.199-3.372-13.967-2.237l-17.139 4.082c-7.272 1.732-14.872-1.087-19.256-7.142l-10.333-14.27c-2.875-3.97-7.208-6.636-12.048-7.412l-17.396-2.788c-7.382-1.183-13.324-6.695-15.057-13.967l-4.085-17.138c-1.137-4.768-4.12-8.889-8.295-11.458l-15.005-9.233c-6.367-3.918-9.748-11.284-8.566-18.666l2.784-17.397c.775-4.84-.405-9.79-3.278-13.76l-10.33-14.272c-4.383-6.056-4.687-14.156-.771-20.523l9.23-15.007c2.568-4.175 3.373-9.199 2.237-13.967l-4.082-17.139c-1.732-7.272 1.087-14.872 7.142-19.256l14.27-10.333c3.97-2.875 6.636-7.208 7.412-12.048l2.788-17.396c1.183-7.382 6.695-13.324 13.967-15.057l17.138-4.085c4.768-1.137 8.889-4.12 11.458-8.295l9.233-15.005c3.918-6.367 11.284-9.748 18.666-8.566l17.397 2.784c4.84.774 9.789-.405 13.76-3.279z" fill="#fdef63"/><g fill="#f3d730"><path d="m427.584 259.832-9.229 15.002c-2.573 4.182-3.378 9.203-2.241 13.973l4.083 17.136c1.733 7.275-1.085 14.873-7.145 19.261l-14.272 10.326c-3.962 2.882-6.626 7.213-7.412 12.049l-.639 4.029c-42.419 7.088-86.033 4.316-127.253-8.188-38.585-11.712-79.77-12.956-119.084-3.589-8.007 1.908-15.889 4.251-23.613 6.992-.387-.289-.788-.554-1.198-.805l-15.002-9.229c-6.366-3.916-9.742-11.287-8.566-18.663l2.792-17.397c.773-4.844-.406-9.794-3.281-13.769l-10.336-14.27c-4.376-6.053-4.686-14.155-.769-20.521l9.229-15.002c2.573-4.182 3.378-9.203 2.241-13.973l-.53-2.225c6.399-2.033 12.886-3.833 19.43-5.392 48.193-11.482 98.669-9.953 145.986 4.402 38.587 11.722 79.77 12.956 119.084 3.589 11.344-2.703 22.431-6.265 33.156-10.632-.3 4.297.922 8.581 3.466 12.105l10.336 14.27c4.373 6.053 4.683 14.155.767 20.521z"/><path d="m426.807 239.311c4.388 6.056 4.695 14.153.771 20.52l-9.228 15.013c-2.563 4.166-3.371 9.199-2.236 13.966l4.082 17.132c1.734 7.279-1.09 14.875-7.146 19.263l-14.265 10.331c-3.969 2.869-6.64 7.211-7.411 12.047l-2.789 17.391c-1.186 7.384-6.693 13.33-13.972 15.064l-17.132 4.082c-4.767 1.136-8.895 4.127-11.458 8.293l-9.239 15.006c-3.913 6.373-11.279 9.751-18.663 8.565l-17.397-2.778c-4.839-.78-9.792.401-13.759 3.278l-14.276 10.324c-6.056 4.388-14.153 4.695-20.52.771l-8.11-4.981c.919-.435 1.799-.954 2.638-1.567l13.298-9.622c3.697-2.673 8.313-3.772 12.818-3.054l16.2 2.595c6.885 1.099 13.743-2.046 17.395-7.981l8.592-13.98c2.396-3.882 6.236-6.664 10.674-7.721l15.97-3.805c6.773-1.614 11.908-7.152 13.009-14.028l2.594-16.2c.725-4.516 3.207-8.55 6.904-11.223l13.296-9.631c5.641-4.083 8.269-11.163 6.655-17.936l-3.803-15.961c-1.06-4.447-.308-9.129 2.079-13.009l8.601-13.982c3.643-5.934 3.365-13.475-.718-19.116l-9.622-13.298c-2.681-3.695-3.781-8.311-3.054-12.818l2.592-16.209c1.101-6.876-2.052-13.732-7.979-17.386l-13.982-8.601c-3.88-2.387-6.662-6.227-7.721-10.674l-3.803-15.961c-1.614-6.773-7.152-11.908-14.028-13.009l-16.211-2.601c-4.505-.718-8.539-3.2-11.223-6.904l-9.62-13.29c-4.083-5.641-11.163-8.269-17.936-6.655l-15.97 3.805c-4.438 1.057-9.12.306-13.009-2.079l-13.973-8.603c-5.936-3.652-13.475-3.365-19.125.72l-13.29 9.62c-3.697 2.673-8.313 3.772-12.818 3.054l-16.209-2.592c-1.025-.168-2.045-.235-3.061-.209l4.993-8.103c3.913-6.373 11.279-9.751 18.663-8.565l17.397 2.778c4.839.78 9.792-.401 13.759-3.278l14.276-10.324c6.056-4.388 14.153-4.695 20.52-.771l15.013 9.228c4.166 2.563 9.199 3.371 13.966 2.235l17.132-4.082c7.279-1.734 14.875 1.09 19.263 7.146l10.331 14.265c2.869 3.969 7.211 6.64 12.047 7.411l17.391 2.789c7.384 1.186 13.33 6.693 15.064 13.972l4.082 17.132c1.136 4.767 4.127 8.895 8.293 11.458l15.006 9.239c6.373 3.913 9.751 11.279 8.565 18.663l-2.778 17.397c-.78 4.839.401 9.792 3.278 13.759z"/></g></g></g><g><path d="m512 192.801c-37.602 21.961-81.313 34.602-128 34.602s-90.398-12.641-128-34.602c-37.602-21.961-81.313-34.602-128-34.602-41.961 0-81.518 10.211-116.396 28.223-7.109 3.67-11.604 10.971-11.604 18.971v115.136c37.602-21.961 81.313-34.602 128-34.602s90.398 12.641 128 34.602c37.602 21.961 81.313 34.602 128 34.602 41.961 0 81.518-10.211 116.396-28.223 7.108-3.671 11.604-10.972 11.604-18.972z" fill="#fb3a82"/><path d="m512 192.798v115.133c0 8.005-4.492 15.309-11.6 18.976-12.568 6.49-25.744 11.971-39.425 16.308 6.346-3.853 10.292-10.734 10.292-18.224v-113.011c14.216-5.202 27.835-11.651 40.733-19.182z" fill="#fb1466"/></g></g><g><g fill="#fb3a82"><path d="m195.244 357.725c-.877 0-1.77-.15-2.642-.468-4.009-1.46-6.077-5.893-4.618-9.903l3.556-9.771c1.459-4.01 5.892-6.078 9.903-4.618 4.009 1.46 6.077 5.893 4.618 9.903l-3.556 9.771c-1.141 3.138-4.104 5.086-7.261 5.086z"/><path d="m217.501 365.826c-.877 0-1.77-.15-2.642-.468-4.009-1.459-6.076-5.893-4.618-9.903l3.556-9.772c1.459-4.01 5.891-6.078 9.903-4.618 4.009 1.459 6.077 5.893 4.618 9.903l-3.556 9.772c-1.141 3.138-4.104 5.086-7.261 5.086z"/><path d="m239.758 373.927c-.877 0-1.77-.15-2.642-.468-4.009-1.46-6.077-5.893-4.618-9.903l3.556-9.771c1.459-4.01 5.892-6.078 9.903-4.618 4.009 1.46 6.077 5.893 4.618 9.903l-3.556 9.771c-1.142 3.137-4.105 5.086-7.261 5.086z"/><g><path d="m167.251 342.004c-.877 0-1.77-.15-2.642-.468l-16.572-6.032c-4.01-1.46-6.077-5.893-4.618-9.903s5.892-6.077 9.903-4.618l16.572 6.032c4.01 1.46 6.077 5.893 4.618 9.903-1.142 3.137-4.106 5.086-7.261 5.086z"/><path d="m287.88 385.909c-.877 0-1.77-.15-2.642-.468l-16.572-6.032c-4.01-1.46-6.077-5.893-4.618-9.903 1.46-4.01 5.893-6.078 9.903-4.618l16.572 6.032c4.01 1.46 6.077 5.893 4.618 9.903-1.141 3.138-4.105 5.086-7.261 5.086z"/></g></g></g></g><g><g><circle cx="264.838" cy="185.563" fill="#31a7fb" r="55.197"/></g></g></g><g fill="#fdef63"><path d="m65.724 231.386c.994-2.203 1.56-4.639 1.56-7.208 0-9.709-7.898-17.607-17.608-17.607h-14.516c-4.268 0-7.726 3.459-7.726 7.726v43.541c0 4.267 3.459 7.726 7.726 7.726h17.468c10.816 0 19.616-8.8 19.616-19.616-.001-5.78-2.529-10.968-6.52-14.562zm-22.838-9.362h6.79c1.188 0 2.155.966 2.155 2.154s-.967 2.154-2.155 2.154h-6.79zm9.742 28.088h-9.741v-8.327h6.79 2.952c2.296 0 4.163 1.868 4.163 4.163-.001 2.296-1.868 4.164-4.164 4.164z"/><path d="m100.339 191.339c-11.596 0-21.029 9.434-21.029 21.029v29.797c0 4.267 3.459 7.726 7.726 7.726s7.726-3.459 7.726-7.726v-8.311h11.152v8.311c0 4.267 3.459 7.726 7.726 7.726 4.268 0 7.726-3.459 7.726-7.726v-29.797c.001-11.595-9.432-21.029-21.027-21.029zm-5.576 27.061v-6.033c0-3.074 2.502-5.576 5.576-5.576s5.575 2.502 5.575 5.576v6.033z"/><path d="m149.173 206.571c1.527 0 2.96.593 4.035 1.668.695.695 1.204 1.56 1.472 2.503 1.163 4.105 5.434 6.489 9.541 5.324 4.105-1.164 6.489-5.437 5.325-9.542-.985-3.472-2.856-6.657-5.41-9.212-3.995-3.994-9.309-6.194-14.963-6.194-11.672 0-21.167 9.49-21.167 21.156v16.671c0 5.654 2.199 10.967 6.193 14.962 4.002 4.001 9.319 6.205 14.974 6.205 9.44 0 17.819-6.346 20.377-15.432 1.156-4.107-1.236-8.374-5.344-9.531-4.107-1.155-8.374 1.236-9.531 5.344-.69 2.453-2.953 4.166-5.502 4.166-1.527 0-2.964-.596-4.046-1.678-1.075-1.076-1.668-2.51-1.668-4.036v-16.671c0-3.145 2.563-5.703 5.714-5.703z"/><path d="m218.461 202.768c-3.014-3.02-7.906-3.024-10.927-.009l-13.195 13.173v-7.705c0-4.267-3.459-7.726-7.726-7.726-4.268 0-7.726 3.459-7.726 7.726v43.32c0 4.267 3.459 7.726 7.726 7.726 4.268 0 7.726-3.459 7.726-7.726v-13.78l.665-.664 11.414 18.501c1.461 2.367 3.992 3.671 6.582 3.671 1.384 0 2.786-.372 4.049-1.152 3.632-2.24 4.76-7 2.519-10.632l-13.328-21.604 12.212-12.191c3.02-3.016 3.024-7.908.009-10.928z"/><path d="m262.285 246.748h15.992c4.268 0 7.726-3.459 7.726-7.726s-3.459-7.726-7.726-7.726h-15.992c-10.263 0-18.612 8.349-18.612 18.612s8.349 18.612 18.612 18.612h5.107c1.741 0 3.159 1.417 3.159 3.159 0 1.741-1.418 3.158-3.159 3.158h-15.992c-4.268 0-7.726 3.459-7.726 7.726s3.459 7.726 7.726 7.726h15.992c10.263 0 18.612-8.349 18.612-18.611 0-10.263-8.349-18.612-18.612-18.612h-5.107c-1.741 0-3.159-1.417-3.159-3.159s1.417-3.159 3.159-3.159z"/><path d="m476.84 290.289h-19.151v-6.317h13.237c4.268 0 7.726-3.459 7.726-7.726s-3.459-7.726-7.726-7.726h-13.237v-6.318h19.151c4.268 0 7.726-3.459 7.726-7.726s-3.459-7.726-7.726-7.726h-26.877c-4.268 0-7.726 3.459-7.726 7.726v43.541c0 4.267 3.459 7.726 7.726 7.726h26.877c4.268 0 7.726-3.459 7.726-7.726 0-4.269-3.458-7.728-7.726-7.728z"/><path d="m326.066 249.839h-26.381c-4.268 0-7.726 3.459-7.726 7.726s3.459 7.726 7.726 7.726h5.464v35.814c0 4.267 3.459 7.726 7.726 7.726s7.726-3.459 7.726-7.726v-35.814h5.465c4.268 0 7.726-3.459 7.726-7.726.001-4.267-3.458-7.726-7.726-7.726z"/><path d="m360.823 256.02c-11.67 0-21.165 9.494-21.165 21.165v16.664c0 11.67 9.495 21.164 21.165 21.164s21.165-9.494 21.165-21.164v-16.664c0-11.671-9.495-21.165-21.165-21.165zm5.712 37.829c0 3.149-2.562 5.712-5.712 5.712s-5.712-2.562-5.712-5.712v-16.664c0-3.15 2.562-5.712 5.712-5.712s5.712 2.562 5.712 5.712z"/><path d="m433.37 278.829c0-10.873-8.846-19.719-19.719-19.719h-14.388c-4.268 0-7.726 3.459-7.726 7.726v43.541c0 4.267 3.459 7.726 7.726 7.726s7.726-3.459 7.726-7.726v-11.83h4.794l6.827 15.026c1.294 2.849 4.102 4.532 7.039 4.532 1.068 0 2.155-.223 3.191-.694 3.885-1.765 5.604-6.345 3.838-10.23l-6.123-13.477c4.165-3.617 6.815-8.938 6.815-14.875zm-26.381-4.266h6.662c2.352 0 4.267 1.914 4.267 4.266s-1.914 4.266-4.267 4.266h-6.662z"/></g><g><g><g><circle cx="264.838" cy="185.563" fill="#31a7fb" r="55.197"/></g></g><g><g><path d="m241.427 213.485c-4.268 0-7.726-3.459-7.726-7.726v-40.392c0-4.267 3.459-7.726 7.726-7.726s7.726 3.459 7.726 7.726v40.392c0 4.267-3.459 7.726-7.726 7.726z" fill="#eaf6ff"/></g><path d="m288.25 157.64c-4.268 0-7.726 3.459-7.726 7.726v13.167l-10.633-17.225c-1.814-2.94-5.359-4.317-8.684-3.375-3.323.944-5.617 3.978-5.617 7.433v40.392c0 4.267 3.459 7.726 7.726 7.726s7.726-3.459 7.726-7.726v-13.166l10.633 17.225.006-.004c1.361 2.201 3.79 3.672 6.568 3.672 4.268 0 7.726-3.459 7.726-7.726v-40.392c.002-4.267-3.457-7.727-7.725-7.727z" fill="#eaf6ff"/></g></g></g></svg>