<svg id="Capa_1" enable-background="new 0 0 512 512" height="512" viewBox="0 0 512 512" width="512" xmlns="http://www.w3.org/2000/svg"><g><g><g><path d="m256 479.989c-17.705-8.949-56.189-29.932-91.47-59.452-21.997-18.405-39.253-37.176-51.289-55.794-13.603-21.04-20.499-41.961-20.499-62.183v-202.689c44.494-5.028 122.691-20.495 163.253-67.863 40.538 47.375 118.783 62.839 163.264 67.864v202.688c0 20.222-6.897 41.144-20.499 62.183-12.036 18.618-29.293 37.39-51.289 55.794-35.289 29.526-73.782 50.512-91.471 59.452z" fill="#fdef63"/><path d="m145.243 403.108h221.514c13.019-12.749 23.745-25.593 32.002-38.365 7.656-11.842 13.188-23.647 16.561-35.31h-318.641c3.373 11.664 8.905 23.468 16.561 35.31 8.257 12.772 18.984 25.616 32.003 38.365z" fill="#f3d730"/><path d="m419.262 99.876v202.687c0 20.222-6.902 41.145-20.5 62.181-12.043 18.615-29.298 37.385-51.292 55.794-35.284 29.525-73.781 50.51-91.469 59.451-8.324-4.213-21.211-11.064-36.211-20.212 19.821-10.518 52.56-29.607 82.929-55.011 21.994-18.399 39.25-37.179 51.292-55.794 13.598-21.036 20.49-41.959 20.49-62.181v-194.281c16.565 3.636 32.038 5.923 44.761 7.366z" fill="#f3d730"/><path d="m434.805 80.082c-33.014-2.719-136.571-15.785-168.99-74.218-1.997-3.58-5.715-5.864-9.815-5.864s-7.818 2.284-9.815 5.864c-32.419 58.433-135.976 71.499-168.99 74.218-5.768.467-10.208 5.301-10.208 11.1v215.941c0 109.813 154.65 189.544 184.18 203.768 3.059 1.477 6.607 1.477 9.666 0 29.53-14.223 184.18-93.954 184.18-203.768v-215.941c0-5.8-4.44-10.633-10.208-11.1zm-32.281 227.041c0 64.658-86.519 127.043-146.524 158.623-60.005-31.569-146.524-93.954-146.524-158.623v-188.005c18.801-2.751 42.022-7.298 65.401-14.786 33.79-10.824 60.919-25.483 81.123-43.785 20.204 18.302 47.333 32.961 81.123 43.785 23.379 7.489 46.6 12.035 65.401 14.786z" fill="#fb9927"/><g fill="#f98824"><path d="m164.832 403.108c-24.504-22.306-44.446-47.52-52.039-73.675h-43.677c5.102 26.863 18.979 51.615 37.012 73.675z"/><path d="m405.872 403.108c18.032-22.06 31.91-46.812 37.012-73.675h-43.678c-7.594 26.154-27.54 51.368-52.047 73.675z"/><path d="m445.016 91.181v215.945c0 109.806-154.65 189.542-184.185 203.769-3.06 1.473-6.603 1.473-9.663 0-3.75-1.803-9.519-4.667-16.73-8.52 35.438-17.42 181.342-95.714 181.342-202.368v-215.945c0-2.308-.701-4.471-1.926-6.253 8.427 1.123 15.617 1.834 20.954 2.277 5.768.463 10.208 5.295 10.208 11.095z"/></g><path d="m445.009 286.246v20.871c0 26.64-9.096 51.509-23.303 74.091h-331.42c-14.206-22.582-23.303-47.45-23.303-74.091v-20.871z" fill="#5169cd"/><path d="m445.009 286.246v20.871c0 26.64-9.096 51.509-23.303 74.091h-33.914c16.864-24.446 27.99-51.746 27.99-81.199v-13.763z" fill="#3351c5"/></g></g><g><g><path d="m203.616 149.829 39.426 39.426c7.141 7.141 18.718 7.141 25.859 0l77.582-77.583c3.621-3.621 3.621-9.491 0-13.112l-15.565-15.565c-3.621-3.621-9.491-3.621-13.112 0l-61.835 61.835-23.678-23.678c-3.621-3.621-9.491-3.621-13.112 0l-15.565 15.565c-3.621 3.621-3.621 9.491 0 13.112z" fill="#23f1a8"/></g></g><g><path d="m183.138 208.762h-14.516c-4.268 0-7.726 3.459-7.726 7.726v43.541c0 4.267 3.459 7.726 7.726 7.726h17.468c10.817 0 19.617-8.8 19.617-19.616 0-5.781-2.529-10.97-6.521-14.563.994-2.203 1.56-4.638 1.56-7.208 0-9.708-7.899-17.606-17.608-17.606zm-6.79 15.453h6.79c1.188 0 2.155.966 2.155 2.154s-.967 2.154-2.155 2.154h-6.79zm9.742 28.088h-9.741v-8.327h6.79 2.952c2.296 0 4.164 1.868 4.164 4.163-.001 2.297-1.869 4.164-4.165 4.164z" fill="#5169cd"/><path d="m284.314 252.303h-15.992c-4.268 0-7.726 3.459-7.726 7.726s3.459 7.726 7.726 7.726h15.992c10.263 0 18.612-8.349 18.612-18.612s-8.349-18.612-18.612-18.612h-5.107c-1.741 0-3.159-1.417-3.159-3.159 0-1.741 1.418-3.158 3.159-3.158h15.992c4.268 0 7.726-3.459 7.726-7.726s-3.459-7.726-7.726-7.726h-15.992c-10.263 0-18.612 8.349-18.612 18.611 0 10.263 8.349 18.612 18.612 18.612h5.107c1.741 0 3.159 1.417 3.159 3.159s-1.417 3.159-3.159 3.159z" fill="#5169cd"/><path d="m246.415 224.215c4.268 0 7.726-3.459 7.726-7.726s-3.459-7.726-7.726-7.726h-26.876c-4.268 0-7.726 3.459-7.726 7.726v43.541c0 4.267 3.459 7.726 7.726 7.726h26.876c4.268 0 7.726-3.459 7.726-7.726s-3.459-7.726-7.726-7.726h-19.15v-6.318h13.237c4.268 0 7.726-3.459 7.726-7.726s-3.459-7.726-7.726-7.726h-13.237v-6.317h19.15z" fill="#5169cd"/><path d="m330.772 267.756c4.268 0 7.726-3.459 7.726-7.726v-35.814h5.712c4.268 0 7.726-3.459 7.726-7.726s-3.459-7.726-7.726-7.726h-26.877c-4.268 0-7.726 3.459-7.726 7.726s3.459 7.726 7.726 7.726h5.712v35.814c0 4.267 3.459 7.726 7.727 7.726z" fill="#5169cd"/><g fill="#fdef63"><path d="m129.163 356.212c4.002 4.001 9.319 6.205 14.974 6.205 9.44 0 17.819-6.346 20.377-15.432 1.156-4.107-1.236-8.374-5.344-9.531-4.107-1.158-8.374 1.236-9.531 5.344-.69 2.453-2.953 4.167-5.502 4.167-1.527 0-2.964-.596-4.046-1.679-1.075-1.075-1.668-2.509-1.668-4.036v-16.67c0-3.145 2.563-5.704 5.714-5.704 1.527 0 2.96.593 4.035 1.668.695.695 1.204 1.56 1.472 2.503 1.164 4.105 5.435 6.487 9.541 5.324 4.105-1.164 6.489-5.437 5.325-9.542-.985-3.472-2.856-6.657-5.41-9.212-3.995-3.994-9.309-6.194-14.963-6.194-11.672 0-21.167 9.491-21.167 21.156v16.67c0 5.655 2.199 10.969 6.193 14.963z"/><path d="m318.413 362.417c9.442 0 17.821-6.346 20.377-15.433 1.156-4.108-1.237-8.374-5.345-9.53-4.108-1.155-8.374 1.237-9.53 5.345-.69 2.453-2.953 4.165-5.502 4.165-1.527 0-2.964-.596-4.046-1.679-1.075-1.075-1.668-2.509-1.668-4.036v-16.67c0-3.145 2.563-5.704 5.714-5.704 1.527 0 2.96.593 4.035 1.668.695.695 1.204 1.56 1.472 2.503 1.164 4.105 5.434 6.487 9.541 5.324 4.105-1.164 6.489-5.437 5.325-9.542-.985-3.472-2.856-6.657-5.41-9.212-3.995-3.994-9.309-6.194-14.963-6.194-11.672 0-21.167 9.491-21.167 21.156v16.67c0 5.654 2.199 10.968 6.193 14.962 4.002 4.003 9.319 6.207 14.974 6.207z"/><path d="m354.43 362.417h26.876c4.268 0 7.726-3.459 7.726-7.726s-3.459-7.726-7.726-7.726h-19.15v-6.317h13.237c4.268 0 7.726-3.459 7.726-7.726s-3.459-7.726-7.726-7.726h-13.237v-6.318h19.15c4.268 0 7.726-3.459 7.726-7.726s-3.459-7.726-7.726-7.726h-26.876c-4.268 0-7.726 3.459-7.726 7.726v43.541c-.001 4.265 3.458 7.724 7.726 7.724z"/><path d="m244.684 362.417c11.67 0 21.165-9.494 21.165-21.164v-16.664c0-11.671-9.495-21.165-21.165-21.165s-21.165 9.494-21.165 21.165v16.664c0 11.67 9.495 21.164 21.165 21.164zm-5.712-37.828c0-3.15 2.562-5.712 5.712-5.712s5.712 2.562 5.712 5.712v16.664c0 3.149-2.562 5.712-5.712 5.712s-5.712-2.562-5.712-5.712z"/><path d="m282.082 362.417c4.268 0 7.726-3.459 7.726-7.726v-43.541c0-4.267-3.459-7.726-7.726-7.726s-7.726 3.459-7.726 7.726v43.541c-.001 4.267 3.458 7.726 7.726 7.726z"/><path d="m180.049 362.417c4.268 0 7.726-3.459 7.726-7.726v-14.044h11.425v14.044c0 4.267 3.459 7.726 7.726 7.726s7.726-3.459 7.726-7.726v-43.541c0-4.267-3.459-7.726-7.726-7.726s-7.726 3.459-7.726 7.726v14.044h-11.425v-14.044c0-4.267-3.459-7.726-7.726-7.726s-7.726 3.459-7.726 7.726v43.541c-.001 4.267 3.458 7.726 7.726 7.726z"/></g></g></g></svg>