<svg id="Capa_1" enable-background="new 0 0 512 512" height="512" viewBox="0 0 512 512" width="512" xmlns="http://www.w3.org/2000/svg"><g><g><g><g><g><g><path d="m86.51 304.994h-77.07c-7.619 0-12.088-8.571-7.727-14.818l15.758-22.573c4.269-6.115 4.269-14.243 0-20.358l-15.758-22.574c-4.361-6.247.109-14.818 7.727-14.818h77.07z" fill="#e01058"/></g></g><g><g><path d="m425.489 304.994h77.069c7.619 0 12.088-8.571 7.727-14.818l-15.758-22.573c-4.269-6.115-4.269-14.243 0-20.358l15.758-22.573c4.361-6.247-.109-14.818-7.727-14.818h-77.069z" fill="#e01058"/></g><g><path d="m510.289 290.171c4.358 6.253-.113 14.824-7.726 14.824h-28.622c7.613 0 12.084-8.571 7.726-14.824l-15.761-22.571c-4.265-6.109-4.265-14.237 0-20.356l15.762-22.571c4.358-6.253-.113-14.824-7.726-14.824h28.622c7.613 0 12.084 8.571 7.726 14.824l-15.762 22.571c-4.265 6.119-4.265 14.247 0 20.356z" fill="#cf0e50"/></g></g></g><g><g><path d="m437.548 317.275h-364.354c-5.312 0-9.619-4.306-9.619-9.619v-214.86c0-5.312 4.306-9.619 9.619-9.619h364.354c5.312 0 9.618 4.306 9.618 9.619v214.86c0 5.312-4.306 9.619-9.618 9.619z" fill="#fff1e2"/><g><path d="m399.066 276.167h-283.173c-5.312 0-9.619-4.306-9.619-9.619v-142.263h283.173c5.312 0 9.619 4.306 9.619 9.619z" fill="#72f4c3"/><path d="m399.067 133.906v142.258h-32.068v-142.258c0-5.319-4.309-9.619-9.618-9.619h32.068c5.308.001 9.618 4.3 9.618 9.619z" fill="#27e19d"/></g><path d="m447.164 92.797v214.858c0 5.309-4.299 9.618-9.618 9.618h-28.817c5.319 0 9.619-4.309 9.619-9.618v-214.858c0-5.309-4.299-9.619-9.619-9.619h28.817c5.319 0 9.618 4.309 9.618 9.619z" fill="#fee7c9"/></g><g><g><circle cx="122.865" cy="143.864" fill="#27d1b3" r="26.958"/><path d="m149.822 143.867c0 14.889-12.071 26.951-26.961 26.951-3.799 0-7.406-.779-10.686-2.203 9.57-4.136 16.265-13.658 16.265-24.748s-6.695-20.613-16.265-24.758c3.28-1.414 6.887-2.203 10.686-2.203 14.89 0 26.961 12.071 26.961 26.961z" fill="#20b69f"/></g><g><circle cx="387.878" cy="256.588" fill="#27d1b3" r="26.958"/><path d="m414.831 256.585c0 14.889-12.062 26.961-26.951 26.961-3.799 0-7.416-.789-10.686-2.203 9.57-4.146 16.265-13.668 16.265-24.758s-6.694-20.612-16.265-24.748c3.27-1.424 6.887-2.203 10.686-2.203 14.89 0 26.951 12.062 26.951 26.951z" fill="#20b69f"/></g></g></g><g><g><g><g><g><path d="m256 273.127c-116.694 0-186.648-9.944-207.077-13.329-3.301-.547-6.296 2.004-6.296 5.35v84.308c0 10.402 7.637 19.227 17.934 20.697 29.522 4.216 95.256 11.545 195.439 11.545s165.917-7.329 195.439-11.545c10.297-1.47 17.934-10.295 17.934-20.697v-84.308c0-3.346-2.995-5.897-6.296-5.35-20.429 3.384-90.383 13.329-207.077 13.329z" fill="#fc5a95"/><path d="m469.371 265.15v84.301c0 10.409-7.633 19.235-17.934 20.698-7.275 1.041-16.752 2.266-28.397 3.535 7.037-3.415 11.753-10.626 11.753-18.812v-91.099c13.185-1.594 22.628-3.036 28.288-3.979 3.298-.543 6.29 2.005 6.29 5.356z" fill="#fb3a82"/><g><g fill="#fff1e2"><path d="m87.77 291.086h-14.02c-4.273 0-7.738 3.464-7.738 7.738v38.172c0 4.273 3.464 7.738 7.738 7.738h14.02c9.528 0 17.281-7.752 17.281-17.281 0-3.526-1.067-6.806-2.887-9.543 1.821-2.737 2.887-6.017 2.887-9.543 0-9.528-7.753-17.281-17.281-17.281zm-6.282 15.476h6.282c.995 0 1.805.81 1.805 1.805s-.81 1.805-1.805 1.805h-6.282zm6.282 22.697h-6.282v-3.611h6.282c.995 0 1.805.81 1.805 1.805 0 .996-.81 1.806-1.805 1.806z"/><path d="m170.699 312.752h14.02c4.273 0 7.738-3.464 7.738-7.738s-3.464-7.738-7.738-7.738h-14.02c-9.528 0-17.281 7.752-17.281 17.281s7.752 17.281 17.281 17.281h4.477c.995 0 1.805.81 1.805 1.805s-.81 1.805-1.805 1.805h-14.02c-4.273 0-7.738 3.464-7.738 7.738s3.464 7.738 7.738 7.738h14.02c9.528 0 17.281-7.752 17.281-17.281 0-9.528-7.752-17.28-17.281-17.28h-4.477c-.995 0-1.805-.81-1.805-1.805s.81-1.806 1.805-1.806z"/><path d="m141.95 309.657c4.273 0 7.738-3.464 7.738-7.738s-3.464-7.738-7.738-7.738h-23.563c-4.273 0-7.738 3.464-7.738 7.738v38.172c0 4.273 3.464 7.738 7.738 7.738h23.563c4.273 0 7.738-3.464 7.738-7.738s-3.464-7.738-7.738-7.738h-15.825v-3.61h10.641c4.273 0 7.738-3.464 7.738-7.738s-3.464-7.738-7.738-7.738h-10.641v-3.611h15.825z"/><path d="m354.176 346.281v-38.172c0-4.273-3.464-7.738-7.738-7.738s-7.738 3.464-7.738 7.738v38.172c0 4.273 3.464 7.738 7.738 7.738 4.274-.001 7.738-3.465 7.738-7.738z"/><path d="m257.953 354.018c4.274 0 7.738-3.464 7.738-7.738v-8.753h4.984c10.244 0 18.578-8.334 18.578-18.578s-8.334-18.578-18.578-18.578h-12.722c-4.273 0-7.738 3.464-7.738 7.738v38.172c0 4.273 3.464 7.737 7.738 7.737zm7.737-38.171h4.984c1.711 0 3.103 1.392 3.103 3.103s-1.392 3.103-3.103 3.103h-4.984z"/><path d="m438.25 309.006c4.274 0 7.738-3.464 7.738-7.738s-3.464-7.738-7.738-7.738h-23.562c-4.274 0-7.738 3.464-7.738 7.738v38.172c0 4.273 3.464 7.738 7.738 7.738h23.562c4.274 0 7.738-3.464 7.738-7.738s-3.464-7.738-7.738-7.738h-15.825v-3.611h10.641c4.274 0 7.738-3.464 7.738-7.738s-3.464-7.738-7.738-7.738h-10.641v-3.611h15.825z"/><path d="m331.419 318.622c0-10.063-8.187-18.251-18.251-18.251h-12.614c-4.274 0-7.738 3.464-7.738 7.738v38.172c0 4.273 3.464 7.738 7.738 7.738s7.738-3.464 7.738-7.738v-9.407h2.617l5.728 12.607c1.296 2.853 4.108 4.539 7.049 4.539 1.07 0 2.157-.223 3.196-.695 3.89-1.767 5.612-6.354 3.844-10.245l-5.078-11.177c3.543-3.331 5.771-8.045 5.771-13.281zm-23.127-2.775h4.876c1.53 0 2.776 1.245 2.776 2.776s-1.245 2.776-2.776 2.776h-4.876z"/><path d="m215.906 354.018c4.273 0 7.738-3.464 7.738-7.738v-30.434h4.044c4.273 0 7.738-3.464 7.738-7.738s-3.464-7.738-7.738-7.738h-23.563c-4.273 0-7.738 3.464-7.738 7.738s3.464 7.738 7.738 7.738h4.044v30.434c-.001 4.274 3.463 7.738 7.737 7.738z"/><path d="m381.574 312.752c1.081 0 2.096.419 2.855 1.179.495.495.856 1.108 1.045 1.775 1.165 4.112 5.442 6.501 9.554 5.335 4.112-1.165 6.499-5.443 5.335-9.554-.907-3.2-2.632-6.138-4.99-8.497-3.684-3.683-8.585-5.712-13.799-5.712-10.764 0-19.521 8.753-19.521 19.511v14.615c0 5.213 2.029 10.114 5.713 13.799 3.69 3.69 8.594 5.722 13.809 5.722 8.706 0 16.433-5.852 18.793-14.231 1.158-4.114-1.238-8.387-5.352-9.545-4.114-1.159-8.386 1.237-9.545 5.351-.489 1.737-2.091 2.95-3.896 2.95-1.081 0-2.099-.423-2.865-1.189-.762-.762-1.181-1.776-1.181-2.857v-14.615c-.001-2.227 1.814-4.037 4.045-4.037z"/></g></g></g></g></g></g></g><g><ellipse cx="258.071" cy="200.226" fill="#27d1b3" rx="66.962" ry="83.101"/><path d="m325.029 200.226c0 45.9-29.974 83.105-66.958 83.105-5.001 0-9.871-.683-14.55-1.978 29.984-8.244 52.397-41.432 52.397-81.127s-22.413-72.882-52.397-81.127c4.679-1.295 9.55-1.978 14.55-1.978 36.984 0 66.958 37.205 66.958 83.105z" fill="#20b69f"/></g><g><g fill="#20b69f"><path d="m152.223 188.024h-13.036c-4.267 0-7.726 3.459-7.726 7.726s3.459 7.726 7.726 7.726h13.036c4.267 0 7.726-3.459 7.726-7.726s-3.459-7.726-7.726-7.726z"/><path d="m152.223 212.098h-13.036c-4.267 0-7.726 3.459-7.726 7.726s3.459 7.726 7.726 7.726h13.036c4.267 0 7.726-3.459 7.726-7.726s-3.459-7.726-7.726-7.726z"/><path d="m152.223 236.171h-13.036c-4.267 0-7.726 3.459-7.726 7.726s3.459 7.726 7.726 7.726h13.036c4.267 0 7.726-3.459 7.726-7.726s-3.459-7.726-7.726-7.726z"/><path d="m358.519 164.281h13.036c4.268 0 7.726-3.459 7.726-7.726s-3.459-7.726-7.726-7.726h-13.036c-4.268 0-7.726 3.459-7.726 7.726s3.458 7.726 7.726 7.726z"/><path d="m371.555 172.902h-13.036c-4.268 0-7.726 3.459-7.726 7.726s3.459 7.726 7.726 7.726h13.036c4.268 0 7.726-3.459 7.726-7.726.001-4.267-3.458-7.726-7.726-7.726z"/><path d="m371.555 196.975h-13.036c-4.268 0-7.726 3.459-7.726 7.726s3.459 7.726 7.726 7.726h13.036c4.268 0 7.726-3.459 7.726-7.726.001-4.267-3.458-7.726-7.726-7.726z"/></g><path d="m255.483 185.883h16.212c4.268 0 7.726-3.459 7.726-7.726s-3.459-7.726-7.726-7.726h-3.831v-4.76c0-4.267-3.459-7.726-7.726-7.726s-7.726 3.459-7.726 7.726v5.033c-8.886 1.473-15.69 9.19-15.69 18.487 0 10.345 8.416 18.761 18.761 18.761h5.177c1.825 0 3.309 1.484 3.309 3.308s-1.484 3.309-3.309 3.309h-16.212c-4.267 0-7.726 3.459-7.726 7.726s3.459 7.726 7.726 7.726h7.963v4.76c0 4.267 3.459 7.726 7.726 7.726 4.268 0 7.726-3.459 7.726-7.726v-6.203c6.779-2.831 11.557-9.525 11.557-17.318 0-10.345-8.417-18.761-18.762-18.761h-5.177c-1.824 0-3.308-1.484-3.308-3.308s1.485-3.308 3.31-3.308z" fill="#fff1e2"/></g></g><g><g><g fill="#27d1b3"><path d="m232.315 428.823c-4.267 0-7.726-3.459-7.726-7.726v-10.398c0-4.267 3.459-7.726 7.726-7.726s7.726 3.459 7.726 7.726v10.398c0 4.266-3.459 7.726-7.726 7.726z"/><path d="m255.999 428.823c-4.267 0-7.726-3.459-7.726-7.726v-10.398c0-4.267 3.459-7.726 7.726-7.726s7.727 3.459 7.727 7.726v10.398c0 4.266-3.459 7.726-7.727 7.726z"/><path d="m279.684 428.823c-4.268 0-7.726-3.459-7.726-7.726v-10.398c0-4.267 3.459-7.726 7.726-7.726 4.268 0 7.726 3.459 7.726 7.726v10.398c0 4.266-3.458 7.726-7.726 7.726z"/></g></g><g fill="#72f4c3"><path d="m200.632 423.624h-17.636c-4.267 0-7.726-3.459-7.726-7.726s3.459-7.726 7.726-7.726h17.636c4.267 0 7.726 3.459 7.726 7.726.001 4.266-3.459 7.726-7.726 7.726z"/><path d="m329.003 423.624h-17.636c-4.268 0-7.726-3.459-7.726-7.726s3.459-7.726 7.726-7.726h17.636c4.268 0 7.726 3.459 7.726 7.726 0 4.266-3.458 7.726-7.726 7.726z"/></g></g></g></g></svg>