<svg id="Capa_1" enable-background="new 0 0 512 512" height="512" viewBox="0 0 512 512" width="512" xmlns="http://www.w3.org/2000/svg"><g><g><g><g><path d="m369.208 138.261c12.138-46.84-26.586-114.216-80.288-117.235-5.277-.297-9.769 3.809-9.939 9.091l-.127 3.957s-62.055-17.751-119.736 46.186c-4.378 4.853-2.579 12.592 3.488 15.024s-45.06 27.502-55.999 82.513c-1.507 7.579 6.399 13.57 13.349 10.192 16.464-8.003 43.479-18.479 68.711-16.307l-.848 3.375c-1.634 6.503 3.863 12.58 10.495 11.589 16.189-2.418 42.88-5.236 60.7-1.075l-.552 5.376c-.576 5.611 3.879 10.467 9.518 10.36 25.005-.476 86.806-7.393 101.228-63.046z" fill="#23f1a8"/><path d="m369.206 138.261c-3.255 12.578-8.942 22.664-16.071 30.751.288-.958.556-1.937.814-2.926 12.135-46.832-26.579-114.216-80.282-117.235-5.285-.288-9.776 3.812-9.941 9.097l-.124 3.956s-51.561-14.752-104.378 31.07c-3.183-3.41-3.513-8.932-.103-12.713 57.68-63.943 119.728-46.183 119.728-46.183l.134-3.966c.165-5.275 4.656-9.385 9.941-9.086 53.693 3.019 92.418 70.392 80.282 117.235z" fill="#26d192"/><path d="m423.295 183.012c-22.629-39.195-57.671-68.292-98.066-82.088-.249-.101-.505-.188-.767-.264-6.242-2.098-12.606-3.843-19.074-5.191-1.706-.356-3.415-.676-5.125-.976-6.782-8.836-30.099-36.451-60.378-41.919-4.203-.758-8.219 2.032-8.977 6.23-.758 4.2 2.031 8.218 6.23 8.977 16.398 2.961 30.916 14.659 40.496 24.346-18.282-.631-36.599 1.809-54.458 7.195-6.132-4.21-19.76-11.574-39.228-10.768-4.264.177-7.576 3.777-7.399 8.041s3.769 7.565 8.041 7.399c7.507-.311 13.816.919 18.79 2.593-13.329 5.786-26.284 13.257-38.639 22.381-3.432 2.535-4.159 7.373-1.624 10.805s7.371 4.159 10.805 1.624c21.408-15.813 44.724-26.237 68.574-30.973-3.689 7.722-12.188 18.975-31.813 29.636-3.75 2.037-5.138 6.728-3.101 10.477 1.4 2.578 4.055 4.04 6.796 4.04 1.245 0 2.51-.302 3.681-.939 30.109-16.356 39.002-35.442 41.625-45.632 14.205-1.176 28.482-.344 42.549 2.588 3.596.75 7.155 1.644 10.679 2.652-7.676 22.21-28.411 32.282-42.555 39.145-1.055.512-2.07 1.005-3.036 1.48-3.827 1.886-5.401 6.519-3.515 10.346 1.345 2.729 4.087 4.312 6.937 4.312 1.146 0 2.311-.256 3.409-.797.939-.463 1.925-.941 2.951-1.439 15.618-7.578 40.823-19.82 50.448-48.047 33.788 13.486 62.993 38.943 82.361 72.489 1.431 2.479 4.028 3.865 6.698 3.865 1.311-.001 2.639-.334 3.856-1.037 3.697-2.13 4.963-6.855 2.829-10.551z" fill="#138b80"/></g><g><g><path d="m68.804 276.85c-46.633 12.909-85.621 80.132-61.385 128.15 2.382 4.718 8.183 6.556 12.843 4.061l3.491-1.868s15.655 62.617 99.867 80.601c6.392 1.365 12.194-4.063 11.267-10.533s46.347 25.272 99.458 7.24c7.318-2.484 8.553-12.326 2.152-16.656-15.163-10.257-37.743-28.415-48.478-51.352l3.347-.953c6.449-1.836 8.963-9.635 4.789-14.884-10.188-12.811-25.974-34.517-31.281-52.03l4.931-2.21c5.147-2.307 7.126-8.593 4.213-13.423-12.916-21.416-49.806-71.48-105.214-56.143z" fill="#17998c"/><path d="m234.345 484.504c-6.037 2.05-11.981 3.533-17.781 4.564-.649-1.648-1.793-3.152-3.461-4.275-10.456-7.077-24.436-17.905-35.634-31.472-55.557-27.4-94.862-82.921-99.199-147.865-.003-.04-.005-.08-.008-.12-.532-8.253-7.497-14.719-15.757-14.328-5.484.26-11.185 1.15-17.095 2.79-4.265 1.175-8.447 2.812-12.537 4.842 10.59-10.415 22.963-18.203 35.933-21.788 55.403-15.339 92.294 34.727 105.212 56.145 2.915 4.831.938 11.116-4.213 13.423l-4.935 2.204c5.305 17.513 21.098 39.219 31.287 52.034 4.172 5.244 1.659 13.042-4.79 14.886l-3.348.948c10.734 22.942 33.316 41.094 48.48 51.354 6.397 4.327 5.161 14.165-2.154 16.658z" fill="#138b80"/><path d="m169.164 444.403c-24.462-10.662-45.192-25.692-61.236-44.043 8.401-.742 22.268.891 41.314 12.557 1.26.772 2.652 1.139 4.028 1.139 2.6 0 5.139-1.312 6.596-3.692 2.229-3.639 1.086-8.395-2.553-10.624-29.14-17.849-49.897-15.906-59.992-12.977-8.1-11.696-14.503-24.455-18.989-38.08-1.149-3.489-2.153-7.018-3.042-10.573 23.071-4.458 42.162 8.463 55.177 17.281.971.658 1.905 1.291 2.801 1.889 1.319.882 2.81 1.304 4.287 1.304 2.493 0 4.941-1.205 6.43-3.434 2.372-3.547 1.419-8.346-2.129-10.717-.87-.582-1.778-1.197-2.722-1.837-14.371-9.736-37.574-25.441-66.833-19.664-5.215-36.004 2.229-74.025 21.597-107.572 2.134-3.696.868-8.421-2.828-10.554-3.696-2.134-8.421-.868-10.554 2.828-22.63 39.196-30.308 84.093-22.057 125.975.037.264.089.528.154.792 1.304 6.455 2.975 12.838 5.042 19.114.545 1.655 1.122 3.296 1.718 4.928-4.261 10.292-16.518 44.292-6.114 73.247 1.133 3.153 4.104 5.116 7.272 5.116.867 0 1.749-.147 2.612-.457 4.016-1.443 6.102-5.868 4.658-9.884-5.634-15.682-2.762-34.103.838-47.243 8.595 16.148 19.867 30.791 33.461 43.565-.578 7.419-.14 22.91 10.288 39.355 1.471 2.32 3.974 3.59 6.533 3.59 1.415 0 2.847-.388 4.13-1.202 3.604-2.285 4.673-7.059 2.387-10.663-4.025-6.347-6.114-12.426-7.152-17.57 11.676 8.651 24.624 16.136 38.704 22.273 1.005.438 2.052.645 3.083.645 2.98 0 5.82-1.735 7.087-4.641 1.705-3.913-.084-8.466-3.996-10.171z" fill="#0c6e65"/></g></g></g><g><circle cx="256" cy="293.468" fill="#fcb44d" r="152.374"/><path d="m408.374 293.468c0 84.155-68.219 152.374-152.374 152.374-66.581 0-123.189-42.701-143.927-102.214 23.076 40.321 66.519 67.487 116.307 67.487 73.957 0 133.913-59.946 133.913-133.903 0-73.421-59.081-133.038-132.296-133.903 8.447-1.453 17.142-2.215 26.002-2.215 84.156 0 152.375 68.218 152.375 152.374z" fill="#fb9927"/></g><g><path d="m348.533 463.852c34.496 33.931 112.206 34.084 141.673-10.914 2.895-4.422 1.586-10.364-2.904-13.153l-3.363-2.089s46.4-44.866 19.869-126.787c-2.014-6.218-9.616-8.529-14.755-4.491s-1.287-52.774-43.459-89.753c-5.81-5.095-14.951-1.244-15.501 6.465-1.301 18.26-5.737 46.893-20.234 67.659l-2.498-2.422c-4.815-4.667-12.826-2.944-15.284 3.294-6.001 15.229-16.906 39.753-29.418 53.105l-4.38-3.166c-4.572-3.304-11.004-1.875-13.731 3.063-12.091 21.893-37.001 78.874 3.985 119.189z" fill="#17998c"/><path d="m490.201 452.939c-18.564 28.351-56.269 38.776-90.264 34.12 23.818-3.297 46.07-14.35 59.019-34.12 2.895-4.419 1.586-10.364-2.905-13.155l-3.369-2.091s46.399-44.864 19.872-126.784c-2.009-6.212-9.612-8.53-14.752-4.492 0 0-.319-13.197-5.913-31.008-4.09-13.022-10.992-28.516-22.654-43.123.381-3.255.659-6.325.855-9.158.556-7.706 9.694-11.559 15.504-6.459 21.088 18.481 31.956 40.919 37.54 58.741 5.594 17.812 5.913 31.008 5.913 31.008 5.141-4.038 12.743-1.72 14.763 4.492 26.527 81.92-19.872 126.784-19.872 126.784l3.369 2.091c4.481 2.791 5.799 8.735 2.894 13.154z" fill="#138b80"/><path d="m486.493 383.809c-3.258-2.756-8.133-2.35-10.889.907-10.763 12.72-28.153 19.444-41.332 22.897 9.688-15.517 16.733-32.601 20.998-50.761 6.714-3.209 19.91-11.334 28.938-28.587 1.978-3.781.518-8.449-3.264-10.428-3.779-1.979-8.45-.518-10.428 3.264-3.485 6.659-7.705 11.508-11.641 14.978 1.654-14.437 1.662-29.392-.064-44.654-.479-4.24-4.3-7.285-8.545-6.81-4.24.479-7.289 4.305-6.81 8.545 2.933 25.944.464 50.887-7.017 73.561-.275-.494-.549-1.006-.824-1.547-3.606-7.118-7.794-19.886-7.264-40.29.111-4.266-3.258-7.813-7.523-7.925-4.265-.088-7.814 3.257-7.925 7.523-.513 19.742 2.746 36.272 9.688 49.131 2.426 4.495 4.947 7.814 7.064 10.161-6.106 13.024-14.02 25.093-23.681 35.907-2.447 2.74-5.001 5.374-7.636 7.922-15.397-17.752-13.752-40.746-12.623-56.427.085-1.17.165-2.295.236-3.369.28-4.258-2.945-7.937-7.203-8.217-4.251-.277-7.937 2.945-8.217 7.203-.068 1.044-.147 2.137-.229 3.274-1.246 17.315-3.246 45.264 16.387 67.714-28.573 22.519-65.222 35.082-103.958 35.082-4.267 0-7.726 3.459-7.726 7.726s3.459 7.726 7.726 7.726c45.308 0 88.072-15.833 120.229-43.975.163-.132.324-.269.478-.416 4.948-4.364 9.651-9.011 14.062-13.948 1.161-1.299 2.292-2.619 3.407-3.95 11.064-1.46 46.628-7.854 66.492-31.33 2.758-3.255 2.352-8.13-.906-10.887z" fill="#0c6e65"/></g></g><g fill="#138b80"><path d="m302.691 255.272c-14.231 0-25.81 11.578-25.81 25.81v22.424c0 14.231 11.578 25.81 25.81 25.81s25.81-11.578 25.81-25.81v-22.424c0-14.231-11.578-25.81-25.81-25.81zm10.357 48.234c0 5.711-4.646 10.357-10.357 10.357s-10.357-4.646-10.357-10.357v-22.424c0-5.711 4.646-10.357 10.357-10.357s10.357 4.646 10.357 10.357z"/><path d="m256.604 255.272c-4.267 0-7.726 3.459-7.726 7.726v58.591c0 4.267 3.459 7.726 7.726 7.726s7.726-3.459 7.726-7.726v-58.591c.001-4.267-3.459-7.726-7.726-7.726z"/><path d="m229.022 286.666c1.747-3.064 2.759-6.599 2.759-10.371 0-11.592-9.431-21.022-21.022-21.022h-19.534c-4.267 0-7.726 3.459-7.726 7.726v58.591c0 4.267 3.459 7.726 7.726 7.726h23.506c13.082 0 23.725-10.643 23.725-23.726 0-7.72-3.708-14.589-9.434-18.924zm-30.07-15.941h11.807c3.071 0 5.569 2.499 5.569 5.569 0 3.071-2.499 5.57-5.569 5.57h-11.807zm15.779 43.138h-15.779v-16.546h11.807 3.972c4.561 0 8.273 3.711 8.273 8.273 0 4.561-3.712 8.273-8.273 8.273z"/></g></g></svg>