<svg id="Capa_1" enable-background="new 0 0 512 512" height="512" viewBox="0 0 512 512" width="512" xmlns="http://www.w3.org/2000/svg"><g><g><g><g><g><path d="m117.52 388.244h-107.47c-8.11 0-12.867-9.123-8.225-15.773l16.774-24.028c4.544-6.509 4.544-15.161 0-21.669l-16.774-24.028c-4.642-6.65.116-15.773 8.225-15.773h81.716z" fill="#e01058"/></g></g><g><g><path d="m394.477 388.244h107.471c8.109 0 12.867-9.123 8.225-15.773l-16.773-24.028c-4.544-6.509-4.544-15.161 0-21.669l16.774-24.028c4.642-6.65-.116-15.773-8.225-15.773h-81.716z" fill="#e01058"/></g><g><path d="m510.173 372.467c4.646 6.655-.113 15.782-8.221 15.782h-34.377c8.107 0 12.867-9.127 8.221-15.782l-16.771-24.024c-4.543-6.511-4.543-15.164 0-21.664l16.771-24.034c4.646-6.645-.113-15.772-8.221-15.772h34.377c8.107 0 12.867 9.127 8.221 15.772l-16.771 24.034c-4.543 6.5-4.543 15.154 0 21.664z" fill="#cf0e50"/></g></g></g><g><path d="m434.805 110.987c-33.014-2.719-136.571-15.785-168.99-74.218-1.997-3.58-5.715-5.864-9.815-5.864s-7.818 2.284-9.815 5.864c-32.419 58.433-135.976 71.499-168.99 74.218-5.768.467-10.208 5.301-10.208 11.1v185.035c0 109.813 154.65 189.544 184.18 203.768 3.059 1.477 6.607 1.477 9.666 0 29.53-14.223 184.18-93.954 184.18-203.768v-185.035c0-5.8-4.44-10.633-10.208-11.1zm-32.281 196.136c0 64.658-86.519 127.043-146.524 158.623-60.005-31.569-146.524-93.954-146.524-158.623v-157.099c18.801-2.751 42.022-7.298 65.401-14.786 33.789-10.824 60.919-25.483 81.122-43.785 20.204 18.302 47.333 32.961 81.123 43.785 23.379 7.489 46.6 12.035 65.401 14.786v157.099z" fill="#b5dbfd"/><g fill="#8dcafc"><path d="m109.478 307.126c0 20.779 8.932 41.331 23.045 60.688-20.027 1.597-35.819 3.379-47.285 4.873-11.28-20.274-18.255-42.237-18.255-65.56v-90.099c9.56-1.422 23.756-3.286 42.495-5.099z"/><path d="m445.017 217.027v90.099c0 23.323-6.974 45.287-18.255 65.56-11.466-1.494-27.269-3.276-47.295-4.873 14.124-19.367 23.055-39.909 23.055-60.688v-95.199c18.739 1.815 32.935 3.68 42.495 5.101z"/><path d="m445.017 122.086v185.04c0 109.806-154.65 189.542-184.185 203.769-3.06 1.473-6.603 1.473-9.663 0-5.46-2.637-15.205-7.51-27.454-14.392 1.339-.103 2.668-.464 3.925-1.061 29.525-14.227 184.175-93.962 184.175-203.769v-174.738c0-3.801-1.906-7.191-4.842-9.199 11.414 1.71 21.098 2.699 27.835 3.255 5.769.464 10.209 5.295 10.209 11.095z"/></g><g><path d="m377.583 473.901-121.583-44.011-121.583 44.011c-10.074 3.647-20.712-3.816-20.712-14.53v-129.794h284.59v129.793c0 10.715-10.638 18.178-20.712 14.531z" fill="#fdef63"/><g fill="#f3d730"><path d="m398.298 329.574v129.792c0 10.724-10.642 18.183-20.717 14.536l-25.981-9.406c7.768-.515 14.412-6.954 14.412-15.432v-119.49z"/><path d="m398.298 329.574v39.899c-32.43-3.163-80.076-6.253-142.298-6.253-62.223 0-109.868 3.091-142.298 6.253v-39.899z"/></g></g></g><g><path d="m256 0c-1.793 0-3.378 1.173-3.882 2.893-16.39 55.891-79.21 126.313-79.21 178.88 0 45.89 37.201 83.092 83.092 83.092s83.092-37.201 83.092-83.092c0-52.567-62.82-122.989-79.21-178.88-.504-1.72-2.089-2.893-3.882-2.893z" fill="#31a7fb"/><path d="m339.094 181.775c0 45.894-37.2 83.094-83.094 83.094-6.871 0-13.547-.834-19.934-2.411 36.262-8.921 63.15-41.66 63.15-80.683 0-41.197-38.58-93.354-63.15-140.887 6.789-13.124 12.506-25.899 16.05-37.993.505-1.721 2.092-2.895 3.884-2.895 1.793 0 3.379 1.174 3.884 2.895 16.39 55.887 79.21 126.31 79.21 178.88z" fill="#1c96f9"/></g><g><g><g><g><g><g><g><path d="m255.999 337.468c108.967 0 174.143 9.317 192.908 12.436 2.972.494 5.669-1.8 5.669-4.814v-96.3c0-2.377-1.707-4.406-4.05-4.808-16.365-2.802-82.164-12.709-194.527-12.709s-178.162 9.907-194.528 12.71c-2.343.401-4.05 2.43-4.05 4.808v96.3c0 3.013 2.697 5.308 5.669 4.814 18.766-3.12 83.942-12.437 192.909-12.437z" fill="#fb3a82"/></g></g></g></g><g><g><g><g><path d="m454.575 248.794v96.3c0 3.008-2.699 5.305-5.666 4.811-5.542-.917-15.113-2.38-28.67-3.976.711-.845 1.144-1.947 1.144-3.152v-99.133c0-1.659-.835-3.142-2.133-4.028 15.525 1.813 25.981 3.461 31.276 4.368 2.339.401 4.049 2.431 4.049 4.81z" fill="#fb1466"/></g></g></g></g></g></g></g></g><g><g fill="#b5dbfd"><path d="m99.71 275.824c1.42 0 2.752.55 3.753 1.552.646.645 1.118 1.449 1.366 2.324 1.165 4.105 5.435 6.492 9.541 5.325 4.106-1.164 6.49-5.435 5.326-9.541-.967-3.408-2.803-6.534-5.307-9.037-3.918-3.919-9.131-6.077-14.679-6.077-11.45 0-20.765 9.31-20.765 20.754v16.171c0 5.547 2.158 10.76 6.076 14.679 3.926 3.925 9.142 6.087 14.688 6.087 9.262 0 17.481-6.225 19.99-15.139 1.156-4.108-1.237-8.375-5.345-9.531-4.104-1.154-8.375 1.237-9.53 5.345-.642 2.28-2.744 3.873-5.115 3.873-1.42 0-2.756-.554-3.762-1.561-1-.999-1.55-2.332-1.55-3.751v-16.171c.001-2.923 2.385-5.302 5.313-5.302z"/><path d="m317.604 311.881c9.26 0 17.48-6.225 19.989-15.138 1.157-4.107-1.235-8.375-5.342-9.531-4.109-1.156-8.375 1.236-9.531 5.343-.643 2.281-2.746 3.874-5.116 3.874-1.419 0-2.756-.554-3.762-1.561-1.001-1-1.551-2.333-1.551-3.752v-16.171c0-2.923 2.383-5.301 5.313-5.301 1.42 0 2.752.551 3.751 1.55.647.647 1.121 1.451 1.368 2.326 1.165 4.105 5.436 6.493 9.541 5.325 4.106-1.164 6.49-5.435 5.326-9.541-.966-3.405-2.802-6.531-5.308-9.038-3.918-3.918-9.132-6.076-14.678-6.076-11.45 0-20.766 9.31-20.766 20.754v16.171c0 5.547 2.158 10.76 6.076 14.678 3.925 3.926 9.142 6.088 14.69 6.088z"/><path d="m184.221 311.881h26.072c4.268 0 7.726-3.459 7.726-7.726s-3.459-7.726-7.726-7.726h-18.346v-5.666h12.61c4.268 0 7.726-3.459 7.726-7.726s-3.459-7.726-7.726-7.726h-12.61v-5.666h18.346c4.268 0 7.726-3.459 7.726-7.726s-3.459-7.726-7.726-7.726h-26.072c-4.268 0-7.726 3.459-7.726 7.726v42.237c0 4.266 3.459 7.725 7.726 7.725z"/><path d="m168.346 307.245v-42.237c0-4.267-3.459-7.726-7.726-7.726s-7.726 3.459-7.726 7.726v13.392h-10.62v-13.392c0-4.267-3.459-7.726-7.726-7.726s-7.726 3.459-7.726 7.726v42.237c0 4.267 3.459 7.726 7.726 7.726s7.726-3.459 7.726-7.726v-13.392h10.62v13.392c0 4.267 3.459 7.726 7.726 7.726s7.726-3.459 7.726-7.726z"/><path d="m280.466 311.881c4.268 0 7.726-3.459 7.726-7.726v-42.237c0-4.267-3.459-7.726-7.726-7.726s-7.726 3.459-7.726 7.726v42.237c-.001 4.267 3.458 7.726 7.726 7.726z"/><path d="m230.798 311.881c4.268 0 7.726-3.459 7.726-7.726v-23.345c1.432 1.355 3.331 2.114 5.31 2.114s3.878-.759 5.31-2.114v23.345c0 4.267 3.459 7.726 7.726 7.726 4.268 0 7.726-3.459 7.726-7.726v-42.237c0-3.138-1.898-5.964-4.803-7.152-2.907-1.188-6.24-.499-8.438 1.739l-7.522 7.663-7.522-7.663c-2.199-2.239-5.53-2.928-8.438-1.739-2.904 1.188-4.803 4.014-4.803 7.152v42.237c.001 4.267 3.46 7.726 7.728 7.726z"/><path d="m351.544 314.971c4.268 0 7.726-3.459 7.726-7.726v-7.991h10.62v7.991c0 4.267 3.459 7.726 7.726 7.726s7.726-3.459 7.726-7.726v-29.201c0-11.449-9.314-20.763-20.763-20.763s-20.763 9.314-20.763 20.763v29.201c.002 4.267 3.461 7.726 7.728 7.726zm13.036-42.237c2.928 0 5.31 2.382 5.31 5.31v5.758h-10.62v-5.758c.001-2.928 2.383-5.31 5.31-5.31z"/><path d="m399.607 318.062h25.721c4.268 0 7.726-3.459 7.726-7.726s-3.459-7.726-7.726-7.726h-17.995v-34.511c0-4.267-3.459-7.726-7.726-7.726s-7.726 3.459-7.726 7.726v42.237c-.001 4.267 3.458 7.726 7.726 7.726z"/></g><path d="m197.135 356.125h-26.126c-4.268 0-7.726 3.459-7.726 7.726v42.324c0 4.267 3.459 7.726 7.726 7.726 4.268 0 7.726-3.459 7.726-7.726v-13.435h12.652c4.268 0 7.726-3.459 7.726-7.726s-3.459-7.726-7.726-7.726h-12.652v-5.709h18.399c4.268 0 7.726-3.459 7.726-7.726.001-4.268-3.458-7.728-7.725-7.728z" fill="#31a7fb"/><path d="m293.257 368.574c4.268 0 7.726-3.459 7.726-7.726s-3.459-7.726-7.726-7.726h-26.126c-4.268 0-7.726 3.459-7.726 7.726v42.323c0 4.267 3.459 7.726 7.726 7.726h26.126c4.268 0 7.726-3.459 7.726-7.726s-3.459-7.726-7.726-7.726h-18.399v-5.709h12.652c4.268 0 7.726-3.459 7.726-7.726s-3.459-7.726-7.726-7.726h-12.652v-5.709h18.399z" fill="#31a7fb"/><path d="m341.001 371.578c4.268 0 7.726-3.459 7.726-7.726s-3.459-7.726-7.726-7.726h-26.126c-4.268 0-7.726 3.459-7.726 7.726v42.324c0 4.267 3.459 7.726 7.726 7.726h26.126c4.268 0 7.726-3.459 7.726-7.726s-3.459-7.726-7.726-7.726h-18.399v-5.709h12.652c4.268 0 7.726-3.459 7.726-7.726s-3.459-7.726-7.726-7.726h-12.652v-5.709h18.399z" fill="#31a7fb"/><path d="m252.375 372.505c0-10.688-8.695-19.383-19.383-19.383h-13.987c-4.268 0-7.726 3.459-7.726 7.726v42.323c0 4.267 3.459 7.726 7.726 7.726 4.268 0 7.726-3.459 7.726-7.726v-11.283h4.305l6.578 14.479c1.294 2.848 4.102 4.532 7.039 4.532 1.068 0 2.155-.223 3.191-.694 3.884-1.765 5.604-6.345 3.838-10.23l-5.887-12.957c4.025-3.554 6.58-8.735 6.58-14.513zm-25.644-3.931h6.261c2.167 0 3.931 1.763 3.931 3.931s-1.764 3.931-3.931 3.931h-6.261z" fill="#31a7fb"/></g></g></svg>