<svg id="Capa_1" enable-background="new 0 0 512 512" height="512" viewBox="0 0 512 512" width="512" xmlns="http://www.w3.org/2000/svg"><g><g><g><g><g><g><path d="m500.358 275.042h-500.355v145.928h448.185c3.944 0 7.544-2.247 9.276-5.79l53.486-109.401c1.399-2.862 1.399-6.209 0-9.07z" fill="#23f1a8"/></g></g><g><g><path d="m510.952 305.781-53.485 109.396c-1.735 3.542-5.338 5.792-9.282 5.792h-39.339c3.944 0 7.548-2.251 9.282-5.792l53.485-109.396c1.394-2.86 1.394-6.205 0-9.076l-53.485-109.396c-1.735-3.541-5.338-5.792-9.282-5.792h39.339c3.944 0 7.548 2.251 9.282 5.792l53.485 109.396c1.394 2.871 1.394 6.216 0 9.076z" fill="#27e19d"/></g></g><g><g><g><path d="m504.25 282.99h-77.93l-46.78-95.68c-1.74-3.54-5.34-5.79-9.29-5.79h77.94c3.94 0 7.54 2.25 9.28 5.79z" fill="#fff1e2"/></g></g></g><g><g><path d="m504.251 282.993h-39.339l-46.784-95.684c-1.735-3.541-5.338-5.792-9.282-5.792h39.339c3.944 0 7.548 2.251 9.282 5.792z" fill="#fee7c9"/></g></g><g><g><path d="m441.32 283h-77.99l-46.78-95.69c-1.74-3.54-5.34-5.79-9.29-5.79h77.99c3.95 0 7.55 2.25 9.29 5.79z" fill="#fb3a82"/></g></g><g><g><path d="m348.33 282.99h77.99v.01h-77.99z" fill="#fb3a82"/></g></g><g><g><path d="m378.39 283h-86.09l-46.78-95.69c-1.73-3.54-5.34-5.79-9.28-5.79h86.08c3.95 0 7.55 2.25 9.29 5.79z" fill="#5169cd"/></g></g><g><g><path d="m60.269 282.996h255.188l-46.781-95.686c-1.735-3.541-5.338-5.792-9.282-5.792h-199.125z" fill="#bc83df"/></g></g></g></g></g><g><g><g><g><path d="m172.294 282.993v-160.983h-43.17c-8.666 0-15.692-7.025-15.692-15.692v-58.721c0-22.522-18.258-40.78-40.78-40.78h-1.54c-7.188 0-13.015 5.827-13.015 13.015v66.526c0 13.957-7.616 26.801-19.862 33.497-23.572 12.889-38.233 37.614-38.233 64.48v98.658z" fill="#fdb0a0"/><g fill="#f69583"><path d="m97.267 282.993h75.024v-160.987h-43.17c-5.266 0-9.912-2.592-12.752-6.567-5.39 7.527-8.57 16.747-8.57 26.691 0 7.217 1.683 14.042 4.657 20.124-2.974 6.082-4.657 12.907-4.657 20.124s1.683 14.042 4.657 20.124c-2.974 6.081-4.657 12.906-4.657 20.124 0 7.166 1.652 13.96 4.595 20.01-2.932 6.051-4.595 12.824-4.595 19.99 0 2.607.224 5.162.648 7.65-4.204 2.707-7.969 6.034-11.18 12.717z"/><path d="m126.67 121.819c-4.914 11.074-16.009 18.821-28.886 18.821-4.275 0-7.726-3.461-7.726-7.726s3.451-7.726 7.726-7.726c8.571 0 15.597-6.717 16.091-15.164 1.474 6.108 6.521 10.816 12.795 11.795z"/></g></g><g><path d="m209.819 162.255h-56.085c-11.113 0-20.123-9.009-20.123-20.123 0-11.113 9.009-20.123 20.123-20.123h56.085c8.625 0 15.618 6.992 15.618 15.618v9.01c0 8.626-6.992 15.618-15.618 15.618z" fill="#ffcec0"/><path d="m225.441 137.628v9.014c0 8.622-7 15.612-15.622 15.612h-27.713c8.632 0 15.622-6.99 15.622-15.612v-9.014c0-8.622-6.99-15.622-15.622-15.622h27.713c8.622 0 15.622 7 15.622 15.622z" fill="#fdb0a0"/><path d="m209.819 202.501h-56.085c-11.113 0-20.123-9.009-20.123-20.123 0-11.113 9.009-20.123 20.123-20.123h56.085c8.625 0 15.618 6.992 15.618 15.618v9.01c0 8.626-6.992 15.618-15.618 15.618z" fill="#ffcec0"/><path d="m225.441 177.875v9.004c0 8.632-7 15.622-15.622 15.622h-27.713c8.632 0 15.622-6.99 15.622-15.622v-9.004c0-8.632-6.99-15.622-15.622-15.622h27.713c8.622 0 15.622 6.99 15.622 15.622z" fill="#fdb0a0"/><path d="m209.819 242.747h-56.085c-11.113 0-20.123-9.009-20.123-20.123 0-11.113 9.009-20.123 20.123-20.123h56.085c8.625 0 15.618 6.992 15.618 15.618v9.01c0 8.625-6.992 15.618-15.618 15.618z" fill="#ffcec0"/><path d="m225.441 218.123v9.004c0 8.632-7 15.622-15.622 15.622h-27.713c8.632 0 15.622-6.99 15.622-15.622v-9.004c0-8.632-6.99-15.622-15.622-15.622h27.713c8.622 0 15.622 6.99 15.622 15.622z" fill="#fdb0a0"/><path d="m209.819 282.992h-56.085c-11.113 0-20.123-9.009-20.123-20.123 0-11.114 9.009-20.123 20.123-20.123h56.085c8.625 0 15.618 6.992 15.618 15.618v9.01c0 8.626-6.992 15.618-15.618 15.618z" fill="#ffcec0"/><path d="m225.441 258.368v9.004c0 8.632-7 15.622-15.622 15.622h-27.713c8.632 0 15.622-6.99 15.622-15.622v-9.004c0-8.632-6.99-15.622-15.622-15.622h27.713c8.622 0 15.622 6.99 15.622 15.622z" fill="#fdb0a0"/></g></g></g></g><g><g><path d="m420.664 505.181h-321.122c-5.702 0-10.325-4.623-10.325-10.325v-79.566c0-5.702 4.623-10.325 10.325-10.325h321.122c5.702 0 10.325 4.623 10.325 10.325v79.566c0 5.702-4.623 10.325-10.325 10.325z" fill="#fdef63"/><path d="m430.988 415.29v79.56c0 5.707-4.625 10.333-10.322 10.333h-30.174c5.697 0 10.322-4.625 10.322-10.333v-79.56c0-5.707-4.625-10.322-10.322-10.322h30.174c5.696 0 10.322 4.615 10.322 10.322z" fill="#f3d730"/></g><g><path d="m42.258 218.861c0 4.265-3.461 7.726-7.726 7.726-14.258 0-26.877-7.087-34.531-17.935v-24.312c0-2.596.134-5.161.402-7.706 4.09.196 7.325 3.564 7.325 7.706 0 14.773 12.022 26.795 26.805 26.795 4.263 0 7.725 3.461 7.725 7.726z" fill="#f69583"/><g fill="#fff1e2"><path d="m65.49 333.028c1.526 0 2.96.593 4.034 1.667.696.697 1.205 1.562 1.472 2.504 1.165 4.105 5.44 6.49 9.541 5.325 4.106-1.164 6.49-5.436 5.326-9.541-.985-3.47-2.855-6.655-5.412-9.214-3.995-3.994-9.308-6.193-14.961-6.193-11.672 0-21.168 9.491-21.168 21.156v16.67c0 5.654 2.2 10.968 6.194 14.962 4.002 4.001 9.32 6.205 14.974 6.205 9.44 0 17.819-6.346 20.377-15.432 1.156-4.107-1.236-8.374-5.344-9.531-4.107-1.158-8.374 1.236-9.531 5.344-.69 2.453-2.953 4.167-5.502 4.167-1.527 0-2.964-.597-4.046-1.679-1.076-1.076-1.669-2.509-1.669-4.036v-16.67c0-3.145 2.563-5.704 5.715-5.704z"/><path d="m136.005 355.404v-30.102c0-4.267-3.459-7.726-7.726-7.726-4.268 0-7.726 3.459-7.726 7.726v30.102c0 3.15-2.562 5.712-5.712 5.712s-5.712-2.562-5.712-5.712v-30.102c0-4.267-3.459-7.726-7.726-7.726-4.268 0-7.726 3.459-7.726 7.726v30.102c0 11.67 9.495 21.165 21.165 21.165s21.163-9.494 21.163-21.165z"/><path d="m378.648 376.569c4.268 0 7.726-3.459 7.726-7.726s-3.459-7.726-7.726-7.726h-19.15v-6.318h13.237c4.268 0 7.726-3.459 7.726-7.726s-3.459-7.726-7.726-7.726h-13.237v-6.318h19.15c4.268 0 7.726-3.459 7.726-7.726s-3.459-7.726-7.726-7.726h-26.876c-4.268 0-7.726 3.459-7.726 7.726v43.541c0 4.267 3.459 7.726 7.726 7.726h26.876z"/><path d="m234.909 325.302c0-4.267-3.459-7.726-7.726-7.726h-26.38c-4.268 0-7.726 3.459-7.726 7.726s3.459 7.726 7.726 7.726h5.464v35.815c0 4.267 3.459 7.726 7.726 7.726s7.726-3.459 7.726-7.726v-35.815h5.464c4.268 0 7.726-3.459 7.726-7.726z"/><path d="m167.262 361.117h-15.992c-4.268 0-7.726 3.459-7.726 7.726s3.459 7.726 7.726 7.726h15.992c10.263 0 18.612-8.349 18.612-18.612s-8.349-18.612-18.612-18.612h-5.107c-1.741 0-3.159-1.417-3.159-3.159s1.417-3.159 3.159-3.159h15.992c4.268 0 7.726-3.459 7.726-7.726s-3.459-7.726-7.726-7.726h-15.992c-10.263 0-18.612 8.349-18.612 18.612s8.349 18.612 18.612 18.612h5.107c1.741 0 3.159 1.417 3.159 3.159s-1.418 3.159-3.159 3.159z"/><path d="m283.104 338.741c0-11.67-9.494-21.165-21.164-21.165s-21.165 9.494-21.165 21.165v16.664c0 11.67 9.495 21.165 21.165 21.165s21.164-9.494 21.164-21.165zm-15.452 16.663c0 3.15-2.562 5.712-5.711 5.712-3.15 0-5.712-2.562-5.712-5.712v-16.664c0-3.15 2.562-5.712 5.712-5.712 3.149 0 5.711 2.562 5.711 5.712z"/><path d="m307.709 368.843v-24.641l.198.202c1.454 1.48 3.441 2.314 5.514 2.314 2.074 0 4.061-.834 5.514-2.314l.197-.201v24.64c0 4.267 3.459 7.726 7.726 7.726s7.726-3.459 7.726-7.726v-43.541c0-3.138-1.898-5.964-4.803-7.152-2.907-1.188-6.24-.499-8.438 1.739l-7.923 8.072-7.924-8.072c-2.199-2.239-5.531-2.928-8.438-1.739-2.904 1.188-4.803 4.014-4.803 7.152v43.541c0 4.267 3.459 7.726 7.726 7.726s7.728-3.459 7.728-7.726z"/><path d="m430.249 352.17c4.165-3.618 6.815-8.938 6.815-14.875 0-10.873-8.846-19.719-19.718-19.719h-14.388c-4.268 0-7.726 3.459-7.726 7.726v43.541c0 4.267 3.459 7.726 7.726 7.726s7.726-3.459 7.726-7.726v-11.83h4.793l6.826 15.026c1.294 2.849 4.102 4.533 7.039 4.533 1.068 0 2.155-.223 3.191-.694 3.884-1.765 5.604-6.346 3.838-10.23zm-19.565-19.142h6.662c2.352 0 4.266 1.914 4.266 4.266s-1.913 4.266-4.266 4.266h-6.662z"/></g><path d="m148.239 441.029c1.527 0 2.96.593 4.035 1.668.696.696 1.205 1.561 1.472 2.502 1.165 4.106 5.442 6.488 9.541 5.325 4.106-1.164 6.49-5.436 5.326-9.541-.985-3.471-2.856-6.657-5.411-9.213-3.995-3.994-9.309-6.194-14.963-6.194-11.672 0-21.167 9.491-21.167 21.156v16.67c0 5.654 2.199 10.968 6.195 14.963 4.002 4.001 9.319 6.204 14.972 6.204 9.441 0 17.82-6.346 20.378-15.432 1.156-4.107-1.236-8.374-5.344-9.531-4.107-1.158-8.374 1.236-9.531 5.344-.69 2.453-2.954 4.167-5.503 4.167-1.526 0-2.964-.597-4.046-1.679-1.075-1.075-1.668-2.509-1.668-4.036v-16.67c0-3.144 2.563-5.703 5.714-5.703z" fill="#fb3a82"/><path d="m322.514 441.029c1.527 0 2.96.593 4.035 1.668.695.695 1.204 1.56 1.471 2.502 1.165 4.106 5.441 6.488 9.541 5.325 4.106-1.164 6.49-5.436 5.326-9.541-.985-3.472-2.856-6.658-5.41-9.213-3.995-3.994-9.309-6.194-14.963-6.194-11.672 0-21.167 9.491-21.167 21.156v16.67c0 5.654 2.199 10.968 6.193 14.962 4.002 4.001 9.32 6.205 14.974 6.205 9.44 0 17.819-6.346 20.377-15.432 1.156-4.107-1.236-8.374-5.344-9.531-4.109-1.158-8.374 1.236-9.531 5.344-.69 2.453-2.953 4.167-5.502 4.167-1.527 0-2.964-.597-4.046-1.679-1.075-1.075-1.668-2.509-1.668-4.036v-16.67c0-3.144 2.564-5.703 5.714-5.703z" fill="#fb3a82"/><path d="m385.407 441.029c4.268 0 7.726-3.459 7.726-7.726s-3.459-7.726-7.726-7.726h-26.877c-4.268 0-7.726 3.459-7.726 7.726v43.541c0 4.267 3.459 7.726 7.726 7.726h26.877c4.268 0 7.726-3.459 7.726-7.726s-3.459-7.726-7.726-7.726h-19.151v-6.318h13.237c4.268 0 7.726-3.459 7.726-7.726s-3.459-7.726-7.726-7.726h-13.237v-6.318h19.151z" fill="#fb3a82"/><path d="m248.787 425.577c-11.67 0-21.165 9.494-21.165 21.165v16.664c0 11.67 9.495 21.165 21.165 21.165s21.165-9.494 21.165-21.165v-16.664c-.001-11.671-9.496-21.165-21.165-21.165zm5.712 37.828c0 3.15-2.562 5.712-5.712 5.712s-5.712-2.562-5.712-5.712v-16.664c0-3.15 2.562-5.712 5.712-5.712s5.712 2.562 5.712 5.712z" fill="#fb3a82"/><path d="m286.183 425.577c-4.268 0-7.726 3.459-7.726 7.726v43.541c0 4.267 3.459 7.726 7.726 7.726s7.726-3.459 7.726-7.726v-43.541c0-4.267-3.459-7.726-7.726-7.726z" fill="#fb3a82"/><path d="m211.027 425.577c-4.268 0-7.726 3.459-7.726 7.726v14.044h-11.423v-14.044c0-4.267-3.459-7.726-7.726-7.726s-7.726 3.459-7.726 7.726v43.541c0 4.267 3.459 7.726 7.726 7.726s7.726-3.459 7.726-7.726v-14.044h11.423v14.044c0 4.267 3.459 7.726 7.726 7.726s7.726-3.459 7.726-7.726v-43.541c.001-4.267-3.458-7.726-7.726-7.726z" fill="#fb3a82"/></g></g></g></svg>