<svg id="Capa_1" enable-background="new 0 0 512 512" height="512" viewBox="0 0 512 512" width="512" xmlns="http://www.w3.org/2000/svg"><g><g><path d="m146.905 119.359c-11.411 12.063-28.7 15.521-44.334 10.421-5.96-15.327-3.467-32.781 7.944-44.844 11.414-12.066 28.703-15.524 44.337-10.424 5.96 15.327 3.467 32.781-7.947 44.847z" fill="#138b80"/><path d="m146.906 119.364c-11.413 12.056-28.703 15.511-44.333 10.421-.625-1.617-1.167-3.257-1.597-4.907 9.991-.766 19.527-4.95 26.724-12.567 10.222-10.795 13.286-25.909 9.549-39.941 5.842-.457 11.835.264 17.6 2.142 5.961 15.33 3.466 32.782-7.943 44.852z" fill="#127e73"/></g><g><path d="m222.533 242.357h-186.246c-5.69 0-10.302-4.612-10.302-10.302v-107.83c0-5.69 4.612-10.302 10.302-10.302h186.246c5.69 0 10.302 4.612 10.302 10.302v107.83c0 5.69-4.612 10.302-10.302 10.302z" fill="#fb9927"/><path d="m232.831 124.221v107.839c0 5.687-4.605 10.302-10.302 10.302h-35.449c5.687 0 10.302-4.615 10.302-10.302v-107.839c0-5.687-4.615-10.302-10.302-10.302h35.449c5.697 0 10.302 4.615 10.302 10.302z" fill="#f98824"/><g><path d="m254.749 219.095c8.039 14.529 6.097 32.053-3.499 45.407-16.412 1.037-32.291-6.626-40.33-21.155-8.042-14.533-6.099-32.057 3.497-45.411 16.412-1.037 32.291 6.626 40.332 21.159z" fill="#23f1a8"/><path d="m251.251 264.501c-6.996.437-13.898-.701-20.133-3.274 4.777-11.562 4.575-24.712-1.687-36.038-4.621-8.331-11.81-14.408-20.209-17.877 1.337-3.274 3.083-6.435 5.198-9.376 16.413-1.036 32.294 6.624 40.329 21.156 8.043 14.537 6.099 32.06-3.498 45.409z" fill="#26d192"/></g></g><g><g><path d="m322.054 225.017c4.441 24.766-6.899 48.956-27.183 63.43-24.049-6.524-43.087-25.267-47.528-50.033-4.442-24.773 6.898-48.963 27.182-63.436 24.05 6.523 43.088 25.266 47.529 50.039z" fill="#138b80"/><path d="m294.872 288.451c-5.53-1.501-10.798-3.651-15.678-6.372 14.212-14.541 21.448-34.744 17.749-55.353-3.425-19.068-15.488-34.57-31.848-43.666 2.872-2.946 6.029-5.654 9.434-8.083 24.047 6.529 43.086 25.265 47.527 50.038 4.44 24.773-6.899 48.96-27.184 63.436z" fill="#127e73"/></g><path d="m296.987 270.013-11.397-73.967c-.581-3.768-3.823-6.55-7.636-6.55-4.736 0-8.358 4.222-7.636 8.903l11.424 74.146c.589 3.819 3.879 6.551 7.627 6.551 1.323 0 2.715-.34 4.001-1.098 2.738-1.615 4.101-4.842 3.617-7.985z" fill="#0c6e65"/><g><path d="m0 387.181c37.602-21.961 81.313-34.602 128-34.602s90.398 12.641 128 34.602c37.602 21.961 81.313 34.602 128 34.602 41.009 0 79.721-9.753 114.015-27.009 8.628-4.342 13.985-13.272 13.985-22.931v-95.725c0-12.481-12.879-20.637-24.268-15.532-31.676 14.197-66.771 22.12-103.732 22.12-46.687 0-90.398-12.641-128-34.602-37.602-21.961-81.313-34.602-128-34.602-41.009 0-79.721 9.753-114.015 27.009-8.628 4.342-13.985 13.272-13.985 22.931z" fill="#ffd496"/><path d="m512 276.116v95.724c0 9.663-5.357 18.595-13.99 22.932-11.723 5.893-23.972 10.92-36.644 14.979 6.078-4.801 9.694-12.249 9.694-20.191v-101.287c0-8.344-5.759-14.752-12.97-16.565 10.158-3.101 20.058-6.82 29.638-11.116 11.395-5.11 24.272 3.049 24.272 15.524z" fill="#fcc16d"/></g><g><g><path d="m450.806 444.281c-14.307 8.429-31.877 6.96-45.485-2.272-1.479-16.378 5.752-32.458 20.059-40.886 14.311-8.431 31.88-6.962 45.489 2.27 1.48 16.378-5.752 32.457-20.063 40.888z" fill="#26d192"/><path d="m450.806 444.283c-14.309 8.427-31.874 6.954-45.482-2.277-.288-3.225-.247-6.449.124-9.591 9.684 1.906 19.852.494 28.742-4.749 11.497-6.768 18.42-18.461 19.934-31.286 5.893 1.143 11.6 3.523 16.751 7.015 1.472 16.38-5.76 32.45-20.069 40.888z" fill="#1ec186"/></g></g><g><path d="m431.854 258.081c-31.426 31.426-76.637 40.694-116.186 27.788-12.906-39.549-3.638-84.76 27.788-116.186 31.434-31.434 76.645-40.702 116.194-27.796 12.906 39.549 3.638 84.76-27.796 116.194z" fill="#23f1a8"/><path d="m431.859 258.077c-31.431 31.431-76.645 40.702-116.194 27.794-1.69-5.161-2.998-10.425-3.925-15.741 35.387 6.181 73.122-4.389 100.453-31.719 27.331-27.331 37.9-65.066 31.719-100.453 5.316.927 10.58 2.235 15.741 3.925 12.908 39.549 3.636 84.763-27.794 116.194z" fill="#26d192"/><path d="m472.628 180.221c-1.126-4.116-5.374-6.54-9.491-5.413-9.81 2.685-19.752 2.667-27.415 1.933l26.097-26.097c3.018-3.017 3.018-7.909 0-10.927-3.017-3.017-7.909-3.017-10.927 0l-36.583 36.583c-.01.01-.02.02-.03.03l-13.99 13.99c-.457-15.801 1.44-36.738 11.475-47.334 2.934-3.098 2.801-7.988-.298-10.923-3.098-2.934-7.988-2.801-10.923.298-9.63 10.169-14.903 26.276-15.673 47.873-.371 10.408.424 19.52 1.005 24.5l-27.365 27.365c-3.836-13.931-8.029-39.603 1.404-68.198 1.337-4.053-.865-8.422-4.917-9.758-4.051-1.335-8.422.865-9.758 4.917-12.869 39.014-3.548 72.859.941 85.369l-35.976 35.976c-3.018 3.017-3.018 7.909 0 10.927 1.509 1.509 3.486 2.263 5.463 2.263s3.955-.755 5.463-2.263l22.408-22.408c6.72 4.423 23.661 13.637 48.168 13.637 7.718 0 16.192-.915 25.326-3.181 4.142-1.028 6.667-5.218 5.639-9.359-1.027-4.141-5.22-6.666-9.359-5.639-29.127 7.228-49.793-1.601-58.561-6.671l23.097-23.097c8.577 3.804 26.772 10.306 50.954 10.306 6.822 0 14.124-.518 21.815-1.761 4.212-.681 7.075-4.647 6.395-8.86-.681-4.213-4.645-7.073-8.86-6.395-25.878 4.179-46.875-1.039-58.397-5.199l32.405-32.405c4.73 1.009 12.712 2.327 22.146 2.327 7.076 0 14.969-.743 22.906-2.915 4.118-1.125 6.542-5.375 5.416-9.491z" fill="#138b80"/></g><g><g><g fill="#ffd496"><path d="m105.725 413.956c-4.267 0-7.726-3.459-7.726-7.726v-10.398c0-4.267 3.459-7.726 7.726-7.726s7.726 3.459 7.726 7.726v10.398c0 4.266-3.459 7.726-7.726 7.726z"/><path d="m129.41 413.956c-4.267 0-7.726-3.459-7.726-7.726v-10.398c0-4.267 3.459-7.726 7.726-7.726s7.726 3.459 7.726 7.726v10.398c0 4.266-3.459 7.726-7.726 7.726z"/><path d="m153.095 413.956c-4.267 0-7.726-3.459-7.726-7.726v-10.398c0-4.267 3.459-7.726 7.726-7.726s7.726 3.459 7.726 7.726v10.398c0 4.266-3.459 7.726-7.726 7.726z"/></g></g><g fill="#fb9927"><path d="m74.043 408.757h-17.637c-4.267 0-7.726-3.459-7.726-7.726s3.459-7.726 7.726-7.726h17.636c4.267 0 7.726 3.459 7.726 7.726s-3.458 7.726-7.725 7.726z"/><path d="m202.413 408.757h-17.636c-4.267 0-7.726-3.459-7.726-7.726s3.459-7.726 7.726-7.726h17.636c4.267 0 7.726 3.459 7.726 7.726s-3.459 7.726-7.726 7.726z"/></g></g></g><g><path d="m105.26 73.248c12.059 11.416 15.51 28.706 10.404 44.338-15.329 5.954-32.782 3.455-44.841-7.961-12.062-11.419-15.513-28.709-10.407-44.341 15.329-5.954 32.782-3.455 44.844 7.964z" fill="#23f1a8"/><path d="m115.663 117.584c-6.536 2.533-13.459 3.537-20.18 2.971 1.055-12.466-3.117-24.938-12.512-33.838-6.925-6.542-15.616-10.159-24.67-10.924.284-3.525.991-7.066 2.117-10.509 15.331-5.953 32.785-3.458 44.84 7.963 12.065 11.421 15.514 28.711 10.405 44.337z" fill="#26d192"/></g><g><path d="m128.962 153.874c1.527 0 2.96.593 4.036 1.668.695.696 1.204 1.56 1.47 2.501 1.163 4.105 5.434 6.493 9.54 5.327 4.105-1.163 6.49-5.435 5.327-9.54-.984-3.472-2.855-6.658-5.411-9.214-3.994-3.994-9.308-6.194-14.962-6.194-11.672 0-21.167 9.491-21.167 21.156v16.67c0 5.654 2.2 10.968 6.194 14.963 4.002 4.001 9.319 6.205 14.973 6.205 9.441 0 17.82-6.346 20.377-15.433 1.156-4.108-1.237-8.374-5.345-9.531-4.106-1.155-8.375 1.236-9.531 5.345-.69 2.453-2.953 4.167-5.502 4.167-1.527 0-2.964-.597-4.047-1.679-1.075-1.075-1.668-2.509-1.668-4.036v-16.67c.002-3.146 2.565-5.705 5.716-5.705z" fill="#fff1e2"/><path d="m157.148 159.587v16.664c0 11.671 9.494 21.165 21.165 21.165 11.67 0 21.164-9.494 21.164-21.165v-16.664c0-11.671-9.494-21.165-21.165-21.165-11.67 0-21.164 9.494-21.164 21.165zm26.877 0v16.664c0 3.15-2.562 5.712-5.712 5.712-3.149 0-5.712-2.562-5.712-5.712v-16.664c0-3.15 2.562-5.712 5.712-5.712 3.149-.001 5.712 2.562 5.712 5.712z" fill="#fff1e2"/><path d="m93.956 153.874c4.267 0 7.726-3.459 7.726-7.726s-3.459-7.726-7.726-7.726h-26.878c-4.267 0-7.726 3.459-7.726 7.726v43.541c0 4.267 3.459 7.726 7.726 7.726h26.877c4.267 0 7.726-3.459 7.726-7.726s-3.459-7.726-7.726-7.726h-19.15v-6.318h13.238c4.267 0 7.726-3.459 7.726-7.726s-3.459-7.726-7.726-7.726h-13.238v-6.318h19.151z" fill="#fff1e2"/><g fill="#138b80"><path d="m182.233 311.955v-45.531c0-4.267-3.459-7.726-7.726-7.726s-7.726 3.459-7.726 7.726v45.531c0 4.267 3.459 7.726 7.726 7.726s7.726-3.459 7.726-7.726z"/><path d="m90.729 274.009c4.267 0 7.726-3.459 7.726-7.726s-3.459-7.726-7.726-7.726h-28.106c-4.267 0-7.726 3.459-7.726 7.726v45.531c0 4.267 3.459 7.726 7.726 7.726s7.726-3.459 7.726-7.726v-15.039h14.196c4.267 0 7.726-3.459 7.726-7.726s-3.459-7.726-7.726-7.726h-14.195v-7.313h20.379z"/><path d="m435.334 374.622c4.267 0 7.726-3.459 7.726-7.726v-24.154l12.516-16.753c2.554-3.418 1.853-8.26-1.565-10.814-3.419-2.554-8.26-1.853-10.814 1.565l-7.863 10.525-7.863-10.525c-2.553-3.419-7.395-4.119-10.814-1.565s-4.119 7.395-1.565 10.814l12.516 16.753v24.154c0 4.267 3.459 7.726 7.726 7.726z"/><path d="m375.889 316.87c-4.267 0-7.726 3.459-7.726 7.726v45.531c0 4.267 3.459 7.726 7.726 7.726h28.106c4.267 0 7.726-3.459 7.726-7.726s-3.459-7.726-7.726-7.726h-20.379v-37.805c-.001-4.267-3.46-7.726-7.727-7.726z"/><path d="m333.184 368.158c12.009 0 21.779-9.77 21.779-21.779v-17.426c0-12.009-9.77-21.779-21.779-21.779h-14.053c-4.267 0-7.726 3.459-7.726 7.726v45.531c0 4.267 3.459 7.726 7.726 7.726h14.053zm-6.327-45.531h6.326c3.488 0 6.326 2.838 6.326 6.326v17.426c0 3.488-2.838 6.326-6.326 6.326h-6.326z"/><path d="m270.099 344.273v-18.305l13.805 22.364.006-.004c1.362 2.201 3.79 3.672 6.568 3.672 4.267 0 7.726-3.459 7.726-7.726v-45.531c0-4.267-3.459-7.726-7.726-7.726s-7.726 3.459-7.726 7.726v18.306l-13.805-22.364c-1.814-2.94-5.36-4.317-8.684-3.375-3.324.944-5.617 3.978-5.617 7.433v45.531c0 4.267 3.459 7.726 7.726 7.726s7.727-3.46 7.727-7.727z"/><path d="m233.71 290.309c4.267 0 7.726-3.459 7.726-7.726s-3.459-7.726-7.726-7.726h-28.106c-4.267 0-7.726 3.459-7.726 7.726v45.531c0 4.267 3.459 7.726 7.726 7.726h28.106c4.267 0 7.726-3.459 7.726-7.726s-3.459-7.726-7.726-7.726h-20.38v-7.313h14.196c4.267 0 7.726-3.459 7.726-7.726s-3.459-7.726-7.726-7.726h-14.196v-7.313h20.38z"/><path d="m151.859 269.269c0-11.175-9.092-20.267-20.267-20.267h-15.046c-4.267 0-7.726 3.459-7.726 7.726v45.531c0 4.267 3.459 7.726 7.726 7.726s7.726-3.459 7.726-7.726v-12.724h5.593l7.233 15.921c1.294 2.848 4.102 4.532 7.039 4.532 1.069 0 2.155-.223 3.192-.694 3.885-1.765 5.603-6.345 3.838-10.23l-6.509-14.327c4.397-3.721 7.201-9.27 7.201-15.468zm-27.587-4.814h7.32c2.654 0 4.814 2.159 4.814 4.814s-2.16 4.814-4.814 4.814h-7.32z"/></g></g></g></svg>