<svg id="Capa_1" enable-background="new 0 0 512 512" height="512" viewBox="0 0 512 512" width="512" xmlns="http://www.w3.org/2000/svg"><g><g><g><g><g><path d="m92.655 392.061h-82.544c-8.16 0-12.947-9.18-8.276-15.871l16.878-24.177c4.572-6.549 4.572-15.255 0-21.804l-16.878-24.177c-4.671-6.691.116-15.871 8.276-15.871h82.544z" fill="#17998c"/><path d="m419.345 392.061h82.544c8.16 0 12.947-9.18 8.276-15.871l-16.878-24.177c-4.572-6.549-4.572-15.255 0-21.804l16.878-24.177c4.671-6.691-.116-15.871-8.276-15.871h-82.544z" fill="#17998c"/><path d="m510.166 376.191c4.667 6.686-.113 15.865-8.272 15.865h-33.12c8.159 0 12.949-9.179 8.272-15.865l-16.874-24.178c-4.574-6.552-4.574-15.257 0-21.809l16.874-24.178c4.677-6.686-.113-15.865-8.272-15.865h33.12c8.159 0 12.939 9.179 8.272 15.875l-16.874 24.168c-4.574 6.552-4.574 15.257 0 21.809z" fill="#138b80"/></g></g><g><path d="m51.895 104.033v182.177c0 153.444 175.161 216.787 200.949 225.281 2.054.677 4.256.677 6.311 0 25.789-8.494 200.949-71.838 200.949-225.281v-182.177z" fill="#5169cd"/><path d="m51.895 104.033h408.209v45.021h-408.209z" fill="#3351c5"/><path d="m420.039 104.033v182.174c0 133.532-132.654 198.829-184.07 219.123 7.677 3.03 13.536 5.061 16.88 6.162 2.051.677 4.253.677 6.303 0 25.789-8.495 200.95-71.842 200.95-225.285v-182.174z" fill="#3351c5"/><path d="m460.105 115.009v-104.906c0-5.579-4.523-10.102-10.102-10.102h-388.006c-5.579 0-10.102 4.523-10.102 10.102v104.907h408.21z" fill="#fdef63"/><path d="m420.039 10.102v104.908h40.063v-104.908c0-5.577-4.515-10.102-10.102-10.102h-40.063c5.587 0 10.102 4.525 10.102 10.102z" fill="#f3d730"/></g></g><g><g><path d="m357.916 378.471-137.901 44.513c-8.588 2.772-17.796-1.943-20.568-10.53l-78.779-244.059c-2.772-8.588 1.943-17.796 10.53-20.568l137.901-44.513c8.588-2.772 17.796 1.943 20.568 10.53l78.779 244.059c2.772 8.587-1.943 17.796-10.53 20.568z" fill="#fb9927"/><path d="m289.668 113.845 78.78 244.061c2.771 8.583-1.947 17.798-10.53 20.568l-33.918 10.948c8.594-2.774 13.301-11.985 10.53-20.568l-78.78-244.061c-2.774-8.594-11.975-13.304-20.568-10.53l33.918-10.948c8.583-2.771 17.794 1.936 20.568 10.53z" fill="#f98824"/><path d="m155.765 151.706h177.586v222.889h-177.586z" fill="#eaf6ff" transform="matrix(.952 -.307 .307 .952 -69.011 87.846)"/><path d="m294.278 129.905h35.641v222.889h-35.641z" fill="#c4e1ff" transform="matrix(.952 -.307 .307 .952 -59.048 107.54)"/></g><g><g><path d="m244.717 263.645-16.213 12.425c-3.103 2.378-7.627.899-8.725-2.854l-5.738-19.604-16.827-11.58c-3.221-2.217-3.212-6.976.018-9.18l16.872-11.515 5.813-19.582c1.113-3.748 5.642-5.21 8.736-2.82l16.165 12.488 20.42-.522c3.909-.1 6.699 3.756 5.382 7.437l-6.881 19.233 6.807 19.259c1.303 3.686-1.502 7.532-5.41 7.417z" fill="#fcb44d"/><path d="m270.619 218.332-6.884 19.237 6.808 19.262c1.302 3.683-1.502 7.532-5.404 7.416l-20.426-.602-16.209 12.427c-3.108 2.379-7.633.895-8.73-2.854l-4.721-16.139c20.992-4.582 35.338-24.262 33.141-45.751l17.046-.433c3.902-.099 6.694 3.763 5.379 7.437z" fill="#fb9927"/></g></g><path d="m234.17 327.355c-3.263 0-6.295-2.083-7.351-5.355-1.311-4.061.919-8.415 4.98-9.726l51.83-16.73c4.058-1.311 8.415.918 9.726 4.979s-.919 8.415-4.98 9.726l-51.83 16.73c-.788.254-1.588.376-2.375.376z" fill="#fb9927"/></g><g><g><g><path d="m256 346.626c-114.67 0-183.411-9.772-203.486-13.098-3.244-.537-6.187 1.969-6.187 5.257v82.846c0 10.222 7.504 18.893 17.623 20.338 29.01 4.143 93.604 11.345 192.049 11.345s163.039-7.202 192.049-11.345c10.119-1.445 17.623-10.117 17.623-20.338v-82.846c0-3.288-2.943-5.795-6.187-5.257-20.073 3.326-88.814 13.098-203.484 13.098z" fill="#23f1a8"/><path d="m465.67 338.787v82.839c0 10.228-7.501 18.901-17.623 20.339-7.149 1.023-16.461 2.227-27.904 3.473 6.915-3.356 11.549-10.441 11.549-18.486v-89.519c12.956-1.566 22.236-2.983 27.798-3.91 3.24-.532 6.18 1.972 6.18 5.264z" fill="#26d192"/></g></g></g></g><g><g fill="#f98824"><path d="m178.411 80.518c8.68 0 16.384-5.835 18.736-14.19 1.156-4.108-1.236-8.375-5.344-9.531-4.109-1.158-8.374 1.236-9.531 5.344-.484 1.722-2.072 2.924-3.861 2.924-1.071 0-2.08-.419-2.84-1.179-.755-.755-1.17-1.76-1.17-2.831v-14.557c0-2.206 1.799-4.001 4.01-4.001 1.071 0 2.077.415 2.829 1.168.491.49.849 1.1 1.036 1.762 1.165 4.105 5.437 6.487 9.542 5.324 4.105-1.164 6.489-5.436 5.325-9.542-.905-3.19-2.625-6.118-4.974-8.469-3.673-3.673-8.559-5.696-13.759-5.696-10.731 0-19.463 8.727-19.463 19.453v14.557c0 5.199 2.023 10.085 5.695 13.757 3.68 3.68 8.569 5.707 13.769 5.707z"/><path d="m81.817 80.518h23.469c4.268 0 7.726-3.459 7.726-7.726s-3.459-7.726-7.726-7.726h-15.743v-3.557h10.579c4.268 0 7.726-3.459 7.726-7.726s-3.459-7.726-7.726-7.726h-10.579v-3.557h15.742c4.268 0 7.726-3.459 7.726-7.726s-3.459-7.726-7.726-7.726h-23.468c-4.268 0-7.726 3.459-7.726 7.726v38.02c0 4.264 3.458 7.724 7.726 7.724z"/><path d="m119.684 79.366c1.265.781 2.666 1.153 4.051 1.153 2.591 0 5.121-1.303 6.581-3.669l5.16-8.359 5.16 8.359c1.461 2.367 3.991 3.669 6.581 3.669 1.384 0 2.787-.372 4.051-1.153 3.631-2.241 4.758-7.002 2.516-10.633l-9.229-14.952 9.229-14.952c2.241-3.631 1.115-8.392-2.516-10.633-3.631-2.242-8.39-1.116-10.633 2.516l-5.16 8.359-5.16-8.359c-2.242-3.632-7.003-4.758-10.633-2.516-3.631 2.241-4.758 7.002-2.516 10.633l9.229 14.952-9.229 14.952c-2.239 3.631-1.113 8.392 2.518 10.633z"/><path d="m367.387 75.075c1.011 3.276 4.034 5.444 7.375 5.444.383 0 .771-.029 1.16-.088 3.046-.459 5.452-2.661 6.272-5.5l11.689-37.884c1.258-4.077-1.028-8.403-5.106-9.661-4.077-1.261-8.403 1.028-9.661 5.105l-4.35 14.101-4.354-14.102c-1.259-4.077-5.583-6.362-9.661-5.104-4.077 1.259-6.362 5.585-5.104 9.662z"/><path d="m263.645 80.518c10.731 0 19.462-8.73 19.462-19.461v-26.286c0-4.267-3.459-7.726-7.726-7.726s-7.726 3.459-7.726 7.726v26.286c0 2.21-1.799 4.008-4.009 4.008s-4.008-1.798-4.008-4.008v-26.286c0-4.267-3.459-7.726-7.726-7.726s-7.726 3.459-7.726 7.726v26.286c-.002 10.731 8.728 19.461 19.459 19.461z"/><path d="m208.963 80.518h23.153c4.268 0 7.726-3.459 7.726-7.726s-3.459-7.726-7.726-7.726h-15.427v-30.295c0-4.267-3.459-7.726-7.726-7.726-4.268 0-7.726 3.459-7.726 7.726v38.02c-.001 4.267 3.458 7.727 7.726 7.727z"/><path d="m406.722 80.518h23.47c4.268 0 7.726-3.459 7.726-7.726s-3.459-7.726-7.726-7.726h-15.743v-3.557h10.579c4.268 0 7.726-3.459 7.726-7.726s-3.459-7.726-7.726-7.726h-10.579v-3.557h15.743c4.268 0 7.726-3.459 7.726-7.726s-3.459-7.726-7.726-7.726h-23.47c-4.268 0-7.726 3.459-7.726 7.726v38.02c0 4.264 3.459 7.724 7.726 7.724z"/><path d="m310.482 65.065h-13.965c-4.268 0-7.726 3.459-7.726 7.726s3.459 7.726 7.726 7.726h13.965c9.501 0 17.231-7.73 17.231-17.231s-7.73-17.231-17.231-17.231h-4.46c-.981 0-1.779-.798-1.779-1.779s.798-1.779 1.779-1.779h13.965c4.268 0 7.726-3.459 7.726-7.726s-3.459-7.726-7.726-7.726h-13.965c-9.501 0-17.231 7.73-17.231 17.231s7.73 17.231 17.231 17.231h4.46c.981 0 1.779.798 1.779 1.779s-.798 1.779-1.779 1.779z"/><path d="m342.396 80.518c4.268 0 7.726-3.459 7.726-7.726v-38.02c0-4.267-3.459-7.726-7.726-7.726-4.268 0-7.726 3.459-7.726 7.726v38.02c0 4.266 3.459 7.726 7.726 7.726z"/></g><path d="m142.12 365.762c-11.67 0-21.165 9.494-21.165 21.165v16.663c0 11.671 9.495 21.165 21.165 21.165s21.165-9.494 21.165-21.165v-16.663c0-11.67-9.495-21.165-21.165-21.165zm5.712 37.829c0 3.15-2.562 5.712-5.712 5.712s-5.712-2.562-5.712-5.712v-16.663c0-3.15 2.562-5.712 5.712-5.712s5.712 2.562 5.712 5.712z" fill="#3351c5"/><path d="m282.661 426.507c4.268 0 7.726-3.459 7.726-7.726v-43.541c0-4.267-3.459-7.726-7.726-7.726-4.268 0-7.726 3.459-7.726 7.726v43.541c0 4.266 3.458 7.726 7.726 7.726z" fill="#3351c5"/><path d="m205.713 367.513c-4.268 0-7.726 3.459-7.726 7.726v16.315l-12.576-20.374c-1.814-2.94-5.359-4.317-8.684-3.375-3.323.944-5.617 3.978-5.617 7.433v43.541c0 4.267 3.459 7.726 7.726 7.726s7.726-3.459 7.726-7.726v-16.315l12.576 20.373.006-.004c1.361 2.201 3.79 3.672 6.568 3.672 4.268 0 7.726-3.459 7.726-7.726v-43.541c.002-4.266-3.457-7.725-7.725-7.725z" fill="#3351c5"/><path d="m307.035 426.507c4.268 0 7.726-3.459 7.726-7.726v-16.315l12.576 20.373.006-.004c1.361 2.201 3.79 3.672 6.568 3.672 4.268 0 7.726-3.459 7.726-7.726v-43.541c0-4.267-3.459-7.726-7.726-7.726s-7.726 3.459-7.726 7.726v16.315l-12.576-20.374c-1.814-2.94-5.359-4.317-8.684-3.375-3.323.944-5.617 3.978-5.617 7.433v43.541c.001 4.267 3.46 7.727 7.727 7.727z" fill="#3351c5"/><path d="m238.012 375.239c0-4.267-3.459-7.726-7.726-7.726-4.268 0-7.726 3.459-7.726 7.726v43.541c0 4.267 3.459 7.726 7.726 7.726h26.515c4.268 0 7.726-3.459 7.726-7.726s-3.459-7.726-7.726-7.726h-18.789z" fill="#3351c5"/><path d="m356.442 424.756h26.877c4.268 0 7.726-3.459 7.726-7.726s-3.459-7.726-7.726-7.726h-19.151v-6.317h13.237c4.268 0 7.726-3.459 7.726-7.726s-3.459-7.726-7.726-7.726h-13.237v-6.318h19.151c4.268 0 7.726-3.459 7.726-7.726s-3.459-7.726-7.726-7.726h-26.877c-4.268 0-7.726 3.459-7.726 7.726v43.541c-.001 4.264 3.458 7.724 7.726 7.724z" fill="#3351c5"/></g></g></svg>