<svg id="Capa_1" enable-background="new 0 0 512 512" height="512" viewBox="0 0 512 512" width="512" xmlns="http://www.w3.org/2000/svg"><g><g><g><g><g><g><g><path d="m372.081 351.601v147.79c0 8.736-8.664 14.814-16.874 11.847l-99.114-35.881-99.114 35.881c-8.211 2.967-16.874-3.111-16.874-11.847v-147.79z" fill="#fb3a82"/></g><path d="m372.081 351.603v-.002h-231.976v80.478c33.296 22.005 73.174 34.831 115.988 34.831 27.836 0 54.428-5.426 78.779-15.267v52.236l20.33 7.359c8.212 2.973 16.884-3.111 16.884-11.844v-147.79h-.005z" fill="#fb1466"/></g><g><g><path d="m156.984.763 99.109 35.876 99.109-35.876c8.212-2.973 16.884 3.111 16.884 11.844v147.79h-231.986v-147.79c0-8.733 8.672-14.817 16.884-11.844z" fill="#fb3a82"/></g><g><path d="m355.202.763-20.33 7.359v152.275h37.214v-147.79c0-8.734-8.672-14.817-16.884-11.844z" fill="#fb1466"/></g></g></g><g><g><g><g><circle cx="256.093" cy="256" fill="#8dcafc" r="185.16"/><path d="m441.248 256c0 102.265-82.89 185.155-185.155 185.155-6.7 0-13.309-.358-19.825-1.054 92.925-9.892 165.32-88.537 165.32-184.101s-72.395-174.209-165.32-184.101c6.516-.696 13.124-1.054 19.825-1.054 102.265 0 185.155 82.89 185.155 185.155z" fill="#64b9fc"/><circle cx="256.093" cy="256" fill="#23f1a8" r="151.406"/><path d="m407.5 256c0 83.616-67.791 151.407-151.407 151.407-7.335 0-14.546-.522-21.605-1.534 73.377-10.485 129.793-73.591 129.793-149.873s-56.416-139.388-129.792-149.873c7.058-1.013 14.27-1.534 21.605-1.534 83.615 0 151.406 67.791 151.406 151.407z" fill="#27e19d"/></g></g></g></g></g></g><g><g><g><g fill="#fb3a82"><path d="m232.408 171.951c-4.268 0-7.726-3.459-7.726-7.726v-10.398c0-4.267 3.459-7.726 7.726-7.726 4.268 0 7.726 3.459 7.726 7.726v10.398c0 4.267-3.459 7.726-7.726 7.726z"/><path d="m256.093 171.951c-4.268 0-7.726-3.459-7.726-7.726v-10.398c0-4.267 3.459-7.726 7.726-7.726s7.726 3.459 7.726 7.726v10.398c0 4.267-3.458 7.726-7.726 7.726z"/><path d="m279.778 171.951c-4.268 0-7.726-3.459-7.726-7.726v-10.398c0-4.267 3.459-7.726 7.726-7.726s7.726 3.459 7.726 7.726v10.398c0 4.267-3.458 7.726-7.726 7.726z"/></g></g><g fill="#fb3a82"><path d="m200.726 166.752h-17.636c-4.268 0-7.726-3.459-7.726-7.726s3.459-7.726 7.726-7.726h17.636c4.268 0 7.726 3.459 7.726 7.726s-3.459 7.726-7.726 7.726z"/><path d="m329.096 166.752h-17.636c-4.268 0-7.726-3.459-7.726-7.726s3.459-7.726 7.726-7.726h17.636c4.268 0 7.726 3.459 7.726 7.726s-3.458 7.726-7.726 7.726z"/></g></g></g></g><g><path d="m442.643 373.629h-373.286c-5.69 0-10.302-4.612-10.302-10.302v-84.948c0-5.69 4.612-10.302 10.302-10.302h373.286c5.69 0 10.302 4.612 10.302 10.302v84.948c0 5.69-4.613 10.302-10.302 10.302z" fill="#fb3a82"/><path d="m452.94 278.375v84.949c0 5.697-4.605 10.302-10.302 10.302h-35.49c5.687 0 10.302-4.605 10.302-10.302v-84.949c0-5.687-4.615-10.302-10.302-10.302h35.49c5.697.001 10.302 4.616 10.302 10.302z" fill="#fb1466"/><path d="m285.105 215.712h-10.353c-4.268 0-7.726 3.459-7.726 7.726 0 3.17 1.911 5.891 4.643 7.083-.981 1.736-2.841 2.912-4.974 2.912-3.149 0-5.711-2.562-5.711-5.712v-16.664c0-3.15 2.562-5.712 5.711-5.712 1.653 0 3.169.681 4.27 1.916 2.836 3.187 7.72 3.471 10.908.633 3.187-2.837 3.471-7.721.633-10.908-4.014-4.509-9.777-7.095-15.811-7.095-11.67 0-21.164 9.494-21.164 21.165v16.664c0 11.67 9.494 21.164 21.164 21.164 10.643 0 19.452-7.905 20.925-18.148 3.031-1.044 5.212-3.914 5.212-7.3-.001-4.264-3.459-7.724-7.727-7.724z" fill="#5169cd"/><path d="m229.119 189.893c-4.268 0-7.726 3.459-7.726 7.726v43.541c0 4.267 3.459 7.726 7.726 7.726 4.268 0 7.726-3.459 7.726-7.726v-43.541c0-4.267-3.458-7.726-7.726-7.726z" fill="#5169cd"/><path d="m204.798 189.893c-4.268 0-7.726 3.459-7.726 7.726v14.044h-11.424v-14.044c0-4.267-3.459-7.726-7.726-7.726s-7.726 3.459-7.726 7.726v43.541c0 4.267 3.459 7.726 7.726 7.726s7.726-3.459 7.726-7.726v-14.044h11.424v14.044c0 4.267 3.459 7.726 7.726 7.726s7.726-3.459 7.726-7.726v-43.541c.001-4.267-3.458-7.726-7.726-7.726z" fill="#5169cd"/><path d="m334.079 189.893c-4.268 0-7.726 3.459-7.726 7.726v14.044h-11.425v-14.044c0-4.267-3.459-7.726-7.726-7.726s-7.726 3.459-7.726 7.726v43.541c0 4.267 3.459 7.726 7.726 7.726s7.726-3.459 7.726-7.726v-14.044h11.425v14.044c0 4.267 3.459 7.726 7.726 7.726s7.726-3.459 7.726-7.726v-43.541c0-4.267-3.459-7.726-7.726-7.726z" fill="#5169cd"/><g fill="#fff1e2"><path d="m141.119 329.13v-16.664c0-11.671-9.495-21.165-21.165-21.165s-21.165 9.494-21.165 21.165v16.664c0 11.67 9.495 21.164 21.165 21.164 3.022 0 5.892-.647 8.495-1.793 1.429 1.193 3.186 1.793 4.944 1.793 1.977 0 3.955-.755 5.464-2.263 2.85-2.85 3.004-7.372.469-10.407 1.146-2.603 1.793-5.473 1.793-8.494zm-26.877 0v-16.664c0-3.15 2.562-5.712 5.712-5.712s5.712 2.562 5.712 5.712v12.957c-2.565-.667-5.404-.003-7.413 2.006-1.599 1.599-2.342 3.726-2.246 5.82-1.085-1.041-1.765-2.501-1.765-4.119z"/><path d="m182.745 291.301c-4.268 0-7.726 3.459-7.726 7.726v30.103c0 3.149-2.562 5.712-5.712 5.712-3.149 0-5.711-2.562-5.711-5.712v-30.103c0-4.267-3.459-7.726-7.726-7.726-4.268 0-7.726 3.459-7.726 7.726v30.103c0 11.67 9.494 21.164 21.164 21.164s21.165-9.494 21.165-21.164v-30.103c-.002-4.267-3.461-7.726-7.728-7.726z"/><path d="m307.172 291.301c-4.268 0-7.726 3.459-7.726 7.726v43.541c0 4.267 3.459 7.726 7.726 7.726s7.726-3.459 7.726-7.726v-43.541c.001-4.267-3.458-7.726-7.726-7.726z"/><path d="m220.504 291.522c-11.596 0-21.029 9.434-21.029 21.029v29.797c0 4.267 3.459 7.726 7.726 7.726s7.726-3.459 7.726-7.726v-8.311h11.152v8.311c0 4.267 3.459 7.726 7.726 7.726 4.268 0 7.726-3.459 7.726-7.726v-29.798c.002-11.595-9.432-21.028-21.027-21.028zm-5.576 27.061v-6.033c0-3.074 2.502-5.576 5.576-5.576s5.575 2.502 5.575 5.576v6.033z"/><path d="m284.282 334.842h-18.655v-35.594c0-4.267-3.459-7.726-7.726-7.726-4.268 0-7.726 3.459-7.726 7.726v43.32c0 4.267 3.459 7.726 7.726 7.726h26.381c4.268 0 7.726-3.459 7.726-7.726s-3.458-7.726-7.726-7.726z"/><path d="m410.109 292.948c-3.42-2.554-8.26-1.853-10.815 1.565l-7.249 9.703-7.248-9.703c-2.555-3.419-7.395-4.12-10.815-1.565-3.418 2.554-4.119 7.395-1.565 10.814l11.902 15.931v22.985c0 4.267 3.459 7.726 7.726 7.726s7.726-3.459 7.726-7.726v-22.985l11.902-15.931c2.555-3.418 1.855-8.26-1.564-10.814z"/><path d="m357.126 291.411h-26.877c-4.268 0-7.726 3.459-7.726 7.726s3.459 7.726 7.726 7.726h5.712v35.814c0 4.267 3.459 7.726 7.726 7.726 4.268 0 7.726-3.459 7.726-7.726v-35.814h5.712c4.268 0 7.726-3.459 7.726-7.726.002-4.266-3.457-7.726-7.725-7.726z"/></g></g></g></svg>