<svg id="Capa_1" enable-background="new 0 0 511.997 511.997" height="512" viewBox="0 0 511.997 511.997" width="512" xmlns="http://www.w3.org/2000/svg"><g><g><g><g><g><path d="m509.98 234.76-80.39 107.53c-1.92 2.56-4.93 4.07-8.13 4.07h-55.94l87.98-117.67-87.98-117.68h55.94c3.2 0 6.21 1.51 8.13 4.07l80.39 107.53c2.69 3.6 2.69 8.55 0 12.15z" fill="#23f1a8"/><path d="m382.558 346.362h-372.41c-5.604 0-10.148-4.543-10.148-10.148v-215.054c0-5.605 4.544-10.148 10.148-10.148h372.41l87.976 117.675z" fill="#bc83df"/><path d="m470.535 228.69-87.977 117.677h-38.179l87.978-117.677-87.978-117.678h38.179z" fill="#ae6ad8"/></g></g><g><path d="m248.143 400.988h-206.264c-5.605 0-10.148-4.544-10.148-10.148v-86.58c0-5.605 4.544-10.148 10.148-10.148h206.264c3.2 0 6.212 1.509 8.128 4.072l32.365 43.29c2.694 3.603 2.694 8.55 0 12.153l-32.365 43.29c-1.916 2.562-4.928 4.071-8.128 4.071z" fill="#fcb44d"/><path d="m288.634 353.623-32.363 43.293c-1.918 2.568-4.932 4.07-8.129 4.07h-36.088c3.207 0 6.211-1.502 8.129-4.07l32.363-43.293c2.699-3.603 2.699-8.545 0-12.148l-32.363-43.293c-1.918-2.557-4.922-4.07-8.129-4.07h36.088c3.197 0 6.211 1.512 8.129 4.07l32.363 43.293c2.7 3.603 2.7 8.545 0 12.148z" fill="#fb9927"/></g><g><path d="m180.358 335.436c4.267 0 7.726-3.459 7.726-7.726s-3.459-7.726-7.726-7.726h-24.493c-4.267 0-7.726 3.459-7.726 7.726v39.679c0 4.267 3.459 7.726 7.726 7.726h24.493c4.267 0 7.726-3.459 7.726-7.726s-3.459-7.726-7.726-7.726h-16.767v-4.387h11.387c4.267 0 7.726-3.459 7.726-7.726s-3.459-7.726-7.726-7.726h-11.387v-4.386h16.767z" fill="#fff1e2"/><path d="m77.61 335.436h14.573c4.267 0 7.726-3.459 7.726-7.726s-3.459-7.726-7.726-7.726h-14.573c-9.73 0-17.646 7.916-17.646 17.646s7.916 17.646 17.646 17.646h4.653c1.21 0 2.194.984 2.194 2.194 0 1.209-.984 2.193-2.194 2.193h-14.572c-4.267 0-7.726 3.459-7.726 7.726s3.459 7.726 7.726 7.726h14.573c9.73 0 17.646-7.916 17.646-17.646s-7.916-17.646-17.646-17.646h-4.654c-1.209 0-2.193-.984-2.193-2.193s.984-2.194 2.193-2.194z" fill="#fff1e2"/><path d="m136.271 335.436c4.267 0 7.726-3.459 7.726-7.726s-3.459-7.726-7.726-7.726h-24.493c-4.267 0-7.726 3.459-7.726 7.726v39.679c0 4.267 3.459 7.726 7.726 7.726h24.493c4.267 0 7.726-3.459 7.726-7.726s-3.459-7.726-7.726-7.726h-16.767v-4.387h11.387c4.267 0 7.726-3.459 7.726-7.726s-3.459-7.726-7.726-7.726h-11.387v-4.386h16.767z" fill="#fff1e2"/><path d="m208.698 366.874c1.388 1.038 3.011 1.539 4.62 1.539 2.353 0 4.677-1.071 6.194-3.101l9.821-13.137c2.051-2.743 2.051-6.51 0-9.253l-9.821-13.136c-2.555-3.417-7.397-4.117-10.814-1.562s-4.117 7.397-1.562 10.814l6.362 8.51-6.362 8.511c-2.556 3.418-1.856 8.26 1.562 10.815z" fill="#fff1e2"/><path d="m235.214 366.874c1.388 1.038 3.011 1.539 4.62 1.539 2.353 0 4.677-1.071 6.194-3.101l9.821-13.137c2.051-2.743 2.051-6.51 0-9.253l-9.821-13.136c-2.555-3.417-7.397-4.117-10.814-1.562s-4.117 7.397-1.562 10.814l6.362 8.51-6.362 8.511c-2.555 3.418-1.856 8.26 1.562 10.815z" fill="#fff1e2"/><path d="m230.538 195.717c1.388 1.038 3.011 1.539 4.62 1.539 2.353 0 4.677-1.071 6.194-3.101l10.013-13.393c2.051-2.743 2.051-6.51 0-9.253l-10.013-13.393c-2.555-3.417-7.397-4.117-10.814-1.562-3.418 2.555-4.117 7.397-1.562 10.814l6.554 8.767-6.554 8.767c-2.555 3.418-1.856 8.26 1.562 10.815z" fill="#23f1a8"/><path d="m273.637 194.155 10.013-13.393c2.051-2.743 2.051-6.51 0-9.253l-10.013-13.393c-2.554-3.417-7.397-4.117-10.814-1.562-3.418 2.555-4.117 7.397-1.562 10.814l6.554 8.767-6.554 8.767c-2.555 3.418-1.856 8.26 1.562 10.814 1.388 1.038 3.011 1.539 4.62 1.539 2.353.001 4.677-1.07 6.194-3.1z" fill="#23f1a8"/><path d="m317.926 171.51-10.013-13.393c-2.555-3.417-7.396-4.117-10.814-1.562s-4.117 7.397-1.562 10.814l6.554 8.767-6.554 8.767c-2.555 3.418-1.856 8.259 1.562 10.814 1.388 1.038 3.011 1.539 4.62 1.539 2.353 0 4.677-1.071 6.194-3.101l10.013-13.393c2.05-2.743 2.05-6.509 0-9.252z" fill="#23f1a8"/><path d="m329.383 195.717c1.388 1.038 3.011 1.539 4.62 1.539 2.353 0 4.677-1.071 6.194-3.101l10.013-13.393c2.051-2.743 2.051-6.51 0-9.253l-10.013-13.393c-2.554-3.417-7.396-4.117-10.814-1.562s-4.117 7.397-1.562 10.814l6.554 8.767-6.554 8.767c-2.555 3.418-1.855 8.26 1.562 10.815z" fill="#23f1a8"/><g fill="#eaf6ff"><path d="m45.286 201.699c5.455 0 10.585-2.126 14.446-5.986 3.853-3.854 5.975-8.98 5.975-14.435v-28.43c0-4.267-3.459-7.726-7.726-7.726s-7.726 3.459-7.726 7.726v28.43c0 1.327-.515 2.573-1.449 3.508-.942.942-2.192 1.46-3.52 1.46-2.216 0-4.184-1.49-4.784-3.623-1.156-4.108-5.422-6.501-9.531-5.344-4.108 1.156-6.5 5.423-5.344 9.531 2.468 8.767 10.552 14.889 19.659 14.889z"/><path d="m112.789 152.848c0-4.267-3.459-7.726-7.726-7.726s-7.726 3.459-7.726 7.726v28.432c0 2.738-2.228 4.966-4.966 4.966s-4.966-2.228-4.966-4.966v-28.432c0-4.267-3.459-7.726-7.726-7.726s-7.726 3.459-7.726 7.726v28.432c0 11.259 9.16 20.419 20.419 20.419s20.419-9.16 20.419-20.419v-28.432z"/><path d="m137.06 160.575h15.105c4.267 0 7.726-3.459 7.726-7.726s-3.459-7.726-7.726-7.726h-15.105c-9.929 0-18.007 8.078-18.007 18.008s8.078 18.008 18.007 18.008h4.823c1.409 0 2.555 1.146 2.555 2.555s-1.146 2.555-2.555 2.555h-15.103c-4.267 0-7.726 3.459-7.726 7.726s3.459 7.726 7.726 7.726h15.104c9.93 0 18.008-8.078 18.008-18.008s-8.078-18.008-18.008-18.008h-4.823c-1.408 0-2.554-1.146-2.554-2.555-.001-1.409 1.145-2.555 2.553-2.555z"/><path d="m186.021 201.699c4.267 0 7.726-3.459 7.726-7.726v-33.398h4.732c4.267 0 7.726-3.459 7.726-7.726s-3.459-7.726-7.726-7.726h-24.917c-4.267 0-7.726 3.459-7.726 7.726s3.459 7.726 7.726 7.726h4.732v33.398c.001 4.267 3.46 7.726 7.727 7.726z"/><path d="m285.393 269.019h12.693c11.259 0 20.419-9.16 20.419-20.419v-15.739c0-11.259-9.16-20.419-20.419-20.419h-12.693c-4.267 0-7.726 3.459-7.726 7.726v41.124c0 4.268 3.459 7.727 7.726 7.727zm7.726-41.124h4.966c2.738 0 4.966 2.228 4.966 4.966v15.739c0 2.738-2.228 4.966-4.966 4.966h-4.966z"/><path d="m112.055 231.495c0-10.506-8.547-19.053-19.053-19.053h-13.59c-4.267 0-7.726 3.459-7.726 7.726v41.124c0 4.267 3.459 7.726 7.726 7.726s7.726-3.459 7.726-7.726v-10.745h3.822l6.333 13.941c1.294 2.849 4.102 4.533 7.039 4.533 1.069 0 2.155-.223 3.191-.694 3.885-1.765 5.604-6.345 3.839-10.23l-5.654-12.446c3.886-3.49 6.347-8.535 6.347-14.156zm-24.916-3.6h5.863c1.985 0 3.6 1.615 3.6 3.6s-1.615 3.6-3.6 3.6h-5.863z"/><path d="m156.993 231.495c0-10.506-8.547-19.053-19.053-19.053h-13.59c-4.267 0-7.726 3.459-7.726 7.726v41.124c0 4.267 3.459 7.726 7.726 7.726s7.726-3.459 7.726-7.726v-10.745h3.822l6.333 13.941c1.294 2.849 4.102 4.533 7.039 4.533 1.069 0 2.155-.223 3.191-.694 3.885-1.765 5.604-6.345 3.839-10.23l-5.654-12.446c3.886-3.49 6.347-8.535 6.347-14.156zm-24.916-3.6h5.864c1.985 0 3.6 1.615 3.6 3.6s-1.615 3.6-3.6 3.6h-5.864z"/><path d="m197.22 263.575c1.012 3.276 4.035 5.443 7.375 5.443.383 0 .771-.029 1.16-.088 3.046-.459 5.453-2.662 6.272-5.501l12.646-40.987c1.258-4.078-1.027-8.403-5.105-9.661-4.076-1.259-8.402 1.028-9.66 5.105l-5.308 17.205-5.311-17.206c-1.259-4.077-5.585-6.36-9.662-5.104-4.077 1.259-6.362 5.585-5.104 9.662z"/><path d="m264.55 227.895c4.267 0 7.726-3.459 7.726-7.726s-3.459-7.726-7.726-7.726h-25.385c-4.267 0-7.726 3.459-7.726 7.726v41.124c0 4.267 3.459 7.726 7.726 7.726h25.385c4.267 0 7.726-3.459 7.726-7.726s-3.459-7.726-7.726-7.726h-17.659v-5.11h12.074c4.267 0 7.726-3.459 7.726-7.726s-3.459-7.726-7.726-7.726h-12.074v-5.109h17.659z"/><path d="m58.45 269.019c4.267 0 7.726-3.459 7.726-7.726v-28.432c0-11.259-9.16-20.419-20.419-20.419s-20.419 9.16-20.419 20.419v28.432c0 4.267 3.459 7.726 7.726 7.726s7.726-3.459 7.726-7.726v-7.577h9.933v7.577c0 4.267 3.46 7.726 7.727 7.726zm-17.659-30.756v-5.402c0-2.738 2.228-4.966 4.966-4.966s4.966 2.228 4.966 4.966v5.402z"/><path d="m162.759 220.168v41.124c0 4.267 3.459 7.726 7.726 7.726s7.726-3.459 7.726-7.726v-41.124c0-4.267-3.459-7.726-7.726-7.726s-7.726 3.459-7.726 7.726z"/></g></g></g><g><g><path d="m335.816 264.24 26.235 26.235c4.752 4.752 12.455 4.752 17.207 0l47.302-47.302c2.409-2.409 2.409-6.316 0-8.725l-10.357-10.357c-2.409-2.409-6.316-2.409-8.725 0l-36.823 36.823-15.756-15.756c-2.409-2.409-6.316-2.409-8.725 0l-10.357 10.357c-2.41 2.41-2.41 6.316-.001 8.725z" fill="#23f1a8"/></g></g></g></g></svg>