<svg id="Capa_1" enable-background="new 0 0 512 512" height="512" viewBox="0 0 512 512" width="512" xmlns="http://www.w3.org/2000/svg"><g><g><g><g><g><g><path d="m143.274 431.101h-133.225c-8.11 0-12.867-9.124-8.225-15.773l16.773-24.028c4.544-6.509 4.544-15.161 0-21.669l-16.774-24.028c-4.642-6.65.116-15.773 8.225-15.773h133.226z" fill="#17998c"/></g></g><g><g><path d="m368.724 431.101h133.226c8.11 0 12.867-9.124 8.225-15.773l-16.774-24.028c-4.544-6.509-4.544-15.161 0-21.669l16.774-24.028c4.642-6.65-.116-15.773-8.225-15.773h-133.226z" fill="#17998c"/></g><g><path d="m510.174 415.323c4.646 6.655-.113 15.782-8.221 15.782h-34.377c8.107 0 12.867-9.127 8.221-15.782l-16.771-24.023c-4.543-6.511-4.543-15.164 0-21.665l16.771-24.034c4.646-6.645-.113-15.772-8.221-15.772h34.377c8.107 0 12.867 9.127 8.221 15.772l-16.771 24.034c-4.543 6.5-4.543 15.154 0 21.665z" fill="#138b80"/></g></g></g><path d="m440.041 311.818v-189.183c0-5.692-3.921-10.631-9.467-11.913-16.377-3.784-48.763-15.713-54.109-51.362-.9-6.004-6.023-10.466-12.094-10.466h-216.744c-6.071 0-11.194 4.463-12.094 10.466-5.346 35.648-37.732 47.577-54.109 51.362-5.546 1.282-9.467 6.22-9.467 11.913v189.183z" fill="#5169cd"/><g><circle cx="255.999" cy="190.297" fill="#fb9927" r="128.34"/><path d="m384.338 190.302c0 70.876-57.463 128.339-128.339 128.339-4.811 0-9.55-.268-14.216-.783 64.18-7.077 114.113-61.491 114.113-127.556 0-66.076-49.933-120.489-114.113-127.567 4.667-.515 9.406-.783 14.216-.783 70.876 0 128.339 57.464 128.339 128.35z" fill="#f98824"/><circle cx="255.999" cy="190.297" fill="#eaf6ff" r="99.898"/><path d="m255.999 185.506c-4.267 0-7.726-3.459-7.726-7.726v-62.452c0-4.267 3.459-7.726 7.726-7.726 4.268 0 7.726 3.459 7.726 7.726v62.452c0 4.266-3.458 7.726-7.726 7.726z" fill="#17998c"/><path d="m256.04 273.271h-.083c-4.267 0-7.726-3.459-7.726-7.726s3.459-7.726 7.726-7.726 7.768 3.459 7.768 7.726-3.417 7.726-7.685 7.726z" fill="#3351c5"/><path d="m355.895 190.302c0 55.166-44.72 99.896-99.896 99.896-5.656 0-11.198-.474-16.596-1.38 47.275-7.902 83.3-49.006 83.3-98.516 0-49.521-36.025-90.625-83.3-98.526 5.398-.907 10.94-1.38 16.596-1.38 55.176-.001 99.896 44.73 99.896 99.906z" fill="#c4e1ff"/></g><path d="m341.04 59.356c5.347 35.654 37.735 47.584 54.115 51.365 5.542 1.288 9.467 6.222 9.467 11.919v189.178h35.417v-189.178c0-5.697-3.915-10.631-9.467-11.919-16.38-3.781-48.758-15.71-54.105-51.365-.906-5.996-6.026-10.467-12.094-10.467h-35.428c6.068.001 11.199 4.472 12.095 10.467z" fill="#3351c5"/><path d="m71.957 324.876v40.068c0 111.062 162.477 140.665 182.108 143.836 1.286.208 2.582.208 3.868 0 19.631-3.171 182.108-32.774 182.108-143.836v-40.068z" fill="#fcb44d"/><path d="m71.958 324.874v40.074c0 19.223 4.873 36.005 13.021 50.633 29.185-3.822 86.731-9.498 171.02-9.498 59.267 0 105.297 2.806 137.555 5.801-30.783 60.733-117.654 85.703-155.264 93.868 7.5 1.628 13.032 2.586 15.772 3.029 1.288.206 2.586.206 3.873 0 19.625-3.173 182.104-32.78 182.104-143.833v-40.074z" fill="#fb9927"/><g><circle cx="255.996" cy="59.196" fill="#fde734" r="56.132"/><path d="m312.134 59.201c0 30.999-25.132 56.131-56.131 56.131-6.607 0-12.949-1.15-18.843-3.237 21.736-7.743 37.302-28.502 37.302-52.894s-15.566-45.151-37.302-52.894c5.893-2.088 12.236-3.237 18.843-3.237 30.998-.001 56.131 25.132 56.131 56.131z" fill="#f3d730"/></g><g><g><g><g><g><path d="m255.999 380.325c108.968 0 174.144 9.317 192.909 12.436 2.972.494 5.669-1.8 5.669-4.814v-96.3c0-2.377-1.707-4.407-4.05-4.808-16.365-2.802-82.165-12.709-194.528-12.709s-178.163 9.907-194.528 12.709c-2.343.401-4.05 2.43-4.05 4.808v96.3c0 3.013 2.697 5.308 5.669 4.814 18.765-3.119 83.941-12.436 192.909-12.436z" fill="#23f1a8"/></g></g></g></g><g><g><g><g><path d="m454.576 291.651v96.301c0 3.008-2.699 5.305-5.666 4.811-5.542-.917-15.113-2.38-28.67-3.976.711-.845 1.144-1.947 1.144-3.152v-99.135c0-1.659-.835-3.142-2.133-4.028 15.525 1.813 25.981 3.461 31.276 4.368 2.339.402 4.049 2.431 4.049 4.811z" fill="#26d192"/></g></g></g></g></g><path d="m304.69 182.571h-29.986c-3.043-7.339-10.278-12.518-18.705-12.518-11.163 0-20.244 9.081-20.244 20.244 0 11.162 9.081 20.244 20.244 20.244 8.427 0 15.661-5.179 18.705-12.518h29.987c4.268 0 7.726-3.459 7.726-7.726s-3.459-7.726-7.727-7.726zm-48.691 12.518c-2.642 0-4.792-2.149-4.792-4.791s2.149-4.792 4.792-4.792c2.642 0 4.792 2.149 4.792 4.792 0 2.641-2.15 4.791-4.792 4.791z" fill="#fb9927"/><g fill="#3351c5"><g><path d="m331.246 198.023c-4.268 0-7.726-3.417-7.726-7.685v-.083c0-4.267 3.459-7.726 7.726-7.726s7.726 3.459 7.726 7.726c.001 4.268-3.458 7.768-7.726 7.768z"/><path d="m180.751 198.023c-4.267 0-7.726-3.417-7.726-7.685v-.083c0-4.267 3.459-7.726 7.726-7.726s7.726 3.459 7.726 7.726c0 4.268-3.459 7.768-7.726 7.768z"/></g><g><path d="m321.147 160.41c-2.661 0-5.24-1.377-6.663-3.857l-.041-.072c-2.123-3.702-.843-8.424 2.859-10.546 3.7-2.12 8.423-.843 10.545 2.859s.863 8.459-2.838 10.582c-1.221.7-2.551 1.034-3.862 1.034z"/><path d="m190.814 235.657c-2.661 0-5.241-1.377-6.663-3.857l-.041-.072c-2.123-3.702-.843-8.424 2.859-10.546 3.701-2.123 8.424-.843 10.546 2.859s.863 8.459-2.839 10.582c-1.221.7-2.552 1.034-3.862 1.034z"/></g><g><path d="m293.626 132.874c-1.286 0-2.589-.324-3.79-1.008l-.072-.041c-3.708-2.112-5.003-6.829-2.891-10.538 2.113-3.707 6.831-5.003 10.537-2.891 3.708 2.112 5.039 6.85 2.928 10.558-1.429 2.507-4.031 3.92-6.712 3.92z"/><path d="m218.377 263.207c-1.306 0-2.629-.335-3.845-1.04l-.072-.042c-3.69-2.142-4.946-6.87-2.803-10.561 2.141-3.691 6.87-4.946 10.561-2.803 3.69 2.142 4.981 6.891 2.84 10.581-1.437 2.475-4.022 3.865-6.681 3.865z"/></g><g><path d="m218.346 132.879c-2.678 0-5.282-1.394-6.71-3.884-2.123-3.702-.843-8.424 2.859-10.546 3.702-2.121 8.46-.863 10.582 2.839 2.123 3.702.879 8.403-2.823 10.526l-.072.041c-1.211.694-2.533 1.024-3.836 1.024z"/><path d="m293.594 263.212c-2.672 0-5.271-1.388-6.701-3.87-2.131-3.697-.861-8.421 2.836-10.552 3.695-2.132 8.457-.881 10.589 2.815 2.131 3.697.897 8.4-2.8 10.532l-.072.042c-1.217.7-2.544 1.033-3.852 1.033z"/></g><g><path d="m190.805 160.437c-1.304 0-2.624-.33-3.837-1.025-3.702-2.123-4.982-6.845-2.859-10.546s6.864-5.018 10.567-2.895c3.702 2.123 5.003 6.808 2.88 10.51l-.041.072c-1.428 2.49-4.032 3.884-6.71 3.884z"/><path d="m321.138 235.685c-1.304 0-2.625-.33-3.836-1.025-3.702-2.123-4.982-6.845-2.859-10.546 2.121-3.702 6.865-5.018 10.566-2.895s5.002 6.808 2.879 10.51l-.041.072c-1.427 2.489-4.031 3.884-6.709 3.884z"/></g></g></g><g><path d="m256 80.586-14.82 5.27c-2.837 1.009-5.802-1.146-5.719-4.155l.432-15.724-9.592-12.466c-1.836-2.386-.703-5.872 2.185-6.723l15.088-4.447 8.892-12.975c1.702-2.484 5.367-2.484 7.069 0l8.892 12.975 15.088 4.448c2.888.851 4.021 4.337 2.185 6.723l-9.592 12.466.432 15.724c.083 3.01-2.882 5.164-5.719 4.155z" fill="#fcb44d"/><path d="m285.7 53.508-9.595 12.469.433 15.726c.083 3.007-2.882 5.164-5.714 4.156l-14.826-5.272-14.818 5.272c-2.84 1.008-5.806-1.149-5.722-4.156l.358-12.944c16.467 1.608 31.635-9.42 35.108-25.688l12.594 3.715c2.881.85 4.014 4.34 2.182 6.722z" fill="#fb9927"/></g></g><g fill="#eaf6ff"><path d="m110.966 301.558c-4.267 0-7.726 3.459-7.726 7.726v43.541c0 4.267 3.459 7.726 7.726 7.726h26.877c4.267 0 7.726-3.459 7.726-7.726s-3.459-7.726-7.726-7.726h-19.151v-35.814c.001-4.267-3.459-7.727-7.726-7.727z"/><path d="m154.344 306.194v43.541c0 4.267 3.459 7.726 7.726 7.726s7.726-3.459 7.726-7.726v-43.541c0-4.267-3.459-7.726-7.726-7.726s-7.726 3.459-7.726 7.726z"/><path d="m216.362 354.371c4.267 0 7.726-3.459 7.726-7.726v-43.541c0-3.138-1.898-5.964-4.803-7.152-2.903-1.186-6.239-.501-8.437 1.739l-7.925 8.073-7.925-8.073c-2.199-2.24-5.534-2.926-8.437-1.739-2.905 1.188-4.803 4.014-4.803 7.152v43.541c0 4.267 3.459 7.726 7.726 7.726s7.726-3.459 7.726-7.726v-24.64l.198.202c1.453 1.48 3.44 2.314 5.514 2.314s4.061-.834 5.514-2.314l.199-.202v24.641c.001 4.265 3.46 7.725 7.727 7.725z"/><path d="m236.569 303.104v43.541c0 4.267 3.459 7.726 7.726 7.726s7.726-3.459 7.726-7.726v-43.541c0-4.267-3.459-7.726-7.726-7.726s-7.726 3.459-7.726 7.726z"/><path d="m283.393 354.371c4.268 0 7.726-3.459 7.726-7.726v-35.815h5.713c4.268 0 7.726-3.459 7.726-7.726s-3.459-7.726-7.726-7.726h-26.877c-4.268 0-7.726 3.459-7.726 7.726s3.459 7.726 7.726 7.726h5.711v35.814c.001 4.267 3.46 7.727 7.727 7.727z"/><path d="m348.582 313.921c4.268 0 7.726-3.459 7.726-7.726s-3.459-7.726-7.726-7.726h-26.877c-4.268 0-7.726 3.459-7.726 7.726v43.541c0 4.267 3.459 7.726 7.726 7.726h26.877c4.268 0 7.726-3.459 7.726-7.726s-3.459-7.726-7.726-7.726h-19.151v-6.317h13.238c4.268 0 7.726-3.459 7.726-7.726s-3.459-7.726-7.726-7.726h-13.238v-6.318h19.151z"/><path d="m408.76 339.387v-16.663c0-11.671-9.495-21.165-21.165-21.165h-13.438c-4.268 0-7.726 3.459-7.726 7.726v43.541c0 4.267 3.459 7.726 7.726 7.726h13.438c11.67 0 21.165-9.495 21.165-21.165zm-15.453 0c0 3.15-2.562 5.712-5.712 5.712h-5.711v-28.088h5.711c3.15 0 5.712 2.562 5.712 5.712z"/><path d="m269.344 413.322c4.268 0 7.726-3.459 7.726-7.726s-3.459-7.726-7.726-7.726h-25.968c-4.267 0-7.726 3.459-7.726 7.726v42.067c0 4.267 3.459 7.726 7.726 7.726s7.726-3.459 7.726-7.726v-13.307h12.528c4.268 0 7.726-3.459 7.726-7.726s-3.459-7.726-7.726-7.726h-12.528v-5.581h18.242z"/><path d="m317.059 413.322c4.268 0 7.726-3.459 7.726-7.726s-3.459-7.726-7.726-7.726h-25.968c-4.268 0-7.726 3.459-7.726 7.726v42.067c0 4.267 3.459 7.726 7.726 7.726h25.968c4.268 0 7.726-3.459 7.726-7.726s-3.459-7.726-7.726-7.726h-18.241v-5.581h12.529c4.268 0 7.726-3.459 7.726-7.726s-3.459-7.726-7.726-7.726h-12.529v-5.581h18.241z"/><path d="m372.612 417.182c0-10.649-8.664-19.313-19.313-19.313h-13.902c-4.268 0-7.726 3.459-7.726 7.726v42.067c0 4.267 3.459 7.726 7.726 7.726 4.268 0 7.726-3.459 7.726-7.726v-11.168h4.201l6.527 14.364c1.294 2.849 4.102 4.532 7.039 4.532 1.068 0 2.155-.223 3.191-.694 3.885-1.765 5.604-6.346 3.838-10.23l-5.838-12.847c3.995-3.54 6.531-8.692 6.531-14.437zm-25.489-3.86h6.176c2.129 0 3.86 1.732 3.86 3.86s-1.731 3.86-3.86 3.86h-6.176z"/><path d="m221.578 413.322c4.267 0 7.726-3.459 7.726-7.726s-3.459-7.726-7.726-7.726h-25.968c-4.267 0-7.726 3.459-7.726 7.726v42.067c0 4.267 3.459 7.726 7.726 7.726s7.726-3.459 7.726-7.726v-13.307h12.529c4.267 0 7.726-3.459 7.726-7.726s-3.459-7.726-7.726-7.726h-12.529v-5.581h18.242z"/><path d="m160.099 455.389c11.42 0 20.71-9.29 20.71-20.71v-16.1c0-11.419-9.291-20.71-20.71-20.71-11.42 0-20.71 9.291-20.71 20.71v16.1c0 11.42 9.291 20.71 20.71 20.71zm-5.257-36.81c0-2.899 2.359-5.258 5.258-5.258s5.258 2.359 5.258 5.258v16.1c0 2.899-2.359 5.257-5.258 5.257s-5.258-2.358-5.258-5.257z"/></g></g></svg>