<svg id="Capa_1" enable-background="new 0 0 512 512" height="512" viewBox="0 0 512 512" width="512" xmlns="http://www.w3.org/2000/svg"><g><g><g><path d="m252.72 60.127-16.787 5.969c-3.213 1.143-6.572-1.298-6.478-4.707l.49-17.81-10.865-14.121c-2.08-2.703-.797-6.651 2.474-7.615l17.09-5.038 10.073-14.695c1.928-2.813 6.079-2.813 8.007 0l10.072 14.696 17.09 5.038c3.271.964 4.554 4.913 2.474 7.615l-10.864 14.121.49 17.81c.094 3.409-3.265 5.849-6.478 4.707z" fill="#fdef63"/><path d="m286.362 29.456-10.869 14.124.491 17.812c.094 3.406-3.264 5.849-6.472 4.708l-16.793-5.972-16.785 5.972c-3.217 1.142-6.576-1.302-6.482-4.708l.406-14.661c18.652 1.821 35.833-10.671 39.767-29.096l14.265 4.208c3.264.961 4.547 4.914 2.472 7.613z" fill="#f3d730"/></g><path d="m73.749 269.124v36.706c0 6.785 4.466 12.76 10.973 14.681l109.053 32.197h45.158v-83.584z" fill="#5169cd"/><path d="m373.648 311.888v-36.73c0-6.814-4.505-12.808-11.05-14.703l-91.859-26.597v78.03z" fill="#5169cd"/><path d="m289.284 129.28 12.814-49.066c1.245-4.766-1.097-9.723-5.553-11.824-8.851-4.175-24.752-10.074-43.944-10.074s-35.093 5.899-43.944 10.074c-4.455 2.102-6.798 7.058-5.553 11.824l12.814 49.066z" fill="#fcc16d"/><path d="m302.101 80.21-12.815 49.068h-27.959l12.815-57.309c1.247-4.759-1.092-9.715-5.553-11.816-.515-.247-1.061-.495-1.628-.752 12.692 1.896 23.055 5.913 29.587 8.994 4.45 2.1 6.799 7.055 5.553 11.815z" fill="#fca62f"/><path d="m288.034 129.28h-72.117l-17.22 17.22c-1.606 1.606-2.508 3.784-2.508 6.055v21.941h111.575v-21.941c0-2.271-.902-4.449-2.508-6.055z" fill="#fb9927"/><path d="m307.767 152.56v21.933h-31.451v-21.933c0-2.277-.907-4.45-2.514-6.057l-17.214-17.225h31.451l17.214 17.225c1.607 1.606 2.514 3.78 2.514 6.057z" fill="#f98824"/><g><path d="m154.13 445.746h197.18v34.789h-197.18z" fill="#f98824"/><path d="m320.237 445.746h31.074v34.789h-31.074z" fill="#ed6703"/><path d="m359.076 437.508v12.63c0 2.818-2.284 5.102-5.102 5.102h-202.506c-2.818 0-5.102-2.284-5.102-5.102v-12.63c0-1.999.601-3.944 1.689-5.62 47.728-73.478 64.009-208.093 64.009-208.093h81.312s16.281 134.615 64.009 208.093c1.09 1.676 1.691 3.621 1.691 5.62z" fill="#fcb44d"/><g fill="#fb9927"><path d="m347.078 414.215s-199.237 38.807-199.762 38.889c-.597-.834-.948-1.854-.948-2.967v-12.63c0-1.999.598-3.946 1.69-5.625 13.897-21.407 25.136-47.996 34.078-74.935l133.244-25.961c7.963 28.31 18.388 57.99 31.698 83.229z"/><path d="m302.698 278.489-104.398 20.346c9.787-42.145 13.763-75.038 13.763-75.038h81.312s2.751 22.767 9.323 54.692z"/><path d="m359.08 437.508v12.63c0 2.823-2.287 5.099-5.11 5.099h-32.028c2.812 0 5.099-2.277 5.099-5.099v-12.63c0-1.999-.598-3.946-1.69-5.625-47.728-73.473-64.005-208.086-64.005-208.086h32.028s16.287 134.614 64.015 208.086c1.083 1.679 1.691 3.626 1.691 5.625z"/></g><path d="m361.774 512h-218.107c-2.818 0-5.102-2.284-5.102-5.102v-22.492c0-2.818 2.284-5.102 5.102-5.102h218.107c2.818 0 5.102 2.284 5.102 5.102v22.492c0 2.818-2.284 5.102-5.102 5.102z" fill="#fcb44d"/><path d="m366.878 484.401v22.499c0 2.812-2.287 5.099-5.099 5.099h-29.257c2.823 0 5.11-2.287 5.11-5.099v-22.499c0-2.812-2.287-5.099-5.11-5.099h29.257c2.812 0 5.099 2.287 5.099 5.099z" fill="#fb9927"/></g><g><g><path d="m421.744 229.066-347.995 67.795v-81.919c0-9.767 6.92-18.165 16.507-20.033l335.839-65.427c6.301-1.227 12.156 3.598 12.156 10.017v69.534c0 9.767-6.92 18.165-16.507 20.033z" fill="#23f1a8"/><path d="m438.249 139.497v69.537c0 9.766-6.923 18.162-16.503 20.037l-25.157 4.904c7.376-3.163 12.372-10.467 12.372-18.76v-71.598c0-4.409-2.761-8.066-6.542-9.519l23.674-4.615c6.305-1.225 12.156 3.596 12.156 10.014z" fill="#26d192"/></g><g><path d="m373.648 284.064v81.915c0 9.767-6.92 18.165-16.506 20.033l-213.192 41.541c-6.301 1.228-12.157-3.597-12.157-10.016v-69.54c0-9.767 6.92-18.165 16.507-20.033z" fill="#23f1a8"/><path d="m373.647 284.062v81.92c0 9.766-6.923 18.162-16.504 20.027l-25.116 4.893c7.356-3.163 12.331-10.456 12.331-18.739v-82.394z" fill="#26d192"/></g></g></g><g fill="#3351c5"><path d="m188.068 396.802c11.098 0 20.127-9.029 20.127-20.127v-15.376c0-11.098-9.029-20.127-20.127-20.127s-20.126 9.029-20.126 20.127v15.376c0 11.099 9.028 20.127 20.126 20.127zm-4.674-35.503c0-2.577 2.097-4.674 4.674-4.674s4.674 2.097 4.674 4.674v15.376c0 2.577-2.097 4.674-4.674 4.674s-4.674-2.097-4.674-4.674z"/><path d="m316.206 343.34v21.012c0 4.267 3.459 7.726 7.726 7.726s7.726-3.459 7.726-7.726v-21.012l10.863-14.541c2.554-3.419 1.853-8.26-1.565-10.814-3.419-2.554-8.26-1.853-10.814 1.565l-6.21 8.313-6.211-8.313c-2.554-3.418-7.396-4.119-10.814-1.565-3.419 2.554-4.119 7.395-1.565 10.814z"/><path d="m225.038 387.531c4.267 0 7.726-3.459 7.726-7.726v-12.951l10.499 17.009.006-.004c1.362 2.201 3.79 3.672 6.568 3.672 4.267 0 7.726-3.459 7.726-7.726v-40.177c0-4.267-3.459-7.726-7.726-7.726s-7.726 3.459-7.726 7.726v12.951l-10.499-17.009c-1.815-2.94-5.362-4.317-8.684-3.375-3.324.943-5.617 3.978-5.617 7.433v40.177c.001 4.266 3.46 7.726 7.727 7.726z"/><path d="m275.603 378.259h24.467c4.267 0 7.726-3.459 7.726-7.726s-3.459-7.726-7.726-7.726h-16.74v-32.451c0-4.267-3.459-7.726-7.726-7.726s-7.726 3.459-7.726 7.726v40.177c-.001 4.267 3.458 7.726 7.725 7.726z"/><path d="m195.408 213.568c4.267 0 7.726-3.459 7.726-7.726s-3.459-7.726-7.726-7.726h-24.8c-4.267 0-7.726 3.459-7.726 7.726v40.177c0 4.267 3.459 7.726 7.726 7.726h24.8c4.267 0 7.726-3.459 7.726-7.726s-3.459-7.726-7.726-7.726h-17.074v-4.636h11.618c4.267 0 7.726-3.459 7.726-7.726s-3.459-7.726-7.726-7.726h-11.618v-4.636h17.074z"/><path d="m242.803 244.474c4.267 0 7.726-3.459 7.726-7.726v-40.178c0-3.138-1.898-5.964-4.803-7.152-2.903-1.187-6.238-.5-8.437 1.739l-6.887 7.015-6.887-7.015c-2.199-2.24-5.534-2.927-8.437-1.739-2.905 1.188-4.803 4.014-4.803 7.152v40.177c0 4.267 3.459 7.726 7.726 7.726s7.726-3.459 7.726-7.726v-21.393c1.336 1.015 2.976 1.574 4.674 1.574s3.338-.559 4.674-1.574v21.393c.001 4.268 3.461 7.727 7.728 7.727z"/><path d="m145.067 263.017c4.267 0 7.726-3.459 7.726-7.726v-40.177c0-3.138-1.898-5.964-4.803-7.152-2.903-1.187-6.238-.5-8.437 1.739l-6.887 7.015-6.887-7.015c-2.199-2.239-5.534-2.926-8.437-1.739-2.905 1.188-4.803 4.014-4.803 7.152v40.177c0 4.267 3.459 7.726 7.726 7.726s7.726-3.459 7.726-7.726v-21.393c1.336 1.015 2.976 1.574 4.674 1.574s3.338-.559 4.674-1.574v21.393c.002 4.267 3.461 7.726 7.728 7.726z"/><path d="m342.968 185.754c4.267 0 7.726-3.459 7.726-7.726s-3.459-7.726-7.726-7.726h-24.801c-4.267 0-7.726 3.459-7.726 7.726v40.177c0 4.267 3.459 7.726 7.726 7.726h24.801c4.267 0 7.726-3.459 7.726-7.726s-3.459-7.726-7.726-7.726h-17.074v-4.636h11.618c4.267 0 7.726-3.459 7.726-7.726s-3.459-7.726-7.726-7.726h-11.618v-4.636h17.074z"/><path d="m399.46 179.821c0-10.362-8.43-18.792-18.792-18.792h-13.277c-4.267 0-7.726 3.459-7.726 7.726v40.177c0 4.267 3.459 7.726 7.726 7.726s7.726-3.459 7.726-7.726v-10.319h3.441l6.141 13.516c1.294 2.848 4.102 4.532 7.039 4.532 1.069 0 2.155-.223 3.192-.694 3.885-1.765 5.603-6.345 3.838-10.23l-5.47-12.04c3.775-3.441 6.162-8.378 6.162-13.876zm-24.342-3.339h5.55c1.842 0 3.34 1.498 3.34 3.34 0 1.841-1.498 3.339-3.34 3.339h-5.55z"/><path d="m280.419 179.572h-13.395c-4.267 0-7.726 3.459-7.726 7.726v40.177c0 4.267 3.459 7.726 7.726 7.726h16.118c10.31 0 18.698-8.388 18.698-18.698 0-5.351-2.272-10.171-5.887-13.582.842-2.003 1.31-4.201 1.31-6.506-.001-9.287-7.557-16.843-16.844-16.843zm-5.669 15.453h5.669c.767 0 1.391.624 1.391 1.391s-.624 1.391-1.391 1.391h-5.669zm8.392 24.724h-8.392v-6.489h5.669 2.723c1.789 0 3.245 1.455 3.245 3.244 0 1.79-1.456 3.245-3.245 3.245z"/></g></g></svg>