<svg id="Capa_1" enable-background="new 0 0 512 512" height="512" viewBox="0 0 512 512" width="512" xmlns="http://www.w3.org/2000/svg"><g><g><path d="m256 212.885-63.068 22.427c-9.175 3.263-18.765-3.705-18.497-13.439l1.84-66.912-40.819-53.051c-5.938-7.718-2.275-18.992 7.065-21.745l64.206-18.927 37.841-55.214c5.505-8.032 17.359-8.032 22.864 0l37.841 55.214 64.206 18.927c9.34 2.753 13.003 14.027 7.065 21.745l-40.819 53.051 1.84 66.912c.268 9.734-9.322 16.702-18.497 13.439z" fill="#fb9927"/><path d="m376.544 101.908-40.813 53.054 1.835 66.915c.267 9.729-9.319 16.701-18.495 13.43l-63.071-22.421-63.071 22.421c-9.176 3.27-18.761-3.701-18.495-13.43l1.169-42.761c16.044 9.862 34.939 15.542 55.156 15.542 58.303 0 105.565-47.262 105.565-105.565 0-6.561-.595-12.989-1.753-19.223l34.908 10.293c9.34 2.758 13 14.025 7.065 21.745z" fill="#f98824"/><g><path d="m256 174.802-44.813 15.935 1.307-47.544-29.004-37.696 45.622-13.448 26.888-39.233 26.888 39.233 45.622 13.448-29.004 37.696 1.308 47.545z" fill="#fdef63"/><path d="m299.51 143.193 1.302 47.549-44.812-15.942-44.812 15.942.902-33.022c20.227 6.264 43.151 1.384 59.165-14.619 13.512-13.512 19.1-31.966 16.742-49.548l40.516 11.944z" fill="#f3d730"/></g></g><path d="m408.684 338.007v64.573h-152.684v-112.137l140.773 32.582c6.973 1.614 11.911 7.825 11.911 14.982z" fill="#804d9e"/><g><path d="m256 253.587v113.746l-140.774-32.592c-6.972-1.614-11.909-7.825-11.909-14.982v-66.173h152.683z" fill="#804d9e"/></g><g><path d="m213.116 235.172h-68.658v266.576c0 5.659 4.593 10.252 10.252 10.252h58.406z" fill="#27e19d"/><path d="m297.196 235.172v276.828h60.094c5.659 0 10.252-4.593 10.252-10.252v-266.576z" fill="#27e19d"/><g fill="#26d192"><path d="m367.542 402.908v95.744c-11.482 2.307-23.231 3.475-35.195 3.475-31.371 0-62.24-8.345-89.275-24.133-19.192-11.216-41.131-17.142-63.419-17.142-12.046 0-23.836 1.671-35.195 4.993v-95.713c11.482-2.307 23.231-3.475 35.195-3.475 31.371 0 62.24 8.345 89.275 24.133 19.192 11.216 41.131 17.141 63.419 17.141 11.954.001 23.805-1.701 35.195-5.023z"/><path d="m367.542 253.433v95.703c-11.482 2.327-23.231 3.486-35.195 3.486-31.371 0-62.24-8.345-89.275-24.133-19.202-11.216-41.131-17.141-63.419-17.141-11.954 0-23.805 1.702-35.195 5.023v-95.744c11.482-2.317 23.231-3.486 35.195-3.486 31.371 0 62.24 8.345 89.275 24.143 19.192 11.206 41.131 17.131 63.419 17.131 12.046.001 23.836-1.67 35.195-4.982z"/><path d="m332.337 235.172v266.576c0 5.659-4.583 10.252-10.252 10.252h35.206c5.659 0 10.252-4.593 10.252-10.252v-266.576z"/></g><path d="m197.963 235.172h116.074v276.828h-116.074z" fill="#fcb44d"/><path d="m314.037 257.073v94.595c-24.984-2.594-49.21-10.478-70.965-23.18-13.902-8.12-29.239-13.471-45.109-15.798v-94.596c24.984 2.594 49.21 10.478 70.965 23.19 13.902 8.12 29.239 13.462 45.109 15.789z" fill="#fb9927"/><path d="m314.037 406.588v94.585c-24.984-2.594-49.21-10.478-70.965-23.18-13.902-8.12-29.239-13.471-45.109-15.799v-94.584c24.984 2.594 49.21 10.478 70.965 23.18 13.902 8.12 29.239 13.471 45.109 15.798z" fill="#fb9927"/><path d="m278.366 235.172h35.675v276.828h-35.675z" fill="#fb9927"/></g><g><path d="m103.312 306.357c22.427-13.098 48.498-20.638 76.344-20.638s53.917 7.54 76.344 20.638c22.427 13.098 48.498 20.638 76.344 20.638 24.459 0 47.549-5.817 68.003-16.109 5.146-2.589 8.341-7.916 8.341-13.677v-78.6c0-7.444-7.682-12.309-14.475-9.264-18.893 8.468-39.825 13.193-61.87 13.193-27.846 0-53.917-7.54-76.344-20.638-22.427-13.098-48.498-20.638-76.344-20.638-24.459 0-47.549 5.817-68.003 16.109-5.146 2.589-8.341 7.916-8.341 13.677v95.309z" fill="#bc83df"/><path d="m394.214 209.346c-4.8 2.151-9.738 4.048-14.787 5.698v104.441c7.224-2.36 14.219-5.227 20.92-8.599 5.146-2.59 8.341-7.916 8.341-13.677v-78.6c0-7.444-7.681-12.308-14.474-9.263z" fill="#ae6ad8"/></g><g><path d="m103.312 439.155c0 7.444 7.682 12.309 14.475 9.264 18.893-8.468 39.825-13.193 61.87-13.193 27.846 0 53.917 7.54 76.344 20.638 22.427 13.098 48.498 20.638 76.344 20.638 24.459 0 47.549-5.817 68.003-16.109 5.146-2.589 8.341-7.916 8.341-13.677v-95.308c-22.427 13.098-48.498 20.638-76.344 20.638s-53.917-7.54-76.344-20.638c-22.427-13.098-48.498-20.638-76.344-20.638-24.459 0-47.549 5.817-68.003 16.109-5.146 2.589-8.341 7.916-8.341 13.677v78.599z" fill="#bc83df"/><path d="m379.427 364.55v104.441c7.224-2.36 14.219-5.227 20.92-8.599 5.146-2.59 8.341-7.916 8.341-13.677v-95.308c-9.183 5.364-18.982 9.784-29.261 13.143z" fill="#ae6ad8"/></g><g fill="#eaf6ff"><path d="m194.236 206.815c-2.906-1.188-6.24-.499-8.438 1.739l-6.857 6.986-6.859-6.986c-2.198-2.239-5.532-2.927-8.437-1.739-2.904 1.188-4.803 4.014-4.803 7.152v40.084c0 4.267 3.459 7.726 7.726 7.726s7.726-3.459 7.726-7.726v-21.308c1.331 1.002 2.96 1.553 4.646 1.553s3.314-.551 4.645-1.552v21.307c0 4.267 3.459 7.726 7.726 7.726s7.726-3.459 7.726-7.726v-40.084c.002-3.138-1.896-5.964-4.801-7.152z"/><path d="m246.103 216.492c-4.268 0-7.726 3.459-7.726 7.726v27.712c0 2.561-2.083 4.645-4.645 4.645s-4.646-2.084-4.646-4.645v-27.712c0-4.267-3.459-7.726-7.726-7.726-4.268 0-7.726 3.459-7.726 7.726v27.712c0 11.082 9.016 20.098 20.099 20.098 11.081 0 20.098-9.016 20.098-20.098v-27.712c-.002-4.266-3.461-7.726-7.728-7.726z"/><path d="m330.939 262.701h4.646v32.358c0 4.267 3.459 7.726 7.726 7.726 4.268 0 7.726-3.459 7.726-7.726v-32.358h4.645c4.268 0 7.726-3.459 7.726-7.726s-3.459-7.726-7.726-7.726h-24.743c-4.268 0-7.726 3.459-7.726 7.726-.001 4.267 3.458 7.726 7.726 7.726z"/><path d="m290.871 277.08h-14.722c-4.268 0-7.726 3.459-7.726 7.726s3.459 7.726 7.726 7.726h14.722c9.786 0 17.747-7.961 17.747-17.747s-7.962-17.747-17.747-17.747h-4.701c-1.266 0-2.295-1.03-2.295-2.295s1.029-2.295 2.295-2.295h14.722c4.268 0 7.726-3.459 7.726-7.726s-3.459-7.726-7.726-7.726h-14.722c-9.786 0-17.747 7.961-17.747 17.747s7.962 17.747 17.747 17.747h4.701c1.266 0 2.295 1.029 2.295 2.294 0 1.267-1.029 2.296-2.295 2.296z"/><path d="m246.105 421.152c4.268 0 7.726-3.459 7.726-7.726v-27.712c0-11.082-9.016-20.098-20.098-20.098-11.081 0-20.098 9.016-20.098 20.098v27.712c0 4.267 3.459 7.726 7.726 7.726 4.268 0 7.726-3.459 7.726-7.726v-7.19h9.29v7.19c.001 4.267 3.46 7.726 7.728 7.726zm-17.016-30.369v-5.07c0-2.561 2.083-4.645 4.645-4.645s4.645 2.084 4.645 4.645v5.07z"/><path d="m355.689 411.824c4.268 0 7.726-3.459 7.726-7.726s-3.459-7.726-7.726-7.726h-24.743c-4.268 0-7.726 3.459-7.726 7.726v19.863c-.002.06-.009.119-.009.179s.008.119.009.179v19.862c0 4.267 3.459 7.726 7.726 7.726h24.743c4.268 0 7.726-3.459 7.726-7.726s-3.459-7.726-7.726-7.726h-17.017v-4.589h11.573c4.268 0 7.726-3.459 7.726-7.726s-3.459-7.726-7.726-7.726h-11.573v-4.59z"/><path d="m188.405 410.9c4.268 0 7.726-3.459 7.726-7.726v-40.084c0-4.267-3.459-7.726-7.726-7.726-4.268 0-7.726 3.459-7.726 7.726v12.315h-6.38v-12.315c0-4.267-3.459-7.726-7.726-7.726s-7.726 3.459-7.726 7.726v19.862c-.001.06-.009.119-.009.179s.008.119.009.179v19.863c0 4.267 3.459 7.726 7.726 7.726s7.726-3.459 7.726-7.726v-12.316h6.38v12.316c0 4.268 3.459 7.727 7.726 7.727z"/><path d="m293.512 391.567-4.989 16.163-4.989-16.163c-1.259-4.077-5.585-6.361-9.661-5.104-4.077 1.259-6.362 5.584-5.104 9.661l12.371 40.084c.999 3.238 3.993 5.448 7.382 5.448s6.383-2.209 7.382-5.448l12.371-40.084c1.259-4.077-1.026-8.403-5.104-9.661-4.081-1.259-8.4 1.026-9.659 5.104z"/></g></g></svg>