<svg id="Capa_1" enable-background="new 0 0 512 512" height="512" viewBox="0 0 512 512" width="512" xmlns="http://www.w3.org/2000/svg"><g><g><g><g><g><g><path d="m92.655 294.194h-82.544c-8.16 0-12.947-9.18-8.276-15.871l16.878-24.177c4.572-6.549 4.572-15.255 0-21.804l-16.878-24.178c-4.671-6.691.116-15.871 8.276-15.871h82.544z" fill="#17998c"/><path d="m419.345 294.194h82.544c8.16 0 12.947-9.18 8.276-15.871l-16.878-24.177c-4.572-6.549-4.572-15.255 0-21.804l16.878-24.177c4.671-6.691-.116-15.871-8.276-15.871h-82.544z" fill="#17998c"/><path d="m510.166 278.324c4.667 6.686-.113 15.865-8.272 15.865h-33.12c8.159 0 12.949-9.179 8.272-15.865l-16.874-24.178c-4.574-6.552-4.574-15.257 0-21.809l16.874-24.178c4.677-6.686-.113-15.865-8.272-15.865h33.12c8.159 0 12.939 9.179 8.272 15.875l-16.874 24.168c-4.574 6.552-4.574 15.257 0 21.809z" fill="#138b80"/></g></g><g><path d="m263.984 71.662 18.376-7.61c7.797-3.229 16.772-1.444 22.74 4.523l14.066 14.063c3.913 3.912 9.22 6.11 14.753 6.111l19.89.002c8.439.001 16.048 5.085 19.278 12.881l7.613 18.375c2.118 5.112 6.18 9.174 11.292 11.292l18.375 7.613c7.797 3.23 12.88 10.839 12.881 19.278l.002 19.89c.001 5.533 2.199 10.84 6.111 14.753l14.063 14.066c5.967 5.968 7.752 14.943 4.523 22.74l-7.61 18.376c-2.117 5.112-2.117 10.856 0 15.969l7.61 18.376c3.229 7.797 1.444 16.772-4.523 22.74l-14.063 14.066c-3.912 3.913-6.11 9.22-6.111 14.753l-.002 19.89c-.001 8.439-5.085 16.048-12.881 19.278l-18.375 7.613c-5.112 2.118-9.174 6.18-11.292 11.292l-7.613 18.375c-3.23 7.797-10.839 12.88-19.278 12.881l-19.89.002c-5.533.001-10.84 2.199-14.753 6.111l-14.066 14.063c-5.968 5.967-14.943 7.752-22.74 4.523l-18.376-7.61c-5.113-2.117-10.856-2.117-15.969 0l-18.376 7.61c-7.797 3.229-16.772 1.444-22.74-4.523l-14.066-14.063c-3.913-3.912-9.22-6.11-14.753-6.111l-19.89-.002c-8.439-.001-16.048-5.085-19.278-12.881l-7.613-18.375c-2.118-5.112-6.18-9.174-11.292-11.292l-18.375-7.613c-7.797-3.23-12.88-10.839-12.881-19.278l-.002-19.89c-.001-5.533-2.199-10.84-6.111-14.753l-14.063-14.066c-5.967-5.968-7.752-14.943-4.523-22.74l7.61-18.376c2.117-5.113 2.117-10.856 0-15.969l-7.61-18.376c-3.229-7.797-1.444-16.772 4.523-22.74l14.063-14.066c3.912-3.913 6.11-9.22 6.111-14.753l.002-19.89c.001-8.439 5.085-16.048 12.881-19.278l18.375-7.613c5.112-2.118 9.174-6.18 11.292-11.292l7.613-18.375c3.23-7.797 10.839-12.88 19.278-12.881l19.89-.002c5.533-.001 10.84-2.199 14.753-6.111l14.066-14.063c5.968-5.967 14.943-7.752 22.74-4.523l18.376 7.61c5.113 2.117 10.857 2.117 15.969 0z" fill="#fcb44d"/><path d="m443.421 305.098-14.062 14.072c-3.904 3.904-6.109 9.22-6.109 14.752v19.882c0 1.02-.072 2.04-.227 3.029-34.47 3.935-90.409 8.386-167.023 8.386s-132.564-4.45-167.023-8.386c-.155-.989-.227-2.009-.227-3.029v-19.882c0-5.532-2.205-10.848-6.109-14.752l-14.062-14.072c-5.975-5.965-7.757-14.938-4.523-22.736l6.191-14.958h371.504l6.191 14.958c3.236 7.799 1.454 16.772-4.521 22.736z" fill="#fb9927"/><path d="m447.943 282.362c3.235 7.798 1.452 16.771-4.523 22.736l-14.062 14.072c-3.904 3.904-6.109 9.22-6.109 14.752v19.882c0 8.448-5.089 16.05-12.887 19.285l-18.368 7.613c-5.11 2.112-9.179 6.181-11.291 11.291l-7.613 18.368c-3.235 7.798-10.837 12.887-19.285 12.887h-19.882c-5.532 0-10.848 2.205-14.752 6.109l-14.072 14.062c-5.965 5.975-14.938 7.757-22.736 4.523l-18.378-7.603c-5.11-2.122-10.858-2.122-15.968 0l-18.378 7.603c-7.798 3.235-16.771 1.452-22.736-4.523l-7.603-7.592c1.123-.237 2.225-.577 3.307-1.03l17.122-7.088c4.759-1.968 10.116-1.968 14.876 0l17.111 7.088c7.273 3.008 15.628 1.349 21.191-4.214l13.094-13.104c3.647-3.637 8.592-5.687 13.743-5.687h18.533c7.86 0 14.948-4.739 17.956-12.001l7.088-17.111c1.978-4.77 5.759-8.551 10.518-10.518l17.122-7.098c7.263-3.008 12.001-10.096 12.001-17.956v-18.523c0-5.161 2.05-10.106 5.687-13.743l13.104-13.104c5.553-5.563 7.222-13.918 4.214-21.18l-7.088-17.122c-1.978-4.759-1.978-10.116 0-14.876l7.088-17.122c3.008-7.263 1.339-15.617-4.214-21.18l-13.104-13.104c-3.637-3.637-5.687-8.581-5.687-13.743v-18.523c0-7.86-4.739-14.948-12.001-17.956l-17.122-7.098c-4.759-1.968-8.54-5.749-10.518-10.518l-7.088-17.111c-3.008-7.263-10.096-12.002-17.956-12.002h-18.533c-5.151 0-10.096-2.05-13.743-5.687l-13.094-13.104c-5.563-5.563-13.918-7.222-21.191-4.214l-17.111 7.088c-4.759 1.968-10.116 1.968-14.876 0l-17.122-7.088c-1.082-.453-2.184-.793-3.307-1.03l7.603-7.592c5.965-5.975 14.938-7.757 22.736-4.523l18.378 7.603c5.11 2.122 10.858 2.122 15.968 0l18.378-7.603c7.798-3.235 16.771-1.452 22.736 4.523l14.072 14.062c3.904 3.904 9.22 6.109 14.752 6.109h19.882c8.448 0 16.05 5.089 19.285 12.887l7.613 18.368c2.112 5.11 6.181 9.179 11.291 11.291l18.368 7.613c7.798 3.235 12.887 10.837 12.887 19.285v19.882c0 5.532 2.205 10.848 6.109 14.752l14.062 14.072c5.975 5.965 7.757 14.938 4.523 22.736l-7.603 18.379c-2.122 5.11-2.122 10.858 0 15.968z" fill="#fb9927"/><path d="m393.957 250.024 5.695-13.753c2.417-5.835 1.08-12.552-3.385-17.018l-10.524-10.526c-2.928-2.929-4.573-6.9-4.573-11.041l-.002-14.885c-.001-6.316-3.805-12.01-9.64-14.428l-13.751-5.698c-3.826-1.585-6.865-4.625-8.451-8.451l-5.698-13.752c-2.418-5.835-8.112-9.64-14.428-9.64l-14.885-.002c-4.141 0-8.113-1.645-11.041-4.573l-10.527-10.524c-4.467-4.466-11.183-5.802-17.018-3.385l-13.753 5.695c-3.826 1.584-8.125 1.584-11.951 0l-13.753-5.695c-5.835-2.417-12.552-1.08-17.018 3.385l-10.527 10.524c-2.929 2.928-6.9 4.573-11.041 4.573l-14.885.002c-6.316.001-12.01 3.805-14.428 9.64l-5.698 13.752c-1.585 3.826-4.625 6.865-8.451 8.451l-13.752 5.698c-5.835 2.418-9.64 8.112-9.64 14.428l-.002 14.885c0 4.141-1.646 8.113-4.573 11.041l-10.524 10.526c-4.466 4.467-5.802 11.183-3.385 17.018l5.695 13.753z" fill="#5169cd"/><path d="m399.648 236.272-5.687 13.753h-37.911l5.697-13.753c2.411-5.831 1.082-12.548-3.389-17.018l-10.518-10.529c-2.936-2.926-4.574-6.902-4.574-11.044l-.01-14.886c0-6.315-3.801-12.002-9.632-14.423l-13.753-5.697c-3.832-1.586-6.871-4.626-8.458-8.447l-5.697-13.753c-2.411-5.841-8.108-9.642-14.423-9.642h-14.886c-4.141 0-8.118-1.648-11.044-4.574l-7.18-7.18c1.288-.186 2.565-.536 3.791-1.04l13.753-5.687c5.831-2.421 12.548-1.082 17.019 3.379l10.528 10.528c2.926 2.926 6.902 4.574 11.044 4.574h14.886c6.315 0 12.001 3.801 14.423 9.642l5.697 13.753c1.586 3.822 4.626 6.861 8.447 8.447l13.753 5.697c5.841 2.421 9.642 8.108 9.642 14.423v14.886c0 4.141 1.648 8.118 4.574 11.044l10.528 10.529c4.462 4.47 5.801 11.187 3.38 17.018z" fill="#3351c5"/></g><g><path d="m256 234.762c-114.67 0-183.411-9.772-203.486-13.098-3.244-.537-6.187 1.969-6.187 5.257v82.846c0 10.222 7.504 18.894 17.623 20.338 29.01 4.143 93.604 11.345 192.049 11.345s163.039-7.202 192.049-11.345c10.119-1.445 17.623-10.117 17.623-20.338v-82.846c0-3.288-2.943-5.795-6.187-5.257-20.073 3.326-88.814 13.098-203.484 13.098z" fill="#23f1a8"/><path d="m465.67 226.924v82.839c0 10.228-7.501 18.901-17.623 20.339-7.149 1.023-16.461 2.227-27.904 3.473 6.915-3.356 11.549-10.441 11.549-18.486v-89.519c12.956-1.566 22.236-2.983 27.798-3.91 3.24-.532 6.18 1.971 6.18 5.264z" fill="#26d192"/><g fill="#5169cd"><path d="m271.682 303.718h-22.633v-9.138h15.954c4.267 0 7.726-3.459 7.726-7.726s-3.459-7.726-7.726-7.726h-15.954v-9.138h22.633c4.267 0 7.726-3.459 7.726-7.726s-3.459-7.726-7.726-7.726h-30.36c-4.267 0-7.726 3.459-7.726 7.726v49.182c0 4.267 3.459 7.726 7.726 7.726h30.36c4.267 0 7.726-3.459 7.726-7.726 0-4.268-3.459-7.728-7.726-7.728z"/><path d="m311.513 319.171c-.984.001-1.976-.188-2.922-.574-2.905-1.188-4.803-4.014-4.803-7.152v-49.182c0-4.267 3.459-7.726 7.726-7.726s7.726 3.459 7.726 7.726v30.282l1.94-1.976c1.453-1.48 3.44-2.314 5.514-2.314s4.061.833 5.514 2.314l1.94 1.976v-30.283c0-4.267 3.459-7.726 7.726-7.726s7.726 3.459 7.726 7.726v49.182c0 3.138-1.898 5.964-4.803 7.152-2.904 1.187-6.238.5-8.437-1.739l-9.667-9.847-9.666 9.847c-1.481 1.51-3.479 2.314-5.514 2.314z"/><path d="m200.485 254.536c-4.267 0-7.726 3.459-7.726 7.726v21.957l-16.059-26.015c-1.814-2.94-5.36-4.316-8.684-3.375-3.324.944-5.617 3.978-5.617 7.433v49.182c0 4.267 3.459 7.726 7.726 7.726s7.726-3.459 7.726-7.726v-21.956l16.059 26.015.006-.004c1.362 2.201 3.79 3.672 6.568 3.672 4.267 0 7.726-3.459 7.726-7.726v-49.182c.002-4.268-3.457-7.727-7.725-7.727z"/></g></g><g><g><g fill="#5169cd"><path d="m232.315 394.157c-4.267 0-7.726-3.459-7.726-7.726v-10.398c0-4.267 3.459-7.726 7.726-7.726s7.726 3.459 7.726 7.726v10.398c.001 4.267-3.459 7.726-7.726 7.726z"/><path d="m256 394.157c-4.267 0-7.726-3.459-7.726-7.726v-10.398c0-4.267 3.459-7.726 7.726-7.726s7.726 3.459 7.726 7.726v10.398c0 4.267-3.459 7.726-7.726 7.726z"/><path d="m279.685 394.157c-4.267 0-7.726-3.459-7.726-7.726v-10.398c0-4.267 3.459-7.726 7.726-7.726s7.726 3.459 7.726 7.726v10.398c0 4.267-3.459 7.726-7.726 7.726z"/></g></g><g fill="#5169cd"><path d="m200.633 388.958h-17.636c-4.267 0-7.726-3.459-7.726-7.726s3.459-7.726 7.726-7.726h17.636c4.267 0 7.726 3.459 7.726 7.726s-3.459 7.726-7.726 7.726z"/><path d="m329.004 388.958h-17.636c-4.267 0-7.726-3.459-7.726-7.726s3.459-7.726 7.726-7.726h17.636c4.267 0 7.726 3.459 7.726 7.726s-3.459 7.726-7.726 7.726z"/></g></g></g></g></g><g><path d="m255.997 193.493-37.19 13.225c-5.456 1.94-11.159-2.203-11-7.992l1.085-39.457-24.07-31.283c-3.531-4.589-1.353-11.294 4.201-12.931l37.861-11.161 22.314-32.559c3.274-4.777 10.323-4.777 13.596 0l22.314 32.559 37.862 11.161c5.554 1.637 7.733 8.341 4.202 12.931l-24.07 31.283 1.085 39.457c.159 5.788-5.544 9.932-11 7.992z" fill="#fdef63"/><path d="m303.106 159.269 1.081 39.461c.159 5.788-5.545 9.931-11.001 7.99l-37.189-13.23-37.19 13.23c-5.456 1.941-11.159-2.202-11.001-7.99l.648-23.733c21.901 6.782 46.72 1.499 64.059-15.829 14.63-14.63 20.68-34.61 18.126-53.647l32.333 9.531c5.554 1.637 7.733 8.341 4.202 12.931z" fill="#f3d730"/></g></g></svg>