<svg id="Capa_1" enable-background="new 0 0 512 512" height="512" viewBox="0 0 512 512" width="512" xmlns="http://www.w3.org/2000/svg"><g><g><path d="m272.192 67.563c15.814-6.549 34.016-2.928 46.12 9.174 7.936 7.935 18.699 12.393 29.922 12.394 17.116.002 32.547 10.312 39.099 26.125 4.296 10.368 12.533 18.605 22.901 22.901 15.813 6.552 26.123 21.982 26.125 39.099.001 11.223 4.459 21.985 12.394 29.922 12.102 12.104 15.722 30.306 9.174 46.12-4.294 10.369-4.294 22.018 0 32.387 6.548 15.814 2.928 34.016-9.174 46.12-7.935 7.936-12.393 18.699-12.394 29.922-.002 17.116-10.312 32.547-26.125 39.099-10.368 4.296-18.605 12.533-22.901 22.901-6.552 15.813-21.982 26.123-39.099 26.125-11.223.001-21.985 4.459-29.922 12.394-12.104 12.102-30.306 15.722-46.12 9.174-10.369-4.294-22.018-4.294-32.387 0-15.814 6.548-34.016 2.928-46.12-9.174-7.936-7.935-18.699-12.393-29.922-12.394-17.116-.002-32.547-10.312-39.099-26.125-4.296-10.368-12.533-18.605-22.901-22.901-15.813-6.552-26.123-21.982-26.125-39.099-.001-11.223-4.459-21.985-12.394-29.922-12.102-12.104-15.722-30.306-9.174-46.12 4.294-10.369 4.294-22.018 0-32.387-6.548-15.814-2.928-34.016 9.174-46.12 7.935-7.936 12.393-18.699 12.394-29.922.002-17.116 10.312-32.547 26.125-39.099 10.368-4.296 18.605-12.533 22.901-22.901 6.552-15.813 21.982-26.123 39.099-26.125 11.223-.001 21.985-4.459 29.922-12.394 12.104-12.102 30.306-15.722 46.12-9.174 10.369 4.294 22.019 4.294 32.387 0z" fill="#64b9fc"/><path d="m63.877 332.47c7.532 7.868 11.76 18.341 11.762 29.257.001 9.41 3.123 18.306 8.556 25.501h343.609c5.433-7.196 8.555-16.092 8.556-25.501.001-10.916 4.229-21.389 11.762-29.257z" fill="#31a7fb"/><path d="m457.924 285.686c2.174 5.233 3.224 10.734 3.224 16.194 0 11.013-4.296 21.829-12.393 29.927-3.966 3.966-7.067 8.643-9.169 13.722-2.112 5.089-3.224 10.58-3.224 16.194 0 8.561-2.575 16.699-7.129 23.519-4.553 6.82-11.085 12.311-18.996 15.587-5.192 2.153-9.838 5.285-13.732 9.169-3.884 3.894-7.015 8.54-9.169 13.732-3.276 7.912-8.767 14.443-15.587 18.996s-14.958 7.129-23.519 7.129c-5.614 0-11.105 1.113-16.194 3.224-5.079 2.102-9.756 5.202-13.722 9.169-8.097 8.097-18.914 12.393-29.927 12.393-5.46 0-10.961-1.051-16.194-3.224-.752-.309-1.504-.598-2.256-.855 4.296-2.04 8.293-4.821 11.775-8.314 3.977-3.966 8.654-7.067 13.732-9.169 5.089-2.112 10.58-3.224 16.194-3.224 8.561 0 16.699-2.575 23.509-7.129 6.82-4.553 12.311-11.085 15.586-18.996 2.143-5.192 5.285-9.838 9.179-13.732 3.884-3.884 8.54-7.015 13.722-9.169 7.901-3.276 14.433-8.767 18.997-15.587 4.553-6.82 7.129-14.958 7.129-23.519 0-5.614 1.113-11.105 3.224-16.194 2.102-5.079 5.202-9.756 9.169-13.722 8.097-8.097 12.403-18.924 12.403-29.937 0-5.45-1.051-10.951-3.224-16.184-2.153-5.192-3.224-10.693-3.224-16.194s1.071-11.002 3.224-16.194c2.174-5.233 3.224-10.734 3.224-16.184 0-11.013-4.306-21.84-12.403-29.937-3.966-3.966-7.067-8.643-9.169-13.722-2.112-5.089-3.224-10.58-3.224-16.194 0-8.561-2.575-16.699-7.129-23.519-4.564-6.82-11.095-12.311-18.997-15.587-5.182-2.153-9.838-5.285-13.722-9.169-3.894-3.894-7.036-8.54-9.179-13.732-3.276-7.912-8.767-14.443-15.586-18.996-6.81-4.553-14.948-7.129-23.509-7.129-5.614 0-11.105-1.113-16.194-3.224-5.079-2.102-9.756-5.202-13.732-9.169-3.482-3.492-7.479-6.274-11.775-8.314.752-.258 1.504-.546 2.256-.855 15.813-6.552 34.016-2.936 46.121 9.169 3.966 3.966 8.643 7.067 13.722 9.169 5.089 2.112 10.58 3.224 16.194 3.224 8.561 0 16.699 2.575 23.519 7.129 6.82 4.553 12.311 11.085 15.587 18.996 2.153 5.192 5.285 9.838 9.169 13.732 3.894 3.884 8.54 7.015 13.732 9.169 7.912 3.276 14.443 8.767 18.996 15.587 4.554 6.82 7.129 14.958 7.129 23.519 0 5.614 1.112 11.105 3.224 16.194 2.102 5.079 5.202 9.756 9.169 13.722 8.097 8.097 12.393 18.914 12.393 29.927 0 5.46-1.051 10.961-3.224 16.194-2.143 5.192-3.214 10.693-3.214 16.194s1.071 11.002 3.214 16.194z" fill="#31a7fb"/><path d="m269.456 101.683c13.142-5.442 28.268-2.433 38.327 7.624 6.595 6.594 15.54 10.299 24.866 10.3 14.224.001 27.047 8.57 32.492 21.711 3.57 8.616 10.416 15.462 19.032 19.032 13.141 5.445 21.709 18.268 21.711 32.492.001 9.326 3.706 18.271 10.3 24.866 10.057 10.059 13.066 25.185 7.624 38.327-3.568 8.617-3.568 18.298 0 26.915 5.442 13.142 2.433 28.268-7.624 38.327-6.594 6.595-10.299 15.54-10.3 24.866-.001 14.224-8.57 27.047-21.711 32.492-8.616 3.57-15.462 10.416-19.032 19.032-5.445 13.141-18.268 21.709-32.492 21.711-9.326.001-18.271 3.706-24.866 10.3-10.059 10.057-25.185 13.066-38.327 7.624-8.617-3.568-18.298-3.568-26.915 0-13.142 5.442-28.268 2.433-38.327-7.624-6.595-6.594-15.54-10.299-24.866-10.3-14.224-.001-27.047-8.57-32.492-21.711-3.57-8.616-10.416-15.462-19.032-19.032-13.141-5.445-21.709-18.268-21.711-32.492-.001-9.326-3.706-18.271-10.3-24.866-10.057-10.059-13.066-25.185-7.624-38.327 3.568-8.617 3.568-18.298 0-26.915-5.442-13.142-2.433-28.268 7.624-38.327 6.594-6.595 10.299-15.54 10.3-24.866.001-14.224 8.57-27.047 21.711-32.492 8.616-3.57 15.462-10.416 19.032-19.032 5.445-13.141 18.268-21.709 32.492-21.711 9.326-.001 18.271-3.706 24.866-10.3 10.059-10.057 25.185-13.066 38.327-7.624 8.617 3.568 18.298 3.568 26.915 0z" fill="#fb3a82"/><path d="m103.341 332.47c1.809 4.287 2.772 8.929 2.773 13.672.002 14.224 8.57 27.047 21.711 32.492 4.729 1.959 8.919 4.91 12.332 8.594h231.684c3.413-3.684 7.604-6.635 12.332-8.594 13.141-5.445 21.709-18.268 21.711-32.492.001-4.743.963-9.385 2.773-13.672z" fill="#fb1466"/><path d="m423.804 282.946c1.803 4.358 2.678 8.921 2.678 13.454 0 9.158-3.575 18.152-10.302 24.879-3.297 3.297-5.872 7.18-7.623 11.404-1.741 4.224-2.668 8.798-2.679 13.464 0 7.108-2.143 13.866-5.924 19.532s-9.21 10.23-15.782 12.96c-4.306 1.782-8.169 4.389-11.404 7.623-3.235 3.235-5.841 7.098-7.623 11.404-2.73 6.573-7.294 12.002-12.96 15.782-5.666 3.781-12.424 5.923-19.532 5.923-4.667.01-9.241.938-13.464 2.678-4.224 1.751-8.108 4.327-11.404 7.623-6.727 6.727-15.721 10.302-24.879 10.302-4.533 0-9.096-.876-13.454-2.678-1.916-.793-3.884-1.411-5.882-1.844 2.751-1.545 5.316-3.482 7.613-5.779 3.297-3.297 7.191-5.872 11.414-7.623 4.224-1.741 8.798-2.668 13.454-2.678 7.108 0 13.876-2.143 19.542-5.923 5.666-3.781 10.23-9.21 12.949-15.782 1.792-4.306 4.389-8.169 7.623-11.404 3.235-3.235 7.108-5.841 11.414-7.623 6.573-2.73 11.991-7.294 15.782-12.96 3.781-5.666 5.923-12.424 5.923-19.532 0-4.667.927-9.241 2.679-13.464 1.751-4.224 4.327-8.108 7.623-11.404 6.727-6.737 10.302-15.731 10.302-24.879 0-4.533-.876-9.107-2.678-13.454-1.782-4.306-2.668-8.88-2.668-13.454s.886-9.148 2.668-13.454c1.803-4.347 2.678-8.921 2.678-13.454 0-9.148-3.575-18.141-10.302-24.879-3.297-3.297-5.872-7.18-7.623-11.404s-2.679-8.798-2.679-13.464c0-7.108-2.143-13.866-5.923-19.532-3.791-5.666-9.21-10.23-15.782-12.96-4.306-1.782-8.18-4.389-11.414-7.623-3.235-3.235-5.831-7.098-7.623-11.404-2.72-6.573-7.283-12.002-12.949-15.782-5.666-3.781-12.434-5.924-19.542-5.924-4.656-.01-9.23-.938-13.454-2.678-4.224-1.751-8.118-4.327-11.414-7.623-2.297-2.297-4.862-4.234-7.613-5.779 1.999-.433 3.966-1.051 5.882-1.844 13.145-5.45 28.268-2.442 38.333 7.623 3.297 3.297 7.18 5.872 11.404 7.623 4.224 1.741 8.798 2.668 13.464 2.678 7.108 0 13.866 2.143 19.532 5.924s10.23 9.21 12.96 15.782c1.782 4.306 4.389 8.169 7.623 11.404 3.235 3.235 7.098 5.841 11.404 7.623 6.573 2.73 12.002 7.294 15.782 12.96 3.781 5.666 5.924 12.424 5.924 19.532.01 4.667.937 9.241 2.679 13.464 1.751 4.224 4.327 8.108 7.623 11.404 6.727 6.727 10.302 15.72 10.302 24.879 0 4.533-.876 9.096-2.678 13.454-1.782 4.306-2.668 8.88-2.668 13.454s.886 9.147 2.668 13.453z" fill="#fb1466"/><g><path d="m474.337 362.973h-436.732c-3.591 0-6.922-1.877-8.782-4.949l-27.339-45.153c-1.948-3.218-1.981-7.243-.085-10.492l27.448-47.028c1.84-3.153 5.216-5.091 8.866-5.091h436.623c3.621 0 6.975 1.908 8.825 5.021l27.395 46.09c1.922 3.233 1.922 7.258 0 10.49l-27.395 46.09c-1.849 3.114-5.203 5.022-8.824 5.022z" fill="#fde734"/><g fill="#31a7fb"><path d="m320.203 333.109v-48.022c0-4.267-3.459-7.726-7.726-7.726s-7.726 3.459-7.726 7.726v48.022c0 4.267 3.459 7.726 7.726 7.726s7.726-3.459 7.726-7.726z"/><path d="m88.204 340.835c4.267 0 7.726-3.459 7.726-7.726v-13.02h8.279c11.781 0 21.365-9.584 21.365-21.365 0-11.78-9.584-21.364-21.365-21.364h-16.005c-4.267 0-7.726 3.459-7.726 7.726v48.022c-.001 4.268 3.459 7.727 7.726 7.727zm7.726-48.022h8.279c3.26 0 5.912 2.652 5.912 5.912s-2.652 5.911-5.912 5.911h-8.279z"/><path d="m229.178 292.813c4.267 0 7.726-3.459 7.726-7.726s-3.459-7.726-7.726-7.726h-29.643c-4.267 0-7.726 3.459-7.726 7.726v48.022c0 4.267 3.459 7.726 7.726 7.726h29.643c4.267 0 7.726-3.459 7.726-7.726s-3.459-7.726-7.726-7.726h-21.917v-8.558h15.395c4.267 0 7.726-3.459 7.726-7.726s-3.459-7.726-7.726-7.726h-15.395v-8.558h21.917z"/><path d="m178.621 298.313c0-11.553-9.399-20.953-20.953-20.953h-15.87c-4.267 0-7.726 3.459-7.726 7.726v48.022c0 4.267 3.459 7.726 7.726 7.726s7.726-3.459 7.726-7.726v-13.843h6.595l7.741 17.039c1.294 2.849 4.102 4.533 7.039 4.533 1.069 0 2.155-.223 3.191-.694 3.885-1.765 5.604-6.345 3.839-10.23l-6.995-15.397c4.689-3.846 7.687-9.68 7.687-16.203zm-29.096-5.5h8.143c3.033 0 5.5 2.467 5.5 5.5s-2.467 5.5-5.5 5.5h-8.143z"/><path d="m285.649 340.835c4.268 0 7.726-3.459 7.726-7.726v-48.022c0-3.138-1.898-5.964-4.803-7.152-2.907-1.187-6.238-.499-8.438 1.739l-9.308 9.482-9.308-9.482c-2.198-2.24-5.534-2.927-8.437-1.739-2.905 1.188-4.803 4.014-4.803 7.152v48.022c0 4.267 3.459 7.726 7.726 7.726s7.726-3.459 7.726-7.726v-29.122l1.581 1.611c1.453 1.48 3.44 2.314 5.514 2.314 2.073 0 4.06-.833 5.514-2.314l1.582-1.611v29.122c.002 4.267 3.46 7.726 7.728 7.726z"/><path d="m423.807 340.835c4.268 0 7.726-3.459 7.726-7.726v-48.022c0-3.138-1.898-5.964-4.803-7.152-2.907-1.187-6.24-.499-8.438 1.739l-9.307 9.482-9.308-9.482c-2.199-2.239-5.531-2.927-8.438-1.739-2.904 1.188-4.803 4.014-4.803 7.152v48.022c0 4.267 3.459 7.726 7.726 7.726 4.268 0 7.726-3.459 7.726-7.726v-29.122l1.581 1.611c1.454 1.48 3.441 2.314 5.514 2.314 2.074 0 4.061-.834 5.514-2.314l1.58-1.61v29.121c.003 4.267 3.462 7.726 7.73 7.726z"/><path d="m338.499 277.36c-4.268 0-7.726 3.459-7.726 7.726v33.2c0 12.433 10.115 22.548 22.547 22.548 12.434 0 22.548-10.115 22.548-22.548v-33.2c0-4.267-3.459-7.726-7.726-7.726s-7.726 3.459-7.726 7.726v33.2c0 3.912-3.183 7.096-7.096 7.096-3.911 0-7.095-3.183-7.095-7.096v-33.2c0-4.267-3.458-7.726-7.726-7.726z"/></g><path d="m510.555 311.863-27.392 46.09c-1.854 3.111-5.202 5.017-8.829 5.017h-34.665c3.616 0 6.974-1.906 8.818-5.017l27.392-46.09c1.927-3.235 1.927-7.263 0-10.487l-27.392-46.09c-1.844-3.121-5.202-5.027-8.818-5.027h34.665c3.626 0 6.974 1.906 8.829 5.027l27.392 46.09c1.927 3.224 1.927 7.252 0 10.487z" fill="#f3d730"/></g><g><g><path d="m168.24 257.68-14.82 5.27c-2.837 1.009-5.802-1.146-5.719-4.155l.432-15.723-9.592-12.466c-1.836-2.386-.703-5.872 2.185-6.723l15.088-4.447 8.892-12.975c1.702-2.484 5.367-2.484 7.069 0l8.892 12.975 15.088 4.448c2.888.851 4.021 4.337 2.185 6.723l-9.592 12.466.432 15.724c.083 3.01-2.882 5.164-5.719 4.155z" fill="#fcb44d"/><path d="m197.94 230.601-9.595 12.469.433 15.726c.083 3.007-2.882 5.164-5.714 4.156l-14.826-5.272-14.818 5.272c-2.84 1.008-5.805-1.149-5.722-4.156l.358-12.944c16.467 1.608 31.635-9.42 35.108-25.688l12.594 3.715c2.881.85 4.014 4.34 2.182 6.722z" fill="#fb9927"/></g><g><path d="m255.999 257.68-14.82 5.27c-2.837 1.009-5.802-1.146-5.719-4.155l.432-15.723-9.592-12.466c-1.836-2.386-.703-5.872 2.185-6.723l15.088-4.447 8.892-12.975c1.702-2.484 5.367-2.484 7.069 0l8.892 12.975 15.088 4.448c2.888.851 4.021 4.337 2.185 6.723l-9.592 12.466.432 15.724c.083 3.01-2.882 5.164-5.719 4.155z" fill="#fcb44d"/><path d="m285.699 230.601-9.595 12.469.433 15.726c.083 3.007-2.882 5.164-5.714 4.156l-14.826-5.272-14.818 5.272c-2.84 1.008-5.805-1.149-5.722-4.156l.358-12.944c16.467 1.608 31.635-9.42 35.108-25.688l12.594 3.715c2.881.85 4.014 4.34 2.182 6.722z" fill="#fb9927"/></g><g><path d="m343.757 257.68-14.82 5.27c-2.837 1.009-5.802-1.146-5.719-4.155l.432-15.723-9.592-12.466c-1.836-2.386-.703-5.872 2.185-6.723l15.088-4.447 8.892-12.975c1.702-2.484 5.367-2.484 7.069 0l8.892 12.975 15.088 4.448c2.888.851 4.021 4.337 2.185 6.723l-9.592 12.466.432 15.724c.083 3.01-2.882 5.164-5.719 4.155z" fill="#fcb44d"/><path d="m373.457 230.601-9.595 12.469.433 15.726c.083 3.007-2.882 5.164-5.714 4.156l-14.826-5.272-14.818 5.272c-2.84 1.008-5.805-1.149-5.722-4.156l.358-12.944c16.467 1.608 31.635-9.42 35.108-25.688l12.594 3.715c2.882.85 4.015 4.34 2.182 6.722z" fill="#fb9927"/></g></g><path d="m280.188 401.641h-48.379c-4.267 0-7.726-3.459-7.726-7.726s3.459-7.726 7.726-7.726h48.379c4.268 0 7.726 3.459 7.726 7.726s-3.458 7.726-7.726 7.726z" fill="#fdef63"/><g><g><path d="m345.595 69.723-41.796 36.967-43.48-66.985c-2.031-3.129-6.61-3.129-8.641 0l-43.48 66.985-41.796-36.967c-3.626-3.207-9.273-.094-8.497 4.684l13.495 83.038c1.215 7.479 7.675 12.974 15.253 12.974h138.691c7.577 0 14.037-5.495 15.253-12.974l13.495-83.038c.776-4.778-4.871-7.892-8.497-4.684z" fill="#fdef63"/><path d="m354.092 74.407-13.495 83.042c-1.216 7.479-7.675 12.97-15.257 12.97h-30.586c7.582 0 14.041-5.491 15.257-12.97l10.662-65.684 24.92-22.046c3.626-3.203 9.272-.092 8.499 4.688z" fill="#f3d730"/></g><g><path d="m251.91 93.762-15.134 19.756c-1.416 1.848-1.416 4.416 0 6.265l15.134 19.756c2.062 2.691 6.116 2.691 8.178 0l15.134-19.756c1.416-1.848 1.416-4.416 0-6.265l-15.134-19.756c-2.062-2.692-6.117-2.692-8.178 0z" fill="#27e19d"/><path d="m275.222 119.786-15.133 19.748c-2.06 2.699-6.119 2.699-8.18 0l-6.047-7.901 9.076-11.847c1.411-1.854 1.411-4.419 0-6.274l-9.076-11.847 6.047-7.901c2.06-2.699 6.119-2.699 8.18 0l15.133 19.749c1.411 1.854 1.411 4.419 0 6.273z" fill="#26d192"/></g></g></g></g></svg>