<svg id="Capa_1" enable-background="new 0 0 512 512" height="512" viewBox="0 0 512 512" width="512" xmlns="http://www.w3.org/2000/svg"><g><g><g><g><g><g><g><path d="m417.814 242.739-103.875 103.874c-5.889 5.889-2.719 15.969 5.481 17.427l60.518 10.759 10.759 60.518c1.458 8.2 11.538 11.37 17.427 5.481l96.59-96.59c4.023-4.023 4.023-10.546 0-14.569z" fill="#fdef63"/></g><path d="m504.717 329.637-86.906-86.896-85.34 85.34 124.382 24.304-68.69 68.69 2.534 14.237c1.463 8.2 11.538 11.373 17.431 5.491l96.59-96.59c4.016-4.027 4.016-10.548-.001-14.576z" fill="#f3d730"/></g></g><g><g><g><path d="m94.186 242.739 103.874 103.874c5.889 5.889 2.719 15.969-5.481 17.427l-60.518 10.76-10.759 60.518c-1.458 8.2-11.538 11.37-17.427 5.481l-96.59-96.59c-4.023-4.023-4.023-10.546 0-14.569z" fill="#fdef63"/></g><path d="m198.063 346.613-103.874-103.873-86.906 86.896c-4.018 4.028-4.018 10.549 0 14.577l14.659 14.66 124.675-24.361 18.984 18.984c4.677 4.677 3.647 12.002-1.092 15.535l28.072-4.986c8.201-1.464 11.364-11.539 5.482-17.432z" fill="#f3d730"/></g><g><path d="m266.002 114.041-10.002 1.955-243.722-47.628c-6.362-1.243-12.278 3.628-12.278 10.11v245.936c0 6.482 5.916 11.354 12.278 10.111l243.722-47.628 10.002 1.955z" fill="#64b9fc"/><path d="m256 115.996-26.782-5.233v181.368l26.782-5.234z" fill="#31a7fb"/><path d="m256 286.897 243.722 47.628c6.362 1.243 12.278-3.628 12.278-10.111v-245.936c0-6.482-5.916-11.354-12.278-10.111l-243.722 47.629z" fill="#fb3a82"/><path d="m512 78.478v245.935c0 6.48-5.913 11.353-12.28 10.116l-27.197-5.316c4.317-1.164 7.613-5.11 7.613-9.952v-235.632c0-4.832-3.297-8.777-7.603-9.941l27.187-5.316c6.367-1.247 12.28 3.626 12.28 10.106z" fill="#fb1466"/></g></g></g><g><path d="m256 218.569-14.41 5.124c-2.758.981-5.641-1.114-5.561-4.04l.42-15.288-9.326-12.121c-1.785-2.32-.684-5.709 2.124-6.537l14.67-4.324 8.646-12.616c1.655-2.415 5.219-2.415 6.874 0l8.646 12.616 14.67 4.324c2.808.828 3.909 4.217 2.124 6.537l-9.326 12.121.42 15.288c.08 2.926-2.803 5.021-5.561 4.04z" fill="#fdef63"/><path d="m284.878 192.24-9.33 12.124.421 15.29c.081 2.924-2.802 5.021-5.556 4.041l-14.416-5.126-14.408 5.126c-2.762.98-5.645-1.118-5.564-4.041l.348-12.585c16.011 1.563 30.759-9.16 34.136-24.976l12.245 3.612c2.804.826 3.905 4.219 2.124 6.535z" fill="#f3d730"/></g></g></g><g fill="#eaf6ff"><path d="m59.176 146.485-6.165-.491c-3.449-.274-6.474-3.677-6.474-7.282 0-1.485.514-2.757 1.448-3.58.896-.79 2.09-1.118 3.449-.946l18.883 2.378c4.237.537 8.099-2.467 8.631-6.701.533-4.234-2.467-8.098-6.701-8.631l-18.883-2.378c-5.719-.72-11.406.989-15.601 4.689-4.244 3.743-6.679 9.273-6.679 15.169 0 11.601 9.287 21.778 20.701 22.687l6.165.491c3.038.241 5.605 3.2 5.605 6.461 0 1.499-.536 2.844-1.51 3.786-.605.586-1.652 1.274-3.225 1.22l-19.753-.657c-4.293-.117-7.837 3.2-7.979 7.465s3.2 7.838 7.465 7.979l19.753.657c.23.008.459.011.688.011 5.191 0 10.067-1.963 13.795-5.568 4.011-3.879 6.219-9.169 6.219-14.893-.001-11.377-8.712-20.981-19.832-21.866z"/><path d="m186.106 193.05 18.715.622c.087.003.175.004.261.004 4.148 0 7.578-3.292 7.718-7.47.141-4.265-3.201-7.837-7.466-7.979l-11.245-.374v-5.13l6.392.509c.209.017.416.025.622.025 3.989 0 7.372-3.069 7.694-7.114.339-4.254-2.836-7.977-7.089-8.315l-7.619-.606v-5.073l10.024 1.263c4.238.534 8.098-2.467 8.631-6.701s-2.467-8.098-6.701-8.631l-18.715-2.357c-2.198-.276-4.412.404-6.076 1.871-1.663 1.467-2.616 3.577-2.616 5.795v41.938c0 4.168 3.305 7.584 7.47 7.723z"/><path d="m98.616 189.882c4.267 0 7.726-3.459 7.726-7.726v-10.174l10.756.73v10.328c0 4.267 3.459 7.726 7.726 7.726s7.726-3.459 7.726-7.726v-32.603c0-11.984-8.584-22.449-19.543-23.824-5.492-.687-10.801.949-14.953 4.613-4.553 4.018-7.165 10.093-7.165 16.665v34.265c.001 4.267 3.46 7.726 7.727 7.726zm9.663-47.07c.803-.708 1.746-1 2.805-.868 3.204.402 6.014 4.37 6.014 8.492v6.786l-10.756-.73v-8.602c.001-2.141.706-3.992 1.937-5.078z"/><path d="m146.201 191.607 21.69.726c.088.003.176.005.263.005 4.147 0 7.577-3.291 7.717-7.468.143-4.265-3.199-7.838-7.463-7.98l-14.222-.476v-37.934c0-4.267-3.459-7.726-7.726-7.726s-7.726 3.459-7.726 7.726v45.405c-.001 4.167 3.303 7.583 7.467 7.722z"/><path d="m57.949 238.863-6.164.491c-1.781.143-2.964-.581-3.646-1.211-1.034-.954-1.603-2.342-1.603-3.908 0-3.485 2.802-6.523 6.118-6.633l18.883-.628c4.265-.142 7.607-3.714 7.466-7.979-.142-4.265-3.724-7.607-7.979-7.466l-18.884.628c-11.611.387-21.057 10.291-21.057 22.077 0 5.928 2.333 11.347 6.571 15.261 4.169 3.85 9.622 5.717 15.357 5.264l6.164-.491c1.183-.096 2.226.238 3.011.963.883.815 1.369 2.049 1.369 3.473 0 3.375-2.784 6.687-5.957 7.087l-19.753 2.487c-4.234.533-7.234 4.397-6.701 8.631.492 3.906 3.819 6.762 7.656 6.762.322 0 .647-.02.975-.061l19.753-2.487c10.923-1.376 19.479-11.223 19.479-22.419 0-5.702-2.31-11.106-6.337-14.825-3.977-3.673-9.21-5.45-14.721-5.016z"/><path d="m181.252 263.157c1.42 1.252 3.239 1.932 5.11 1.932.321 0 .644-.02.966-.06l18.715-2.357c4.234-.533 7.234-4.397 6.701-8.631-.533-4.233-4.401-7.234-8.631-6.701l-10.024 1.263v-5.073l7.619-.606c4.254-.339 7.428-4.061 7.089-8.315s-4.063-7.432-8.315-7.089l-6.392.509v-5.13l11.245-.374c4.265-.142 7.607-3.714 7.466-7.979-.142-4.265-3.736-7.59-7.979-7.466l-18.715.622c-4.165.139-7.47 3.555-7.47 7.722v41.938c-.001 2.218.952 4.329 2.615 5.795z"/><path d="m117.098 264.871c0 4.267 3.459 7.726 7.726 7.726s7.726-3.459 7.726-7.726v-32.603c0-6.289-2.438-12.254-6.689-16.363-3.84-3.712-8.83-5.659-14.076-5.482-11.522.388-20.896 10.917-20.896 23.471v34.265c0 4.267 3.459 7.726 7.726 7.726s7.726-3.459 7.726-7.726v-11.39l10.756-.982v9.084zm-10.755-23.619v-7.358c0-4.612 3.143-7.933 5.964-8.028 1.049-.033 1.989.352 2.814 1.148 1.257 1.215 1.977 3.129 1.977 5.254v8.002z"/><path d="m141.348 268.066c1.42 1.252 3.24 1.932 5.111 1.932.32 0 .642-.02.964-.06l21.69-2.726c4.233-.532 7.234-4.396 6.702-8.63-.532-4.233-4.392-7.239-8.63-6.702l-13 1.634v-36.646c0-4.267-3.459-7.726-7.726-7.726s-7.726 3.459-7.726 7.726v45.405c0 2.216.952 4.327 2.615 5.793z"/><path d="m458.989 145.994-6.164.491c-11.121.885-19.832 10.489-19.832 21.865 0 5.724 2.209 11.014 6.219 14.893 3.728 3.606 8.604 5.568 13.795 5.568.228 0 .458-.004.688-.011l19.753-.657c4.265-.142 7.607-3.714 7.465-7.979-.142-4.264-3.691-7.586-7.979-7.465l-19.753.657c-1.563.055-2.62-.634-3.225-1.22-.974-.942-1.51-2.286-1.51-3.786 0-3.261 2.567-6.219 5.605-6.461l6.164-.491c11.415-.908 20.702-11.086 20.702-22.687 0-5.896-2.434-11.426-6.679-15.169-4.195-3.7-9.88-5.409-15.601-4.689l-18.883 2.378c-4.234.533-7.233 4.397-6.701 8.631.533 4.234 4.403 7.232 8.631 6.701l18.883-2.378c1.356-.172 2.553.155 3.449.946.934.823 1.448 2.095 1.448 3.58 0 3.606-3.025 7.009-6.475 7.283z"/><path d="m333.364 143.39c0-2.217-.953-4.328-2.616-5.795s-3.877-2.144-6.076-1.871l-18.715 2.357c-4.234.533-7.234 4.397-6.701 8.631s4.405 7.233 8.631 6.701l10.024-1.263v5.073l-7.619.606c-4.254.339-7.428 4.061-7.089 8.315.322 4.045 3.705 7.114 7.694 7.114.206 0 .413-.008.622-.025l6.392-.509v5.13l-11.245.374c-4.265.142-7.607 3.714-7.466 7.979.139 4.178 3.569 7.47 7.718 7.47.087 0 .174-.002.261-.004l18.715-.622c4.165-.139 7.47-3.555 7.47-7.722z"/><path d="m421.11 147.891c0-6.573-2.612-12.647-7.165-16.665-4.152-3.664-9.465-5.303-14.954-4.613-10.958 1.375-19.542 11.84-19.542 23.824v32.603c0 4.267 3.459 7.726 7.726 7.726s7.726-3.459 7.726-7.726v-10.328l10.756-.73v10.174c0 4.267 3.459 7.726 7.726 7.726s7.726-3.459 7.726-7.726v-34.265zm-26.208 9.332v-6.786c0-4.122 2.81-8.09 6.014-8.491 1.062-.135 2.003.159 2.805.867 1.231 1.086 1.937 2.937 1.937 5.078v8.602z"/><path d="m373.267 138.48c0-4.267-3.459-7.726-7.726-7.726s-7.726 3.459-7.726 7.726v37.933l-14.222.476c-4.265.143-7.606 3.716-7.463 7.98.14 4.177 3.569 7.468 7.717 7.468.087 0 .175-.002.263-.005l21.69-.726c4.164-.139 7.468-3.555 7.468-7.722v-45.404z"/><path d="m460.216 239.354-6.165-.491c-5.514-.443-10.743 1.342-14.72 5.016-4.027 3.72-6.337 9.123-6.337 14.825 0 11.195 8.556 21.043 19.479 22.419l19.753 2.487c.328.041.653.061.975.061 3.837 0 7.164-2.856 7.656-6.762.533-4.234-2.467-8.098-6.701-8.631l-19.753-2.487c-3.174-.399-5.957-3.711-5.957-7.087 0-1.425.486-2.658 1.369-3.473.785-.724 1.822-1.06 3.01-.963l6.165.491c5.733.454 11.187-1.412 15.356-5.264 4.237-3.913 6.571-9.333 6.571-15.261 0-11.787-9.446-21.69-21.058-22.077l-18.883-.628c-4.284-.124-7.837 3.201-7.979 7.466-.141 4.265 3.201 7.837 7.466 7.979l18.882.628c3.317.11 6.119 3.148 6.119 6.633 0 1.566-.569 2.954-1.603 3.908-.682.63-1.868 1.354-3.645 1.211z"/><path d="m307.887 247.34c-4.231-.532-8.098 2.467-8.631 6.701s2.467 8.098 6.701 8.631l18.715 2.357c.322.04.644.06.966.06 1.87 0 3.691-.68 5.11-1.932 1.663-1.467 2.616-3.577 2.616-5.795v-41.938c0-4.167-3.305-7.583-7.47-7.722l-18.715-.622c-4.256-.132-7.837 3.201-7.979 7.466-.141 4.265 3.201 7.837 7.466 7.979l11.245.374v5.13l-6.392-.509c-4.253-.34-7.977 2.836-8.315 7.089-.339 4.254 2.836 7.977 7.089 8.315l7.619.606v5.073z"/><path d="m413.384 275.885c4.267 0 7.726-3.459 7.726-7.726v-34.265c0-12.554-9.374-23.083-20.896-23.471-5.239-.179-10.236 1.771-14.076 5.482-4.25 4.11-6.689 10.074-6.689 16.363v32.603c0 4.267 3.459 7.726 7.726 7.726s7.726-3.459 7.726-7.726v-9.085l10.756.982v11.39c0 4.268 3.46 7.727 7.727 7.727zm-18.482-35.615v-8.002c0-2.124.72-4.039 1.977-5.254.824-.797 1.759-1.185 2.815-1.148 2.821.095 5.964 3.415 5.964 8.028v7.358z"/><path d="m365.541 209.141c-4.267 0-7.726 3.459-7.726 7.726v36.646l-13-1.634c-4.233-.534-8.098 2.469-8.63 6.702-.532 4.234 2.469 8.098 6.702 8.63l21.69 2.726c.322.04.643.06.964.06 1.871 0 3.691-.68 5.111-1.932 1.663-1.467 2.615-3.577 2.615-5.794v-45.405c0-4.266-3.459-7.725-7.726-7.725z"/></g></g></svg>