<svg width="468.293" height="468.293" xmlns="http://www.w3.org/2000/svg">

 <g>
  <title>background</title>
  <rect fill="none" id="canvas_background" height="602" width="802" y="-1" x="-1"/>
 </g>
 <g>
  <title>Layer 1</title>
  <path id="svg_1" fill="#E1E6E9" d="m94.058,0l-78.447,78.447l0,371.114c0,10.345 8.386,18.732 18.732,18.732l305.951,0c10.345,0 18.732,-8.386 18.732,-18.732l0,-430.829c0,-10.346 -8.387,-18.732 -18.732,-18.732l-246.236,0z"/>
  <polygon id="svg_2" fill="#D5D6DB" points="94.056,78.447 94.057,0 15.608,78.447 "/>
  <path id="svg_3" fill="#FCD462" d="m440.196,166.967l-162.341,0c-6.897,0 -12.488,-5.591 -12.488,-12.488l0,-79.415c0,-6.897 5.591,-12.488 12.488,-12.488l162.341,0c6.897,0 12.488,5.591 12.488,12.488l0,79.415c0,6.897 -5.591,12.488 -12.488,12.488z"/>
  <path id="svg_8" fill="#2D93BA" d="m145.46,281.464l-65.395,0l0,-17.935c0,-9.122 7.422,-16.541 16.541,-16.541l32.318,0c9.119,0 16.536,7.419 16.536,16.541l0,17.935zm-53.888,-8.262l42.381,0l0,-9.673c0,-2.776 -2.253,-5.034 -5.029,-5.034l-32.318,0c-2.776,0 -5.034,2.259 -5.034,5.034l0,9.673z"/>
  <path id="svg_9" fill="#27A2DB" d="m239.326,388.271l-170.642,0c-6.897,0 -12.488,-5.591 -12.488,-12.488l0,-90.093c0,-6.897 5.591,-12.488 12.488,-12.488l170.642,0c6.897,0 12.488,5.591 12.488,12.488l0,90.093c0,6.897 -5.591,12.488 -12.488,12.488z"/>
  <path id="svg_10" fill="#2D93BA" d="m302.211,380.967l-50.397,-22.681l0,-55.101l50.397,-22.681c7.615,-3.427 16.229,2.143 16.229,10.493l0,79.475c0,8.352 -8.614,13.922 -16.229,10.495z"/>
  <circle id="svg_11" fill="#FCD462" r="11.508" cy="298.708" cx="85.822"/>
  <circle id="svg_12" fill="#44C4A1" r="11.508" cy="298.708" cx="120.339"/>
  <rect id="svg_13" fill="#2D93BA" height="14.386" width="86.303" y="291.528" x="144.521"/>
  <g id="svg_14"/>
  <g id="svg_15"/>
  <g id="svg_16"/>
  <g id="svg_17"/>
  <g id="svg_18"/>
  <g id="svg_19"/>
  <g id="svg_20"/>
  <g id="svg_21"/>
  <g id="svg_22"/>
  <g id="svg_23"/>
  <g id="svg_24"/>
  <g id="svg_25"/>
  <g id="svg_26"/>
  <g id="svg_27"/>
  <g id="svg_28"/>
  <text opacity="0.5" font-weight="normal" stroke="null" transform="matrix(2.1003639119771833,0,0,2.5045265320464636,-508.5558133739254,-152.57619873871897) " xml:space="preserve" text-anchor="start" font-family="'Trebuchet MS', Gadget, sans-serif" font-size="24" id="svg_29" y="116.74361" x="382.18246" fill-opacity="null" stroke-opacity="null" stroke-width="0" fill="#000000">VIDEO</text>
 </g>
</svg>