<svg id="Capa_1" enable-background="new 0 0 512 512" height="512" viewBox="0 0 512 512" width="512" xmlns="http://www.w3.org/2000/svg"><g><path d="m493.697 160.641-43.521-16.285c-.894-11.508-8.118-21.566-18.917-26.04l-20.52-8.502c-3.899-1.616-6.938-4.653-8.553-8.552l-8.502-20.52c-4.785-11.549-15.955-19.013-28.456-19.014l-22.212-.002c-4.221 0-8.188-1.644-11.174-4.628l-15.707-15.705c-8.84-8.839-22.016-11.461-33.566-6.677l-20.521 8.498c-3.9 1.615-8.195 1.615-12.096 0l-20.521-8.498c-11.552-4.784-24.726-2.162-33.566 6.677l-15.707 15.704c-2.985 2.984-6.953 4.628-11.174 4.628l-22.212.002c-12.501.001-23.671 7.465-28.456 19.014l-8.502 20.52c-1.615 3.899-4.653 6.936-8.553 8.552l-20.52 8.502c-11.549 4.785-19.013 15.955-19.014 28.457l-.002 16.57c-15.909 4.569-31.407 10.709-46.404 18.453-9.45 4.881-15.321 14.491-15.321 25.081v22.984c0 4.142 3.357 7.5 7.5 7.5s7.5-3.358 7.5-7.5v-22.984c0-4.954 2.761-9.458 7.205-11.752 34.128-17.624 70.984-26.56 109.545-26.56 24.676 0 48.967 3.749 72.279 11.149-.337 2.593-.53 5.231-.53 7.914 0 6.661 1.087 13.07 3.067 19.076l-10.421 10.403v-7.479c0-4.142-3.357-7.5-7.5-7.5s-7.5 3.358-7.5 7.5v25.556.005 16.49c0 4.142 3.357 7.5 7.5 7.5s7.5-3.358 7.5-7.5v-13.376l.645-.644 11.079 17.958c1.418 2.298 3.875 3.563 6.39 3.563 1.344 0 2.704-.361 3.931-1.118 3.525-2.175 4.62-6.795 2.445-10.321l-12.938-20.971 5.769-5.759c7.357 11.226 18.304 19.887 31.203 24.348-.413 1.523-.635 3.11-.635 4.728 0 9.962 8.104 18.066 18.066 18.066h4.957c1.69 0 3.066 1.375 3.066 3.066 0 1.69-1.376 3.066-3.066 3.066h-15.523c-4.143 0-7.5 3.358-7.5 7.5s3.357 7.5 7.5 7.5h15.523c9.962 0 18.066-8.104 18.066-18.066s-8.104-18.066-18.066-18.066h-4.957c-1.69 0-3.066-1.375-3.066-3.066 0-.579.179-1.127.476-1.606 1.673.138 3.361.227 5.069.227 18.989 0 35.98-8.712 47.191-22.347 13.944 3.9 28.303 6.629 42.736 8.086.257.026.511.039.763.039 3.804 0 7.063-2.882 7.453-6.747.416-4.121-2.587-7.799-6.708-8.215-12.108-1.223-24.16-3.397-35.929-6.452 3.568-7.752 5.573-16.366 5.573-25.444 0-33.679-27.4-61.08-61.08-61.08-25.754 0-47.82 16.03-56.787 38.63-23.723-7.446-48.386-11.334-73.438-11.587l.351-2.189c.671-4.186 3.769-7.525 7.893-8.508l16.635-3.965c6.609-1.575 12.21-5.629 15.772-11.417l8.961-14.565c2.223-3.61 6.364-5.51 10.548-4.84l16.887 2.703c6.713 1.073 13.436-.529 18.94-4.512l13.854-10.027c3.434-2.485 7.984-2.655 11.596-.436l14.566 8.959c5.789 3.56 12.62 4.654 19.226 3.079l16.637-3.962c4.123-.981 8.394.602 10.879 4.035l10.03 13.853c3.984 5.503 9.874 9.126 16.584 10.201l16.887 2.707c4.185.671 7.524 3.769 8.507 7.892l3.965 16.636c1.576 6.609 5.631 12.21 11.417 15.771l14.565 8.963c3.61 2.221 5.51 6.361 4.841 10.546l-2.703 16.888c-.453 2.832-.424 5.666.054 8.411-4.072.359-8.154.62-12.242.767-4.14.149-7.374 3.626-7.225 7.766s3.646 7.377 7.766 7.225c37.383-1.35 74.271-11.071 107.456-28.234v99.08c0 4.954-2.761 9.458-7.205 11.752-34.128 17.624-70.984 26.56-109.545 26.56-42.333 0-83.99-11.261-120.468-32.565-30.316-17.706-63.317-28.761-98.085-32.857-4.111-.485-7.842 2.456-8.326 6.571-.485 4.114 2.457 7.841 6.57 8.326 32.706 3.854 63.752 14.254 92.276 30.914 37.962 22.171 81.2 34.1 125.221 34.588l-.144.896c-.671 4.186-3.769 7.525-7.893 8.508l-16.635 3.965c-6.609 1.575-12.21 5.629-15.772 11.417l-8.961 14.565c-2.223 3.61-6.363 5.51-10.548 4.84l-16.887-2.703c-6.714-1.074-13.437.528-18.94 4.512l-13.854 10.027c-3.432 2.485-7.983 2.656-11.596.436l-14.566-8.959c-5.788-3.559-12.617-4.652-19.226-3.079l-16.637 3.962c-4.119.982-8.394-.602-10.879-4.035l-10.03-13.853c-3.984-5.503-9.874-9.126-16.584-10.201l-16.887-2.707c-4.185-.671-7.524-3.769-8.507-7.892l-3.965-16.636c-1.576-6.609-5.631-12.21-11.417-15.771l-14.566-8.963c-3.609-2.221-5.509-6.361-4.84-10.546l2.704-16.889c.381-2.38.412-4.777.122-7.132 5.343-.468 10.706-.76 16.081-.865 4.141-.081 7.433-3.503 7.353-7.645-.081-4.142-3.505-7.446-7.646-7.353-38.897.758-77.256 10.522-111.718 28.35v-42.095c0-4.142-3.357-7.5-7.5-7.5s-7.5 3.358-7.5 7.5v62.4c0 11.688 7.355 22.293 18.302 26.39l43.674 16.342c1.333 10.939 8.392 20.395 18.766 24.692l20.52 8.502c3.899 1.616 6.938 4.653 8.553 8.552l8.502 20.52c4.785 11.549 15.955 19.013 28.456 19.014l22.212.002c4.221 0 8.188 1.644 11.174 4.628l15.707 15.705c8.839 8.838 22.015 11.46 33.566 6.677l20.521-8.498c3.9-1.615 8.195-1.615 12.096 0l20.521 8.498c3.833 1.587 7.844 2.359 11.816 2.359 8 0 15.843-3.13 21.75-9.036l15.707-15.704c2.985-2.984 6.953-4.628 11.174-4.628l22.212-.002c12.501-.001 23.671-7.465 28.456-19.014l8.502-20.52c1.615-3.899 4.653-6.936 8.553-8.552l20.52-8.502c11.549-4.785 19.013-15.955 19.014-28.457l.001-15.279c15.909-4.569 31.407-10.709 46.404-18.453 9.451-4.881 15.322-14.491 15.322-25.081v-119.384c-.001-11.688-7.356-22.293-18.304-26.39zm-229.118-19.094c25.408 0 46.08 20.671 46.08 46.08s-20.672 46.08-46.08 46.08-46.08-20.671-46.08-46.08c0-25.408 20.672-46.08 46.08-46.08zm-249.579 184.713v-3.267c7.399-4.143 15.007-7.88 22.786-11.202 1.063 1.546 2.262 3 3.606 4.345l15.704 15.707c2.984 2.985 4.628 6.954 4.629 11.174l.001 9.866-38.166-14.281c-5.121-1.916-8.56-6.876-8.56-12.342zm420.272 38.967c-.001 6.415-3.83 12.146-9.756 14.601l-20.52 8.502c-7.6 3.149-13.52 9.069-16.668 16.668l-8.502 20.52c-2.455 5.925-8.187 9.755-14.601 9.755l-22.212.002c-8.225 0-15.959 3.204-21.777 9.021l-15.706 15.704c-4.536 4.535-11.295 5.879-17.223 3.426l-20.521-8.499c-7.6-3.146-15.973-3.147-23.572 0l-20.521 8.498c-5.925 2.453-12.685 1.11-17.223-3.426l-15.707-15.705c-5.818-5.816-13.553-9.02-21.777-9.02l-22.212-.002c-6.414 0-12.146-3.83-14.601-9.755l-8.502-20.52c-3.148-7.599-9.068-13.519-16.668-16.668l-20.52-8.502c-5.926-2.455-9.755-8.186-9.756-14.6l-.002-22.212c-.001-8.226-3.205-15.96-9.021-21.778l-15.175-15.177c14.121-4.954 28.698-8.578 43.512-10.819.127.986.115 1.99-.044 2.988l-2.704 16.888c-1.631 10.197 2.997 20.281 11.791 25.692l14.565 8.963c2.376 1.461 4.04 3.761 4.687 6.474l3.965 16.636c2.395 10.044 10.529 17.591 20.726 19.225l16.887 2.707c2.754.441 5.172 1.929 6.807 4.188l10.031 13.853c6.056 8.364 16.461 12.223 26.503 9.83l16.638-3.962c2.714-.647 5.517-.197 7.892 1.264l14.567 8.959c4.114 2.531 8.73 3.786 13.335 3.786 5.238 0 10.462-1.625 14.913-4.847l13.854-10.027c2.259-1.635 5.021-2.293 7.774-1.852l16.887 2.703c10.188 1.633 20.28-2.995 25.693-11.791l8.961-14.565c1.463-2.376 3.762-4.041 6.476-4.687l16.636-3.965c10.044-2.394 17.591-10.529 19.225-20.725l.571-3.565c14.459-.686 28.674-2.572 42.597-5.649zm-19.27-151.455 2.704-16.888c1.631-10.197-2.997-20.281-11.791-25.692l-14.565-8.963c-2.376-1.461-4.04-3.761-4.687-6.474l-3.965-16.636c-2.395-10.044-10.529-17.591-20.726-19.225l-16.887-2.707c-2.754-.442-5.172-1.929-6.807-4.188l-10.031-13.853c-6.056-8.364-16.461-12.223-26.503-9.83l-16.637 3.962c-2.718.647-5.518.197-7.893-1.264l-14.567-8.959c-8.795-5.409-19.884-4.992-28.248 1.061l-13.854 10.027c-2.259 1.635-5.021 2.293-7.774 1.852l-16.887-2.703c-10.201-1.634-20.28 2.996-25.693 11.791l-8.961 14.565c-1.463 2.376-3.762 4.041-6.476 4.687l-16.636 3.965c-10.044 2.394-17.591 10.529-19.225 20.726l-.779 4.865c-14.387.695-28.532 2.578-42.389 5.64l.001-12.759c.001-6.415 3.83-12.146 9.756-14.601l20.52-8.502c7.6-3.149 13.52-9.069 16.668-16.668l8.502-20.52c2.455-5.925 8.187-9.755 14.601-9.755l22.212-.002c8.225 0 15.959-3.204 21.777-9.021l15.708-15.703c4.536-4.535 11.296-5.879 17.223-3.426l20.521 8.499c7.6 3.146 15.973 3.147 23.572 0l20.521-8.498c5.927-2.452 12.686-1.109 17.223 3.426l15.707 15.705c5.818 5.816 13.553 9.02 21.777 9.02l22.212.002c6.414 0 12.146 3.83 14.601 9.755l8.502 20.521c3.148 7.599 9.068 13.518 16.668 16.667l20.52 8.502c5.926 2.455 9.755 8.186 9.756 14.6l.002 22.212c.001 8.226 3.205 15.96 9.021 21.778l15.703 15.707c.138.138.255.29.387.432-14.331 5.094-29.142 8.819-44.187 11.112-.351-1.369-.427-2.806-.197-4.242zm58.882-12.561c-1.212-1.922-2.64-3.71-4.277-5.347l-15.704-15.707c-2.984-2.985-4.628-6.954-4.629-11.174l-.001-8.576 38.167 14.282c5.12 1.916 8.56 6.875 8.56 12.341v3.266c-7.182 4.023-14.567 7.665-22.116 10.915z"/><path d="m197.024 354.745c3.064 0 5.94-1.891 7.049-4.937l3.452-9.485c1.417-3.892-.591-8.196-4.482-9.613-3.894-1.417-8.197.59-9.613 4.483l-3.452 9.485c-1.417 3.892.591 8.196 4.482 9.613.847.308 1.713.454 2.564.454z"/><path d="m218.629 362.609c3.064 0 5.94-1.891 7.049-4.937l3.452-9.485c1.417-3.892-.591-8.196-4.482-9.613-3.895-1.417-8.197.59-9.613 4.483l-3.452 9.485c-1.416 3.892.591 8.196 4.482 9.613.846.308 1.712.454 2.564.454z"/><path d="m240.233 370.472c3.064 0 5.94-1.891 7.049-4.937l3.452-9.485c1.417-3.892-.591-8.196-4.482-9.613-3.894-1.417-8.197.59-9.613 4.483l-3.452 9.485c-1.417 3.892.591 8.196 4.482 9.613.847.308 1.713.454 2.564.454z"/><path d="m151.199 333.175 16.087 5.855c.847.308 1.713.454 2.564.454 3.063 0 5.94-1.891 7.049-4.937 1.417-3.893-.59-8.196-4.482-9.613l-16.087-5.855c-3.894-1.417-8.197.59-9.613 4.482-1.417 3.893.59 8.197 4.482 9.614z"/><path d="m284.382 381.649c.847.308 1.713.454 2.564.454 3.063 0 5.94-1.891 7.049-4.937 1.417-3.893-.59-8.196-4.482-9.613l-16.087-5.855c-3.893-1.417-8.196.59-9.613 4.482-1.417 3.893.59 8.196 4.482 9.613z"/><path d="m55.721 208.019h-14.091c-4.143 0-7.5 3.358-7.5 7.5v42.266c0 4.142 3.357 7.5 7.5 7.5h16.956c10.499 0 19.041-8.542 19.041-19.042 0-5.611-2.454-10.648-6.329-14.136.965-2.139 1.514-4.503 1.514-6.997.001-9.424-7.666-17.091-17.091-17.091zm-6.591 15h6.591c1.153 0 2.092.938 2.092 2.091s-.938 2.091-2.092 2.091h-6.591zm9.456 27.266h-9.456v-8.083h6.591 2.865c2.229 0 4.041 1.813 4.041 4.042s-1.813 4.041-4.041 4.041z"/><path d="m117.812 250.07c4.143 0 7.5-3.358 7.5-7.5v-28.924c0-11.255-9.157-20.413-20.412-20.413-11.256 0-20.413 9.157-20.413 20.413v28.924c0 4.142 3.357 7.5 7.5 7.5s7.5-3.358 7.5-7.5v-8.068h10.825v8.068c0 4.142 3.357 7.5 7.5 7.5zm-18.326-30.568v-5.856c0-2.984 2.429-5.413 5.413-5.413s5.412 2.428 5.412 5.413v5.856z"/><path d="m152.303 208.019c1.482 0 2.873.575 3.917 1.619.675.675 1.169 1.515 1.429 2.429 1.129 3.985 5.274 6.299 9.262 5.168 3.984-1.13 6.299-5.277 5.169-9.262-.956-3.37-2.772-6.462-5.252-8.942-3.878-3.877-9.036-6.013-14.524-6.013-11.33 0-20.547 9.212-20.547 20.536v16.182c0 5.488 2.135 10.646 6.012 14.524 3.885 3.884 9.046 6.023 14.535 6.023 9.163 0 17.297-6.16 19.78-14.98 1.122-3.987-1.2-8.129-5.188-9.251-3.986-1.122-8.129 1.2-9.252 5.187-.67 2.381-2.866 4.044-5.341 4.044-1.482 0-2.877-.579-3.928-1.629-1.044-1.044-1.619-2.436-1.619-3.918v-16.182c0-3.051 2.488-5.535 5.547-5.535z"/><path d="m470.37 262.019c4.143 0 7.5-3.358 7.5-7.5s-3.357-7.5-7.5-7.5h-26.09c-4.143 0-7.5 3.358-7.5 7.5v42.265c0 4.142 3.357 7.5 7.5 7.5h26.09c4.143 0 7.5-3.358 7.5-7.5s-3.357-7.5-7.5-7.5h-18.59v-6.132h12.85c4.143 0 7.5-3.358 7.5-7.5s-3.357-7.5-7.5-7.5h-12.85v-6.133z"/><path d="m378.297 292.74v-16.176c0-11.329-9.217-20.545-20.545-20.545s-20.545 9.216-20.545 20.545v16.176c0 11.328 9.217 20.544 20.545 20.544s20.545-9.216 20.545-20.544zm-26.09 0v-16.176c0-3.058 2.487-5.545 5.545-5.545s5.545 2.487 5.545 5.545v16.176c0 3.057-2.487 5.544-5.545 5.544s-5.545-2.487-5.545-5.544z"/><path d="m311.209 307.285c4.143 0 7.5-3.358 7.5-7.5v-34.765h5.305c4.143 0 7.5-3.358 7.5-7.5s-3.357-7.5-7.5-7.5h-25.608c-4.143 0-7.5 3.358-7.5 7.5s3.357 7.5 7.5 7.5h5.304v34.765c-.001 4.142 3.356 7.5 7.499 7.5z"/><path d="m428.174 278.161c0-10.555-8.587-19.141-19.142-19.141h-13.967c-4.143 0-7.5 3.358-7.5 7.5v42.265c0 4.142 3.357 7.5 7.5 7.5s7.5-3.358 7.5-7.5v-11.483h4.653l6.627 14.586c1.256 2.765 3.981 4.399 6.833 4.399 1.037 0 2.092-.217 3.098-.674 3.771-1.713 5.439-6.159 3.726-9.931l-5.944-13.082c4.044-3.512 6.616-8.676 6.616-14.439zm-25.609-4.142h6.467c2.283 0 4.142 1.858 4.142 4.141s-1.858 4.141-4.142 4.141h-6.467z"/><path d="m241.854 214.731c4.143 0 7.5-3.358 7.5-7.5v-39.209c0-4.142-3.357-7.5-7.5-7.5s-7.5 3.358-7.5 7.5v39.209c0 4.142 3.357 7.5 7.5 7.5z"/><path d="m263.103 214.731c4.143 0 7.5-3.358 7.5-7.5v-12.781l10.321 16.72.006-.004c1.322 2.136 3.679 3.564 6.376 3.564 4.143 0 7.5-3.358 7.5-7.5v-39.209c0-4.142-3.357-7.5-7.5-7.5s-7.5 3.358-7.5 7.5v12.781l-10.321-16.72c-1.761-2.854-5.202-4.191-8.43-3.276-3.226.916-5.452 3.862-5.452 7.215v39.209c0 4.143 3.357 7.501 7.5 7.501z"/></g></svg>