<svg id="Capa_1" enable-background="new 0 0 511.986 511.986" height="512" viewBox="0 0 511.986 511.986" width="512" xmlns="http://www.w3.org/2000/svg"><g><path d="m493.683 266.712c-2.333-3.342-2.333-7.833 0-11.176l15.297-21.912c3.564-5.105 3.99-11.707 1.111-17.227-2.879-5.521-8.535-8.951-14.762-8.951h-46.27v-28.485c0-4.142-3.357-7.5-7.5-7.5s-7.5 3.358-7.5 7.5v81.032c-4.677.631-10.16 1.322-16.433 2.037.029-.571.048-1.142.048-1.716 0-11.794-6.101-22.184-15.307-28.199v-90.892c0-9.284-7.553-16.837-16.837-16.837h-98.796c-.16 0-.316.014-.473.024-8.688-4.489-18.239-6.974-28.259-6.974-9.752 0-19.348 2.412-28.212 6.95h-82.311c-5.719-4.481-12.911-7.163-20.723-7.163-18.564 0-33.668 15.104-33.668 33.668 0 9.377 3.857 17.868 10.064 23.979v88.247c-10.601-1.096-19.429-2.177-26.448-3.124v-158.673c0-1.013.824-1.837 1.837-1.837h353.68c1.013 0 1.837.824 1.837 1.837v43.641c0 4.142 3.357 7.5 7.5 7.5s7.5-3.358 7.5-7.5v-43.641c0-9.284-7.553-16.837-16.837-16.837h-353.678c-9.284 0-16.837 7.553-16.837 16.837v106.127h-45.049c-6.227 0-11.883 3.43-14.762 8.951-2.879 5.521-2.453 12.122 1.111 17.227l15.297 21.912c2.333 3.342 2.333 7.833 0 11.176l-15.297 21.911c-3.564 5.105-3.99 11.707-1.111 17.227 2.879 5.521 8.535 8.951 14.762 8.951h29.962v34.871c0 13.461 10.041 25.046 23.356 26.948 25.993 3.711 82.263 10.059 167.083 10.875 4.131.082 7.532-3.285 7.572-7.427s-3.285-7.532-7.427-7.572c-83.957-.808-139.482-7.067-165.107-10.726-5.973-.853-10.477-6.054-10.477-12.098v-76.72c21.43 3.393 87.487 12.222 193.764 12.222s172.334-8.829 193.764-12.222v76.72c0 6.044-4.504 11.245-10.478 12.098-25.984 3.71-82.312 10.04-167.601 10.747-4.142.034-7.472 3.419-7.438 7.562.034 4.121 3.386 7.438 7.499 7.438h.063c86.161-.714 143.24-7.133 169.597-10.896 13.315-1.902 23.356-13.487 23.356-26.948v-34.871h31.183c6.227 0 11.883-3.43 14.762-8.951s2.453-12.122-1.111-17.227zm-91.311-3.066c-10.44 1.026-22.427 2.047-35.932 2.967-.718-2.01-1.1-4.142-1.1-6.298 0-10.293 8.374-18.668 18.667-18.668 10.294 0 18.668 8.375 18.668 18.668 0 1.125-.107 2.238-.303 3.331zm-15.004-122.423v85.591c-1.106-.11-2.227-.168-3.361-.168-18.564 0-33.667 15.104-33.667 33.668 0 2.448.284 4.879.807 7.255-13.146.75-27.508 1.39-43.08 1.848 14.132-16.421 22.438-39.387 22.438-63.814 0-26.357-9.563-50.046-24.687-66.216h79.714c1.012-.001 1.836.824 1.836 1.836zm-260.61-8.999c10.293 0 18.668 8.375 18.668 18.668s-8.375 18.668-18.668 18.668-18.668-8.375-18.668-18.668 8.374-18.668 18.668-18.668zm-65.475 125.478c-3.661-.605-7.38.422-10.208 2.821-2.832 2.401-4.456 5.91-4.456 9.625v29.653h-29.962c-.663 0-1.155-.298-1.461-.886-.306-.587-.27-1.161.11-1.705l15.297-21.912c5.918-8.478 5.918-19.87 0-28.348l-15.297-21.912c-.379-.544-.416-1.118-.11-1.705.307-.588.798-.886 1.461-.886h45.049v35.325c-.141-.023-.288-.047-.423-.07zm169.376 12.309c-.215-.195-.44-.383-.682-.555-14.586-10.424-24.89-28.261-28.271-48.938-.669-4.088-4.531-6.86-8.612-6.192-4.088.668-6.86 4.524-6.192 8.612 2.937 17.962 10.425 34.206 21.182 46.629-36.389-.953-66.446-2.908-89.93-5.005v-81.119c2.748.727 5.63 1.119 8.604 1.119 18.564 0 33.668-15.104 33.668-33.668 0-4.039-.716-7.914-2.026-11.505h51.712c-11.469 12.292-19.559 28.87-22.865 46.994-.743 4.075 1.958 7.98 6.033 8.724 4.077.745 7.98-1.958 8.724-6.033 2.932-16.074 10.205-30.609 20.479-40.928 10.233-10.276 22.516-15.708 35.521-15.708 31.706 0 57.501 32.822 57.501 73.167 0 26.883-11.546 51.454-30.167 64.331-9.592.156-19.578.24-29.955.24-8.505-.002-16.746-.059-24.724-.165zm266.131 28.904c-.307.588-.798.886-1.461.886h-31.183v-29.653c0-3.715-1.624-7.223-4.456-9.625-2.828-2.397-6.548-3.426-10.208-2.82-.135.022-.282.046-.423.07v-35.325h46.27c.663 0 1.154.298 1.461.886.307.587.27 1.161-.109 1.705l-15.297 21.912c-5.919 8.478-5.919 19.87 0 28.348l15.297 21.912c.379.543.416 1.117.109 1.704z"/><path d="m155.256 193.758h-12.654c-4.142 0-7.5 3.358-7.5 7.5s3.358 7.5 7.5 7.5h12.654c4.142 0 7.5-3.358 7.5-7.5s-3.358-7.5-7.5-7.5z"/><path d="m155.256 217.127h-12.654c-4.142 0-7.5 3.358-7.5 7.5s3.358 7.5 7.5 7.5h12.654c4.142 0 7.5-3.358 7.5-7.5s-3.358-7.5-7.5-7.5z"/><path d="m155.256 240.495h-12.654c-4.142 0-7.5 3.358-7.5 7.5s3.358 7.5 7.5 7.5h12.654c4.142 0 7.5-3.358 7.5-7.5s-3.358-7.5-7.5-7.5z"/><path d="m355.509 170.711h12.654c4.143 0 7.5-3.358 7.5-7.5s-3.357-7.5-7.5-7.5h-12.654c-4.143 0-7.5 3.358-7.5 7.5s3.357 7.5 7.5 7.5z"/><path d="m355.509 194.079h12.654c4.143 0 7.5-3.358 7.5-7.5s-3.357-7.5-7.5-7.5h-12.654c-4.143 0-7.5 3.358-7.5 7.5s3.357 7.5 7.5 7.5z"/><path d="m355.509 217.447h12.654c4.143 0 7.5-3.358 7.5-7.5s-3.357-7.5-7.5-7.5h-12.654c-4.143 0-7.5 3.358-7.5 7.5s3.357 7.5 7.5 7.5z"/><path d="m92.929 293.801h-13.589c-4.142 0-7.5 3.358-7.5 7.5v37c0 4.142 3.358 7.5 7.5 7.5h13.589c9.236 0 16.75-7.514 16.75-16.75 0-3.418-1.034-6.597-2.799-9.25 1.765-2.653 2.799-5.832 2.799-9.25 0-9.235-7.514-16.75-16.75-16.75zm-6.089 15h6.089c.965 0 1.75.785 1.75 1.75s-.785 1.75-1.75 1.75h-6.089zm6.089 22h-6.089v-3.5h6.089c.965 0 1.75.785 1.75 1.75s-.785 1.75-1.75 1.75z"/><path d="m173.311 314.801h13.589c4.142 0 7.5-3.358 7.5-7.5s-3.358-7.5-7.5-7.5h-13.589c-9.236 0-16.75 7.514-16.75 16.75s7.514 16.75 16.75 16.75h4.339c.965 0 1.75.785 1.75 1.75s-.785 1.75-1.75 1.75h-13.589c-4.142 0-7.5 3.358-7.5 7.5s3.358 7.5 7.5 7.5h13.589c9.236 0 16.75-7.514 16.75-16.75s-7.514-16.75-16.75-16.75h-4.339c-.965 0-1.75-.785-1.75-1.75s.786-1.75 1.75-1.75z"/><path d="m145.446 311.801c4.142 0 7.5-3.358 7.5-7.5s-3.358-7.5-7.5-7.5h-22.839c-4.142 0-7.5 3.358-7.5 7.5v37c0 4.142 3.358 7.5 7.5 7.5h22.839c4.142 0 7.5-3.358 7.5-7.5s-3.358-7.5-7.5-7.5h-15.339v-3.5h10.314c4.142 0 7.5-3.358 7.5-7.5s-3.358-7.5-7.5-7.5h-10.314v-3.5z"/><path d="m351.154 347.301v-37c0-4.142-3.357-7.5-7.5-7.5s-7.5 3.358-7.5 7.5v37c0 4.142 3.357 7.5 7.5 7.5s7.5-3.358 7.5-7.5z"/><path d="m257.886 354.801c4.143 0 7.5-3.358 7.5-7.5v-8.484h4.831c9.93 0 18.008-8.078 18.008-18.008s-8.078-18.008-18.008-18.008h-12.331c-4.142 0-7.5 3.358-7.5 7.5v37c0 4.142 3.358 7.5 7.5 7.5zm7.5-37h4.831c1.658 0 3.008 1.349 3.008 3.008s-1.35 3.008-3.008 3.008h-4.831z"/><path d="m432.646 311.171c4.143 0 7.5-3.358 7.5-7.5s-3.357-7.5-7.5-7.5h-22.839c-4.143 0-7.5 3.358-7.5 7.5v37c0 4.142 3.357 7.5 7.5 7.5h22.839c4.143 0 7.5-3.358 7.5-7.5s-3.357-7.5-7.5-7.5h-15.339v-3.5h10.314c4.143 0 7.5-3.358 7.5-7.5s-3.357-7.5-7.5-7.5h-10.314v-3.5z"/><path d="m329.097 320.492c0-9.754-7.936-17.69-17.69-17.69h-12.227c-4.143 0-7.5 3.358-7.5 7.5v37c0 4.142 3.357 7.5 7.5 7.5s7.5-3.358 7.5-7.5v-9.118h2.537l5.552 12.22c1.256 2.765 3.981 4.4 6.833 4.4 1.037 0 2.091-.216 3.098-.674 3.771-1.713 5.439-6.159 3.726-9.93l-4.922-10.834c3.433-3.23 5.593-7.799 5.593-12.874zm-22.417-2.691h4.727c1.483 0 2.69 1.207 2.69 2.69 0 1.484-1.207 2.691-2.69 2.691h-4.727z"/><path d="m217.13 354.801c4.142 0 7.5-3.358 7.5-7.5v-29.5h3.92c4.142 0 7.5-3.358 7.5-7.5s-3.358-7.5-7.5-7.5h-22.84c-4.142 0-7.5 3.358-7.5 7.5s3.358 7.5 7.5 7.5h3.919v29.5c.001 4.142 3.359 7.5 7.501 7.5z"/><path d="m377.711 314.801c1.048 0 2.031.406 2.768 1.143.479.479.83 1.074 1.013 1.72 1.129 3.985 5.274 6.302 9.261 5.171 3.985-1.129 6.3-5.275 5.171-9.261-.879-3.102-2.551-5.95-4.837-8.236-3.571-3.57-8.321-5.537-13.375-5.537-10.434 0-18.922 8.484-18.922 18.912v14.166c0 5.053 1.967 9.803 5.537 13.375 3.577 3.577 8.33 5.546 13.385 5.546 8.438 0 15.929-5.672 18.216-13.794 1.122-3.987-1.2-8.129-5.188-9.252-3.987-1.123-8.129 1.199-9.252 5.187-.474 1.684-2.026 2.86-3.776 2.86-1.048 0-2.034-.41-2.777-1.152-.738-.738-1.145-1.722-1.145-2.769v-14.166c-.001-2.158 1.759-3.913 3.921-3.913z"/><path d="m260.517 198.103h-5.025c-1.771 0-3.211-1.44-3.211-3.211s1.44-3.211 3.211-3.211h15.737c4.143 0 7.5-3.358 7.5-7.5s-3.357-7.5-7.5-7.5h-3.719v-4.62c0-4.142-3.357-7.5-7.5-7.5-4.142 0-7.5 3.358-7.5 7.5v4.886c-8.625 1.43-15.23 8.921-15.23 17.946 0 10.042 8.169 18.211 18.211 18.211h5.025c1.771 0 3.212 1.44 3.212 3.211s-1.44 3.212-3.212 3.212h-15.736c-4.142 0-7.5 3.358-7.5 7.5s3.358 7.5 7.5 7.5h7.73v4.62c0 4.142 3.358 7.5 7.5 7.5 4.143 0 7.5-3.358 7.5-7.5v-6.021c6.58-2.748 11.219-9.246 11.219-16.811-.001-10.043-8.17-18.212-18.212-18.212z"/><path d="m233.002 402.409c-4.142 0-7.5 3.358-7.5 7.5v10.094c0 4.142 3.358 7.5 7.5 7.5s7.5-3.358 7.5-7.5v-10.094c0-4.142-3.358-7.5-7.5-7.5z"/><path d="m255.993 402.409c-4.142 0-7.5 3.358-7.5 7.5v10.094c0 4.142 3.358 7.5 7.5 7.5s7.501-3.358 7.501-7.5v-10.094c-.001-4.142-3.359-7.5-7.501-7.5z"/><path d="m278.983 402.409c-4.143 0-7.5 3.358-7.5 7.5v10.094c0 4.142 3.357 7.5 7.5 7.5s7.5-3.358 7.5-7.5v-10.094c0-4.142-3.357-7.5-7.5-7.5z"/><path d="m202.248 407.456h-17.119c-4.142 0-7.5 3.358-7.5 7.5s3.358 7.5 7.5 7.5h17.119c4.142 0 7.5-3.358 7.5-7.5s-3.358-7.5-7.5-7.5z"/><path d="m326.857 407.456h-17.119c-4.143 0-7.5 3.358-7.5 7.5s3.357 7.5 7.5 7.5h17.119c4.143 0 7.5-3.358 7.5-7.5s-3.357-7.5-7.5-7.5z"/></g></svg>