<svg id="Capa_1" enable-background="new 0 0 511.976 511.976" height="512" viewBox="0 0 511.976 511.976" width="512" xmlns="http://www.w3.org/2000/svg"><g><path d="m508.545 219.086-34.418-46.038c-2.479-3.318-7.181-3.996-10.498-1.516s-3.997 7.18-1.516 10.498l34.419 46.038c.62.829.619 1.986 0 2.815l-78.033 104.376c-.442.591-1.146.943-1.884.943h-22.793l76.434-102.237c1.991-2.663 1.991-6.319 0-8.981l-76.434-102.237h22.793c.738 0 1.442.353 1.883.943l23.337 31.215c2.48 3.317 7.182 3.997 10.498 1.516 3.317-2.48 3.997-7.18 1.516-10.498l-23.337-31.216c-3.259-4.359-8.454-6.961-13.896-6.961h-399.265c-9.567.002-17.351 7.785-17.351 17.353v208.753c0 9.567 7.784 17.351 17.351 17.351h13.45v35.674c0 9.567 7.784 17.351 17.351 17.351h200.221c5.442 0 10.638-2.602 13.897-6.961l31.416-42.021c.941-1.258 1.677-2.622 2.23-4.042h15.586c4.142 0 7.5-3.358 7.5-7.5s-3.358-7.5-7.5-7.5h-16.692c-.341-.595-.707-1.179-1.124-1.737l-31.417-42.022c-3.259-4.359-8.454-6.961-13.896-6.961h-132.4c-4.142 0-7.5 3.358-7.5 7.5s3.358 7.5 7.5 7.5h132.4c.738 0 1.442.353 1.883.943l31.417 42.022c.62.829.62 1.986 0 2.815l-31.416 42.021c-.442.591-1.146.943-1.884.943h-200.221c-1.296 0-2.351-1.055-2.351-2.351v-84.043c0-1.296 1.055-2.351 2.351-2.351h33.82c4.142 0 7.5-3.358 7.5-7.5s-3.358-7.5-7.5-7.5h-33.82c-9.567 0-17.351 7.784-17.351 17.351v33.369h-13.45c-1.296 0-2.351-1.055-2.351-2.351v-208.753c0-1.296 1.055-2.351 2.351-2.351h357.742l79.792 106.728-79.792 106.728h-29.591c-4.142 0-7.5 3.358-7.5 7.5s3.358 7.5 7.5 7.5h71.112c5.442 0 10.638-2.602 13.897-6.961l78.034-104.376c4.574-6.12 4.574-14.664 0-20.781z"/><path d="m182.574 333.097c4.142 0 7.5-3.358 7.5-7.5s-3.358-7.5-7.5-7.5h-23.775c-4.142 0-7.5 3.358-7.5 7.5v38.516c0 4.142 3.358 7.5 7.5 7.5h23.775c4.142 0 7.5-3.358 7.5-7.5s-3.358-7.5-7.5-7.5h-16.275v-4.258h11.054c4.142 0 7.5-3.358 7.5-7.5s-3.358-7.5-7.5-7.5h-11.054v-4.258z"/><path d="m82.836 333.097h14.146c4.142 0 7.5-3.358 7.5-7.5s-3.358-7.5-7.5-7.5h-14.146c-9.445 0-17.129 7.684-17.129 17.129s7.684 17.129 17.129 17.129h4.517c1.174 0 2.129.955 2.129 2.129s-.955 2.129-2.129 2.129h-14.145c-4.142 0-7.5 3.358-7.5 7.5s3.358 7.5 7.5 7.5h14.146c9.445 0 17.129-7.684 17.129-17.129s-7.684-17.129-17.129-17.129h-4.517c-1.174 0-2.129-.955-2.129-2.129s.955-2.129 2.128-2.129z"/><path d="m139.778 333.097c4.142 0 7.5-3.358 7.5-7.5s-3.358-7.5-7.5-7.5h-23.775c-4.142 0-7.5 3.358-7.5 7.5v38.516c0 4.142 3.358 7.5 7.5 7.5h23.775c4.142 0 7.5-3.358 7.5-7.5s-3.358-7.5-7.5-7.5h-16.275v-4.258h11.054c4.142 0 7.5-3.358 7.5-7.5s-3.358-7.5-7.5-7.5h-11.054v-4.258z"/><path d="m210.083 363.614c1.348 1.007 2.922 1.494 4.485 1.494 2.284 0 4.54-1.04 6.013-3.01l9.533-12.752c1.991-2.663 1.991-6.319 0-8.981l-9.533-12.751c-2.48-3.317-7.18-3.996-10.498-1.516s-3.997 7.18-1.516 10.498l6.176 8.261-6.176 8.261c-2.48 3.316-1.801 8.016 1.516 10.496z"/><path d="m235.823 363.614c1.348 1.007 2.922 1.494 4.485 1.494 2.284 0 4.54-1.04 6.013-3.01l9.533-12.752c1.991-2.663 1.991-6.319 0-8.981l-9.533-12.751c-2.48-3.317-7.18-3.996-10.498-1.516s-3.997 7.18-1.516 10.498l6.176 8.261-6.176 8.261c-2.481 3.316-1.802 8.016 1.516 10.496z"/><path d="m231.284 197.471c1.347 1.007 2.922 1.494 4.485 1.494 2.284 0 4.54-1.04 6.013-3.01l9.72-13c1.991-2.663 1.991-6.319 0-8.981l-9.72-13c-2.48-3.317-7.18-3.996-10.498-1.516s-3.997 7.18-1.516 10.498l6.362 8.51-6.362 8.51c-2.481 3.315-1.802 8.015 1.516 10.495z"/><path d="m273.121 195.955 9.719-13c1.991-2.663 1.991-6.319 0-8.981l-9.719-13c-2.479-3.317-7.18-3.996-10.498-1.516s-3.997 7.18-1.516 10.498l6.362 8.51-6.362 8.51c-2.48 3.317-1.801 8.018 1.516 10.498 1.348 1.007 2.923 1.494 4.485 1.494 2.284-.003 4.54-1.043 6.013-3.013z"/><path d="m316.111 173.973-9.72-13c-2.48-3.317-7.179-3.996-10.498-1.516-3.318 2.48-3.997 7.18-1.516 10.498l6.362 8.51-6.362 8.51c-2.48 3.317-1.802 8.017 1.516 10.498 1.347 1.007 2.922 1.494 4.485 1.494 2.284 0 4.54-1.04 6.013-3.01l9.72-13c1.991-2.665 1.991-6.321 0-8.984z"/><path d="m327.233 197.471c1.348 1.007 2.923 1.494 4.485 1.494 2.284 0 4.54-1.04 6.013-3.01l9.719-13c1.991-2.663 1.991-6.319 0-8.981l-9.719-13c-2.479-3.317-7.179-3.996-10.498-1.516-3.317 2.48-3.997 7.18-1.516 10.498l6.362 8.51-6.362 8.51c-2.48 3.315-1.801 8.015 1.516 10.495z"/><path d="m367.295 300.403c4.945 0 9.89-1.882 13.655-5.647l45.917-45.917c2.548-2.548 3.951-5.935 3.951-9.538s-1.403-6.99-3.951-9.538l-10.054-10.054c-2.548-2.548-5.935-3.951-9.538-3.951s-6.991 1.403-9.538 3.951l-30.441 30.441-9.991-9.99c-2.547-2.548-5.935-3.952-9.538-3.952s-6.99 1.403-9.538 3.951l-10.054 10.054c-5.259 5.259-5.259 13.816 0 19.076l25.466 25.466c3.764 3.766 8.709 5.648 13.654 5.648zm-19.528-48.567 14.226 14.225c2.929 2.929 7.678 2.929 10.606 0l34.676-34.675 7.917 7.916-44.848 44.848c-1.681 1.68-4.416 1.681-6.096 0l-24.397-24.397z"/><path d="m51.459 203.278c5.295 0 10.274-2.063 14.023-5.811 3.74-3.741 5.8-8.717 5.8-14.012v-27.597c0-4.142-3.358-7.5-7.5-7.5s-7.5 3.358-7.5 7.5v27.597c0 1.289-.5 2.498-1.407 3.405-.915.914-2.128 1.417-3.417 1.417-2.151 0-4.061-1.446-4.644-3.517-1.122-3.987-5.263-6.31-9.251-5.187-3.987 1.122-6.31 5.264-5.187 9.251 2.395 8.511 10.243 14.454 19.083 14.454z"/><path d="m116.985 155.858c0-4.142-3.358-7.5-7.5-7.5s-7.5 3.358-7.5 7.5v27.599c0 2.658-2.163 4.821-4.821 4.821s-4.821-2.163-4.821-4.821v-27.599c0-4.142-3.358-7.5-7.5-7.5s-7.5 3.358-7.5 7.5v27.599c0 10.929 8.892 19.821 19.821 19.821s19.821-8.892 19.821-19.821z"/><path d="m140.545 163.358h14.662c4.142 0 7.5-3.358 7.5-7.5s-3.358-7.5-7.5-7.5h-14.662c-9.638 0-17.479 7.841-17.479 17.48s7.841 17.48 17.479 17.48h4.682c1.368 0 2.48 1.112 2.48 2.48s-1.112 2.48-2.48 2.48h-14.662c-4.142 0-7.5 3.358-7.5 7.5s3.358 7.5 7.5 7.5h14.662c9.639 0 17.48-7.841 17.48-17.48s-7.841-17.48-17.48-17.48h-4.682c-1.367 0-2.479-1.112-2.479-2.48s1.112-2.48 2.479-2.48z"/><path d="m188.071 203.278c4.142 0 7.5-3.358 7.5-7.5v-32.419h4.593c4.142 0 7.5-3.358 7.5-7.5s-3.358-7.5-7.5-7.5h-24.187c-4.142 0-7.5 3.358-7.5 7.5s3.358 7.5 7.5 7.5h4.593v32.419c.001 4.142 3.359 7.5 7.501 7.5z"/><path d="m284.532 268.626h12.321c10.929 0 19.821-8.892 19.821-19.821v-15.278c0-10.929-8.892-19.821-19.821-19.821h-12.321c-4.142 0-7.5 3.358-7.5 7.5v39.919c0 4.143 3.358 7.501 7.5 7.501zm7.5-39.92h4.821c2.658 0 4.821 2.163 4.821 4.821v15.278c0 2.658-2.163 4.821-4.821 4.821h-4.821z"/><path d="m116.272 232.201c0-10.198-8.297-18.495-18.495-18.495h-13.191c-4.142 0-7.5 3.358-7.5 7.5v39.919c0 4.142 3.358 7.5 7.5 7.5s7.5-3.358 7.5-7.5v-10.43h3.71l6.148 13.532c1.256 2.765 3.981 4.4 6.833 4.4 1.038 0 2.092-.216 3.098-.674 3.771-1.713 5.439-6.159 3.726-9.93l-5.489-12.081c3.771-3.388 6.16-8.285 6.16-13.741zm-24.186-3.495h5.691c1.927 0 3.495 1.568 3.495 3.495s-1.568 3.495-3.495 3.495h-5.691z"/><path d="m159.894 232.201c0-10.198-8.297-18.495-18.495-18.495h-13.192c-4.142 0-7.5 3.358-7.5 7.5v39.919c0 4.142 3.358 7.5 7.5 7.5s7.5-3.358 7.5-7.5v-10.43h3.711l6.148 13.532c1.256 2.765 3.981 4.4 6.833 4.4 1.038 0 2.092-.216 3.098-.674 3.771-1.713 5.439-6.159 3.726-9.93l-5.489-12.081c3.771-3.388 6.16-8.285 6.16-13.741zm-24.186-3.495h5.692c1.927 0 3.495 1.568 3.495 3.495s-1.568 3.495-3.495 3.495h-5.692z"/><path d="m198.942 263.341c.982 3.18 3.917 5.284 7.159 5.284.372 0 .749-.028 1.126-.085 2.957-.446 5.293-2.584 6.088-5.34l12.276-39.787c1.221-3.958-.997-8.157-4.956-9.378-3.957-1.222-8.156.998-9.377 4.955l-5.153 16.701-5.156-16.702c-1.222-3.958-5.421-6.174-9.379-4.954-3.958 1.222-6.176 5.421-4.954 9.379z"/><path d="m264.299 228.706c4.142 0 7.5-3.358 7.5-7.5s-3.358-7.5-7.5-7.5h-24.642c-4.142 0-7.5 3.358-7.5 7.5v39.919c0 4.142 3.358 7.5 7.5 7.5h24.642c4.142 0 7.5-3.358 7.5-7.5s-3.358-7.5-7.5-7.5h-17.142v-4.96h11.72c4.142 0 7.5-3.358 7.5-7.5s-3.358-7.5-7.5-7.5h-11.72v-4.959z"/><path d="m64.237 268.626c4.142 0 7.5-3.358 7.5-7.5v-27.599c0-10.929-8.892-19.821-19.821-19.821s-19.821 8.892-19.821 19.821v27.599c0 4.142 3.358 7.5 7.5 7.5s7.5-3.358 7.5-7.5v-7.355h9.642v7.355c0 4.142 3.358 7.5 7.5 7.5zm-17.141-29.855v-5.244c0-2.658 2.163-4.821 4.821-4.821s4.821 2.163 4.821 4.821v5.244z"/><path d="m165.49 221.206v39.919c0 4.142 3.358 7.5 7.5 7.5s7.5-3.358 7.5-7.5v-39.919c0-4.142-3.358-7.5-7.5-7.5s-7.5 3.358-7.5 7.5z"/></g></svg>