<svg id="Capa_1" enable-background="new 0 0 512.009 512.009" height="512" viewBox="0 0 512.009 512.009" width="512" xmlns="http://www.w3.org/2000/svg"><g><path d="m488.467 423.54c-2.599-3.723-2.599-8.726 0-12.449l16.282-23.324c3.69-5.286 4.131-12.121 1.15-17.837s-8.837-9.267-15.284-9.267h-34.348v-32.058c0-5.98-4.276-11.052-10.167-12.06-3.3-.565-8.371-1.378-15.18-2.321 36.878-83.132 40.857-156.48 41.184-177.437.065-4.189-1.355-8.245-4-11.419-10.852-13.03-24.606-25.99-40.88-38.52-3.283-2.528-7.991-1.916-10.518 1.367-2.527 3.282-1.915 7.991 1.367 10.518 15.402 11.859 28.357 24.05 38.506 36.235.349.42.537.984.527 1.587-.228 14.648-3.325 91.279-41.742 175.689-5.461-.639-11.543-1.298-18.256-1.952 6.652-14.225 12.642-29.019 17.832-44.114 18.106-52.651 22.914-97.814 24.169-120.05.115-2.047-.612-4.052-2.014-5.549-23.612-25.215-60.84-50.642-107.658-73.531-32.026-15.658-60.79-26.402-75.085-31.412-1.606-.563-3.355-.563-4.962 0-14.296 5.011-43.06 15.755-75.085 31.412-46.815 22.889-84.042 48.315-107.655 73.531-1.402 1.497-2.129 3.501-2.014 5.549 1.122 19.891 5.259 60.434 20.365 108.479 1.242 3.951 5.451 6.147 9.404 4.905 3.952-1.243 6.147-5.453 4.905-9.404-2.822-8.975-5.242-17.669-7.328-26.005 23.316-3.522 77.383-8.538 159.889-8.538 82.526 0 136.597 5.018 159.901 8.539-2.946 11.765-6.562 24.24-11.017 37.197-5.621 16.347-12.208 32.323-19.579 47.562-31.333-2.588-73.131-4.762-125.17-4.762-56.553 0-101.014 2.567-133.09 5.443-4.438-9.136-8.626-18.57-12.438-28.114-1.537-3.846-5.9-5.719-9.747-4.183-3.847 1.537-5.719 5.9-4.183 9.747 3.252 8.14 6.76 16.214 10.465 24.097-6.826.719-12.891 1.433-18.198 2.108-38.824-84.78-41.949-161.891-42.178-176.643-.009-.605.178-1.168.527-1.588 57.2-68.676 179.898-111.883 203.914-119.847.518-.172 1.066-.172 1.584 0 18.068 5.992 81.417 28.349 138.027 64.478 3.491 2.229 8.128 1.204 10.357-2.287 2.229-3.492 1.204-8.129-2.287-10.357-58.07-37.062-122.891-59.941-141.374-66.071-3.554-1.179-7.47-1.179-11.027 0-24.694 8.189-150.911 52.678-210.718 124.484-2.645 3.174-4.065 7.23-4 11.421.328 21.117 4.351 94.999 41.685 178.563-3.047.465-5.522.87-7.413 1.194-5.891 1.008-10.167 6.08-10.167 12.06v32.058h-34.35c-6.447 0-12.303 3.551-15.284 9.267-2.98 5.716-2.54 12.551 1.15 17.837l16.283 23.324c2.599 3.723 2.599 8.726 0 12.449l-16.283 23.322c-3.69 5.286-4.131 12.121-1.151 17.837 2.981 5.716 8.837 9.268 15.284 9.268h104.323c6.893 0 12.5-5.607 12.5-12.5v-41.94c29.404 35.002 64.497 65.222 104.407 89.842 2.852 1.759 6.05 2.639 9.248 2.639s6.396-.879 9.248-2.639c41.237-25.438 77.321-56.843 107.32-93.344 1.814.133 3.601.266 5.353.402v45.039c0 6.893 5.607 12.5 12.5 12.5h104.323c6.447 0 12.303-3.551 15.284-9.268 2.98-5.716 2.54-12.551-1.15-17.836zm-121.926-319.177v99.942c-7.516-.561-15.853-1.097-25.03-1.581v-112.658c8.785 4.694 17.139 9.468 25.03 14.297zm-40.03-22.03v119.685c-14.007-.584-29.684-1.035-47.13-1.27v-139.589c12.751 5.171 27.704 11.66 43.467 19.367 1.229.6 2.448 1.203 3.663 1.807zm-102.15-21.175v139.589c-17.446.235-33.123.686-47.13 1.27v-119.685c1.214-.604 2.433-1.206 3.661-1.807 15.764-7.707 30.718-14.196 43.469-19.367zm-62.13 141.566c-9.178.484-17.514 1.021-25.03 1.581v-99.942c7.891-4.829 16.245-9.603 25.03-14.298zm-82.421-54.211c11.203-11.533 25.479-23.141 42.391-34.532v91.563c-16.07 1.463-27.101 2.937-33.625 3.937-5.605-25.983-7.864-47.399-8.766-60.968zm159.551 52.09v-145.331c4.777-1.812 8.993-3.351 12.509-4.602 3.517 1.251 7.734 2.791 12.511 4.603v145.331c-4.085-.024-8.248-.038-12.51-.038-4.262-.001-8.425.013-12.51.037zm142.18 4.941v-91.562c16.913 11.391 31.189 23.001 42.392 34.534-.921 13.882-3.196 35.22-8.752 60.968-6.521-1.001-17.556-2.476-33.64-3.94zm-310.797 125.401c19.714-3.237 81.926-11.843 185.261-11.843 103.336 0 165.546 8.606 185.261 11.843v77.892c-19.593-3.082-77.214-10.756-168.9-11.577-.023 0-.046 0-.069 0-4.11 0-7.461 3.314-7.498 7.433-.037 4.142 3.291 7.53 7.432 7.567 12.661.113 24.652.359 35.979.704-17.088 17.345-35.97 33.184-56.34 47.236-20.266-13.98-39.063-29.735-56.077-46.973 13.227-.471 27.423-.807 42.579-.955 4.142-.04 7.467-3.431 7.426-7.573-.04-4.117-3.39-7.427-7.498-7.427-.024 0-.05 0-.075 0-90.872.886-148.021 8.503-167.481 11.564zm52.473 120.693-40.047-29.465c9.52-1.31 22.912-2.932 40.047-4.485zm-103.807 6.127c-.286-.549-.492-1.396.15-2.315l16.282-23.324c6.184-8.859 6.184-20.763 0-29.621l-16.282-23.323c-.642-.92-.436-1.767-.15-2.315s.863-1.203 1.984-1.203h34.35s.079 37.756.1 37.923c.514 4.858 3.056 9.352 7.027 12.274l44.997 33.107h-86.474c-1.121 0-1.697-.655-1.984-1.203zm233.834 38.839c-.847.522-1.898.522-2.745 0-36.473-22.5-68.768-49.829-96.176-81.316 6.8-.439 13.982-.849 21.539-1.219 21.193 22.991 45.352 43.658 71.828 61.431 1.264.849 2.722 1.273 4.18 1.273s2.916-.424 4.18-1.273c26.616-17.867 50.875-38.654 72.158-61.797 7.561.329 14.772.7 21.628 1.102-27.504 31.696-59.932 59.184-96.592 81.799zm175.596-74.432-40.048 29.466v-33.95c17.132 1.552 30.525 3.173 40.048 4.484zm63.759 35.593c-.286.548-.863 1.203-1.984 1.203h-86.474l44.997-33.107c3.964-2.917 6.505-7.4 7.025-12.248.024-.194.104-37.949.104-37.949h34.348c1.121 0 1.698.654 1.984 1.203s.492 1.396-.15 2.315l-16.282 23.323c-6.184 8.858-6.184 20.762 0 29.621l16.283 23.324c.641.919.435 1.766.149 2.315z"/><path d="m133.382 234.706c-4.142 0-7.5 3.358-7.5 7.5v39.327c0 4.142 3.358 7.5 7.5 7.5h24.276c4.142 0 7.5-3.358 7.5-7.5s-3.358-7.5-7.5-7.5h-16.776v-31.827c0-4.142-3.358-7.5-7.5-7.5z"/><path d="m184.248 281.533v-39.327c0-4.142-3.358-7.5-7.5-7.5s-7.5 3.358-7.5 7.5v39.327c0 4.142 3.358 7.5 7.5 7.5s7.5-3.358 7.5-7.5z"/><path d="m222.994 289.033c4.142 0 7.5-3.358 7.5-7.5v-39.327c0-3.046-1.842-5.79-4.662-6.942-2.819-1.152-6.056-.485-8.19 1.688l-6.786 6.913-6.786-6.913c-2.133-2.174-5.372-2.84-8.19-1.688-2.82 1.153-4.662 3.896-4.662 6.942v39.327c0 4.142 3.358 7.5 7.5 7.5s7.5-3.358 7.5-7.5v-21.068c1.315 1.035 2.947 1.606 4.638 1.606s3.323-.571 4.638-1.606v21.068c0 4.142 3.358 7.5 7.5 7.5z"/><path d="m252.933 281.533v-39.327c0-4.142-3.358-7.5-7.5-7.5s-7.5 3.358-7.5 7.5v39.327c0 4.142 3.358 7.5 7.5 7.5s7.5-3.358 7.5-7.5z"/><path d="m277.956 289.033c4.142 0 7.5-3.358 7.5-7.5v-31.827h4.638c4.142 0 7.5-3.358 7.5-7.5s-3.358-7.5-7.5-7.5h-24.276c-4.142 0-7.5 3.358-7.5 7.5s3.358 7.5 7.5 7.5h4.638v31.827c0 4.142 3.358 7.5 7.5 7.5z"/><path d="m334.045 249.706c4.142 0 7.5-3.358 7.5-7.5s-3.358-7.5-7.5-7.5h-24.276c-4.142 0-7.5 3.358-7.5 7.5v39.327c0 4.142 3.358 7.5 7.5 7.5h24.276c4.142 0 7.5-3.358 7.5-7.5s-3.358-7.5-7.5-7.5h-16.776v-4.663h11.436c4.142 0 7.5-3.358 7.5-7.5s-3.358-7.5-7.5-7.5h-11.436v-4.664z"/><path d="m366.49 289.033c10.828 0 19.638-8.81 19.638-19.638v-15.051c0-10.828-8.81-19.638-19.638-19.638h-12.138c-4.142 0-7.5 3.358-7.5 7.5v39.327c0 4.142 3.358 7.5 7.5 7.5zm-4.638-39.327h4.638c2.557 0 4.638 2.081 4.638 4.638v15.051c0 2.557-2.081 4.638-4.638 4.638h-4.638z"/><path d="m327.85 384.706c10.829 0 19.638-8.81 19.638-19.638v-15.051c0-10.828-8.81-19.638-19.638-19.638s-19.638 8.81-19.638 19.638v15.051c0 10.828 8.81 19.638 19.638 19.638zm-4.638-34.689c0-2.557 2.081-4.638 4.638-4.638s4.638 2.081 4.638 4.638v15.051c0 2.558-2.081 4.638-4.638 4.638s-4.638-2.081-4.638-4.638z"/><path d="m364.013 387.706c4.142 0 7.5-3.358 7.5-7.5v-12.899l10.395 16.838.006-.004c1.322 2.136 3.679 3.564 6.376 3.564 4.142 0 7.5-3.358 7.5-7.5v-39.327c0-4.142-3.358-7.5-7.5-7.5s-7.5 3.358-7.5 7.5v12.899l-10.395-16.839c-1.761-2.854-5.204-4.192-8.429-3.276-3.227.916-5.453 3.862-5.453 7.215v39.327c0 4.144 3.358 7.502 7.5 7.502z"/><path d="m247.155 344.07v31.827c0 4.142 3.358 7.5 7.5 7.5s7.5-3.358 7.5-7.5v-31.827h4.414c4.142 0 7.5-3.358 7.5-7.5s-3.358-7.5-7.5-7.5h-23.828c-4.142 0-7.5 3.358-7.5 7.5s3.358 7.5 7.5 7.5z"/><path d="m183.075 330.379h-12.138c-4.142 0-7.5 3.358-7.5 7.5v39.327c0 4.142 3.358 7.5 7.5 7.5h12.138c10.829 0 19.638-8.81 19.638-19.638v-15.051c.001-10.829-8.809-19.638-19.638-19.638zm4.639 34.689c0 2.558-2.081 4.638-4.638 4.638h-4.638v-24.327h4.638c2.558 0 4.638 2.081 4.638 4.638z"/><path d="m148.005 348.379c4.142 0 7.5-3.358 7.5-7.5s-3.358-7.5-7.5-7.5h-24.276c-4.142 0-7.5 3.358-7.5 7.5v39.327c0 4.142 3.358 7.5 7.5 7.5h24.276c4.142 0 7.5-3.358 7.5-7.5s-3.358-7.5-7.5-7.5h-16.776v-4.664h11.435c4.142 0 7.5-3.358 7.5-7.5s-3.358-7.5-7.5-7.5h-11.435v-4.664h16.776z"/><path d="m219.566 329.07c-4.142 0-7.5 3.358-7.5 7.5v39.327c0 4.142 3.358 7.5 7.5 7.5s7.5-3.358 7.5-7.5v-39.327c0-4.142-3.358-7.5-7.5-7.5z"/><path d="m289.745 383.397c4.142 0 7.5-3.358 7.5-7.5v-39.327c0-4.142-3.358-7.5-7.5-7.5s-7.5 3.358-7.5 7.5v39.327c0 4.142 3.358 7.5 7.5 7.5z"/></g></svg>