<svg id="Capa_1" enable-background="new 0 0 512 512" height="512" viewBox="0 0 512 512" width="512" xmlns="http://www.w3.org/2000/svg"><g><path d="m432.912 165.567c4.142 0 7.5-3.358 7.5-7.5v-15.155c0-5.218-2.31-10.115-6.337-13.433-4.028-3.319-9.279-4.647-14.397-3.652l-108.5 21.138c-.593-.911-1.275-1.773-2.062-2.56l-12.715-12.714 11.603-44.432c2.116-8.099-1.857-16.576-9.447-20.157-4.268-2.013-9.617-4.185-15.82-6.031l-.242-8.808 8.92-11.594c2.457-3.193 3.181-7.388 1.936-11.22-1.246-3.832-4.296-6.8-8.161-7.939l-14.031-4.136-8.27-12.066c-2.278-3.324-6.043-5.308-10.072-5.308s-7.795 1.984-10.073 5.308l-8.269 12.066-14.031 4.136c-3.865 1.139-6.916 4.107-8.161 7.939-1.246 3.832-.522 8.026 1.936 11.22l8.92 11.593-.241 8.738c-6.304 1.861-11.732 4.063-16.055 6.103-7.588 3.58-11.561 12.057-9.447 20.156l11.352 43.47-13.676 13.676c-2.987 2.987-4.632 6.958-4.632 11.182v14.9l-96.763 18.851c-12.799 2.494-22.089 13.768-22.089 26.808v88.224c0 9.84 6.591 18.658 16.028 21.444l41.317 12.198c-.649 2.332-1.001 4.777-1.001 7.29v67.502c0 5.219 2.31 10.115 6.337 13.434 2.333 1.922 5.075 3.173 7.964 3.695-.098.746-.156 1.5-.156 2.257v12.26c0 5.121 3.109 9.527 7.537 11.438v9.373h-2.656c-6.867 0-12.453 5.586-12.453 12.453v21.833c0 6.867 5.586 12.453 12.453 12.453h211.717c6.866 0 12.453-5.586 12.453-12.453v-21.833c0-6.867-5.586-12.453-12.453-12.453h-2.657v-9.373c4.428-1.911 7.537-6.316 7.537-11.438v-12.26c0-3.372-.985-6.67-2.85-9.541-5.764-8.874-11.345-19.233-16.647-30.833l11.555-2.251c12.799-2.494 22.088-13.768 22.088-26.808v-88.16c0-9.894-6.637-18.725-16.141-21.477l-10.004-2.896 66.765-13.007c12.799-2.494 22.089-13.768 22.089-26.808v-18.342c0-4.142-3.358-7.5-7.5-7.5s-7.5 3.358-7.5 7.5v18.342c0 5.878-4.188 10.96-9.958 12.084l-260.81 50.81c-4.066.792-6.72 4.73-5.928 8.796.698 3.582 3.836 6.067 7.354 6.067.476 0 .958-.045 1.442-.14l38.57-7.514c-2.193 10.389-4.557 20.561-7.059 30.383l-39.003 7.598c-4.892.953-9.264 3.196-12.808 6.323l-45.35-13.389c-3.106-.917-5.275-3.819-5.275-7.058v-2.525l37.769-7.358c4.066-.792 6.72-4.73 5.928-8.796s-4.736-6.719-8.796-5.928l-34.901 6.799v-70.417c0-5.878 4.188-10.96 9.958-12.084l326-63.51c.97-.191 1.664.235 1.99.504.327.27.876.869.876 1.857v15.155c.003 4.143 3.361 7.501 7.503 7.501zm-76.784 331.433h-206.623v-16.739h206.623zm-8.002-66.18c.281.432.429.906.429 1.37v9.713h-43.402c-4.142 0-7.5 3.358-7.5 7.5s3.358 7.5 7.5 7.5h35.865v8.358h-176.403v-8.358h106.539c4.142 0 7.5-3.358 7.5-7.5s-3.358-7.5-7.5-7.5h-114.076v-9.713c0-.464.149-.938.429-1.369.64-.986 1.283-2.003 1.924-3.029l169.502-33.028c6.041 13.606 12.485 25.728 19.193 36.056zm9.263-163.292c3.128.906 5.313 3.813 5.313 7.069v2.464l-51.713 10.074c-2.021-9.181-3.904-18.524-5.627-27.912l13.955-2.719zm-145.345 9.875 78.593-15.311c1.725 9.386 3.606 18.727 5.623 27.913l-90.983 17.725c2.407-9.848 4.67-20.002 6.767-30.327zm-59.155 55.815 209.813-40.874v70.414c0 5.878-4.188 10.96-9.958 12.085l-206.946 40.324c-.969.185-1.663-.235-1.99-.505s-.876-.869-.876-1.857v-67.502c0-5.879 4.188-10.961 9.957-12.085zm83.764-287.989-8.065-10.482 12.686-3.74c1.655-.488 3.091-1.531 4.066-2.954l7.477-10.91 7.477 10.91c.975 1.423 2.411 2.466 4.066 2.954l12.687 3.74-8.065 10.482c-1.052 1.367-1.6 3.056-1.553 4.78l.212 7.713c-4.709-.695-9.699-1.116-14.939-1.116-5.153 0-10.066.406-14.706 1.08l.211-7.677c.046-1.724-.502-3.412-1.554-4.78zm-23.41 35.439c7.175-3.384 21.842-9.062 39.458-9.062 17.615 0 32.282 5.678 39.457 9.062 1.065.503 1.626 1.68 1.333 2.8l-10.975 42.024h-59.631l-10.975-42.024c-.292-1.119.269-2.297 1.333-2.8zm-7.802 74.918c0-.217.084-.421.238-.575l14.519-14.519h63.791l9.851 9.85-88.399 17.222z"/><path d="m190.058 392.677c10.773 0 19.537-8.764 19.537-19.537v-14.926c0-10.773-8.764-19.537-19.537-19.537-10.772 0-19.537 8.764-19.537 19.537v14.926c0 10.773 8.765 19.537 19.537 19.537zm-4.537-34.463c0-2.502 2.035-4.537 4.537-4.537s4.537 2.035 4.537 4.537v14.926c0 2.502-2.035 4.537-4.537 4.537-2.501 0-4.537-2.035-4.537-4.537z"/><path d="m314.442 340.781v20.396c0 4.142 3.358 7.5 7.5 7.5s7.5-3.358 7.5-7.5v-20.396l10.545-14.115c2.479-3.318 1.799-8.018-1.52-10.497s-8.018-1.798-10.497 1.52l-6.028 8.069-6.029-8.069c-2.479-3.318-7.179-3.999-10.497-1.52s-3.999 7.179-1.52 10.497z"/><path d="m225.945 383.677c4.142 0 7.5-3.358 7.5-7.5v-12.571l10.192 16.511.006-.004c1.322 2.136 3.679 3.564 6.376 3.564 4.142 0 7.5-3.358 7.5-7.5v-39c0-4.142-3.358-7.5-7.5-7.5s-7.5 3.358-7.5 7.5v12.572l-10.192-16.511c-1.762-2.854-5.205-4.191-8.429-3.276-3.227.916-5.453 3.862-5.453 7.215v39c0 4.142 3.358 7.5 7.5 7.5z"/><path d="m275.029 374.677h23.75c4.142 0 7.5-3.358 7.5-7.5s-3.358-7.5-7.5-7.5h-16.25v-31.5c0-4.142-3.358-7.5-7.5-7.5s-7.5 3.358-7.5 7.5v39c0 4.142 3.358 7.5 7.5 7.5z"/><path d="m197.183 214.812c4.142 0 7.5-3.358 7.5-7.5s-3.358-7.5-7.5-7.5h-24.074c-4.142 0-7.5 3.358-7.5 7.5v39c0 4.142 3.358 7.5 7.5 7.5h24.074c4.142 0 7.5-3.358 7.5-7.5s-3.358-7.5-7.5-7.5h-16.574v-4.5h11.278c4.142 0 7.5-3.358 7.5-7.5s-3.358-7.5-7.5-7.5h-11.278v-4.5z"/><path d="m243.189 244.812c4.142 0 7.5-3.358 7.5-7.5v-39c0-3.046-1.842-5.79-4.662-6.942-2.818-1.152-6.056-.485-8.19 1.688l-6.685 6.81-6.685-6.81c-2.134-2.174-5.372-2.841-8.19-1.688-2.82 1.153-4.662 3.896-4.662 6.942v39c0 4.142 3.358 7.5 7.5 7.5s7.5-3.358 7.5-7.5v-20.766c1.297.985 2.889 1.528 4.537 1.528s3.24-.542 4.537-1.528v20.766c0 4.142 3.358 7.5 7.5 7.5z"/><path d="m148.317 262.812c4.142 0 7.5-3.358 7.5-7.5v-39c0-3.046-1.842-5.79-4.662-6.942-2.818-1.152-6.056-.485-8.19 1.688l-6.685 6.81-6.685-6.81c-2.134-2.174-5.372-2.84-8.19-1.688-2.82 1.153-4.662 3.896-4.662 6.942v39c0 4.142 3.358 7.5 7.5 7.5s7.5-3.358 7.5-7.5v-20.766c1.297.985 2.889 1.528 4.537 1.528s3.24-.542 4.537-1.528v20.766c0 4.142 3.358 7.5 7.5 7.5z"/><path d="m340.42 187.812c4.142 0 7.5-3.358 7.5-7.5s-3.358-7.5-7.5-7.5h-24.074c-4.142 0-7.5 3.358-7.5 7.5v39c0 4.142 3.358 7.5 7.5 7.5h24.074c4.142 0 7.5-3.358 7.5-7.5s-3.358-7.5-7.5-7.5h-16.574v-4.5h11.278c4.142 0 7.5-3.358 7.5-7.5s-3.358-7.5-7.5-7.5h-11.278v-4.5z"/><path d="m395.257 182.053c0-10.059-8.183-18.242-18.242-18.242h-12.888c-4.142 0-7.5 3.358-7.5 7.5v39c0 4.142 3.358 7.5 7.5 7.5s7.5-3.358 7.5-7.5v-10.017h3.341l5.961 13.12c1.256 2.765 3.981 4.399 6.833 4.399 1.038 0 2.092-.217 3.098-.674 3.771-1.713 5.439-6.159 3.726-9.931l-5.31-11.688c3.664-3.337 5.981-8.131 5.981-13.467zm-23.629-3.241h5.388c1.788 0 3.242 1.454 3.242 3.242 0 1.787-1.454 3.241-3.242 3.241h-5.388z"/><path d="m279.703 181.812h-13.002c-4.142 0-7.5 3.358-7.5 7.5v39c0 4.142 3.358 7.5 7.5 7.5h15.646c10.008 0 18.15-8.142 18.15-18.15 0-5.194-2.205-9.873-5.715-13.184.817-1.944 1.271-4.078 1.271-6.316 0-9.016-7.334-16.35-16.35-16.35zm-5.502 15h5.502c.745 0 1.35.605 1.35 1.35s-.605 1.351-1.35 1.351h-5.502zm8.146 24h-8.146v-6.299h5.502 2.644c1.737 0 3.15 1.413 3.15 3.149s-1.414 3.15-3.15 3.15z"/></g></svg>