<svg id="Capa_1" enable-background="new 0 0 512 512" height="512" viewBox="0 0 512 512" width="512" xmlns="http://www.w3.org/2000/svg"><g><path d="m411.715 296.002v-76.297c0-5.914-2.959-11.361-7.916-14.571-5.001-3.238-11.244-3.712-16.702-1.265-14.22 6.374-29.183 10.252-44.622 11.602l-1.515-55.09 37.996-49.383c4.216-5.48 5.458-12.677 3.321-19.253-2.137-6.575-7.371-11.668-14.002-13.623l-59.768-17.619-35.223-51.396c-3.909-5.703-10.37-9.107-17.285-9.107-6.914 0-13.375 3.405-17.282 9.108l-35.225 51.396-13.255 3.908c-3.973 1.171-6.244 5.342-5.073 9.314 1.172 3.973 5.341 6.244 9.315 5.073l15.813-4.662c1.654-.488 3.09-1.531 4.065-2.954l36.732-53.597c1.128-1.643 2.917-2.586 4.911-2.586s3.784.943 4.911 2.587l36.731 53.597c.976 1.423 2.411 2.466 4.065 2.954l62.326 18.373c1.911.563 3.361 1.974 3.978 3.87s.271 3.89-.944 5.47l-39.622 51.497c-1.052 1.368-1.601 3.056-1.553 4.78l1.591 57.848c-23.807-.448-47.162-6.97-67.701-18.966-4.947-2.889-10.049-5.475-15.264-7.786l11.482-4.083 40.988 14.576c.817.291 1.667.434 2.512.434 1.563 0 3.11-.489 4.409-1.433 2.001-1.454 3.157-3.801 3.089-6.273l-1.196-43.486 26.528-34.478c1.508-1.96 1.953-4.539 1.188-6.892s-2.64-4.177-5.013-4.876l-41.728-12.3-24.592-35.883c-1.398-2.041-3.713-3.26-6.187-3.26s-4.788 1.22-6.187 3.26l-24.593 35.883-41.728 12.3c-2.372.699-4.247 2.523-5.012 4.876s-.319 4.931 1.188 6.891l26.528 34.478-.792 28.815c-6.536-1.006-13.146-1.598-19.791-1.758l.492-17.887c.048-1.724-.501-3.413-1.553-4.78l-39.622-51.497c-1.216-1.58-1.561-3.574-.944-5.47s2.066-3.307 3.979-3.87l13.876-4.09c3.973-1.171 6.244-5.341 5.073-9.314-1.172-3.974-5.34-6.245-9.315-5.073l-13.875 4.09c-6.632 1.955-11.866 7.047-14.003 13.623s-.895 13.773 3.321 19.253l37.996 49.383-.44 15.988c-20.29 1.45-39.786 6.81-58.09 16.02-7.541 3.795-12.226 11.449-12.226 19.976l.004 105.527c0 8.497 4.682 15.999 11.889 19.807-7.342 3.851-11.893 11.395-11.893 19.793v76.297c0 5.914 2.959 11.361 7.916 14.571 5.001 3.239 11.244 3.711 16.702 1.265 5.02-2.25 10.135-4.178 15.327-5.807v50.73c0 9.623 7.828 17.452 17.451 17.452h196.637c9.623 0 17.451-7.829 17.451-17.452v-22.693c9.493-2.661 18.751-6.238 27.72-10.751 7.541-3.794 12.226-11.448 12.226-19.976v-22.164c0-4.142-3.357-7.5-7.5-7.5s-7.5 3.358-7.5 7.5v22.164c0 2.782-1.558 5.363-3.968 6.576-19.565 9.845-40.641 14.837-62.64 14.837-24.713 0-49.031-6.573-70.325-19.01-23.587-13.776-50.521-21.057-77.89-21.057-21.955 0-43.192 4.53-63.124 13.463-1.105.497-1.987.109-2.414-.167-.487-.316-1.069-.916-1.069-1.981v-76.297c0-2.782 1.558-5.363 3.968-6.576 19.565-9.845 40.64-14.837 62.64-14.837 24.713 0 49.031 6.573 70.325 19.01 23.586 13.775 50.521 21.057 77.89 21.057 23.095 0 45.877-5.184 66.603-15.08l.005 23.899c0 4.142 3.357 7.5 7.5 7.5s7.5-3.358 7.5-7.5l-.005-49.36c0-8.497-4.682-16-11.89-19.808 7.347-3.854 11.899-11.398 11.899-19.797zm-54.945 179.26v19.287c0 1.352-1.1 2.452-2.451 2.452h-34.479v-19.801c3.412.227 6.836.342 10.268.342 9.038 0 17.936-.766 26.662-2.28zm-51.93.196v21.542h-97.68v-57.199c15.824 2.913 31.093 8.528 45.058 16.684 16.267 9.5 34.126 15.909 52.622 18.973zm-112.68-37.592v59.134h-34.479c-1.352 0-2.451-1.1-2.451-2.452v-54.524c8.719-1.689 17.622-2.549 26.662-2.549 3.434 0 6.857.14 10.268.391zm27.553-295.942-21.481-27.918 33.789-9.96c1.654-.488 3.09-1.531 4.065-2.954l19.914-29.056 19.913 29.056c.976 1.423 2.411 2.466 4.066 2.954l33.789 9.96-21.481 27.918c-1.052 1.367-1.601 3.056-1.553 4.78l.969 35.213-33.19-11.803c-1.624-.577-3.399-.578-5.025 0l-31.388 11.162c-.588-.158-1.182-.297-1.772-.448l.938-34.124c.047-1.725-.501-3.413-1.553-4.78zm-84.76 186.425-13.911-3.221c-3.387-.784-5.753-3.76-5.753-7.236v-8.625c7.968-4.33 16.326-7.853 24.941-10.546v28.044c-1.767.496-3.526 1.024-5.277 1.584zm20.277-4.99v-28.429c8.752-1.703 17.68-2.582 26.662-2.582 3.437 0 6.861.132 10.268.381v28.692c-3.412-.227-6.836-.342-10.268-.342-9.038 0-17.936.765-26.662 2.28zm51.93-.197v-28.515c7.13 1.309 14.153 3.17 21.022 5.588 3.91 1.375 8.189-.677 9.565-4.583 1.376-3.907-.677-8.189-4.583-9.565-16.47-5.799-33.72-8.739-51.272-8.739-23.094 0-45.878 5.185-66.604 15.08l-.004-80.063c0-2.782 1.558-5.363 3.968-6.576 19.565-9.845 40.641-14.837 62.64-14.837 24.713 0 49.031 6.574 70.325 19.01 23.587 13.775 50.521 21.057 77.89 21.057 21.955 0 43.193-4.529 63.124-13.463 1.108-.497 1.988-.108 2.413.168.488.316 1.07.917 1.07 1.981v76.297c0 2.782-1.558 5.363-3.968 6.576-19.565 9.845-40.641 14.837-62.64 14.837-22.939 0-44.838-5.423-65.088-16.119-3.664-1.935-8.2-.533-10.135 3.129-1.935 3.663-.533 8.2 3.129 10.135 14.636 7.73 30.507 13.032 46.826 15.745v28.515c-15.824-2.912-31.093-8.528-45.058-16.684-16.265-9.501-34.124-15.909-52.62-18.974zm112.68 37.592v-28.695c3.416.229 6.84.356 10.268.356 9.039 0 17.937-.765 26.662-2.28v28.428c-8.752 1.703-17.68 2.582-26.662 2.582-3.434.001-6.858-.14-10.268-.391zm51.93-5.981v-28.044c1.766-.495 3.523-1.022 5.271-1.581l13.916 3.221c3.387.784 5.753 3.76 5.753 7.236v8.623c-7.968 4.329-16.325 7.852-24.94 10.545z"/><path d="m196.046 208.256c-2.821-1.153-6.058-.484-8.19 1.688l-6.656 6.781-6.658-6.782c-2.134-2.173-5.37-2.841-8.189-1.688s-4.662 3.896-4.662 6.942v38.91c0 4.142 3.357 7.5 7.5 7.5s7.5-3.358 7.5-7.5v-20.684c1.292.972 2.873 1.507 4.51 1.507s3.217-.535 4.509-1.506v20.683c0 4.142 3.357 7.5 7.5 7.5s7.5-3.358 7.5-7.5v-38.91c-.002-3.045-1.845-5.788-4.664-6.941z"/><path d="m246.393 217.65c-4.143 0-7.5 3.358-7.5 7.5v26.9c0 2.486-2.022 4.509-4.509 4.509s-4.51-2.023-4.51-4.509v-26.9c0-4.142-3.357-7.5-7.5-7.5s-7.5 3.358-7.5 7.5v26.9c0 10.757 8.752 19.509 19.51 19.509 10.757 0 19.509-8.752 19.509-19.509v-26.9c0-4.142-3.358-7.5-7.5-7.5z"/><path d="m328.743 262.505h4.51v31.41c0 4.142 3.357 7.5 7.5 7.5s7.5-3.358 7.5-7.5v-31.41h4.509c4.143 0 7.5-3.358 7.5-7.5s-3.357-7.5-7.5-7.5h-24.019c-4.143 0-7.5 3.358-7.5 7.5s3.358 7.5 7.5 7.5z"/><path d="m289.85 276.463h-14.291c-4.143 0-7.5 3.358-7.5 7.5s3.357 7.5 7.5 7.5h14.291c9.499 0 17.228-7.728 17.228-17.228 0-9.499-7.729-17.227-17.228-17.227h-4.563c-1.229 0-2.228-1-2.228-2.228s.999-2.228 2.228-2.228h14.291c4.143 0 7.5-3.358 7.5-7.5s-3.357-7.5-7.5-7.5h-14.291c-9.499 0-17.228 7.728-17.228 17.228s7.729 17.228 17.228 17.228h4.563c1.229 0 2.228.999 2.228 2.227s-1 2.228-2.228 2.228z"/><path d="m246.395 416.313c4.143 0 7.5-3.358 7.5-7.5v-26.9c0-10.757-8.752-19.509-19.509-19.509s-19.509 8.752-19.509 19.509v26.9c0 4.142 3.357 7.5 7.5 7.5s7.5-3.358 7.5-7.5v-6.979h9.018v6.979c0 4.143 3.357 7.5 7.5 7.5zm-16.518-29.479v-4.921c0-2.486 2.022-4.509 4.509-4.509s4.509 2.023 4.509 4.509v4.921z"/><path d="m352.769 407.259c4.143 0 7.5-3.358 7.5-7.5s-3.357-7.5-7.5-7.5h-24.019c-4.143 0-7.5 3.358-7.5 7.5v19.281c-.001.058-.009.115-.009.174s.007.116.009.174v19.28c0 4.142 3.357 7.5 7.5 7.5h24.019c4.143 0 7.5-3.358 7.5-7.5s-3.357-7.5-7.5-7.5h-16.519v-4.455h11.234c4.143 0 7.5-3.358 7.5-7.5s-3.357-7.5-7.5-7.5h-11.234v-4.455h16.519z"/><path d="m190.386 406.362c4.143 0 7.5-3.358 7.5-7.5v-38.91c0-4.142-3.357-7.5-7.5-7.5s-7.5 3.358-7.5 7.5v11.955h-6.193v-11.955c0-4.142-3.357-7.5-7.5-7.5s-7.5 3.358-7.5 7.5v19.28c-.001.058-.009.115-.009.174s.007.116.009.174v19.281c0 4.142 3.357 7.5 7.5 7.5s7.5-3.358 7.5-7.5v-11.955h6.193v11.955c0 4.143 3.357 7.501 7.5 7.501z"/><path d="m292.413 387.595-4.843 15.69-4.843-15.69c-1.222-3.958-5.421-6.174-9.378-4.955-3.958 1.222-6.176 5.42-4.954 9.378l12.009 38.91c.97 3.144 3.876 5.288 7.166 5.288s6.196-2.145 7.166-5.288l12.009-38.91c1.222-3.958-.996-8.157-4.954-9.378-3.964-1.221-8.156.997-9.378 4.955z"/></g></svg>