<svg id="Capa_1" enable-background="new 0 0 511.984 511.984" height="512" viewBox="0 0 511.984 511.984" width="512" xmlns="http://www.w3.org/2000/svg"><g><path d="m492.477 249.898c-2.626-3.762-2.626-8.816 0-12.579l16.384-23.469c3.703-5.305 4.145-12.164 1.153-17.9-2.991-5.736-8.868-9.299-15.337-9.299h-8.625c-4.142 0-7.5 3.358-7.5 7.5s3.358 7.5 7.5 7.5h8.625c1.212 0 1.796.774 2.037 1.235s.541 1.384-.153 2.378l-16.383 23.468c-6.212 8.898-6.212 20.854 0 29.751l16.384 23.469c.694.994.394 1.917.153 2.378s-.825 1.235-2.037 1.235h-27.656v-57.801c0-3.732-1.632-7.257-4.477-9.669-2.842-2.41-6.579-3.441-10.255-2.833-.566.094-1.182.194-1.847.301-1.233-4.701-3.689-9.012-7.214-12.538l-1.375-1.375h9.157c4.142 0 7.5-3.358 7.5-7.5s-3.358-7.5-7.5-7.5h-23.498c-1.083-1.9-1.671-4.052-1.671-6.298l-.002-19.306c0-11.265-6.726-21.33-17.133-25.642l-17.836-7.39c-3.147-1.304-5.599-3.756-6.903-6.903l-7.39-17.836c-4.312-10.408-14.377-17.133-25.641-17.133l-19.306-.002c-3.408 0-6.611-1.327-9.02-3.736l-13.653-13.651c-7.966-7.964-19.84-10.326-30.247-6.016l-13.918 5.763c-2.553-1.762-5.613-2.742-8.804-2.742-3.19 0-6.249.98-8.801 2.741l-13.915-5.762c-10.407-4.31-22.28-1.948-30.246 6.016l-13.654 13.651c-2.409 2.409-5.612 3.735-9.019 3.736l-19.306.002c-11.265 0-21.33 6.726-25.642 17.133l-7.39 17.836c-1.304 3.147-3.756 5.599-6.903 6.903l-17.836 7.39c-10.408 4.312-17.133 14.377-17.133 25.641l-.002 19.306c0 2.247-.588 4.398-1.671 6.298h-67.164c-6.469 0-12.346 3.563-15.337 9.299-2.992 5.736-2.55 12.595 1.153 17.9l16.384 23.469c2.626 3.762 2.626 8.816 0 12.579l-16.384 23.472c-3.703 5.305-4.145 12.164-1.153 17.9 2.991 5.736 8.868 9.299 15.337 9.299h27.656v7.618c0 13.571 10.123 25.251 23.546 27.167 4.844.692 10.733 1.473 17.633 2.293l.001 13.291c0 11.265 6.726 21.33 17.133 25.642l17.836 7.39c3.147 1.304 5.599 3.756 6.903 6.903l7.39 17.836c4.312 10.407 14.377 17.133 25.641 17.133l19.306.002c3.408 0 6.611 1.327 9.02 3.736l13.653 13.651c7.966 7.963 19.839 10.326 30.247 6.016l17.837-7.386c3.148-1.303 6.616-1.303 9.762 0l17.838 7.387c3.454 1.43 7.068 2.125 10.648 2.125 7.208 0 14.275-2.82 19.598-8.142l13.653-13.651c2.409-2.409 5.612-3.735 9.02-3.736l19.306-.002c11.265 0 21.33-6.726 25.642-17.133l7.39-17.836c1.304-3.147 3.756-5.599 6.903-6.903l17.836-7.39c10.408-4.312 17.133-14.377 17.133-25.641l.001-13.292c6.903-.82 12.791-1.602 17.633-2.293 13.424-1.917 23.547-13.596 23.547-27.167v-7.618h27.656c6.469 0 12.346-3.563 15.337-9.299 2.992-5.736 2.55-12.595-1.153-17.9zm-208.028-173.3c4.785-1.982 10.241-.896 13.902 2.765l13.653 13.651c5.241 5.24 12.21 8.127 19.624 8.128l19.307.002c5.177 0 9.803 3.091 11.785 7.875l7.39 17.837c2.837 6.847 8.171 12.181 15.019 15.019l17.836 7.39c4.783 1.982 7.874 6.608 7.875 11.786l.002 19.307c.001 7.413 2.888 14.382 8.128 19.623l13.65 13.653c1.201 1.201 2.133 2.6 2.766 4.124-8.618 1.147-19.773 2.471-33.398 3.776-1.111-2.405-2.634-4.61-4.536-6.513l-10.216-10.218c-1.446-1.447-2.243-3.37-2.243-5.416l-.001-14.449c-.001-9.196-5.492-17.413-13.987-20.933l-13.348-5.531c-1.89-.783-3.362-2.255-4.146-4.145l-5.531-13.349c-2.573-6.211-7.661-10.804-13.802-12.832.17-2.027-.051-4.095-.698-6.087-1.58-4.864-5.453-8.632-10.359-10.078l-34.194-10.08-14.499-21.156zm-99.512 65.394h.397l17.361 22.563-.98 35.634c-.141 5.112 2.245 9.959 6.383 12.966 4.137 3.006 9.485 3.779 14.304 2.064l33.588-11.943 33.588 11.944c1.691.602 3.447.897 5.194.897 3.229 0 6.425-1.01 9.11-2.961 4.138-3.006 6.524-7.853 6.384-12.966l-.98-35.635 17.361-22.563h.401c3.109 0 5.887 1.856 7.077 4.729l5.531 13.349c2.316 5.59 6.67 9.944 12.261 12.261l13.349 5.531c2.872 1.19 4.728 3.968 4.729 7.077l.001 14.449c.001 6.051 2.357 11.741 6.636 16.02l7.679 7.68c-32.379 2.607-75.307 4.789-128.317 4.789s-95.937-2.182-128.317-4.789l7.679-7.68c4.278-4.279 6.635-9.968 6.636-16.02l.001-14.449c0-3.109 1.856-5.887 4.729-7.077l13.349-5.531c5.59-2.317 9.945-6.671 12.261-12.261l5.531-13.349c1.188-2.873 3.965-4.729 7.074-4.729zm71.465-61.015 21.66 31.605c.975 1.423 2.411 2.466 4.066 2.954l36.752 10.833c.088.026.253.075.334.325s-.023.386-.08.459l-23.365 30.367c-1.052 1.368-1.6 3.056-1.553 4.78l1.054 38.301c.002.092.007.263-.206.418-.214.155-.375.098-.462.067l-36.101-12.837c-.813-.289-1.663-.434-2.513-.434s-1.7.145-2.513.434l-36.101 12.837c-.087.031-.249.088-.462-.067-.213-.154-.208-.326-.206-.418l1.053-38.301c.047-1.724-.501-3.413-1.553-4.78l-23.366-30.367c-.056-.073-.16-.208-.079-.459.082-.25.246-.299.334-.325l36.751-10.833c1.655-.488 3.091-1.531 4.066-2.954l21.661-31.605c.052-.076.149-.217.412-.217.268 0 .364.141.417.217zm-155.259 80.072c0-5.177 3.091-9.803 7.875-11.785l17.837-7.39c6.847-2.837 12.181-8.171 15.019-15.019l7.39-17.836c1.982-4.783 6.608-7.874 11.786-7.875l19.307-.002c7.413-.001 14.382-2.888 19.623-8.128l13.653-13.65c3.661-3.662 9.118-4.747 13.902-2.766l10.017 4.148-14.5 21.157-34.193 10.08c-4.906 1.446-8.779 5.214-10.359 10.078-.647 1.992-.869 4.061-.698 6.088-6.139 2.029-11.225 6.621-13.797 12.83l-5.531 13.349c-.783 1.89-2.255 3.362-4.145 4.145l-13.349 5.531c-8.496 3.52-13.986 11.736-13.987 20.933l-.001 14.449c0 2.046-.797 3.969-2.243 5.416l-10.216 10.218c-1.902 1.902-3.425 4.107-4.536 6.513-13.625-1.305-24.78-2.629-33.398-3.776.633-1.524 1.565-2.923 2.765-4.124l13.651-13.653c5.24-5.241 8.127-12.21 8.128-19.624zm350.879 147.136c0 6.154-4.586 11.45-10.667 12.318-26.01 3.714-82.37 10.063-167.6 10.855-4.142.038-7.468 3.427-7.43 7.569.038 4.118 3.388 7.43 7.498 7.43h.071c59.866-.556 105.698-3.839 136.947-7.053l-.001 11.632c0 5.177-3.091 9.803-7.875 11.785l-17.837 7.39c-6.847 2.837-12.181 8.171-15.019 15.019l-7.39 17.836c-1.982 4.783-6.608 7.874-11.785 7.875l-19.308.002c-7.413.001-14.382 2.888-19.623 8.128l-13.653 13.65c-3.662 3.661-9.12 4.747-13.902 2.766l-17.836-7.387c-6.848-2.835-14.391-2.835-21.24 0l-17.837 7.387c-4.785 1.98-10.241.896-13.902-2.765l-13.653-13.651c-5.241-5.24-12.209-8.127-19.623-8.128l-19.307-.002c-5.177 0-9.803-3.091-11.785-7.875l-7.39-17.837c-2.837-6.848-8.171-12.181-15.019-15.019l-17.836-7.39c-4.783-1.982-7.874-6.608-7.875-11.786l-.001-11.632c31.364 3.227 77.404 6.52 137.574 7.058h.069c4.11 0 7.461-3.314 7.498-7.433.037-4.142-3.291-7.53-7.432-7.567-85.559-.767-142.121-7.133-168.222-10.86-6.081-.868-10.667-6.164-10.667-12.318v-26.576c0-4.142-3.358-7.5-7.5-7.5s-7.5 3.358-7.5 7.5v3.958h-27.657c-1.212 0-1.797-.774-2.038-1.235s-.541-1.384.153-2.378l16.383-23.468c6.212-8.898 6.212-20.854 0-29.751l-16.384-23.469c-.694-.994-.394-1.917-.153-2.378s.825-1.235 2.038-1.235h52.822l-1.375 1.375c-3.524 3.525-5.98 7.837-7.213 12.538-.664-.107-1.281-.207-1.847-.301-3.674-.61-7.412.423-10.254 2.833-2.845 2.412-4.477 5.937-4.477 9.669v18.802c0 4.142 3.358 7.5 7.5 7.5s7.5-3.358 7.5-7.5v-16.065c21.567 3.42 88.399 12.374 196.029 12.374s174.462-8.954 196.03-12.374v77.684z"/><path d="m233.001 365.008c-4.142 0-7.5 3.358-7.5 7.5v10.093c0 4.142 3.358 7.5 7.5 7.5s7.5-3.358 7.5-7.5v-10.093c0-4.142-3.358-7.5-7.5-7.5z"/><path d="m255.992 365.008c-4.142 0-7.5 3.358-7.5 7.5v10.093c0 4.142 3.358 7.5 7.5 7.5s7.5-3.358 7.5-7.5v-10.093c0-4.142-3.358-7.5-7.5-7.5z"/><path d="m278.983 390.102c4.142 0 7.5-3.358 7.5-7.5v-10.093c0-4.142-3.358-7.5-7.5-7.5s-7.5 3.358-7.5 7.5v10.093c0 4.142 3.358 7.5 7.5 7.5z"/><path d="m202.247 370.055h-17.12c-4.142 0-7.5 3.358-7.5 7.5s3.358 7.5 7.5 7.5h17.12c4.142 0 7.5-3.358 7.5-7.5s-3.358-7.5-7.5-7.5z"/><path d="m309.737 385.055h17.12c4.142 0 7.5-3.358 7.5-7.5s-3.358-7.5-7.5-7.5h-17.12c-4.142 0-7.5 3.358-7.5 7.5s3.358 7.5 7.5 7.5z"/><path d="m234.244 262.071v47.741c0 4.142 3.358 7.5 7.5 7.5h29.47c4.142 0 7.5-3.358 7.5-7.5s-3.358-7.5-7.5-7.5h-21.97v-8.871h15.487c4.142 0 7.5-3.358 7.5-7.5s-3.358-7.5-7.5-7.5h-15.487v-8.871h21.97c4.142 0 7.5-3.358 7.5-7.5s-3.358-7.5-7.5-7.5h-29.47c-4.142.001-7.5 3.359-7.5 7.501z"/><path d="m307.042 316.755c.918.375 1.881.558 2.836.558 1.975 0 3.915-.781 5.354-2.246l9.383-9.558 9.383 9.558c2.134 2.174 5.371 2.84 8.19 1.688 2.82-1.153 4.662-3.896 4.662-6.942v-47.741c0-4.142-3.358-7.5-7.5-7.5s-7.5 3.358-7.5 7.5v29.396l-1.883-1.918c-1.41-1.437-3.339-2.246-5.352-2.246s-3.942.81-5.352 2.246l-1.883 1.918v-29.395c0-4.142-3.358-7.5-7.5-7.5s-7.5 3.358-7.5 7.5v47.741c0 3.044 1.842 5.788 4.662 6.941z"/><path d="m202.104 254.571c-4.142 0-7.5 3.358-7.5 7.5v21.313l-15.588-25.253c-1.761-2.854-5.203-4.19-8.429-3.276-3.227.916-5.453 3.862-5.453 7.215v47.741c0 4.142 3.358 7.5 7.5 7.5s7.5-3.358 7.5-7.5v-21.311l15.588 25.252.006-.004c1.322 2.136 3.679 3.564 6.376 3.564 4.142 0 7.5-3.358 7.5-7.5v-47.741c0-4.142-3.358-7.5-7.5-7.5z"/></g></svg>