<svg id="Capa_1" enable-background="new 0 0 512 512" height="512" viewBox="0 0 512 512" width="512" xmlns="http://www.w3.org/2000/svg"><g><path d="m512 83.681c0-5.249-2.324-10.172-6.375-13.509-4.052-3.336-9.328-4.674-14.481-3.667l-90.51 17.688c-4.065.794-6.717 4.734-5.922 8.799.795 4.066 4.74 6.716 8.799 5.922l90.51-17.688c1.008-.197 1.729.244 2.069.524s.911.903.911 1.93v238.731c0 1.027-.571 1.65-.911 1.93-.339.28-1.06.721-2.068.523l-230.522-45.047v-49.523l3.975 1.413c1.26.448 2.568.668 3.869.668 2.405 0 4.785-.752 6.785-2.205 3.082-2.239 4.859-5.85 4.754-9.657l-.335-12.174 7.427-9.652c2.323-3.019 3.007-6.984 1.831-10.607-1.177-3.623-4.062-6.429-7.716-7.506l-11.682-3.444-6.885-10.045c-.578-.844-1.264-1.588-2.022-2.237v-38.572l106.683-20.848c4.065-.794 6.717-4.734 5.922-8.799-.794-4.065-4.731-6.715-8.799-5.922l-111.307 21.75-235.144-45.951c-5.151-1.007-10.43.33-14.481 3.667s-6.375 8.259-6.375 13.508v238.731c0 4.194 1.504 8.165 4.167 11.3-.243 4.894 1.563 9.681 5.101 13.219l93.76 93.76c3.34 3.34 7.788 5.132 12.352 5.132 1.759 0 3.536-.266 5.273-.813 6.244-1.964 10.834-7.187 11.979-13.63l9.528-53.591 53.591-9.528c6.444-1.146 11.667-5.736 13.63-11.979 1.963-6.244.309-12.997-4.32-17.625l-29.334-29.334 80.273-15.687 80.273 15.687-29.334 29.334c-4.628 4.628-6.283 11.381-4.32 17.625 1.964 6.244 7.187 10.834 13.63 11.979l53.591 9.528 9.528 53.591c1.146 6.444 5.736 11.667 11.979 13.63 1.737.546 3.513.813 5.273.813 4.563 0 9.012-1.792 12.352-5.132l39.864-39.863c2.929-2.929 2.929-7.678 0-10.606-2.929-2.93-7.678-2.929-10.606 0l-39.864 39.863c-.931.932-1.977.788-2.517.617-.54-.17-1.48-.648-1.711-1.947l-10.444-58.746c-.551-3.097-2.975-5.521-6.071-6.071l-58.746-10.444c-1.299-.231-1.777-1.171-1.947-1.711s-.315-1.585.617-2.518l36.473-36.473 135.217 26.424-26.964 26.964c-2.929 2.929-2.929 7.678 0 10.606 1.464 1.464 3.384 2.197 5.303 2.197s3.839-.732 5.303-2.197l29.854-29.854c3.534-3.534 5.343-8.324 5.1-13.218 2.664-3.135 4.168-7.107 4.168-11.301v-238.732zm-246.392 107.083 9.404 2.772-5.978 7.77c-1.052 1.367-1.601 3.056-1.553 4.78l.27 9.8-9.237-3.285c-.813-.289-1.663-.434-2.513-.434s-1.7.145-2.513.434l-9.237 3.285.27-9.8c.047-1.724-.501-3.413-1.553-4.78l-5.978-7.77 9.403-2.772c1.655-.488 3.091-1.531 4.066-2.954l5.542-8.086 5.542 8.086c.974 1.423 2.41 2.466 4.065 2.954zm-71.153 158.499c.933.933.787 1.978.617 2.518s-.648 1.48-1.947 1.711l-58.746 10.444c-3.097.551-5.521 2.975-6.071 6.071l-10.444 58.746c-.231 1.299-1.171 1.777-1.711 1.947-.539.17-1.585.315-2.518-.617l-90.87-90.87 73.831-14.428c4.065-.794 6.717-4.734 5.922-8.799-.794-4.065-4.733-6.715-8.799-5.922l-75.74 14.801c-1.008.195-1.729-.243-2.069-.523s-.911-.903-.911-1.93v-238.731c0-1.026.571-1.649.911-1.93.34-.28 1.063-.72 2.069-.524l230.521 45.049v38.571c-.759.649-1.445 1.393-2.023 2.237l-6.885 10.045-11.682 3.444c-3.654 1.077-6.538 3.883-7.715 7.506s-.493 7.588 1.83 10.607l7.427 9.652-.335 12.174c-.105 3.808 1.673 7.418 4.754 9.657 3.083 2.24 7.065 2.815 10.653 1.538l3.975-1.414v49.523l-121.608 23.765c-4.065.794-6.717 4.734-5.922 8.799s4.74 6.718 8.799 5.922l28.212-5.513z"/><path d="m64.942 149.695-5.985-.477c-3.348-.266-6.285-3.569-6.285-7.069 0-1.442.499-2.676 1.405-3.475.87-.767 2.029-1.085 3.348-.918l18.33 2.308c4.113.521 7.861-2.395 8.378-6.504s-2.395-7.861-6.504-8.378l-18.33-2.308c-5.552-.699-11.072.96-15.144 4.552-4.12 3.634-6.483 9.001-6.483 14.725 0 11.261 9.015 21.14 20.095 22.022l5.985.477c2.949.234 5.44 3.106 5.44 6.271 0 1.456-.521 2.761-1.466 3.675-.587.568-1.604 1.237-3.13 1.184l-19.174-.638c-4.167-.113-7.607 3.106-7.745 7.247-.138 4.14 3.106 7.608 7.246 7.746l19.174.638c.224.007.445.011.667.011 5.039 0 9.772-1.905 13.391-5.405 3.893-3.766 6.037-8.9 6.037-14.457 0-11.045-8.456-20.368-19.25-21.227z"/><path d="m188.154 194.896 18.167.604c.084.002.169.004.253.004 4.027 0 7.356-3.196 7.492-7.251.137-4.14-3.107-7.607-7.247-7.745l-10.916-.363v-4.979l6.205.494c.203.016.404.024.604.024 3.872 0 7.156-2.979 7.468-6.905.329-4.129-2.752-7.743-6.881-8.072l-7.396-.589v-4.924l9.73 1.226c4.114.518 7.861-2.395 8.378-6.504s-2.395-7.861-6.504-8.378l-18.167-2.288c-2.134-.268-4.283.393-5.898 1.816-1.614 1.424-2.539 3.473-2.539 5.625v40.709c0 4.045 3.208 7.362 7.251 7.496z"/><path d="m103.227 191.821c4.142 0 7.5-3.358 7.5-7.5v-9.876l10.44.708v10.026c0 4.142 3.358 7.5 7.5 7.5s7.5-3.358 7.5-7.5v-31.648c0-11.633-8.333-21.792-18.97-23.126-5.331-.667-10.484.921-14.515 4.478-4.42 3.9-6.955 9.797-6.955 16.177v33.261c0 4.142 3.358 7.5 7.5 7.5zm9.38-45.691c.779-.688 1.695-.971 2.723-.842 3.11.391 5.838 4.242 5.838 8.243v6.587l-10.44-.708v-8.35c-.001-2.079.684-3.876 1.879-4.93z"/><path d="m149.417 193.495 21.055.705c.085.003.17.004.255.004 4.026 0 7.355-3.195 7.491-7.249.139-4.14-3.105-7.608-7.245-7.747l-13.806-.462v-36.822c0-4.142-3.358-7.5-7.5-7.5s-7.5 3.358-7.5 7.5v44.076c.001 4.044 3.208 7.36 7.25 7.495z"/><path d="m63.751 239.367-5.984.477c-1.729.139-2.877-.564-3.54-1.176-1.003-.926-1.556-2.273-1.556-3.794 0-3.383 2.72-6.332 5.939-6.438l18.33-.609c4.14-.138 7.384-3.605 7.247-7.745-.138-4.14-3.615-7.384-7.745-7.247l-18.331.609c-11.271.376-20.44 9.989-20.44 21.431 0 5.754 2.265 11.015 6.378 14.813 4.046 3.737 9.34 5.55 14.907 5.109l5.984-.477c1.148-.093 2.161.231 2.922.935.857.791 1.329 1.989 1.329 3.372 0 3.276-2.702 6.491-5.783 6.879l-19.174 2.415c-4.11.518-7.022 4.269-6.504 8.378.478 3.792 3.708 6.564 7.432 6.564.313 0 .628-.02.946-.06l19.174-2.415c10.603-1.335 18.909-10.895 18.909-21.762 0-5.535-2.242-10.78-6.151-14.391-3.86-3.565-8.939-5.289-14.289-4.868z"/><path d="m183.442 262.95c1.378 1.215 3.145 1.875 4.96 1.875.312 0 .625-.02.938-.059l18.167-2.288c4.11-.518 7.022-4.269 6.504-8.378s-4.272-7.022-8.378-6.504l-9.73 1.226v-4.924l7.396-.589c4.129-.329 7.21-3.942 6.881-8.072s-3.944-7.214-8.072-6.881l-6.205.494v-4.979l10.916-.363c4.14-.138 7.384-3.605 7.247-7.745-.138-4.14-3.627-7.368-7.745-7.247l-18.167.604c-4.043.135-7.251 3.451-7.251 7.496v40.709c0 2.152.925 4.201 2.539 5.625z"/><path d="m121.167 264.613c0 4.142 3.358 7.5 7.5 7.5s7.5-3.358 7.5-7.5v-31.648c0-6.105-2.367-11.895-6.493-15.884-3.727-3.604-8.572-5.494-13.664-5.322-11.185.376-20.284 10.597-20.284 22.784v33.261c0 4.142 3.358 7.5 7.5 7.5s7.5-3.358 7.5-7.5v-11.056l10.44-.953v8.818zm-10.44-22.927v-7.143c0-4.477 3.051-7.7 5.79-7.792 1.019-.032 1.931.341 2.732 1.115 1.22 1.179 1.919 3.038 1.919 5.1v7.768z"/><path d="m144.707 267.715c1.378 1.215 3.145 1.875 4.961 1.875.311 0 .624-.02.936-.059l21.055-2.646c4.109-.517 7.022-4.267 6.506-8.377-.517-4.109-4.264-7.027-8.377-6.506l-12.619 1.586v-35.573c0-4.142-3.358-7.5-7.5-7.5s-7.5 3.358-7.5 7.5v44.075c-.001 2.152.924 4.201 2.538 5.625z"/><path d="m453.042 149.219-5.984.477c-10.795.859-19.251 10.182-19.251 21.225 0 5.557 2.144 10.691 6.037 14.457 3.619 3.5 8.352 5.405 13.391 5.405.222 0 .444-.003.667-.011l19.174-.638c4.14-.138 7.384-3.605 7.246-7.746-.138-4.139-3.583-7.363-7.745-7.247l-19.174.638c-1.518.053-2.543-.616-3.13-1.184-.945-.914-1.466-2.219-1.466-3.675 0-3.165 2.492-6.037 5.441-6.271l5.984-.477c11.081-.882 20.095-10.761 20.095-22.022 0-5.724-2.363-11.091-6.483-14.725-4.072-3.592-9.591-5.25-15.144-4.552l-18.33 2.308c-4.11.518-7.021 4.269-6.504 8.378.518 4.11 4.274 7.02 8.378 6.504l18.33-2.308c1.316-.167 2.478.151 3.348.918.906.799 1.405 2.033 1.405 3.475.001 3.501-2.936 6.804-6.285 7.071z"/><path d="m331.097 146.691c0-2.152-.925-4.201-2.539-5.625s-3.764-2.082-5.898-1.816l-18.167 2.288c-4.11.518-7.022 4.269-6.504 8.378s4.276 7.021 8.378 6.504l9.73-1.226v4.924l-7.396.589c-4.129.329-7.21 3.942-6.881 8.072.313 3.927 3.596 6.905 7.468 6.905.2 0 .401-.008.604-.024l6.205-.494v4.979l-10.916.363c-4.14.138-7.384 3.605-7.247 7.745.135 4.055 3.464 7.251 7.492 7.251.084 0 .169-.001.253-.004l18.167-.604c4.043-.135 7.251-3.451 7.251-7.496z"/><path d="m416.273 151.06c0-6.38-2.535-12.277-6.955-16.177-4.031-3.557-9.188-5.148-14.516-4.478-10.637 1.334-18.97 11.493-18.97 23.126v31.648c0 4.142 3.358 7.5 7.5 7.5s7.5-3.358 7.5-7.5v-10.026l10.44-.708v9.876c0 4.142 3.358 7.5 7.5 7.5s7.5-3.358 7.5-7.5v-33.261zm-25.44 9.058v-6.587c0-4.001 2.728-7.853 5.837-8.243 1.031-.131 1.944.154 2.723.842 1.195 1.054 1.88 2.851 1.88 4.93v8.35z"/><path d="m369.832 141.925c0-4.142-3.358-7.5-7.5-7.5s-7.5 3.358-7.5 7.5v36.822l-13.806.462c-4.14.139-7.383 3.607-7.245 7.747.136 4.055 3.465 7.249 7.491 7.249.084 0 .17-.001.255-.004l21.055-.705c4.042-.135 7.249-3.451 7.249-7.496v-44.075z"/><path d="m454.233 239.844-5.985-.477c-5.352-.43-10.429 1.303-14.289 4.869-3.909 3.611-6.151 8.856-6.151 14.391 0 10.867 8.306 20.426 18.909 21.762l19.174 2.415c.318.04.634.06.946.06 3.725 0 6.955-2.772 7.432-6.564.518-4.11-2.395-7.861-6.504-8.378l-19.174-2.415c-3.081-.388-5.783-3.603-5.783-6.879 0-1.383.472-2.581 1.329-3.372.762-.703 1.769-1.029 2.922-.935l5.985.477c5.565.44 10.859-1.371 14.906-5.109 4.113-3.799 6.378-9.06 6.378-14.813 0-11.441-9.169-21.055-20.441-21.431l-18.33-.609c-4.159-.121-7.607 3.107-7.745 7.247-.137 4.14 3.107 7.607 7.247 7.745l18.329.609c3.22.107 5.94 3.056 5.94 6.438 0 1.521-.552 2.868-1.556 3.794-.663.611-1.814 1.314-3.539 1.175z"/><path d="m306.367 247.596c-4.107-.517-7.861 2.395-8.378 6.504-.518 4.11 2.395 7.861 6.504 8.378l18.167 2.288c.313.039.625.059.938.059 1.815 0 3.583-.66 4.96-1.875 1.614-1.424 2.539-3.473 2.539-5.625v-40.709c0-4.045-3.208-7.361-7.251-7.496l-18.167-.604c-4.131-.128-7.607 3.107-7.745 7.247-.137 4.14 3.107 7.607 7.247 7.745l10.916.363v4.979l-6.205-.494c-4.128-.33-7.743 2.753-8.072 6.881-.329 4.129 2.752 7.743 6.881 8.072l7.396.589v4.924z"/><path d="m408.773 275.304c4.142 0 7.5-3.358 7.5-7.5v-33.261c0-12.187-9.1-22.407-20.284-22.784-5.086-.174-9.937 1.719-13.664 5.322-4.126 3.989-6.493 9.779-6.493 15.884v31.648c0 4.142 3.358 7.5 7.5 7.5s7.5-3.358 7.5-7.5v-8.818l10.44.953v11.056c.001 4.142 3.359 7.5 7.501 7.5zm-17.94-34.572v-7.768c0-2.062.699-3.92 1.919-5.1.8-.774 1.708-1.15 2.732-1.115 2.738.092 5.789 3.315 5.789 7.792v7.143z"/><path d="m362.332 210.515c-4.142 0-7.5 3.358-7.5 7.5v35.573l-12.619-1.586c-4.109-.518-7.86 2.396-8.377 6.506s2.396 7.86 6.506 8.377l21.055 2.646c.313.039.625.059.936.059 1.816 0 3.583-.66 4.961-1.875 1.614-1.424 2.539-3.472 2.539-5.625v-44.075c-.001-4.142-3.359-7.5-7.501-7.5z"/></g></svg>