<svg id="Layer_1" enable-background="new 0 0 512 512" height="512" viewBox="0 0 512 512" width="512" xmlns="http://www.w3.org/2000/svg"><g><g><path d="m361.945 129.326c-10.324-15.969-24.271-28.527-41.512-37.354-17.092-8.613-38.348-12.981-63.18-12.981-25.295 0-46.899 4.947-64.186 14.688-17.249 9.643-31.414 22.8-42.101 39.105-10.438 15.924-17.883 34.695-22.131 55.805-1.253 6.264-2.331 12.711-3.202 19.165-.739 5.473 3.099 10.509 8.572 11.249 5.468.738 10.509-3.099 11.248-8.572.815-6.037 1.822-12.065 2.991-17.907 3.739-18.585 10.216-34.995 19.248-48.775 8.904-13.585 20.725-24.557 35.163-32.629 14.282-8.047 32.583-12.128 54.396-12.128 21.677 0 39.904 3.647 54.121 10.812 14.019 7.178 25.382 17.4 33.775 30.382 8.645 13.37 14.871 29.847 18.509 48.974 3.794 19.944 5.718 42.222 5.718 66.214 0 22.104-1.961 43.173-5.828 62.623-3.746 18.854-10.234 35.53-19.284 49.567-8.845 13.722-20.634 24.705-35.121 32.691-14.134 7.964-32.437 12.002-54.397 12.002-21.969 0-40.361-3.54-54.611-10.494-14.107-6.997-25.019-16.807-33.336-29.957-8.639-13.775-14.847-30.495-18.453-49.696-1.443-7.678-2.629-15.832-3.526-24.234-.587-5.492-5.521-9.471-11.005-8.882-5.491.586-9.468 5.513-8.882 11.005.952 8.926 2.217 17.608 3.757 25.803 4.07 21.671 11.191 40.724 21.187 56.662 10.209 16.143 24.129 28.664 41.43 37.244 17.063 8.327 38.406 12.548 63.44 12.548 25.443 0 47.048-4.905 64.134-14.533 17.339-9.557 31.536-22.788 42.195-39.324 10.418-16.162 17.851-35.172 22.09-56.504 4.122-20.73 6.212-43.112 6.212-66.522 0-25.244-2.042-48.778-6.069-69.951-4.122-21.674-11.31-40.548-21.362-56.096z"/><path d="m476.316 140.436c-9.813-31.534-24.66-58.061-44.084-78.796-19.376-20.959-43.945-36.703-73.037-46.798-28.508-9.849-61.667-14.842-98.556-14.842-38.811 0-73.522 6.066-103.149 18.021-29.775 11.937-55.16 29.478-75.427 52.113-20.259 22.482-35.688 50.079-45.857 82.024-10.048 31.556-15.142 67.464-15.142 106.725 0 42.516 4.781 80.055 14.212 111.573 9.531 31.857 24.162 58.614 43.488 79.528 19.374 20.955 43.935 36.737 72.985 46.905 28.516 10.026 62.156 15.11 99.987 15.11 38.653 0 73.226-5.977 102.772-17.769 29.843-11.963 55.233-29.554 75.427-52.239 20.206-22.422 35.639-50.284 45.869-82.811 10.04-31.923 15.131-68.494 15.131-108.697.001-41.72-4.917-78.742-14.619-110.047zm-19.589 212.744c-9.364 29.771-23.377 55.147-41.689 75.468-18.157 20.398-41.025 36.217-67.956 47.013-27.165 10.841-59.243 16.339-95.345 16.339-35.565 0-66.975-4.703-93.366-13.982-26.313-9.209-47.549-22.82-64.919-41.608-17.238-18.655-30.365-42.773-39.016-71.685-8.873-29.657-13.372-65.267-13.372-105.84 0-37.2 4.777-71.066 14.198-100.658 9.302-29.216 23.317-54.35 41.68-74.727 18.219-20.348 41.094-36.132 68.011-46.923 27.258-11 59.452-16.577 95.686-16.577 34.661 0 65.623 4.625 92.012 13.741 25.94 9.002 47.774 22.957 64.94 41.524 17.387 18.561 30.719 42.487 39.624 71.103 9.104 29.375 13.721 64.405 13.721 104.116 0 38.164-4.78 72.717-14.209 102.696z"/><path d="m132.623 263.994c5.522 0 10-4.477 10-10s-4.478-10-10-10h-.008c-5.522 0-9.996 4.477-9.996 10s4.482 10 10.004 10z"/></g></g></svg>