<?xml version="1.0" encoding="iso-8859-1"?>
<!-- Generator: Adobe Illustrator 16.0.0, SVG Export Plug-In . SVG Version: 6.00 Build 0)  -->
<!DOCTYPE svg PUBLIC "-//W3C//DTD SVG 1.1//EN" "http://www.w3.org/Graphics/SVG/1.1/DTD/svg11.dtd">
<svg version="1.1" id="Capa_1" xmlns="http://www.w3.org/2000/svg" xmlns:xlink="http://www.w3.org/1999/xlink" x="0px" y="0px"
	 width="585.918px" height="585.918px" viewBox="0 0 585.918 585.918" style="enable-background:new 0 0 585.918 585.918;"
	 xml:space="preserve">
<g>
	<path d="M357.396,535.335c0.776,0.053,1.542,0.115,2.329,0.115h177.39c20.756,0,37.627-16.888,37.627-37.628V86.602
		c0-20.743-16.871-37.628-37.627-37.628h-177.39c-0.781,0-1.553,0.076-2.329,0.123V0L11.176,46.206v492.311l346.22,47.401V535.335z
		 M357.396,329.725h166.994v79.709H357.396V329.725z M502.987,316.623h-34.095l25.172-25.156h33.303L502.987,316.623z
		 M443.738,316.623h-33.544l25.177-25.156h34.257L443.738,316.623z M385.04,316.623h-27.644v-5.896l19.259-19.261h33.528
		L385.04,316.623z M357.396,245.837l23.003-14.701l-5.077,28.452l-17.926,11.486V245.837z M359.726,70.476h177.39
		c8.893,0,16.125,7.236,16.125,16.126v411.22c0,8.888-7.232,16.127-16.125,16.127h-177.39c-0.792,0-1.563-0.116-2.329-0.232v-94.068
		h173.062c4.63,0,8.385-3.732,8.385-8.378V293.871c0-4.637-3.744-8.401-8.385-8.401c0,0-132.007,0-173.062,0v-1.801l3.344-2.377
		c43.564-25.166,140.021-85.67,140.021-85.67c4.012-2.323,5.376-7.457,3.072-11.468l-8.389-20.651
		c-2.321-4.021-7.444-5.375-11.465-3.066l-126.59,76.927V70.717C358.162,70.599,358.929,70.476,359.726,70.476z M400.247,244.434
		l5.402-28.408l30.277-18.879l-5.428,28.42L400.247,244.434z M453.659,211.858l5.045-28.483l29.764-19.108l-4.336,28.032
		L453.659,211.858z M55.158,359.957c-12.991-0.625-23.792-4.902-29.499-9.255l4.643-19.254c4.084,2.509,13.551,7.274,23.147,7.6
		c12.404,0.42,18.775-6.046,18.775-14.66c0-11.255-10.163-16.478-20.652-16.604l-9.557-0.115v-18.77l9.095-0.011
		c7.961-0.182,18.233-3.536,18.233-13.178c0-6.843-5.071-11.838-15.121-11.654c-8.215,0.155-16.793,4.262-20.9,7.068l-4.678-18.695
		c5.892-4.447,17.819-8.95,30.898-9.392c22.168-0.732,34.747,11.879,34.747,27.764c0,12.315-6.402,21.954-19.355,26.861v0.356
		c12.625,2.547,22.984,13.177,22.984,28.379C97.925,346.986,81.389,361.223,55.158,359.957z M221.161,359.836
		c-9.074,2.688-25.996,6.126-42.573,5.334c-22.329-1.07-38.095-7.539-48.878-18.981c-10.637-10.92-16.412-26.998-16.239-44.893
		c0.165-40.516,28.263-64.666,68.075-66.086c16.25-0.574,28.997,2.242,35.347,5.119l-6.16,23.688
		c-7.068-2.945-15.762-5.263-29.564-4.981c-23.119,0.478-40.142,14.083-40.142,40.968c0,25.607,15.404,41.208,38.11,41.953
		c6.489,0.21,11.696-0.372,13.945-1.449v-26.845l-19.273-0.283v-22.395h47.353V359.836z M337.086,371.291l-97.251-4.573v-18.041
		l16.896-14.468c29.354-24.84,44.014-39.527,44.444-55.012c0-10.782-6.828-19.207-22.62-18.921
		c-11.602,0.214-21.619,5.944-28.512,11.181l-8.612-21.3c9.822-7.551,25.313-13.995,43.607-14.604
		c31.485-1.042,49.354,16.219,49.354,40.72c0,22.628-17.417,40.423-37.712,57.18l-12.698,9.742v0.404l53.104,1.686V371.291z"/>
</g>
<g>
</g>
<g>
</g>
<g>
</g>
<g>
</g>
<g>
</g>
<g>
</g>
<g>
</g>
<g>
</g>
<g>
</g>
<g>
</g>
<g>
</g>
<g>
</g>
<g>
</g>
<g>
</g>
<g>
</g>
</svg>
