<?xml version="1.0" encoding="iso-8859-1"?>
<!-- Generator: Adobe Illustrator 16.0.0, SVG Export Plug-In . SVG Version: 6.00 Build 0)  -->
<!DOCTYPE svg PUBLIC "-//W3C//DTD SVG 1.1//EN" "http://www.w3.org/Graphics/SVG/1.1/DTD/svg11.dtd">
<svg version="1.1" id="Capa_1" xmlns="http://www.w3.org/2000/svg" xmlns:xlink="http://www.w3.org/1999/xlink" x="0px" y="0px"
	 width="588.599px" height="588.6px" viewBox="0 0 588.599 588.6" style="enable-background:new 0 0 588.599 588.6;"
	 xml:space="preserve">
<g>
	<path d="M359.031,537.785c0.781,0.053,1.551,0.116,2.342,0.116h178.2c20.851,0,37.8-16.96,37.8-37.8V87.001
		c0-20.841-16.949-37.8-37.8-37.8h-178.2c-0.791,0-1.561,0.074-2.342,0.124V0L11.227,46.419V540.98L359.031,588.6V537.785z
		 M361.373,70.801h178.2c8.933,0,16.2,7.267,16.2,16.2v413.101c0,8.933-7.268,16.199-16.2,16.199h-178.2
		c-0.802,0-1.571-0.115-2.342-0.231V380.046h108.454v-19.617h78.574v-26.642h-43.907V323.23h17.34v-7.815h-17.34v-9.081h17.34
		v-7.826h-17.34v-8.883h17.34v-7.805h-17.34v-6.858h43.907v-26.654h-78.574v26.654h26.589v6.858v7.805v8.883v7.826v9.081v7.815
		v10.557h-26.589v25.461H359.031v-9.503h88.246v-90.722h-88.246v-10.703h108.454v-20.814H359.031V71.044
		C359.801,70.931,360.571,70.801,361.373,70.801z M167.329,249.893l-49.064,105.906l-28.015-1.308l47.229-97.965v-0.388
		l-52.331,1.036v-23.11l82.182-2.922V249.893z M285.551,363.54l-105.145-4.867v-15.794l62.775-90.271v-0.807l-57.119,1.21v-24.348
		l98.426-3.602v18.062l-64.573,91.708v0.791l65.63,2.014v25.903H285.551z"/>
</g>
<g>
</g>
<g>
</g>
<g>
</g>
<g>
</g>
<g>
</g>
<g>
</g>
<g>
</g>
<g>
</g>
<g>
</g>
<g>
</g>
<g>
</g>
<g>
</g>
<g>
</g>
<g>
</g>
<g>
</g>
</svg>
