<?xml version="1.0" encoding="iso-8859-1"?>
<!-- Generator: Adobe Illustrator 16.0.0, SVG Export Plug-In . SVG Version: 6.00 Build 0)  -->
<!DOCTYPE svg PUBLIC "-//W3C//DTD SVG 1.1//EN" "http://www.w3.org/Graphics/SVG/1.1/DTD/svg11.dtd">
<svg version="1.1" id="Capa_1" xmlns="http://www.w3.org/2000/svg" xmlns:xlink="http://www.w3.org/1999/xlink" x="0px" y="0px"
	 width="588.595px" height="588.595px" viewBox="0 0 588.595 588.595" style="enable-background:new 0 0 588.595 588.595;"
	 xml:space="preserve">
<g>
	<path d="M539.57,49.198h-178.2c-0.791,0-1.561,0.077-2.342,0.124V0L11.225,46.414V540.98l347.804,47.614V537.78
		c0.781,0.058,1.551,0.11,2.342,0.11h178.2c20.841,0,37.8-16.959,37.8-37.8V86.993C577.37,66.16,560.411,49.198,539.57,49.198z
		 M167.959,374.277l-12.031-41.734l-43.216-0.67l-10.434,39.862l-33.447-1.287l43.88-155.189l44.829-2.304l49.394,162.831
		L167.959,374.277z M267.906,378.147l-38.862-1.503V209.271l38.862-2.004V378.147z M555.771,500.102
		c0,8.933-7.268,16.199-16.2,16.199h-178.2c-0.802,0-1.571-0.115-2.342-0.231V380.615h7.362l11.143-40.168h44.798l12.065,40.168
		h38.069L423.95,224.158h-46.422l-18.51,60.558V71.041c0.774-0.113,1.539-0.242,2.347-0.242h178.199c8.929,0,16.2,7.269,16.2,16.2
		v413.103H555.771z M382.644,314.002l9.281-33.202c2.552-9.052,4.872-20.883,7.198-30.175h0.464
		c2.32,9.292,5.109,20.891,7.889,30.175l9.751,33.202H382.644z"/>
	<path d="M133.724,241.033l-0.456,0.023c-2.228,9.487-4.464,21.523-6.9,30.741l-8.838,33.539l33.37,0.017l-9.537-33.843
		C138.662,262.127,135.962,250.394,133.724,241.033z"/>
	<path d="M508.468,217.664c-11.375,0-18.8,7.667-18.562,17.879c-0.237,9.746,7.192,17.635,18.335,17.635
		c11.607,0,19.032-7.889,19.032-17.635C527.04,225.331,519.837,217.664,508.468,217.664z"/>
	<rect x="490.822" y="267.104" width="35.285" height="113.511"/>
</g>
<g>
</g>
<g>
</g>
<g>
</g>
<g>
</g>
<g>
</g>
<g>
</g>
<g>
</g>
<g>
</g>
<g>
</g>
<g>
</g>
<g>
</g>
<g>
</g>
<g>
</g>
<g>
</g>
<g>
</g>
</svg>
