<?xml version="1.0" encoding="iso-8859-1"?>
<!-- Generator: Adobe Illustrator 16.0.0, SVG Export Plug-In . SVG Version: 6.00 Build 0)  -->
<!DOCTYPE svg PUBLIC "-//W3C//DTD SVG 1.1//EN" "http://www.w3.org/Graphics/SVG/1.1/DTD/svg11.dtd">
<svg version="1.1" id="Capa_1" xmlns="http://www.w3.org/2000/svg" xmlns:xlink="http://www.w3.org/1999/xlink" x="0px" y="0px"
	 width="588.601px" height="588.6px" viewBox="0 0 588.601 588.6" style="enable-background:new 0 0 588.601 588.6;"
	 xml:space="preserve">
<g>
	<path d="M93.488,260.318l-0.343,0.011c-1.701,7.414-3.401,16.835-5.263,24.028l-6.724,26.201l25.429,0.132l-7.28-26.504
		C97.245,276.824,95.183,267.64,93.488,260.318z"/>
	<path d="M577.373,86.999c0-20.838-16.954-37.8-37.8-37.8h-178.2c-0.786,0-1.561,0.076-2.342,0.124V0L11.228,46.417v494.564
		L359.031,588.6v-50.814c0.781,0.053,1.551,0.115,2.342,0.115h178.2c20.846,0,37.8-16.964,37.8-37.8V86.999z M119.578,364.716
		l-9.168-32.722l-32.936-0.717l-7.931,31.123l-25.453-1.181L77.475,240.1l34.172-1.695l37.703,127.688L119.578,364.716z
		 M195.99,368.254l-29.74-1.381V235.699l29.74-1.474V368.254z M313.121,255.353l-58.126,1.854v31.92l54.161-0.54v26.654
		l-54.161-0.422v56.168l-32.287-1.493V232.901l90.408-4.482v26.934H313.121z M555.773,500.101c0,8.928-7.268,16.2-16.2,16.2h-178.2
		c-0.796,0-1.571-0.116-2.342-0.232V71.042c0.771-0.114,1.54-0.243,2.342-0.243h178.2c8.933,0,16.2,7.27,16.2,16.2V500.101z"/>
	<path d="M482.704,233.619c-52.781-36.903-52.64-45.565-52.64-45.565c-10.056,1.194-11.084,8.814-11.084,8.814V370.68
		c-7.558-2.626-16.58-3.09-25.83-0.812c-20.481,5.104-33.882,22.021-29.963,37.758c2.299,14.518,23.73,24.269,44.218,19.11
		c18.003-4.45,30.56-18.056,30.639-31.967h0.058l0.464-165.062c0,0,35.918-1.914,71.118,53.23
		C509.684,282.933,509.763,254.464,482.704,233.619z"/>
</g>
<g>
</g>
<g>
</g>
<g>
</g>
<g>
</g>
<g>
</g>
<g>
</g>
<g>
</g>
<g>
</g>
<g>
</g>
<g>
</g>
<g>
</g>
<g>
</g>
<g>
</g>
<g>
</g>
<g>
</g>
</svg>
