<?xml version="1.0" encoding="iso-8859-1"?>
<!-- Generator: Adobe Illustrator 16.0.0, SVG Export Plug-In . SVG Version: 6.00 Build 0)  -->
<!DOCTYPE svg PUBLIC "-//W3C//DTD SVG 1.1//EN" "http://www.w3.org/Graphics/SVG/1.1/DTD/svg11.dtd">
<svg version="1.1" id="Capa_1" xmlns="http://www.w3.org/2000/svg" xmlns:xlink="http://www.w3.org/1999/xlink" x="0px" y="0px"
	 width="588.601px" height="588.6px" viewBox="0 0 588.601 588.6" style="enable-background:new 0 0 588.601 588.6;"
	 xml:space="preserve">
<g>
	<path d="M81.24,268.866l-0.34,0.016c-1.632,7.111-3.251,16.166-5.039,23.087l-6.449,25.218l24.329,0.264l-6.935-25.55
		C84.834,284.794,82.864,275.935,81.24,268.866z"/>
	<path d="M359.031,537.786c0.781,0.053,1.551,0.115,2.342,0.115h178.2c20.851,0,37.8-16.964,37.8-37.8V86.999
		c0-20.838-16.949-37.8-37.8-37.8h-178.2c-0.786,0-1.561,0.076-2.342,0.124V0L11.228,46.417v494.564L359.031,588.6V537.786z
		 M359.031,331.008c11.887,25.982,37.959,45.568,66.087,46.19v23.045c-25.139-0.396-48.642-11.739-66.087-29.353V331.008z
		 M361.373,70.798h178.2c8.933,0,16.2,7.27,16.2,16.2v413.103c0,8.928-7.268,16.2-16.2,16.2h-178.2
		c-0.796,0-1.571-0.116-2.342-0.232V374.793c18.072,17.318,42.009,28.234,67.474,28.234h1.382v-28.582h-1.382
		c-29.826,0-57.475-22.307-67.474-50.852v-52.073c10.32-29.186,38.117-50.187,70.791-50.187v-27.675
		c-27.443,0-52.354,10.85-70.791,28.448V71.042C359.802,70.922,360.571,70.798,361.373,70.798z M106.128,369.373l-8.732-31.43
		l-31.504-0.77l-7.646,30.037l-24.574-1.107l32.221-116.936l32.677-1.152l35.746,122.634L106.128,369.373z M180.291,374.615
		c-14.18-0.659-27.917-5.01-34.712-9.197l5.537-23.188c7.365,4.119,18.839,8.401,30.834,8.775
		c13.149,0.406,20.168-4.937,20.168-13.379c0-8.058-6.081-12.762-21.276-18.468c-20.548-7.535-33.653-19.11-33.653-37.275
		c0-21.313,17.284-38.259,46.781-39.337c14.491-0.53,25.325,2.176,33.159,5.411l-6.663,24.089
		c-5.255-2.413-14.51-5.894-27.076-5.616c-12.354,0.269-18.278,6.059-18.278,12.664c0,8.116,7.038,11.646,23.404,17.854
		c22.934,8.49,33.951,20.64,33.951,39.218C232.472,358.25,215.407,376.239,180.291,374.615z M341.276,265.501l-56.474,1.16v31.077
		l52.655-0.105v25.797l-52.655-0.675v54.686l-31.683-1.429V242.557l88.156-3.122V265.501z"/>
	<path d="M506.551,295.797v1.382h28.582v-1.382c0-54.408-46.749-102.133-100.053-102.133h-1.382v28.582h1.382
		C472.489,222.247,506.551,257.304,506.551,295.797z M436.462,196.452c50.793,0.799,95.122,46.076,95.892,97.975h-23.045
		c-0.785-38.931-34.989-74.086-72.847-74.927V196.452z"/>
	<path d="M431.758,375.353v27.675c56.7,0,102.821-46.132,102.821-102.821h-27.664C506.915,341.645,473.201,375.353,431.758,375.353z
		"/>
	<path d="M470.08,299.504c0-0.553-0.27-1.06-0.696-1.439l-60.486-38.606c-0.564-0.443-1.298-0.52-1.931-0.2
		c-0.633,0.287-1.033,0.941-1.033,1.627v77.269c0,0.686,0.4,1.34,1.033,1.635l0.802,0.18c0.401,0,0.786-0.138,1.129-0.391
		l60.486-38.633C469.816,300.591,470.08,300.048,470.08,299.504z"/>
</g>
<g>
</g>
<g>
</g>
<g>
</g>
<g>
</g>
<g>
</g>
<g>
</g>
<g>
</g>
<g>
</g>
<g>
</g>
<g>
</g>
<g>
</g>
<g>
</g>
<g>
</g>
<g>
</g>
<g>
</g>
</svg>
