<?xml version="1.0" encoding="iso-8859-1"?>
<!-- Generator: Adobe Illustrator 16.0.0, SVG Export Plug-In . SVG Version: 6.00 Build 0)  -->
<!DOCTYPE svg PUBLIC "-//W3C//DTD SVG 1.1//EN" "http://www.w3.org/Graphics/SVG/1.1/DTD/svg11.dtd">
<svg version="1.1" id="Capa_1" xmlns="http://www.w3.org/2000/svg" xmlns:xlink="http://www.w3.org/1999/xlink" x="0px" y="0px"
	 width="588.6px" height="588.6px" viewBox="0 0 588.6 588.6" style="enable-background:new 0 0 588.6 588.6;" xml:space="preserve"
	>
<g>
	<path d="M301.176,260.584c0-9.305-7.29-14.102-20.062-13.875c-6.064,0.113-9.547,0.53-11.918,0.923v28.245l9.145-0.045
		C293.14,275.75,301.176,269.7,301.176,260.584z"/>
	<path d="M172.127,249.99l-0.34,0.006c-1.68,6.916-3.343,15.723-5.179,22.451l-6.655,24.574l24.985,0.105l-7.095-24.756
		C175.824,265.47,173.799,256.856,172.127,249.99z"/>
	<path d="M278.722,295.513l-9.526-0.032v34.183c2.734,0.406,6.033,0.464,10.813,0.549c12.77,0.222,24.173-4.313,24.173-17.276
		C304.182,300.523,292.778,295.555,278.722,295.513z"/>
	<path d="M359.036,537.786c0.771,0.042,1.551,0.115,2.342,0.115h178.2c20.84,0,37.8-16.959,37.8-37.8v-413.1
		c0-20.838-16.96-37.8-37.8-37.8h-178.2c-0.786,0-1.571,0.069-2.342,0.114V0L11.222,46.419v494.562L359.036,588.6V537.786z
		 M359.036,278.451v-52.064h128.524v52.064H359.036z M453.736,296.863v26.325h-58.725v-26.325H453.736z M361.378,70.801h178.2
		c8.933,0,16.199,7.267,16.199,16.2v413.1c0,8.934-7.267,16.2-16.199,16.2h-178.2c-0.797,0-1.571-0.127-2.342-0.242V402.617h174.509
		V278.451l-22.476-47.643l-4.197,47.643h-8.859V217.73H359.036v-9.646h127.069v-8.661H359.036V71.033
		C359.807,70.925,360.576,70.801,361.378,70.801z M89.382,325.161c7.193,0.115,15.216-1.419,19.965-3.354l3.649,20.05
		c-4.438,2.236-14.375,4.482-27.179,4.145c-35.553-0.949-53.41-24.88-53.41-55.953c0-37.223,24.487-58.58,55.728-59.405
		c12.361-0.325,21.832,2.114,26.135,4.361l-4.923,20.408c-4.915-2.112-11.675-3.998-20.115-3.858
		c-18.668,0.314-32.951,12.49-32.951,37.041C56.291,310.679,68.441,324.801,89.382,325.161z M197.566,347.235l-8.889-30.28
		l-32.368-0.417l-7.91,29.421l-25.64-0.659l33.55-114.573l33.56-0.852l36.176,118.099L197.566,347.235z M321.205,340.506
		c-9.303,6.939-24.701,10.567-49.455,9.914c-13.624-0.364-23.702-1.52-29.777-2.568V230.143c7.151-1.608,21.759-3.05,35.641-3.412
		c17.216-0.448,27.876,0.923,37.136,6.004c8.943,4.39,15.44,12.738,15.44,24.004c0,11.074-6.697,21.432-21.114,26.61v0.366
		c14.617,3.839,25.544,14.56,25.544,30.644C334.62,325.645,329.23,334.41,321.205,340.506z"/>
	<rect x="368.887" y="182.364" width="104.815" height="8.661"/>
	<rect x="400.19" y="302.485" width="48.821" height="7.688"/>
</g>
<g>
</g>
<g>
</g>
<g>
</g>
<g>
</g>
<g>
</g>
<g>
</g>
<g>
</g>
<g>
</g>
<g>
</g>
<g>
</g>
<g>
</g>
<g>
</g>
<g>
</g>
<g>
</g>
<g>
</g>
</svg>
