<?xml version="1.0" encoding="iso-8859-1"?>
<!-- Generator: Adobe Illustrator 16.0.0, SVG Export Plug-In . SVG Version: 6.00 Build 0)  -->
<!DOCTYPE svg PUBLIC "-//W3C//DTD SVG 1.1//EN" "http://www.w3.org/Graphics/SVG/1.1/DTD/svg11.dtd">
<svg version="1.1" id="Capa_1" xmlns="http://www.w3.org/2000/svg" xmlns:xlink="http://www.w3.org/1999/xlink" x="0px" y="0px"
	 width="585.913px" height="585.913px" viewBox="0 0 585.913 585.913" style="enable-background:new 0 0 585.913 585.913;"
	 xml:space="preserve">
<g>
	<g>
		<path d="M72.657,257.809c-4.585,0.081-7.538,0.579-9.268,1.052v65.343c1.725,0.504,4.549,0.604,7.105,0.693
			c18.895,0.817,31.517-10.342,31.517-34.933C102.161,268.586,90.642,257.491,72.657,257.809z"/>
		<path d="M174.456,255.993c-5.349,0.097-8.8,0.632-10.822,1.155v70.566c2.021,0.553,5.305,0.667,8.3,0.773
			c22.076,0.948,36.869-11.094,36.869-37.723C208.977,267.615,195.483,255.609,174.456,255.993z"/>
		<path d="M537.112,48.974h-177.39c-0.787,0-1.553,0.076-2.329,0.123V0L11.173,46.203v492.313l346.22,47.396V535.33
			c0.776,0.058,1.542,0.109,2.329,0.109h177.39c20.745,0,37.627-16.882,37.627-37.627V86.597
			C574.739,65.859,557.857,48.974,537.112,48.974z M109.138,331.184c-10.095,8.601-25.149,12.117-43.077,11.234
			c-10.493-0.515-17.824-1.616-22.748-2.571v-96.529c7.273-1.538,16.883-2.575,27.187-2.898c17.504-0.559,29.113,2.575,38.359,9.827
			c10.106,7.814,16.536,20.614,16.536,39.116C125.395,309.432,118.523,323.038,109.138,331.184z M217.157,335.417
			c-11.832,9.261-29.457,13.008-50.405,11.979c-12.239-0.61-20.772-1.822-26.518-2.888V240.399
			c8.478-1.686,19.675-2.824,31.694-3.205c20.454-0.651,34.053,2.714,44.896,10.541c11.858,8.448,19.415,22.318,19.415,42.386
			C236.244,311.878,228.176,326.613,217.157,335.417z M283.518,353.678c-14.047-0.703-27.661-4.802-34.381-8.687l5.476-21.271
			c7.301,3.822,18.664,7.822,30.583,8.237c13.048,0.457,20.029-4.415,20.029-12.205c0-7.423-6.046-11.78-21.136-17.114
			c-20.378-7.013-33.365-17.706-33.365-34.401c0-19.588,17.126-35.129,46.397-36.079c14.404-0.467,25.197,2.048,33.004,5.042
			l-6.63,22.2c-5.24-2.247-14.457-5.478-26.94-5.252c-12.284,0.21-18.163,5.527-18.163,11.601c0,7.467,6.986,10.751,23.245,16.525
			c22.824,7.906,33.805,19.147,33.805,36.292C335.429,338.954,318.432,355.416,283.518,353.678z M553.237,497.823
			c0,8.892-7.232,16.127-16.125,16.127h-177.39c-0.797,0-1.563-0.117-2.329-0.231V70.717c0.766-0.113,1.532-0.242,2.329-0.242
			h177.39c8.893,0,16.125,7.236,16.125,16.127V497.823z"/>
		<path d="M527.699,229.614l-43.532-49.732c-0.011-0.01-0.021-0.01-0.031-0.022c-0.265-0.296-0.563-0.538-0.883-0.748
			c-0.094-0.063-0.189-0.113-0.283-0.166c-0.283-0.158-0.579-0.287-0.872-0.365c-0.089-0.023-0.156-0.066-0.241-0.087
			c-0.331-0.076-0.671-0.123-1.014-0.123H373.855c-4.883,0-8.851,3.977-8.851,8.859v208.055c0,4.877,3.968,8.846,8.851,8.846
			h146.092c4.88,0,8.85-3.969,8.85-8.846V232.974c0-0.165-0.027-0.339-0.043-0.494C528.733,231.444,528.408,230.425,527.699,229.614
			z M373.855,393.995V187.236h102.558v45.292c0,2.446,1.983,4.431,4.43,4.431h39.104V394H373.855V393.995z"/>
		<path d="M491.012,277.264l-41.954,16.884c-0.305,0.11-0.504,0.417-0.504,0.745v50.392c0,0.263,0.132,0.52,0.353,0.673
			c0.136,0.089,0.288,0.136,0.451,0.136c0.1,0,0.205-0.021,0.299-0.062l41.959-16.883c0.309-0.125,0.504-0.421,0.504-0.751v-50.393
			c0-0.263-0.131-0.515-0.352-0.672C491.537,277.187,491.252,277.156,491.012,277.264z M452.985,339.919v-25.554l31.579,12.851
			L452.985,339.919z M487.693,324.686l-34.708-14.111v-13.237l34.708-13.969V324.686z"/>
		<path d="M402.79,277.264c-0.247-0.108-0.53-0.077-0.756,0.073c-0.226,0.157-0.358,0.41-0.358,0.672v50.394
			c0,0.324,0.211,0.62,0.504,0.745l41.961,16.888c0.099,0.042,0.197,0.062,0.299,0.062c0.161,0,0.314-0.052,0.451-0.131
			c0.229-0.157,0.356-0.409,0.356-0.672v-50.397c0-0.329-0.205-0.627-0.504-0.746L402.79,277.264z M440.816,339.919l-30.362-12.221
			l30.362-13.364V339.919z M440.816,310.502l-34.71,15.275v-42.41l34.71,13.969V310.502z"/>
		<path d="M490.969,273.709c0-0.338-0.203-0.63-0.515-0.758l-43.086-16.819c-0.189-0.076-0.399-0.076-0.589,0l-41.953,16.885
			c-0.304,0.124-0.504,0.417-0.509,0.758c0,0.326,0.199,0.617,0.509,0.745l41.418,16.819c0.106,0.044,0.21,0.066,0.304,0.066
			c0.102,0,0.2-0.022,0.296-0.056l43.61-16.881C490.759,274.345,490.969,274.048,490.969,273.709z M444.402,285.804l-29.612-12.019
			l29.612-11.918V285.804z M447.925,286.174v-25.06l32.24,12.58L447.925,286.174z"/>
	</g>
</g>
<g>
</g>
<g>
</g>
<g>
</g>
<g>
</g>
<g>
</g>
<g>
</g>
<g>
</g>
<g>
</g>
<g>
</g>
<g>
</g>
<g>
</g>
<g>
</g>
<g>
</g>
<g>
</g>
<g>
</g>
</svg>
