<?xml version="1.0" encoding="iso-8859-1"?>
<!-- Generator: Adobe Illustrator 16.0.0, SVG Export Plug-In . SVG Version: 6.00 Build 0)  -->
<!DOCTYPE svg PUBLIC "-//W3C//DTD SVG 1.1//EN" "http://www.w3.org/Graphics/SVG/1.1/DTD/svg11.dtd">
<svg version="1.1" id="Capa_1" xmlns="http://www.w3.org/2000/svg" xmlns:xlink="http://www.w3.org/1999/xlink" x="0px" y="0px"
	 width="585.918px" height="585.918px" viewBox="0 0 585.918 585.918" style="enable-background:new 0 0 585.918 585.918;"
	 xml:space="preserve">
<g>
	<g>
		<path d="M281.117,254.762c-5.111,0.113-8.557,0.65-10.346,1.168v30.874c2.123,0.462,4.74,0.62,8.365,0.614
			c13.486-0.018,21.929-6.517,21.929-17.454C301.064,260.158,293.805,254.471,281.117,254.762z"/>
		<path d="M64.613,260.066c-4.087,0.097-6.709,0.549-8.258,0.979v58.403c1.549,0.439,4.058,0.504,6.333,0.562
			c16.788,0.551,27.974-9.518,27.974-31.431C90.786,269.529,80.584,259.696,64.613,260.066z"/>
		<path d="M537.115,48.977h-177.39c-0.787,0-1.553,0.074-2.329,0.124V0L11.176,46.208v492.308l346.22,47.402v-50.583
			c0.776,0.052,1.542,0.114,2.329,0.114h177.39c20.745,0,37.627-16.883,37.627-37.627V86.604
			C574.742,65.859,557.86,48.977,537.115,48.977z M96.967,325.221c-8.929,7.76-22.28,11.065-38.223,10.479
			c-9.349-0.346-15.896-1.26-20.294-2.069v-86.415c6.499-1.399,15.074-2.354,24.245-2.682c15.557-0.555,25.851,2.21,34.026,8.632
			c8.921,6.906,14.593,18.255,14.593,34.714C111.308,305.715,105.256,317.882,96.967,325.221z M205.758,340.135l-1.493-38.263
			c-0.44-11.998-0.892-26.512-0.892-41.014l-0.441,0.011c-3.107,12.75-7.229,26.935-11.04,38.535l-11.868,38.186l-16.87-0.6
			l-9.998-37.58c-3.031-11.273-6.183-24.906-8.37-37.365l-0.275,0.011c-0.541,12.913-0.951,27.646-1.632,39.533l-1.631,36.188
			l-18.834-0.687l5.687-94.173l27.534-0.966l9.197,32.053c2.955,11.224,5.923,23.363,8.047,34.816l0.431,0.005
			c2.703-11.291,5.987-24.203,9.152-35.149l10.447-33.026l29.714-1.038l5.672,101.345L205.758,340.135z M316.346,294.739
			c-8.956,7.754-22.042,11.112-37.045,10.945c-3.294-0.036-6.247-0.23-8.53-0.578v37.408l-24.227-0.883V240.152
			c7.455-1.467,18.05-2.774,33.25-3.312c15.688-0.56,27.076,1.903,34.818,7.386c7.481,5.242,12.563,14.142,12.563,24.774
			S323.316,288.654,316.346,294.739z M357.396,200.577H481.35v82.175h-47.775v53.62h-76.178V200.577z M532.002,309.874v109.302
			h-92.601V288.589h71.955v21.285H532.002z M517.183,304.045v-10.829l11.26,10.829H517.183z M433.574,355.27v15.938h-14.803V355.27
			H433.574z M553.24,497.823c0,8.892-7.232,16.127-16.125,16.127h-177.39c-0.797,0-1.563-0.117-2.329-0.231V386.555h76.178v38.447
			h104.254V304.991l-23.107-22.239h-14.479V181.695H357.396V70.72c0.766-0.113,1.532-0.241,2.329-0.241h177.39
			c8.893,0,16.125,7.232,16.125,16.125V497.823z"/>
		<rect x="449.532" y="325.034" width="63.162" height="5.374"/>
		<rect x="449.532" y="352.813" width="63.162" height="5.376"/>
		<rect x="449.532" y="382.146" width="63.162" height="5.375"/>
	</g>
</g>
<g>
</g>
<g>
</g>
<g>
</g>
<g>
</g>
<g>
</g>
<g>
</g>
<g>
</g>
<g>
</g>
<g>
</g>
<g>
</g>
<g>
</g>
<g>
</g>
<g>
</g>
<g>
</g>
<g>
</g>
</svg>
