<?xml version="1.0" encoding="iso-8859-1"?>
<!-- Generator: Adobe Illustrator 16.0.0, SVG Export Plug-In . SVG Version: 6.00 Build 0)  -->
<!DOCTYPE svg PUBLIC "-//W3C//DTD SVG 1.1//EN" "http://www.w3.org/Graphics/SVG/1.1/DTD/svg11.dtd">
<svg version="1.1" id="Capa_1" xmlns="http://www.w3.org/2000/svg" xmlns:xlink="http://www.w3.org/1999/xlink" x="0px" y="0px"
	 width="585.918px" height="585.918px" viewBox="0 0 585.918 585.918" style="enable-background:new 0 0 585.918 585.918;"
	 xml:space="preserve">
<g>
	<path d="M55.581,282.098c-4.011,0.06-6.596,0.491-8.116,0.91v58.114c1.52,0.446,3.987,0.53,6.224,0.603
		c16.503,0.693,27.496-9.232,27.496-31.022C81.329,291.752,71.287,281.872,55.581,282.098z"/>
	<path d="M357.396,535.335c0.776,0.053,1.542,0.115,2.329,0.115h177.39c20.756,0,37.627-16.888,37.627-37.628V86.602
		c0-20.743-16.871-37.628-37.627-37.628h-177.39c-0.787,0-1.553,0.076-2.329,0.123V0L11.176,46.206v492.311l346.22,47.401V535.335z
		 M357.396,513.717V191.277h59.212v42.595h42.605v280.077h-99.488C358.929,513.949,358.162,513.833,357.396,513.717z
		 M427.359,223.121v-74.45h74.448v74.45H427.359z M537.115,513.949h-67.156V233.872h42.599v-42.595h40.678v306.545
		C553.24,506.715,546.008,513.949,537.115,513.949z M553.24,86.607v93.925h-40.683V137.92h-42.593V70.48h67.15
		C546.008,70.48,553.24,77.709,553.24,86.607z M359.726,70.48h99.488v67.439h-42.605v42.606h-59.212V70.722
		C358.162,70.604,358.929,70.48,359.726,70.48z M87.392,347.207c-8.777,7.647-21.897,10.818-37.583,10.094
		c-9.189-0.431-15.632-1.376-19.961-2.215V269.09c6.386-1.344,14.827-2.221,23.846-2.462c15.299-0.412,25.42,2.425,33.462,8.898
		c8.767,6.951,14.341,18.283,14.341,34.651C101.492,327.936,95.542,339.982,87.392,347.207z M201.341,363.295l-23.958-1.091
		l-8.097-42.358c-1.827-9.863-3.38-18.966-4.494-30.086h-0.283c-1.683,10.968-3.215,20.176-5.441,29.93l-8.832,41.271l-22.513-1.023
		l-20.871-94.049l21.26-0.559l6.806,39.063c2.016,11.307,3.896,23.645,5.386,33.303l0.263,0.011
		c1.488-10.311,3.667-21.78,5.971-33.565l7.821-39.498l22.733-0.6l7.735,41.378c2.173,11.598,3.77,22.195,5.22,33.256l0.294,0.011
		c1.452-11.003,3.635-22.599,5.693-34.389l8.128-40.964l23.384-0.619L201.341,363.295z M331.962,364.229
		c-8.273,2.226-23.669,5.056-38.782,4.363c-20.378-0.951-34.785-6.394-44.644-16.016c-9.735-9.188-15.023-22.694-14.858-37.707
		c0.157-33.969,25.84-54.085,62.195-55.064c14.803-0.401,26.415,2.016,32.209,4.462l-5.617,19.793
		c-6.425-2.5-14.351-4.479-26.931-4.305c-21.105,0.283-36.662,11.606-36.662,34.152c0,21.448,14.078,34.578,34.806,35.266
		c5.911,0.195,10.667-0.277,12.714-1.171v-22.483l-17.577-0.305v-18.744l43.136,0.194v57.563H331.962z"/>
	<circle cx="464.584" cy="185.896" r="17.067"/>
</g>
<g>
</g>
<g>
</g>
<g>
</g>
<g>
</g>
<g>
</g>
<g>
</g>
<g>
</g>
<g>
</g>
<g>
</g>
<g>
</g>
<g>
</g>
<g>
</g>
<g>
</g>
<g>
</g>
<g>
</g>
</svg>
