<?xml version="1.0" encoding="iso-8859-1"?>
<!-- Generator: Adobe Illustrator 16.0.0, SVG Export Plug-In . SVG Version: 6.00 Build 0)  -->
<!DOCTYPE svg PUBLIC "-//W3C//DTD SVG 1.1//EN" "http://www.w3.org/Graphics/SVG/1.1/DTD/svg11.dtd">
<svg version="1.1" id="Capa_1" xmlns="http://www.w3.org/2000/svg" xmlns:xlink="http://www.w3.org/1999/xlink" x="0px" y="0px"
	 width="588.601px" height="588.6px" viewBox="0 0 588.601 588.6" style="enable-background:new 0 0 588.601 588.6;"
	 xml:space="preserve">
<g>
	<path d="M163.999,243.464c-5.179,0.087-8.678,0.653-10.492,1.191v34.13c2.149,0.512,4.812,0.686,8.477,0.686
		c13.613,0.005,22.099-7.116,22.099-19.111C184.083,249.576,176.782,243.258,163.999,243.464z"/>
	<path d="M359.031,537.78c0.781,0.042,1.551,0.111,2.342,0.111h178.2c20.846,0,37.8-16.96,37.8-37.801V86.994
		c0-20.838-16.954-37.8-37.8-37.8h-178.2c-0.786,0-1.561,0.077-2.342,0.113V0L11.228,46.417v494.564L359.031,588.6V537.78z
		 M359.031,71.036c0.771-0.113,1.54-0.237,2.342-0.237h178.2c8.933,0,16.2,7.27,16.2,16.2v413.103c0,8.928-7.268,16.2-16.2,16.2
		h-178.2c-0.796,0-1.571-0.127-2.342-0.242V71.036z M111.992,339.208l-66.593-1.824V227.356l64.367-1.55v21.033l-41.143,0.588v23.1
		l38.751-0.145v20.822l-38.751-0.216v26.41l43.369,0.77V339.208z M199.341,287.534c-8.941,8.506-22.053,12.218-37.199,12.071
		c-3.322-0.021-6.317-0.222-8.641-0.585v41.328l-24.753-0.686V226.879c7.636-1.537,18.478-2.824,33.906-3.207
		c15.812-0.379,27.221,2.479,34.955,8.596c7.436,5.811,12.479,15.57,12.479,27.168C210.089,271.037,206.271,280.879,199.341,287.534
		z M256.685,344.961c-13.888-0.385-27.432-4.313-34.138-8.21l5.474-22.186c7.28,3.85,18.555,7.789,30.291,8
		c12.77,0.242,19.596-4.878,19.596-12.847c0-7.604-5.898-11.991-20.693-17.307c-20.137-7.057-33.086-18.062-33.086-35.396
		c0-20.345,17.052-36.337,45.855-37.049c14.03-0.346,24.458,2.312,31.979,5.421l-6.392,22.573
		c-5.044-2.302-13.975-5.622-26.138-5.432c-12.023,0.182-17.824,5.643-17.824,11.905c0,7.697,6.874,11.056,22.794,16.93
		c22.106,7.966,32.653,19.322,32.653,36.725C307.057,328.793,290.712,345.927,256.685,344.961z"/>
	<path d="M397.802,212.229c29.342,3.494,37.062,30.154,39.045,45.457h-9.619v54.089h12.34v59.01c-4.113,1.229-7.13,4.994-7.13,9.503
		c0,5.506,4.473,9.978,9.967,9.978c5.511,0,9.962-4.472,9.973-9.978c0-4.509-3.012-8.269-7.119-9.497v-29.896
		c9.134,24.405,28.218,29.985,39.318,31.065v22.186h30.375v-54.1h-30.375v24.442c-33.454-5.284-37.347-41.682-37.747-52.724h10.769
		v-54.08h-12.34v-56.932c4.107-1.236,7.119-4.994,7.119-9.497c-0.011-5.503-4.462-9.964-9.973-9.964
		c-5.494,0-9.967,4.461-9.967,9.964c0,4.503,3.017,8.261,7.13,9.497v36.737c-9.45-27.124-30.881-32.002-41.766-32.643v-22.032
		h-30.364v54.087h30.364V212.229z"/>
</g>
<g>
</g>
<g>
</g>
<g>
</g>
<g>
</g>
<g>
</g>
<g>
</g>
<g>
</g>
<g>
</g>
<g>
</g>
<g>
</g>
<g>
</g>
<g>
</g>
<g>
</g>
<g>
</g>
<g>
</g>
</svg>
