<?xml version="1.0" encoding="iso-8859-1"?>
<!-- Generator: Adobe Illustrator 16.0.0, SVG Export Plug-In . SVG Version: 6.00 Build 0)  -->
<!DOCTYPE svg PUBLIC "-//W3C//DTD SVG 1.1//EN" "http://www.w3.org/Graphics/SVG/1.1/DTD/svg11.dtd">
<svg version="1.1" id="Capa_1" xmlns="http://www.w3.org/2000/svg" xmlns:xlink="http://www.w3.org/1999/xlink" x="0px" y="0px"
	 width="585.918px" height="585.918px" viewBox="0 0 585.918 585.918" style="enable-background:new 0 0 585.918 585.918;"
	 xml:space="preserve">
<g>
	<path d="M261.166,240.724l-0.357,0.01c-1.806,7.171-3.611,16.294-5.595,23.276l-7.182,25.481l26.974,0.084l-7.664-25.654
		C265.153,256.777,262.982,247.853,261.166,240.724z"/>
	<path d="M357.396,535.33c0.776,0.047,1.542,0.109,2.329,0.109h177.39c20.75,0,37.627-16.883,37.627-37.627V86.597
		c0-20.743-16.877-37.628-37.627-37.628h-177.39c-0.781,0-1.553,0.077-2.329,0.113V0L11.176,46.206v492.311l346.22,47.401V535.33z
		 M357.396,70.717c0.766-0.113,1.532-0.241,2.329-0.241h177.39c8.893,0,16.125,7.236,16.125,16.126v411.22
		c0,8.893-7.232,16.127-16.125,16.127h-177.39c-0.792,0-1.563-0.127-2.329-0.232V70.717z M111.395,245.208L71.08,245.89v25.303
		l37.628-0.187v20.726l-37.628-0.169v44.515l-23.118-0.588V225.963l63.434-1.67V245.208z M199.822,339.302l-70.014-1.755V223.809
		l24.945-0.662v93.177l45.074,0.698v22.279H199.822z M288.628,341.527l-9.585-31.402l-34.94-0.42l-8.536,30.498l-27.625-0.704
		l36.161-118.701l36.221-0.956l39.067,122.457L288.628,341.527z"/>
	<polygon points="398.519,299.826 455.863,299.826 455.863,275.57 398.519,275.57 398.519,230.932 459.886,230.932 459.886,206.688 
		371.033,206.688 371.033,368.466 398.519,368.466 	"/>
	<path d="M524.506,371.363c0,0,0.083-3.716,0.083-26.172c-13.92,0-16.808-2.321-16.808-14.878c0-12.556,0-122.608,0-122.608h-27.707
		c0,0,0,108.356,0,134.681C480.074,368.707,502.584,371.974,524.506,371.363z"/>
</g>
<g>
</g>
<g>
</g>
<g>
</g>
<g>
</g>
<g>
</g>
<g>
</g>
<g>
</g>
<g>
</g>
<g>
</g>
<g>
</g>
<g>
</g>
<g>
</g>
<g>
</g>
<g>
</g>
<g>
</g>
</svg>
