<?xml version="1.0" encoding="iso-8859-1"?>
<!-- Generator: Adobe Illustrator 16.0.0, SVG Export Plug-In . SVG Version: 6.00 Build 0)  -->
<!DOCTYPE svg PUBLIC "-//W3C//DTD SVG 1.1//EN" "http://www.w3.org/Graphics/SVG/1.1/DTD/svg11.dtd">
<svg version="1.1" id="Capa_1" xmlns="http://www.w3.org/2000/svg" xmlns:xlink="http://www.w3.org/1999/xlink" x="0px" y="0px"
	 width="585.918px" height="585.918px" viewBox="0 0 585.918 585.918" style="enable-background:new 0 0 585.918 585.918;"
	 xml:space="preserve">
<g>
	<path d="M172.007,254.245c-16.524,0.415-25.877,17.258-25.877,37.785c-0.157,20.846,9.504,37.087,25.709,37.591
		c16.777,0.52,26.743-15.59,26.743-37.94C198.577,270.851,188.939,253.822,172.007,254.245z"/>
	<path d="M11.176,46.208v492.308l346.22,47.402v-50.583c0.776,0.052,1.543,0.114,2.33,0.114h177.39
		c20.755,0,37.627-16.883,37.627-37.627V86.604c0-20.746-16.872-37.628-37.627-37.628h-177.39c-0.787,0-1.554,0.074-2.33,0.124V0
		L11.176,46.208z M106.62,344.992l-21.764-0.966v-43.803l-34.365-0.34v42.609l-20.05-0.883V241.442l20.05-0.775v39.134l34.365-0.231
		v-40.224l21.764-0.839V344.992z M218.955,369.915c-16.346-5.716-29.678-11.322-44.379-18.415c-2.414-1.111-4.989-1.722-7.538-2.005
		c-23.845-2.709-45.373-21.58-45.373-56.75c0-32.29,19.373-57.355,50.98-58.613c34.016-1.359,53.41,24.801,53.41,56.586
		c0,26.415-12.25,44.657-27.304,50.914v0.683c8.766,2.908,18.656,5.376,27.832,7.664L218.955,369.915z M335.044,355.132
		l-98.983-4.389v-14.257l59.032-81.694v-0.719l-53.723,1.235v-21.995l92.655-3.575v16.363l-60.833,83.087v0.714l61.852,1.786
		V355.132z M359.726,70.479h39.654v3.884h32.609v-3.884h105.126c8.892,0,16.125,7.232,16.125,16.125v411.218
		c0,8.892-7.233,16.127-16.125,16.127h-177.39c-0.798,0-1.563-0.117-2.33-0.231V70.72C358.156,70.607,358.928,70.479,359.726,70.479
		z"/>
	<rect x="431.989" y="82.518" width="32.604" height="13.448"/>
	<rect x="399.375" y="102.66" width="32.604" height="13.448"/>
	<rect x="431.989" y="124.684" width="32.604" height="13.459"/>
	<rect x="433.06" y="164.503" width="32.604" height="13.46"/>
	<rect x="399.375" y="145.587" width="32.604" height="13.46"/>
	<rect x="400.45" y="190.616" width="32.609" height="13.45"/>
	<rect x="433.06" y="210.743" width="32.604" height="13.459"/>
	<rect x="400.45" y="232.783" width="32.609" height="13.459"/>
	<path d="M432,257.494c-16.021,0-23.643,12.974-23.643,28.998l-5.365,48.588c0,16.022,12.987,29.01,29.008,29.01
		c16.01,0,28.986-12.987,28.986-29.01l-5.344-48.588C455.638,270.468,448.005,257.494,432,257.494z M441.606,351.354h-19.202
		v-40.568h19.202V351.354z"/>
</g>
<g>
</g>
<g>
</g>
<g>
</g>
<g>
</g>
<g>
</g>
<g>
</g>
<g>
</g>
<g>
</g>
<g>
</g>
<g>
</g>
<g>
</g>
<g>
</g>
<g>
</g>
<g>
</g>
<g>
</g>
</svg>
