<?xml version="1.0" encoding="iso-8859-1"?>
<!-- Generator: Adobe Illustrator 16.0.0, SVG Export Plug-In . SVG Version: 6.00 Build 0)  -->
<!DOCTYPE svg PUBLIC "-//W3C//DTD SVG 1.1//EN" "http://www.w3.org/Graphics/SVG/1.1/DTD/svg11.dtd">
<svg version="1.1" id="Capa_1" xmlns="http://www.w3.org/2000/svg" xmlns:xlink="http://www.w3.org/1999/xlink" x="0px" y="0px"
	 width="588.601px" height="588.6px" viewBox="0 0 588.601 588.6" style="enable-background:new 0 0 588.601 588.6;"
	 xml:space="preserve">
<g>
	<path d="M577.373,86.999c0-20.838-16.954-37.8-37.8-37.8h-178.2c-0.786,0-1.561,0.076-2.342,0.124V0L11.228,46.417v494.564
		L359.031,588.6v-50.814c0.781,0.053,1.551,0.115,2.342,0.115h178.2c20.846,0,37.8-16.964,37.8-37.8V86.999z M359.031,376.07h26.806
		v-30.375h-26.806v-13.151h26.806v-30.375h-26.806v-55.276h166.904v138.28c0,2.31-1.877,4.187-4.192,4.187H359.031V376.07z
		 M64.834,381.196l-30.37-1.466V232.722l30.37-1.3V381.196z M167.332,358.762c10.568,0.343,22.431-1.666,29.484-4.324l5.442,28.825
		c-6.626,3.048-21.355,5.927-40.16,4.999c-51.311-2.562-76.575-36.45-76.575-79.65c0-51.756,34.715-82.104,79.99-84.124
		c18.175-0.805,32.247,2.41,38.646,5.513l-7.343,29.36c-7.291-2.938-17.302-5.529-29.71-5.189
		c-27.19,0.746-47.719,18.075-47.719,52.51C119.38,337.679,136.833,357.766,167.332,358.762z M267.551,393.494
		c-19.462-0.971-38.264-6.792-47.517-12.34l7.544-30.449c10.067,5.442,25.776,11.111,42.261,11.644
		c18.096,0.591,27.799-6.443,27.799-17.613c0-10.662-8.409-16.875-29.326-24.405c-28.189-9.872-46.1-25.064-46.1-48.927
		c0-28.015,23.625-50.506,64.151-52.305c20.012-0.891,35.037,2.55,45.921,6.739l-9.255,32.013
		c-7.283-3.164-20.098-7.67-37.444-7.193c-17.025,0.47-25.17,8.158-25.17,16.859c0,10.692,9.671,15.325,32.218,23.44
		c31.762,11.138,47.07,27.222,47.07,51.87C339.704,372.172,316.017,395.898,267.551,393.494z M555.773,500.101
		c0,8.928-7.268,16.2-16.2,16.2h-178.2c-0.796,0-1.571-0.116-2.342-0.232V406.124h162.712c11.555,0,20.952-9.397,20.952-20.951
		V233.289c0-11.549-9.397-20.946-20.952-20.946h-28.281v-19.386h-14.144v19.386H452.43v-19.386h-13.611v19.386h-25.981v-19.386
		h-13.611v19.386h-28.049v-19.386h-12.146V71.042c0.771-0.114,1.54-0.243,2.342-0.243h178.2c8.933,0,16.2,7.27,16.2,16.2V500.101z"
		/>
	<rect x="405.733" y="258.697" width="30.375" height="30.375"/>
	<rect x="457.592" y="258.697" width="30.375" height="30.375"/>
	<rect x="405.733" y="302.173" width="30.375" height="30.375"/>
	<rect x="457.592" y="302.173" width="30.375" height="30.375"/>
	<rect x="405.733" y="345.695" width="30.375" height="30.375"/>
	<rect x="457.592" y="345.695" width="30.375" height="30.375"/>
</g>
<g>
</g>
<g>
</g>
<g>
</g>
<g>
</g>
<g>
</g>
<g>
</g>
<g>
</g>
<g>
</g>
<g>
</g>
<g>
</g>
<g>
</g>
<g>
</g>
<g>
</g>
<g>
</g>
<g>
</g>
</svg>
