<?xml version="1.0" encoding="iso-8859-1"?>
<!-- Generator: Adobe Illustrator 16.0.0, SVG Export Plug-In . SVG Version: 6.00 Build 0)  -->
<!DOCTYPE svg PUBLIC "-//W3C//DTD SVG 1.1//EN" "http://www.w3.org/Graphics/SVG/1.1/DTD/svg11.dtd">
<svg version="1.1" id="Capa_1" xmlns="http://www.w3.org/2000/svg" xmlns:xlink="http://www.w3.org/1999/xlink" x="0px" y="0px"
	 width="585.918px" height="585.918px" viewBox="0 0 585.918 585.918" style="enable-background:new 0 0 585.918 585.918;"
	 xml:space="preserve">
<g>
	<path d="M357.396,535.335c0.776,0.053,1.542,0.115,2.329,0.115h177.39c20.75,0,37.627-16.888,37.627-37.628V86.602
		c0-20.743-16.877-37.628-37.627-37.628h-177.39c-0.781,0-1.553,0.076-2.329,0.123V0L11.176,46.206v492.311l346.22,47.401V535.335z
		 M359.726,70.476h177.39c8.893,0,16.125,7.236,16.125,16.126v411.22c0,8.888-7.232,16.127-16.125,16.127h-177.39
		c-0.792,0-1.563-0.116-2.329-0.232V223.326c15.401-17.137,37.701-27.948,62.51-27.948c44.094,0,80.315,34.081,83.865,77.284
		c-8.315,0.638-14.883,7.512-14.883,16v80.634c0,8.902,7.217,16.127,16.126,16.127h14.336c8.907,0,16.127-7.225,16.127-16.127
		v-80.634c0-8.725-6.941-15.782-15.581-16.071c-3.623-52.055-47.023-93.334-99.99-93.334c-23.665,0-45.376,8.289-62.51,22.056
		V70.717C358.162,70.599,358.929,70.476,359.726,70.476z M77.348,373.716l-29.962-1.543V227.772l29.962-1.339V373.716z
		 M194.289,250.633l-57.828,1.541v34.939l53.904-0.252v29.089l-53.904-0.691v61.491l-32.284-1.658V225.233l90.111-4.005V250.633z
		 M325.909,247.105l-67.21,1.8v37.623l62.644-0.308v31.404l-62.644-0.802v66.216l-37.386-1.922V220.026l104.597-4.656V247.105z"/>
	<path d="M445.434,286.964c-28.903-20.21-28.825-24.958-28.825-24.958c-5.511,0.65-6.079,4.826-6.079,4.826v95.183
		c-4.135-1.444-9.081-1.686-14.141-0.441c-11.219,2.799-18.558,12.062-16.41,20.679c1.26,7.952,12.998,13.291,24.217,10.466
		c9.857-2.436,16.729-9.895,16.781-17.506h0.031l0.252-90.392c0,0,19.675-1.048,38.951,29.147
		C460.211,313.967,460.247,298.377,445.434,286.964z"/>
</g>
<g>
</g>
<g>
</g>
<g>
</g>
<g>
</g>
<g>
</g>
<g>
</g>
<g>
</g>
<g>
</g>
<g>
</g>
<g>
</g>
<g>
</g>
<g>
</g>
<g>
</g>
<g>
</g>
<g>
</g>
</svg>
