<?xml version="1.0" encoding="iso-8859-1"?>
<!-- Generator: Adobe Illustrator 16.0.0, SVG Export Plug-In . SVG Version: 6.00 Build 0)  -->
<!DOCTYPE svg PUBLIC "-//W3C//DTD SVG 1.1//EN" "http://www.w3.org/Graphics/SVG/1.1/DTD/svg11.dtd">
<svg version="1.1" id="Capa_1" xmlns="http://www.w3.org/2000/svg" xmlns:xlink="http://www.w3.org/1999/xlink" x="0px" y="0px"
	 width="585.918px" height="585.918px" viewBox="0 0 585.918 585.918" style="enable-background:new 0 0 585.918 585.918;"
	 xml:space="preserve">
<g>
	<path d="M247.494,258.29c-18.352,0.548-28.806,17.737-28.806,40.303c0,22.739,10.814,39.05,28.987,39.527
		c18.838,0.494,29.84-16.804,29.84-40.321C277.51,276.069,266.683,257.719,247.494,258.29z"/>
	<path d="M357.396,535.335c0.776,0.052,1.542,0.114,2.329,0.114h177.39c20.756,0,37.627-16.883,37.627-37.627V86.604
		c0-20.746-16.871-37.628-37.627-37.628h-177.39c-0.787,0-1.553,0.074-2.329,0.124V0L11.176,46.208v492.308l346.22,47.402V535.335z
		 M359.726,70.479h177.39c8.893,0,16.125,7.232,16.125,16.125v411.218c0,8.892-7.232,16.127-16.125,16.127h-177.39
		c-0.797,0-1.563-0.117-2.329-0.231v-97.205c17.794,9.887,38.258,15.545,60.063,15.545c68.515,0,124.042-55.55,124.042-124.064
		c0-68.493-55.527-124.031-124.042-124.031c-21.806,0-42.27,5.662-60.063,15.541V70.72
		C358.162,70.607,358.929,70.479,359.726,70.479z M417.449,259.197c26.962,0,48.81,21.84,48.81,48.796
		c0,26.971-21.848,48.819-48.81,48.819c-26.961,0-48.809-21.849-48.809-48.819C368.641,281.032,390.488,259.197,417.449,259.197z
		 M401.853,195.412c0,0,20.688-9.294,52.951,3.698l-26.956,55.001c-5.228-2.026-10.398-0.945-10.398-0.945L401.853,195.412z
		 M92.305,351.279l-21.543-0.859V246.58l21.543-0.929V351.279z M136.362,354.65c-11.717-0.483-23.067-4.137-28.672-7.68l4.569-19.9
		c6.092,3.496,15.567,7.093,25.481,7.35c10.847,0.272,16.664-4.342,16.664-11.569c0-6.91-5.031-10.894-17.586-15.708
		c-16.974-6.324-27.8-16.178-27.8-31.727c0-18.262,14.278-32.867,38.638-33.953c11.971-0.531,20.926,1.722,27.394,4.446
		l-5.499,20.68c-4.338-2.055-11.981-4.974-22.352-4.667c-10.212,0.296-15.121,5.278-15.121,10.938
		c0,6.951,5.816,9.946,19.341,15.174c18.938,7.135,28.032,17.481,28.032,33.393C179.436,340.34,165.356,355.841,136.362,354.65z
		 M246.218,359.342c-35.116-1.454-54.887-27.769-54.887-60.199c0-34.113,21.83-60.589,56.872-62.159
		c38.386-1.708,60.221,25.733,60.221,59.837C308.429,337.333,282.6,360.828,246.218,359.342z"/>
	<path d="M417.46,351.196c23.812,0,43.182-19.381,43.182-43.182c0-23.822-19.376-43.2-43.182-43.2
		c-23.812,0-43.182,19.378-43.182,43.2C374.278,331.815,393.648,351.196,417.46,351.196z M417.46,269.786
		c21.061,0,38.193,17.142,38.193,38.229c0,21.061-17.143,38.189-38.193,38.189c-21.061,0-38.206-17.139-38.206-38.189
		C379.249,286.932,396.399,269.786,417.46,269.786z"/>
	<path d="M417.46,328.633c11.38,0,20.651-9.26,20.651-20.64c0-11.382-9.271-20.641-20.651-20.641
		c-11.393,0-20.65,9.259-20.65,20.641C396.81,319.374,406.067,328.633,417.46,328.633z M417.46,292.343
		c8.63,0,15.675,7.01,15.675,15.651c0,8.64-7.045,15.664-15.675,15.664c-8.642,0-15.664-7.024-15.664-15.664
		C401.796,299.353,408.812,292.343,417.46,292.343z"/>
</g>
<g>
</g>
<g>
</g>
<g>
</g>
<g>
</g>
<g>
</g>
<g>
</g>
<g>
</g>
<g>
</g>
<g>
</g>
<g>
</g>
<g>
</g>
<g>
</g>
<g>
</g>
<g>
</g>
<g>
</g>
</svg>
