<?xml version="1.0" encoding="iso-8859-1"?>
<!-- Generator: Adobe Illustrator 16.0.0, SVG Export Plug-In . SVG Version: 6.00 Build 0)  -->
<!DOCTYPE svg PUBLIC "-//W3C//DTD SVG 1.1//EN" "http://www.w3.org/Graphics/SVG/1.1/DTD/svg11.dtd">
<svg version="1.1" id="Capa_1" xmlns="http://www.w3.org/2000/svg" xmlns:xlink="http://www.w3.org/1999/xlink" x="0px" y="0px"
	 width="585.918px" height="585.918px" viewBox="0 0 585.918 585.918" style="enable-background:new 0 0 585.918 585.918;"
	 xml:space="preserve">
<g>
	<path d="M11.176,46.206v492.311l346.22,47.401v-50.583c0.776,0.053,1.542,0.115,2.329,0.115h177.39
		c20.756,0,37.627-16.888,37.627-37.628V86.602c0-20.743-16.871-37.628-37.627-37.628h-177.39c-0.787,0-1.553,0.076-2.329,0.123V0
		L11.176,46.206z M134.713,357.211l-23.748-1.076L90.269,315.08c-5.651-11.161-11.798-24.52-16.378-36.555l-0.409,0.145
		c0.559,13.575,0.827,28.059,0.827,44.846v30.966L55.2,353.61V252.244l24.389-0.732l19.8,37.77
		c5.764,11.069,11.57,24.244,15.971,36.26l0.431,0.011c-1.457-14.006-1.903-28.299-1.903-44.147V250.48l20.819-0.63v107.36H134.713z
		 M224.858,361.285l-69.956-3.171v-108.87l67.568-2.032v21.138l-43.431,0.697v22.999l40.879-0.021v20.929l-40.879-0.551v26.279
		l45.814,1.428v21.176H224.858z M272.151,365.17c-13.838-0.631-27.264-4.688-33.894-8.572l5.41-21.381
		c7.192,3.811,18.394,7.796,30.124,8.173c12.819,0.42,19.682-4.498,19.682-12.289c0-7.422-5.934-11.769-20.785-17.085
		c-20.06-7.009-32.861-17.729-32.861-34.479c0-19.674,16.885-35.257,45.681-36.155c14.144-0.441,24.728,2.089,32.376,5.105
		l-6.5,22.189c-5.129-2.252-14.174-5.486-26.425-5.265c-12.083,0.207-17.867,5.525-17.867,11.619
		c0,7.488,6.864,10.767,22.856,16.549c22.396,7.899,33.147,19.145,33.147,36.263C323.096,350.22,306.439,366.76,272.151,365.17z
		 M359.726,70.48h177.39c8.893,0,16.125,7.236,16.125,16.127v411.215c0,8.893-7.232,16.127-16.125,16.127h-177.39
		c-0.797,0-1.563-0.111-2.329-0.232V70.722C358.157,70.604,358.929,70.48,359.726,70.48z"/>
	<path d="M490.72,256.861h-81.975v11.202h-16.797v3.58h-8.851v3.14h8.851v4.032h16.797v19.708h-16.797v4.032h-8.851v3.139h8.851
		v3.58h16.797v21.051h-16.797v3.811h-8.851v3.139h8.851v3.802h16.797v15.233h81.975v-15.233h15.224v-3.802h8.85v-3.139h-8.85v-3.811
		H490.72v-21.051h15.224v-3.58h8.85v-3.139h-8.85v-4.032H490.72v-19.708h15.224v-4.032h8.85v-3.14h-8.85v-3.58H490.72V256.861z
		 M475.045,283.738c-3.465,0-6.277-2.812-6.277-6.278s2.812-6.268,6.277-6.268c3.466,0,6.269,2.801,6.269,6.268
		S478.511,283.738,475.045,283.738z"/>
	<path d="M536.201,221.942l-35.79-41.583H361.689v235.615h174.512V221.942z M504.106,199.285l16.903,19.642h-16.903V199.285z
		 M526.658,406.419H371.232V189.91h123.314v38.576h32.111V406.419z"/>
</g>
<g>
</g>
<g>
</g>
<g>
</g>
<g>
</g>
<g>
</g>
<g>
</g>
<g>
</g>
<g>
</g>
<g>
</g>
<g>
</g>
<g>
</g>
<g>
</g>
<g>
</g>
<g>
</g>
<g>
</g>
</svg>
