<?xml version="1.0" encoding="iso-8859-1"?>
<!-- Generator: Adobe Illustrator 16.0.0, SVG Export Plug-In . SVG Version: 6.00 Build 0)  -->
<!DOCTYPE svg PUBLIC "-//W3C//DTD SVG 1.1//EN" "http://www.w3.org/Graphics/SVG/1.1/DTD/svg11.dtd">
<svg version="1.1" id="Capa_1" xmlns="http://www.w3.org/2000/svg" xmlns:xlink="http://www.w3.org/1999/xlink" x="0px" y="0px"
	 width="585.918px" height="585.918px" viewBox="0 0 585.918 585.918" style="enable-background:new 0 0 585.918 585.918;"
	 xml:space="preserve">
<g>
	<path d="M166.763,245.462c-5.21,0.084-8.549,0.596-10.52,1.124v69.302c1.971,0.504,5.166,0.557,8.074,0.61
		c21.302,0.524,35.433-11.424,35.433-37.264C199.918,256.767,187.028,245.113,166.763,245.462z"/>
	<path d="M357.4,535.33c0.767,0.047,1.543,0.109,2.33,0.109h177.39c20.745,0,37.627-16.883,37.627-37.627V86.597
		c0-20.743-16.882-37.628-37.627-37.628H359.73c-0.782,0-1.563,0.077-2.33,0.113V0L11.17,46.206v492.311l346.23,47.401V535.33z
		 M357.4,70.717c0.767-0.113,1.532-0.241,2.33-0.241h177.39c8.892,0,16.125,7.236,16.125,16.126v411.22
		c0,8.893-7.233,16.127-16.125,16.127H359.73c-0.792,0-1.563-0.127-2.33-0.232V70.717z M71.305,333.422
		c-27.504-0.734-43.244-23.424-43.244-51.71c0-29.774,17.372-52.494,44.777-53.205c29.333-0.77,45.701,22.711,45.701,51.405
		C118.539,314.008,99.161,334.167,71.305,333.422z M207.685,322.408c-11.255,9.238-28.145,13.271-48.41,12.735
		c-11.951-0.321-20.336-1.313-25.985-2.253V230.019c8.336-1.609,19.307-2.678,31.021-2.984c19.748-0.515,32.756,2.845,43.056,10.478
		c11.202,8.187,18.31,21.565,18.31,40.901C225.682,299.374,218.091,313.704,207.685,322.408z M338.869,333.391
		c-8.409,2.529-24.188,5.867-39.717,5.459c-21.136-0.568-36.17-6.09-46.52-16.21c-10.255-9.707-15.84-24.148-15.675-40.318
		c0.157-36.581,27.205-58.206,64.978-59.174c15.233-0.407,27.097,2.173,32.997,4.769l-5.716,20.917
		c-6.573-2.625-14.693-4.704-27.634-4.494c-21.847,0.354-38.092,12.533-38.092,36.68c0,22.98,14.699,36.791,36.188,37.157
		c6.077,0.106,10.97-0.48,13.081-1.468v-23.844l-18.105-0.1v-19.969l44.226-0.157v60.752H338.869z"/>
	<path d="M72.273,246.762c-14.265,0.242-22.48,14.981-22.48,34.509c0,19.677,8.483,33.682,22.614,33.934
		c14.475,0.252,22.877-14.54,22.877-34.53C95.284,262.227,87.035,246.51,72.273,246.762z"/>
	<path d="M391.49,431.816c1.605-14.236,25.019-24.021,25.019-24.021c26.793-10.761,17.093-51.592,17.093-51.592l-25.732-11.328
		c-25.471,3.202-37.765,31.97-37.765,31.97C353.663,420.331,391.49,431.816,391.49,431.816z M402.189,351.081l8.334,1.956
		c0,0-13.405-3.39-36.882,38.752C373.642,391.789,372.97,367.899,402.189,351.081z"/>
	<path d="M450.305,333.495c2.824-6.384,66.5-196.557,71.486-207.9c3.423-12.953-6.373-15.885-11.192-4.924
		c-4.808,10.95-94.762,190.377-97.439,196.487c-2.688,6.09-2.919,21.575-2.919,21.575l25.733,11.328
		C435.974,350.062,447.512,339.889,450.305,333.495z"/>
</g>
<g>
</g>
<g>
</g>
<g>
</g>
<g>
</g>
<g>
</g>
<g>
</g>
<g>
</g>
<g>
</g>
<g>
</g>
<g>
</g>
<g>
</g>
<g>
</g>
<g>
</g>
<g>
</g>
<g>
</g>
</svg>
