<?xml version="1.0" encoding="iso-8859-1"?>
<!-- Generator: Adobe Illustrator 16.0.0, SVG Export Plug-In . SVG Version: 6.00 Build 0)  -->
<!DOCTYPE svg PUBLIC "-//W3C//DTD SVG 1.1//EN" "http://www.w3.org/Graphics/SVG/1.1/DTD/svg11.dtd">
<svg version="1.1" id="Capa_1" xmlns="http://www.w3.org/2000/svg" xmlns:xlink="http://www.w3.org/1999/xlink" x="0px" y="0px"
	 width="585.918px" height="585.918px" viewBox="0 0 585.918 585.918" style="enable-background:new 0 0 585.918 585.918;"
	 xml:space="preserve">
<g>
	<path d="M92.789,254.337c-14.604,0.268-22.958,15.506-22.958,35.674c0,20.313,8.641,34.958,23.111,35.499
		c14.937,0.562,23.65-14.756,23.65-35.675C116.592,270.51,108.023,254.055,92.789,254.337z"/>
	<path d="M537.108,48.979H359.721c-0.782,0-1.554,0.077-2.335,0.124V0L11.176,46.206v492.311l346.22,47.402v-50.583
		c0.776,0.052,1.542,0.114,2.329,0.114h177.39c20.756,0,37.627-16.888,37.627-37.627V86.602
		C574.737,65.859,557.871,48.979,537.108,48.979z M91.783,347.113c-28-1.477-43.819-25.146-43.819-54.183
		c0-30.554,17.459-53.974,45.407-54.898c30.413-1.009,47.641,23.641,47.641,53.899C141.012,327.888,120.634,348.634,91.783,347.113z
		 M229.885,257.652l-31.656,0.512v92.671l-25.25-1.287V258.56l-28.704,0.462v-20.877l85.61-2.719V257.652z M322.319,255.615
		l-50.019,0.816v27.543l46.638,0.113v22.898l-46.638-0.831v48.474l-28.011-1.438V234.969l78.03-2.479V255.615z M553.235,497.823
		c0,8.892-7.238,16.127-16.127,16.127H359.721c-0.792,0-1.563-0.111-2.335-0.231V366.67c13.296,23.225,37.134,37.276,66.876,37.276
		c62.531,0,107.361-53.387,107.361-115.912c0-49.546-31.56-84.652-78.447-84.652c-42.981,0-78.414,27.092-95.79,64.51V70.722
		c0.771-0.112,1.532-0.242,2.335-0.242h177.388c8.889,0,16.127,7.236,16.127,16.126V497.823z M374.131,322.834
		c0-51.616,30.379-109.126,76.694-109.126c38.341,0,52.798,32.145,52.798,71.368c0,48.377-27.727,108.545-76.987,108.545
		C390.65,393.626,374.131,362.357,374.131,322.834z"/>
</g>
<g>
</g>
<g>
</g>
<g>
</g>
<g>
</g>
<g>
</g>
<g>
</g>
<g>
</g>
<g>
</g>
<g>
</g>
<g>
</g>
<g>
</g>
<g>
</g>
<g>
</g>
<g>
</g>
<g>
</g>
</svg>
