<?xml version="1.0" encoding="iso-8859-1"?>
<!-- Generator: Adobe Illustrator 16.0.0, SVG Export Plug-In . SVG Version: 6.00 Build 0)  -->
<!DOCTYPE svg PUBLIC "-//W3C//DTD SVG 1.1//EN" "http://www.w3.org/Graphics/SVG/1.1/DTD/svg11.dtd">
<svg version="1.1" id="Capa_1" xmlns="http://www.w3.org/2000/svg" xmlns:xlink="http://www.w3.org/1999/xlink" x="0px" y="0px"
	 width="588.601px" height="588.6px" viewBox="0 0 588.601 588.6" style="enable-background:new 0 0 588.601 588.6;"
	 xml:space="preserve">
<g>
	<path d="M48.284,278.322c-2.837,0.01-4.754,0.335-5.746,0.635v20.384c1.176,0.327,2.634,0.454,4.638,0.475
		c7.457,0.11,12.089-4.087,12.089-11.251C59.266,282.126,55.276,278.292,48.284,278.322z"/>
	<path d="M101.672,278.569h-0.192c-0.999,4.288-1.999,9.758-3.08,13.932l-3.953,15.225l14.845,0.296l-4.224-15.473
		C103.866,288.236,102.671,282.857,101.672,278.569z"/>
	<path d="M577.373,86.999c0-20.838-16.954-37.8-37.8-37.8h-178.2c-0.791,0-1.561,0.076-2.347,0.124V0L11.228,46.417v494.564
		L359.026,588.6v-50.814c0.786,0.053,1.551,0.115,2.347,0.115h178.2c20.846,0,37.8-16.964,37.8-37.8V86.999z M485.646,212.517
		v171.979h-126.62V181.132h97.886v31.39h28.734V212.517z M464.843,204.583v-17.845l17.841,17.845H464.843z M529.258,261.737v171.982
		H385.22v-41.302h108.354V230.352h6.939v31.39h28.745V261.737z M508.444,253.811v-17.848l17.851,17.848H508.444z M47.274,311.855
		c-1.827-0.047-3.467-0.174-4.736-0.416v24.7l-13.55-0.585v-67.392c4.174-0.862,10.109-1.548,18.56-1.667
		c8.662-0.116,14.906,1.683,19.138,5.4c4.065,3.52,6.816,9.384,6.816,16.311c0,6.938-2.091,12.791-5.875,16.709
		C62.728,309.93,55.551,312.05,47.274,311.855z M116.794,339.335l-5.287-18.942l-19.224-0.559l-4.699,18.235l-15.211-0.654
		l19.915-70.975l19.931-0.253l21.508,73.876L116.794,339.335z M202.824,339.461c-5.421,1.614-15.572,3.718-25.562,3.28
		c-13.587-0.591-23.259-4.482-29.896-11.422c-6.592-6.65-10.178-16.475-10.069-27.391c0.113-24.706,17.468-39.055,41.747-39.379
		c9.795-0.124,17.437,1.729,21.239,3.533l-3.684,14.093c-4.229-1.84-9.45-3.314-17.777-3.293
		c-14.051,0.042-24.479,8.11-24.479,24.424c0,15.525,9.445,24.996,23.253,25.46c3.92,0.138,7.069-0.216,8.424-0.854v-16.126
		l-11.649-0.242v-13.489l28.463,0.321v41.085H202.824z M269.396,345.917l-52.645-2.268v-78.774l50.873-0.641v15.135l-32.582,0.076
		v16.574l30.689,0.285v14.987l-30.689-0.602v18.947l34.354,1.129V345.917z M304.398,348.669
		c-10.178-0.443-20.097-3.333-25.006-6.106l4.002-15.262c5.324,2.742,13.579,5.601,22.196,5.885
		c9.397,0.322,14.407-3.143,14.407-8.658c0-5.269-4.33-8.38-15.188-12.214c-14.779-5.083-24.253-12.819-24.253-24.793
		c0-14.048,12.485-24.962,33.629-25.254c10.336-0.14,18.014,1.777,23.562,3.998l-4.715,15.604
		c-3.723-1.635-10.293-4.013-19.253-3.984c-8.844,0.032-13.094,3.763-13.094,8.1c0,5.313,5.052,7.71,16.748,11.929
		c14.924,5.247,22.623,12.424,23.836,22.86v5.236C340.016,339.293,328.087,349.713,304.398,348.669z M555.773,500.101
		c0,8.928-7.272,16.2-16.2,16.2h-178.2c-0.802,0-1.571-0.116-2.347-0.232V392.417h18.268v49.223h159.885V253.492l-31.061-31.071
		h-12.545v-18.151l-31.061-31.071H359.026V71.042c0.775-0.114,1.54-0.243,2.347-0.243h178.2c8.928,0,16.2,7.27,16.2,16.2V500.101z"
		/>
</g>
<g>
</g>
<g>
</g>
<g>
</g>
<g>
</g>
<g>
</g>
<g>
</g>
<g>
</g>
<g>
</g>
<g>
</g>
<g>
</g>
<g>
</g>
<g>
</g>
<g>
</g>
<g>
</g>
<g>
</g>
</svg>
