<?xml version="1.0" encoding="iso-8859-1"?>
<!-- Generator: Adobe Illustrator 16.0.0, SVG Export Plug-In . SVG Version: 6.00 Build 0)  -->
<!DOCTYPE svg PUBLIC "-//W3C//DTD SVG 1.1//EN" "http://www.w3.org/Graphics/SVG/1.1/DTD/svg11.dtd">
<svg version="1.1" id="Capa_1" xmlns="http://www.w3.org/2000/svg" xmlns:xlink="http://www.w3.org/1999/xlink" x="0px" y="0px"
	 width="588.601px" height="588.6px" viewBox="0 0 588.601 588.6" style="enable-background:new 0 0 588.601 588.6;"
	 xml:space="preserve">
<g>
	<path d="M157.296,264.69c-5.648,0.189-9.29,0.828-11.422,1.421v75.961c2.139,0.564,5.611,0.654,8.759,0.744
		c23.345,0.759,39.026-12.419,39.026-41.154C193.828,276.684,179.529,263.952,157.296,264.69z"/>
	<path d="M305.189,273.644c0-9.835-7.979-14.763-21.895-14.288c-6.56,0.221-10.315,0.722-12.873,1.187v29.581l9.88-0.124
		C296.394,289.768,305.189,283.294,305.189,273.644z"/>
	<path d="M65.662,267.421c-4.479,0.147-7.493,0.741-9.06,1.271v31.983c1.851,0.475,4.158,0.612,7.317,0.586
		c11.815-0.074,19.24-6.855,19.24-18.178C83.16,272.903,76.776,267.044,65.662,267.421z"/>
	<path d="M280.703,310.659l-10.275-0.011v35.796c2.948,0.453,6.505,0.543,11.678,0.675c13.891,0.354,26.38-4.351,26.38-18.083
		C308.485,315.889,295.996,310.668,280.703,310.659z"/>
	<path d="M11.228,46.417v494.564L359.031,588.6v-50.814c0.781,0.053,1.551,0.115,2.342,0.115h178.2c20.841,0,37.8-16.964,37.8-37.8
		V86.999c0-20.838-16.959-37.8-37.8-37.8h-178.2c-0.791,0-1.561,0.076-2.342,0.124V0L11.228,46.417z M532.527,297.833v121.964
		H424.602V274.201h85.577v23.633H532.527z M515.579,292.433v-14.291l13.911,14.291H515.579L515.579,292.433z M456.985,268.8
		c0.949-0.696,1.883-1.395,2.695-2.139v2.139H456.985z M459.681,246.283c0,8.498-13.025,17.647-33.967,22.518h-6.513v1.35
		c-7.904,1.403-16.706,2.212-26.229,2.212c-12.804,0-24.211-1.521-33.94-3.924v-27.633c10.6,1.933,22.312,2.985,33.94,2.985
		c26.941,0,54.717-5.263,66.709-15.415V246.283z M392.972,313c-12.804,0-24.211-1.524-33.94-3.934V281.43
		c10.194,2.307,21.669,3.642,33.94,3.642c9.26,0,18.056-0.791,26.229-2.136v27.844C411.302,312.188,402.495,313,392.972,313z
		 M419.201,322.999v27.844c-7.904,1.402-16.706,2.215-26.229,2.215c-12.804,0-24.211-1.524-33.94-3.935V321.49
		c10.194,2.305,21.669,3.639,33.94,3.639C402.231,325.128,411.027,324.337,419.201,322.999z M96.557,308.686
		c-7.868,8.079-19.337,11.612-32.497,11.501c-2.882-0.026-5.469-0.211-7.462-0.543v38.729l-21.218-0.828V252.482
		c6.523-1.572,15.802-2.972,29.117-3.618c13.753-0.669,23.738,1.809,30.538,7.468c6.561,5.384,11.032,14.581,11.032,25.613
		S102.682,302.347,96.557,308.686z M202.516,349.75c-12.551,10.13-31.211,14.364-53.346,13.479
		c-12.912-0.521-21.908-1.734-27.952-2.821V248.479c8.923-1.948,20.728-3.364,33.416-3.979c21.629-1.047,36.036,2.349,47.532,10.615
		c12.593,8.931,20.622,23.794,20.622,45.48C222.782,324.089,214.207,340.126,202.516,349.75z M327.328,358.452
		c-10.32,7.245-27.264,10.842-54.148,9.766c-14.624-0.585-25.352-1.945-31.796-3.127V242.868c7.589-1.835,23.172-3.705,38.13-4.421
		c18.726-0.907,30.433,0.264,40.647,5.426c9.93,4.472,17.196,13.242,17.196,25.263c0,11.815-7.488,22.944-23.472,28.551v0.39
		c16.205,3.997,28.429,15.398,28.429,32.601C342.305,342.726,336.282,352.055,327.328,358.452z M361.373,70.804h178.2
		c8.933,0,16.2,7.269,16.2,16.2v413.097c0,8.934-7.268,16.2-16.2,16.2h-178.2c-0.802,0-1.571-0.11-2.342-0.232v-158.73
		c10.146,2.331,21.59,3.713,33.94,3.713c9.292,0,18.093-0.77,26.229-2.12v66.267h118.727V293.362l-23.92-24.566h-46.333v-3.41
		c0-3.056-0.886-6.16-2.668-9.218l-0.232-0.387c1.852-3.008,2.9-6.188,2.9-9.502v-21.516c0-2.909-0.807-5.875-2.415-8.807
		l-0.185-0.341c0.475-1.308,0.807-2.647,0.807-4.071c0-17.384-37.567-26.768-72.921-26.768c-11.57,0-23.287,1.076-33.939,3.046
		V71.046C359.802,70.928,360.571,70.804,361.373,70.804z"/>
	<polygon points="438.054,357.813 465.882,374.393 465.882,366.514 444.841,354.692 444.841,354.543 465.882,342.731 
		465.882,334.853 438.054,351.422 	"/>
	<polygon points="470.186,377.368 476.039,377.368 488.452,323.483 482.594,323.483 	"/>
	<polygon points="491.822,342.731 513.332,354.543 513.332,354.692 491.822,366.514 491.822,374.393 519.65,358.035 519.65,351.201 
		491.822,334.853 	"/>
</g>
<g>
</g>
<g>
</g>
<g>
</g>
<g>
</g>
<g>
</g>
<g>
</g>
<g>
</g>
<g>
</g>
<g>
</g>
<g>
</g>
<g>
</g>
<g>
</g>
<g>
</g>
<g>
</g>
<g>
</g>
</svg>
