<?xml version="1.0" encoding="iso-8859-1"?>
<!-- Generator: Adobe Illustrator 16.0.0, SVG Export Plug-In . SVG Version: 6.00 Build 0)  -->
<!DOCTYPE svg PUBLIC "-//W3C//DTD SVG 1.1//EN" "http://www.w3.org/Graphics/SVG/1.1/DTD/svg11.dtd">
<svg version="1.1" id="Capa_1" xmlns="http://www.w3.org/2000/svg" xmlns:xlink="http://www.w3.org/1999/xlink" x="0px" y="0px"
	 width="585.918px" height="585.918px" viewBox="0 0 585.918 585.918" style="enable-background:new 0 0 585.918 585.918;"
	 xml:space="preserve">
<g>
	<path d="M93.741,262.947c-5.386,0.15-9.01,0.833-10.895,1.454v37.671c2.237,0.566,4.992,0.75,8.798,0.74
		c14.223-0.016,23.132-7.954,23.132-21.311C114.776,269.494,107.099,262.56,93.741,262.947z"/>
	<path d="M357.396,535.335c0.776,0.053,1.542,0.115,2.329,0.115h177.39c20.745,0,37.627-16.888,37.627-37.628V86.602
		c0-20.743-16.882-37.628-37.627-37.628h-177.39c-0.787,0-1.553,0.076-2.329,0.123V0L11.176,46.206v492.311l346.22,47.401V535.335z
		 M359.726,70.48h177.39c8.893,0,16.125,7.236,16.125,16.127v411.215c0,8.893-7.232,16.127-16.125,16.127h-177.39
		c-0.797,0-1.563-0.111-2.329-0.232V384.509c19.422,14.341,43.412,22.846,69.365,22.846c64.536,0,117.046-52.51,117.046-117.052
		c0-64.536-52.51-117.052-117.046-117.052c-25.953,0-49.943,8.499-69.365,22.846V70.722C358.162,70.604,358.929,70.48,359.726,70.48
		z M357.396,223.368c17.558-18.194,42.143-29.57,69.365-29.57c53.207,0,96.505,43.287,96.505,96.505
		c0,53.219-43.291,96.516-96.505,96.516c-27.223,0-51.808-11.381-69.365-29.574V223.368z M130.928,311.762
		c-9.473,9.491-23.292,13.571-39.106,13.335c-3.472-0.049-6.574-0.285-8.976-0.693v45.606l-25.449-1.176V245.229
		c7.822-1.827,18.955-3.441,34.94-4.155c16.546-0.729,28.57,2.226,36.753,8.919c7.917,6.386,13.302,17.266,13.302,30.279
		S138.309,304.329,130.928,311.762z M190.499,375.002l-29.816-1.376V239.027l29.816-1.302V375.002z M306.85,260.027l-57.535,1.553
		v32.587l53.644-0.348v27.119l-53.644-0.54v57.333l-32.144-1.496V236.56l89.678-3.935V260.027z"/>
	<rect x="411.028" y="261.168" width="31.461" height="104.138"/>
	<path d="M427.606,253.533c10.541,0,19.113-8.578,19.113-19.118c0-10.544-8.572-19.121-19.113-19.121s-19.124,8.577-19.124,19.121
		C408.482,244.956,417.065,253.533,427.606,253.533z"/>
</g>
<g>
</g>
<g>
</g>
<g>
</g>
<g>
</g>
<g>
</g>
<g>
</g>
<g>
</g>
<g>
</g>
<g>
</g>
<g>
</g>
<g>
</g>
<g>
</g>
<g>
</g>
<g>
</g>
<g>
</g>
</svg>
