<?xml version="1.0" encoding="iso-8859-1"?>
<!-- Generator: Adobe Illustrator 16.0.0, SVG Export Plug-In . SVG Version: 6.00 Build 0)  -->
<!DOCTYPE svg PUBLIC "-//W3C//DTD SVG 1.1//EN" "http://www.w3.org/Graphics/SVG/1.1/DTD/svg11.dtd">
<svg version="1.1" id="Capa_1" xmlns="http://www.w3.org/2000/svg" xmlns:xlink="http://www.w3.org/1999/xlink" x="0px" y="0px"
	 width="588.595px" height="588.595px" viewBox="0 0 588.595 588.595" style="enable-background:new 0 0 588.595 588.595;"
	 xml:space="preserve">
<g>
	<path d="M232.097,255.77l-0.427,0.021c-2.165,8.646-4.321,19.62-6.687,28.005l-8.53,30.57l32.237,0.132l-9.208-30.895
		C236.859,275.026,234.257,264.313,232.097,255.77z"/>
	<path d="M105.1,258.346c-6.853,0.216-10.692,0.917-12.712,1.376v36.729l11.048-0.079c14.191-0.101,22.713-7.808,22.713-19.709
		C126.148,264.167,118.183,258.145,105.1,258.346z"/>
	<path d="M11.225,46.412v494.564l347.804,47.619V537.78c0.781,0.059,1.551,0.111,2.342,0.111h178.2c20.851,0,37.8-16.96,37.8-37.801
		V86.994c0-20.838-16.949-37.8-37.8-37.8h-178.2c-0.786,0-1.561,0.077-2.342,0.124V0L11.225,46.412z M359.028,245.521
		c17.445-16.701,41.049-27.032,67.052-27.032c53.558,0,97.11,43.557,97.11,97.116c0,53.546-43.553,97.11-97.11,97.11
		c-26.003,0-49.606-10.331-67.052-27.037V245.521z M130.172,372.009c-2.122-3.918-5.157-15.119-8.959-31.915
		c-3.401-16.922-8.851-21.578-20.379-21.874l-8.44-0.048v52.329l-27.113-1.087V240.347c8.704-1.938,21.837-3.699,36.671-4.358
		c18.71-0.82,32.07,1.616,41.341,8.965c7.826,6.26,12.166,15.757,12.166,28.484c0,17.648-11.96,29.795-23.187,34.077v0.602
		c9.083,3.881,14.148,13.078,17.471,25.792c4.129,15.668,8.277,33.861,10.863,39.313L130.172,372.009z M265.133,377.41
		l-11.578-38.091l-41.769-0.774l-10.069,36.334l-32.347-1.298l42.412-141.415l43.329-1.898l47.65,148.646L265.133,377.41z
		 M361.37,70.798h178.2c8.933,0,16.2,7.27,16.2,16.2v413.103c0,8.928-7.268,16.2-16.2,16.2h-178.2c-0.796,0-1.571-0.116-2.342-0.232
		V406.741c18.795,13.879,41.956,22.18,67.052,22.18c62.485,0,113.311-50.836,113.311-113.315
		c0-62.485-50.825-113.311-113.311-113.311c-25.096,0-48.257,8.306-67.052,22.172V71.042
		C359.799,70.922,360.568,70.798,361.37,70.798z"/>
	<path d="M458.28,383.811c0-8.121,0-128.975,0-136.357c0-6.35-8.222-0.156-8.222-0.156l-52.091,38.886c0,0-4.873,0.496-10.463,1.867
		v56.436c5.59,1.208,10.463,1.757,10.463,1.757l50.973,37.826C448.931,384.07,458.28,391.89,458.28,383.811z"/>
	<path d="M370.963,299.436c0,10.537,0,28.973,0,36.345c0,2.827,3.981,5.021,8.886,6.655v-51.965
		C374.944,292.512,370.963,295.397,370.963,299.436z"/>
</g>
<g>
</g>
<g>
</g>
<g>
</g>
<g>
</g>
<g>
</g>
<g>
</g>
<g>
</g>
<g>
</g>
<g>
</g>
<g>
</g>
<g>
</g>
<g>
</g>
<g>
</g>
<g>
</g>
<g>
</g>
</svg>
