<?xml version="1.0" encoding="iso-8859-1"?>
<!-- Generator: Adobe Illustrator 16.0.0, SVG Export Plug-In . SVG Version: 6.00 Build 0)  -->
<!DOCTYPE svg PUBLIC "-//W3C//DTD SVG 1.1//EN" "http://www.w3.org/Graphics/SVG/1.1/DTD/svg11.dtd">
<svg version="1.1" id="Capa_1" xmlns="http://www.w3.org/2000/svg" xmlns:xlink="http://www.w3.org/1999/xlink" x="0px" y="0px"
	 width="588.601px" height="588.6px" viewBox="0 0 588.601 588.6" style="enable-background:new 0 0 588.601 588.6;"
	 xml:space="preserve">
<g>
	<path d="M359.031,537.786c0.781,0.053,1.551,0.115,2.342,0.115h178.2c20.851,0,37.8-16.964,37.8-37.8V86.999
		c0-20.838-16.949-37.8-37.8-37.8h-178.2c-0.791,0-1.561,0.076-2.342,0.124V0L11.228,46.417v494.564L359.031,588.6V537.786z
		 M361.373,70.804h178.2c8.933,0,16.2,7.269,16.2,16.2v413.097c0,8.934-7.268,16.2-16.2,16.2h-178.2
		c-0.802,0-1.571-0.11-2.342-0.232V404.135H481.48v-28.624h28.614v-7.151h16.632v-5.896h-16.632v-7.161H481.48v-39.562h28.614
		v-6.729h16.632v-5.906h-16.632v-7.573H481.48v-37.027h28.614v-7.58h16.632v-5.896h-16.632v-6.729H481.48v-21.049H359.031V71.046
		C359.802,70.928,360.571,70.804,361.373,70.804z M440.232,255.965c0-6.507,5.273-11.784,11.791-11.784
		c6.508,0,11.781,5.276,11.781,11.784c0,6.518-5.273,11.794-11.781,11.794C445.506,267.753,440.232,262.483,440.232,255.965z
		 M79.526,363.297c-1.427-2.747-3.488-10.615-6.054-22.422c-2.323-11.918-6.012-15.183-13.846-15.336l-5.756-0.01v36.945
		l-18.534-0.591v-91.362c5.961-1.355,14.937-2.576,25.039-3.019c12.701-0.562,21.758,1.184,28.033,6.367
		c5.292,4.401,8.214,11.08,8.214,20.023c0,12.403-8.079,20.956-15.662,23.989v0.432c6.141,2.7,9.558,9.155,11.804,18.083
		c2.797,10.974,5.59,23.735,7.328,27.548L79.526,363.297z M151.01,367.226c-28.318-0.943-44.339-23.414-44.339-51.321
		c0-29.367,17.684-52.091,45.932-53.348c30.694-1.371,48.039,22.011,48.039,50.992C200.646,348.004,180.122,368.197,151.01,367.226z
		 M315.046,370.818l-1.824-43.506c-0.554-13.638-1.087-30.133-1.087-46.623l-0.538,0.019c-3.807,14.542-8.833,30.679-13.468,43.883
		l-14.473,43.411l-20.482-0.633l-12.118-42.515c-3.66-12.725-7.478-28.128-10.102-42.188l-0.34,0.011
		c-0.654,14.597-1.152,31.267-1.973,44.719l-1.959,40.911l-22.708-0.728l6.858-106.323l33.241-1.442l11.146,36.205
		c3.586,12.678,7.183,26.409,9.769,39.372h0.52c3.288-12.805,7.291-27.491,11.14-39.937l12.73-37.604l36.323-1.577l6.961,115.409
		L315.046,370.818z"/>
	<path d="M152.025,280.776c-14.763,0.458-23.214,15.201-23.214,34.576c0,19.506,8.741,33.428,23.359,33.718
		c15.082,0.296,23.881-14.544,23.881-34.594C176.051,295.961,167.416,280.296,152.025,280.776z"/>
	<path d="M62.514,283.279c-4.648,0.14-7.277,0.641-8.648,0.965v25.94l7.509-0.08c9.661-0.1,15.44-5.542,15.44-13.927
		C76.815,287.371,71.416,283.141,62.514,283.279z"/>
</g>
<g>
</g>
<g>
</g>
<g>
</g>
<g>
</g>
<g>
</g>
<g>
</g>
<g>
</g>
<g>
</g>
<g>
</g>
<g>
</g>
<g>
</g>
<g>
</g>
<g>
</g>
<g>
</g>
<g>
</g>
</svg>
