<?xml version="1.0" encoding="iso-8859-1"?>
<!-- Generator: Adobe Illustrator 16.0.0, SVG Export Plug-In . SVG Version: 6.00 Build 0)  -->
<!DOCTYPE svg PUBLIC "-//W3C//DTD SVG 1.1//EN" "http://www.w3.org/Graphics/SVG/1.1/DTD/svg11.dtd">
<svg version="1.1" id="Capa_1" xmlns="http://www.w3.org/2000/svg" xmlns:xlink="http://www.w3.org/1999/xlink" x="0px" y="0px"
	 width="588.601px" height="588.6px" viewBox="0 0 588.601 588.6" style="enable-background:new 0 0 588.601 588.6;"
	 xml:space="preserve">
<g>
	<path d="M158.253,242.006c-6.02,0.118-9.898,0.749-12.192,1.35v81.941c2.294,0.644,5.977,0.78,9.352,0.907
		c24.877,1.128,41.557-12.856,41.557-43.786C197.161,255.506,181.95,241.568,158.253,242.006z"/>
	<path d="M359.031,537.786c0.781,0.053,1.551,0.115,2.342,0.115h178.2c20.851,0,37.8-16.964,37.8-37.8V86.999
		c0-20.838-16.949-37.8-37.8-37.8h-178.2c-0.786,0-1.561,0.076-2.342,0.124V0L11.228,46.417v494.564L359.031,588.6V537.786z
		 M478.686,288.845l-41.723,24.091l-41.734-24.091v-47.092l41.734-24.102l41.723,24.102V288.845z M482.341,294.068l40.784,23.541
		v48.178l-41.739,24.1l-41.724-24.1v-47.081L482.341,294.068z M434.273,318.706v47.081l-41.739,24.1l-33.503-19.354v-56.579
		l33.503-19.337L434.273,318.706z M389.834,288.845l-30.803,17.774V223.96l30.803,17.792V288.845z M539.573,516.301h-178.2
		c-0.796,0-1.571-0.116-2.342-0.232V376.777l33.503,19.343l44.438-25.65l44.424,25.65l44.908-25.93l28.324,18.736l1.145-1.729
		v112.904C555.773,509.029,548.506,516.301,539.573,516.301z M361.373,70.798h178.2c8.933,0,16.2,7.27,16.2,16.2V383.21
		l-27.248-18.015v-50.709l-44.439-25.642v-50.213l-47.123-27.211l-44.435,25.649l-33.502-19.343V71.042
		C359.802,70.922,360.571,70.798,361.373,70.798z M59.018,343.934c-11.857-0.633-23.361-4.684-29.041-8.564l4.633-21.432
		c6.178,3.812,15.768,7.805,25.79,8.174c10.969,0.412,16.838-4.503,16.838-12.308c0-7.446-5.07-11.802-17.776-17.118
		c-17.173-7.026-28.145-17.779-28.145-34.578c0-19.72,14.471-35.29,39.1-36.131c12.108-0.417,21.136,2.138,27.659,5.163
		l-5.535,22.198c-4.385-2.257-12.107-5.513-22.589-5.318c-10.325,0.19-15.282,5.519-15.282,11.625
		c0,7.496,5.883,10.789,19.559,16.59c19.116,7.916,28.303,19.169,28.303,36.303C102.542,328.905,88.33,345.473,59.018,343.934z
		 M206.395,334.315c-13.355,10.747-33.215,15.071-56.813,13.838c-13.758-0.729-23.382-2.142-29.818-3.386V223.931
		c9.516-1.959,22.135-3.298,35.662-3.752c23.053-0.768,38.372,3.138,50.599,12.237c13.386,9.811,21.911,25.929,21.911,49.27
		C227.929,306.961,218.827,324.106,206.395,334.315z M334.579,241.428l-55.69,0.955v31.168l51.93,0.113v25.898l-51.93-0.912v54.859
		l-31.174-1.604V218.093l86.869-2.845v26.18H334.579z"/>
	<polygon points="393.161,228.949 397.211,155.374 387.861,155.374 391.911,228.949 	"/>
	<polygon points="436.34,378.754 432.29,452.345 441.64,452.345 437.59,378.77 	"/>
</g>
<g>
</g>
<g>
</g>
<g>
</g>
<g>
</g>
<g>
</g>
<g>
</g>
<g>
</g>
<g>
</g>
<g>
</g>
<g>
</g>
<g>
</g>
<g>
</g>
<g>
</g>
<g>
</g>
<g>
</g>
</svg>
