<?xml version="1.0" encoding="iso-8859-1"?>
<!-- Generator: Adobe Illustrator 16.0.0, SVG Export Plug-In . SVG Version: 6.00 Build 0)  -->
<!DOCTYPE svg PUBLIC "-//W3C//DTD SVG 1.1//EN" "http://www.w3.org/Graphics/SVG/1.1/DTD/svg11.dtd">
<svg version="1.1" id="Capa_1" xmlns="http://www.w3.org/2000/svg" xmlns:xlink="http://www.w3.org/1999/xlink" x="0px" y="0px"
	 width="585.918px" height="585.918px" viewBox="0 0 585.918 585.918" style="enable-background:new 0 0 585.918 585.918;"
	 xml:space="preserve">
<g>
	<path d="M357.396,535.335c0.776,0.053,1.542,0.115,2.329,0.115h177.39c20.75,0,37.627-16.888,37.627-37.628V86.602
		c0-20.743-16.877-37.628-37.627-37.628h-177.39c-0.781,0-1.553,0.076-2.329,0.123V0L11.176,46.206v492.311l346.22,47.401V535.335z
		 M357.396,70.717c0.766-0.113,1.532-0.241,2.329-0.241h177.39c8.893,0,16.125,7.236,16.125,16.126v411.22
		c0,8.888-7.232,16.127-16.125,16.127h-177.39c-0.792,0-1.563-0.116-2.329-0.232V70.717z M56.878,342.052
		c-11.578-0.314-22.867-3.854-28.473-7.37l4.569-20.242c6.068,3.469,15.465,7.045,25.257,7.203
		c10.657,0.188,16.315-4.495,16.315-11.738c0-6.918-4.903-10.898-17.219-15.732c-16.785-6.392-27.601-16.399-27.601-32.208
		c0-18.542,14.233-33.113,38.234-33.74c11.667-0.308,20.336,2.11,26.583,4.944l-5.313,20.522
		c-4.197-2.092-11.608-5.113-21.732-4.944c-10.024,0.165-14.856,5.144-14.856,10.857c0,7.013,5.741,10.069,18.979,15.4
		c18.384,7.215,27.152,17.525,27.152,33.346C98.781,327.174,85.19,342.797,56.878,342.052z M221.215,344.665l-28.548-0.735
		l-9.704-50.42c-2.192-11.758-4.064-22.635-5.407-35.916h-0.323c-2.026,13.131-3.875,24.168-6.562,35.875l-10.677,49.611
		l-27.391-0.703l-25.615-113.343l26.108-0.672l8.294,46.99c2.457,13.595,4.745,28.41,6.564,40l0.315,0.011
		c1.808-12.431,4.441-26.239,7.247-40.412l9.473-47.4l27.349-0.707l9.262,49.305c2.58,13.774,4.483,26.364,6.213,39.497h0.344
		c1.732-13.102,4.338-26.918,6.785-40.956l9.617-48.661l27.548-0.704L221.215,344.665z M343.957,246.145l-49.312,0.784v27.946
		l45.996-0.2v22.946l-45.996-0.241v49.19l-28.2-0.734V224.958l77.513-1.971V246.145z"/>
	<path d="M406.462,390.882c13.48-5.648,29.092-18.259,38.232-33.849c3.548-6.11,8.985-18.656,14.891-32.567h41.099v-35.164h-26.068
		c4.011-8.934,7.644-16.501,10.394-20.818c10.006-15.6,34.746-15.203,34.746-15.203v-33.429c0,0-20.835-4.779-46.882,14.761
		c-26.044,19.518-42.532,72.481-56.41,101.558c-13.901,29.07-39.497,25.617-39.497,25.617v34.258
		C376.977,396.047,393.023,396.488,406.462,390.882z"/>
</g>
<g>
</g>
<g>
</g>
<g>
</g>
<g>
</g>
<g>
</g>
<g>
</g>
<g>
</g>
<g>
</g>
<g>
</g>
<g>
</g>
<g>
</g>
<g>
</g>
<g>
</g>
<g>
</g>
<g>
</g>
</svg>
