<?xml version="1.0" encoding="iso-8859-1"?>
<!-- Generator: Adobe Illustrator 16.0.0, SVG Export Plug-In . SVG Version: 6.00 Build 0)  -->
<!DOCTYPE svg PUBLIC "-//W3C//DTD SVG 1.1//EN" "http://www.w3.org/Graphics/SVG/1.1/DTD/svg11.dtd">
<svg version="1.1" id="Capa_1" xmlns="http://www.w3.org/2000/svg" xmlns:xlink="http://www.w3.org/1999/xlink" x="0px" y="0px"
	 width="585.918px" height="585.918px" viewBox="0 0 585.918 585.918" style="enable-background:new 0 0 585.918 585.918;"
	 xml:space="preserve">
<g>
	<path d="M537.115,48.974h-177.39c-0.787,0-1.553,0.076-2.329,0.123V0L11.176,46.208v492.308l346.22,47.402v-50.583
		c0.776,0.052,1.542,0.114,2.329,0.114h177.39c20.745,0,37.627-16.883,37.627-37.627V86.602
		C574.742,65.859,557.86,48.974,537.115,48.974z M98.004,258.002l-27.077,0.714v86.929l-21.65-0.933v-85.432l-24.673,0.641v-19.63
		l73.4-3.102V258.002z M197.578,345.632c-8.161,2.471-23.324,5.637-38.182,4.997c-19.979-0.883-34.084-6.646-43.732-16.919
		c-9.504-9.796-14.665-24.278-14.504-40.413c0.157-36.52,25.255-58.479,60.888-60.016c14.567-0.63,26,1.837,31.699,4.391
		l-5.525,21.449c-6.343-2.615-14.139-4.656-26.502-4.324c-20.7,0.56-35.935,12.94-35.935,37.197
		c0,23.095,13.783,37.111,34.119,37.677c5.792,0.169,10.47-0.387,12.49-1.363v-24.264l-17.27-0.158v-20.201l42.449-0.252v62.198
		H197.578z M294.83,355.239l-10.317-32.662l-37.069-0.778l-8.927,31.025l-28.63-1.239l37.557-120.734l38.447-1.627l42.438,127.441
		L294.83,355.239z M553.24,497.823c0,8.892-7.232,16.127-16.125,16.127h-177.39c-0.797,0-1.563-0.117-2.329-0.231V353.863h49.868
		v-49.88l12.379,5.291c-4.924,9.408-7.518,19.854-7.518,30.342c0,36.284,29.522,65.807,65.801,65.807
		c36.284,0,65.802-29.522,65.802-65.807s-29.518-65.804-65.802-65.804c-0.981,0-1.958,0.053-2.924,0.113l-9.196-76.121
		l-62.699,47.055h-45.711V70.717c0.766-0.113,1.532-0.242,2.329-0.242h177.39c8.893,0,16.125,7.236,16.125,16.127V497.823z
		 M365.779,280.042l35.754-26.835v42.101L365.779,280.042z M421.79,301.882l-12.614-5.396v-46.618l50.63-37.993l7.354,60.881
		C448.688,275.725,432.314,286.24,421.79,301.882z M469.97,280.075l5.664,46.858l-47.749-20.379
		C437.454,292.103,452.93,282.353,469.97,280.075z"/>
	<path d="M265.458,251.053l-0.386,0.01c-1.914,7.391-3.827,16.788-5.924,23.958l-7.575,26.116l28.62,0.189l-8.187-26.457
		C269.694,267.523,267.382,258.357,265.458,251.053z"/>
</g>
<g>
</g>
<g>
</g>
<g>
</g>
<g>
</g>
<g>
</g>
<g>
</g>
<g>
</g>
<g>
</g>
<g>
</g>
<g>
</g>
<g>
</g>
<g>
</g>
<g>
</g>
<g>
</g>
<g>
</g>
</svg>
