<?xml version="1.0" encoding="iso-8859-1"?>
<!-- Generator: Adobe Illustrator 16.0.0, SVG Export Plug-In . SVG Version: 6.00 Build 0)  -->
<!DOCTYPE svg PUBLIC "-//W3C//DTD SVG 1.1//EN" "http://www.w3.org/Graphics/SVG/1.1/DTD/svg11.dtd">
<svg version="1.1" id="Capa_1" xmlns="http://www.w3.org/2000/svg" xmlns:xlink="http://www.w3.org/1999/xlink" x="0px" y="0px"
	 width="588.601px" height="588.6px" viewBox="0 0 588.601 588.6" style="enable-background:new 0 0 588.601 588.6;"
	 xml:space="preserve">
<g>
	<path d="M359.031,537.775c0.781,0.053,1.551,0.116,2.342,0.116h178.2c20.846,0,37.8-16.96,37.8-37.801V86.994
		c0-20.838-16.954-37.8-37.8-37.8h-178.2c-0.786,0-1.561,0.071-2.342,0.113V0L11.228,46.417v494.564L359.031,588.6V537.775z
		 M359.031,288.818c3.349,1.371,8.217,2.257,13.701,2.257c2.974,0,5.705-0.264,8.142-0.707c2.88,1.103,6.339,1.759,10.125,1.759
		c9.65,0,17.455-4.242,17.455-9.442c0-5.213-7.805-9.434-17.455-9.434c-3.617,0-6.992,0.572-9.787,1.619
		c-1.14-0.994-2.679-1.619-4.388-1.619h-2.553c-3.206,0-5.779,2.196-6.159,5.004c-3.586,0.34-6.708,1.071-9.086,2.03v-28.242h81.211
		v109.619h-32.521c-4.472-10.314-9.951-26.857-18.225-24.943c-9.134,2.078-14.027,22.139-14.655,24.943h-0.152
		c-0.575-2.769-5.021-22.307-15.652-34.509V288.818z M361.373,70.798h178.2c8.933,0,16.2,7.27,16.2,16.2v413.103
		c0,8.934-7.268,16.2-16.2,16.2h-178.2c-0.796,0-1.571-0.127-2.342-0.242v-122.93h158.81c11.992,0,21.706-9.714,21.706-21.705
		V241.197c0-11.989-9.714-21.708-21.706-21.708H407.083l-8.079-16.267c-1.302-2.093-3.738-4.334-7.588-4.334h-32.379V71.031
		C359.802,70.917,360.571,70.798,361.373,70.798z M451.18,305.812c0-21.545,17.529-39.073,39.076-39.073
		c21.537,0,39.055,17.528,39.055,39.073c0,21.536-17.518,39.065-39.055,39.065C468.709,344.883,451.18,327.354,451.18,305.812z
		 M110.102,259.269l-28.716,0.477v90.263l-23.306-0.585v-89.29l-26.947,0.443V239.91l78.975-2.083v21.442H110.102z M147.746,351.675
		l-24.753-0.622V237.492l24.753-0.653V351.675z M240.442,256.577l-45.069,0.759v26.797l42.061-0.211v21.969l-42.061-0.18v47.15
		l-25.816-0.648V236.266l70.885-1.875V256.577z M334.637,306.324l-45.604-0.2v49.085l-27.973-0.696V233.853l74.374-1.961
		c0.501,6.718,0.929,13.437,1.229,20.152h1.239v2.89l-48.875,0.82v27.896l45.599-0.232v22.905H334.637z"/>
	<path d="M524.977,305.812c0-19.153-15.578-34.731-34.721-34.731c-19.164,0-34.736,15.578-34.736,34.731
		c0,19.147,15.572,34.726,34.736,34.726C509.398,340.538,524.977,324.959,524.977,305.812z M507.795,294.417l11.396,11.396
		l-11.396,11.391V294.417z M490.256,275.611l11.38,11.388h-22.792L490.256,275.611z M470.169,317.208l-11.396-11.391l11.396-11.4
		V317.208z M501.636,324.623l-11.38,11.401l-11.412-11.401H501.636z"/>
</g>
<g>
</g>
<g>
</g>
<g>
</g>
<g>
</g>
<g>
</g>
<g>
</g>
<g>
</g>
<g>
</g>
<g>
</g>
<g>
</g>
<g>
</g>
<g>
</g>
<g>
</g>
<g>
</g>
<g>
</g>
</svg>
