<?xml version="1.0" encoding="iso-8859-1"?>
<!-- Generator: Adobe Illustrator 16.0.0, SVG Export Plug-In . SVG Version: 6.00 Build 0)  -->
<!DOCTYPE svg PUBLIC "-//W3C//DTD SVG 1.1//EN" "http://www.w3.org/Graphics/SVG/1.1/DTD/svg11.dtd">
<svg version="1.1" id="Capa_1" xmlns="http://www.w3.org/2000/svg" xmlns:xlink="http://www.w3.org/1999/xlink" x="0px" y="0px"
	 width="585.918px" height="585.918px" viewBox="0 0 585.918 585.918" style="enable-background:new 0 0 585.918 585.918;"
	 xml:space="preserve">
<g>
	<path d="M357.396,535.335c0.776,0.052,1.542,0.114,2.329,0.114h177.39c20.756,0,37.627-16.883,37.627-37.627V86.604
		c0-20.746-16.871-37.628-37.627-37.628h-177.39c-0.787,0-1.553,0.074-2.329,0.124V0L11.176,46.208v492.308l346.22,47.402V535.335z
		 M357.396,70.72c0.766-0.113,1.532-0.241,2.329-0.241h56.127v3.884h32.604v-3.884h88.651c8.889,0,16.127,7.232,16.127,16.125
		v411.218c0,8.892-7.238,16.127-16.127,16.127H359.721c-0.792,0-1.563-0.117-2.335-0.231V70.72H357.396z M109.97,302.597
		c0,33.196-15.422,48.378-40.473,47.359c-23.297-0.944-36.588-15.597-36.588-47.879v-56.471l20.462-0.892v59.237
		c0,17.712,6.016,26.887,16.821,27.159c11.286,0.289,17.575-8.347,17.575-27.008v-60.888l22.208-0.968v60.35H109.97z
		 M220.003,302.912c0,36.021-18.132,52.432-47.508,51.244c-27.221-1.111-42.728-16.986-42.728-51.837v-60.93l23.872-1.04v64.021
		c0,19.14,7.024,29.062,19.662,29.387c13.218,0.341,20.599-8.998,20.599-29.229v-65.941l26.098-1.146v65.47H220.003z
		 M325.784,358.334l-82.274-3.233V236.42l79.443-3.468v23.224l-51.212,1.451v25.146l48.195-0.539v23.003l-48.195-0.2v28.725
		l54.043,1.291V358.334z"/>
	<rect x="448.457" y="82.518" width="32.604" height="13.448"/>
	<rect x="415.853" y="102.66" width="32.604" height="13.448"/>
	<rect x="448.457" y="124.684" width="32.604" height="13.459"/>
	<rect x="449.532" y="164.503" width="32.61" height="13.46"/>
	<rect x="415.853" y="145.587" width="32.604" height="13.46"/>
	<rect x="416.925" y="190.616" width="32.603" height="13.45"/>
	<rect x="449.532" y="210.743" width="32.61" height="13.459"/>
	<rect x="416.925" y="232.783" width="32.603" height="13.459"/>
	<path d="M448.457,257.494c-16.016,0-23.627,12.974-23.627,28.998l-5.365,48.588c0,16.022,12.977,29.01,28.998,29.01
		c16.021,0,28.997-12.987,28.997-29.01l-5.354-48.588C472.105,270.468,464.483,257.494,448.457,257.494z M458.063,351.354h-19.197
		v-40.568h19.197V351.354z"/>
</g>
<g>
</g>
<g>
</g>
<g>
</g>
<g>
</g>
<g>
</g>
<g>
</g>
<g>
</g>
<g>
</g>
<g>
</g>
<g>
</g>
<g>
</g>
<g>
</g>
<g>
</g>
<g>
</g>
<g>
</g>
</svg>
