<?xml version="1.0" encoding="iso-8859-1"?>
<!-- Generator: Adobe Illustrator 16.0.0, SVG Export Plug-In . SVG Version: 6.00 Build 0)  -->
<!DOCTYPE svg PUBLIC "-//W3C//DTD SVG 1.1//EN" "http://www.w3.org/Graphics/SVG/1.1/DTD/svg11.dtd">
<svg version="1.1" id="Capa_1" xmlns="http://www.w3.org/2000/svg" xmlns:xlink="http://www.w3.org/1999/xlink" x="0px" y="0px"
	 width="585.918px" height="585.918px" viewBox="0 0 585.918 585.918" style="enable-background:new 0 0 585.918 585.918;"
	 xml:space="preserve">
<g>
	<path d="M177.06,271.329c-4.459,0.11-7.469,0.622-9.034,1.1v29.182c1.858,0.431,4.145,0.571,7.299,0.566
		c11.762-0.016,19.132-6.163,19.132-16.465C194.461,276.438,188.113,271.063,177.06,271.329z"/>
	<path d="M267.749,269.458c-5.567,0.128-9.142,0.687-11.255,1.214v68.882c2.113,0.524,5.515,0.598,8.622,0.681
		c22.937,0.735,38.29-11.148,38.29-37.113C303.578,280.536,289.568,268.935,267.749,269.458z"/>
	<path d="M357.396,535.335c0.776,0.053,1.542,0.115,2.329,0.115h177.39c20.756,0,37.627-16.888,37.627-37.628V86.602
		c0-20.743-16.871-37.628-37.627-37.628h-177.39c-0.781,0-1.553,0.076-2.329,0.123V0L11.176,46.206v492.311l346.22,47.401V535.335z
		 M488.777,200.798v171.196H357.401V169.556h102.768v31.247h28.608V200.798z M468.059,192.9v-17.764l17.758,17.764H468.059z
		 M521.734,367.28v-10.751h-25.083V332.34h25.083v-10.751h-25.083v-26.32h25.083v-10.751h-25.083v-65.966h6.909v31.248h28.608
		v171.192H388.793v-41.107h107.858V367.28H521.734L521.734,367.28z M511.461,241.903v-17.767l17.764,17.767H511.461z
		 M359.726,70.476h177.39c8.893,0,16.125,7.236,16.125,16.126v411.22c0,8.888-7.232,16.127-16.125,16.127h-177.39
		c-0.792,0-1.563-0.116-2.329-0.232V379.879h23.512v48.998h159.157V241.586l-30.919-30.93h-12.495v-18.068l-30.919-30.929H357.396
		V70.717C358.162,70.599,358.929,70.476,359.726,70.476z M112.826,352.193l-21.271-0.787l-7.175-40.148
		c-1.635-9.349-3.006-18-4-28.551l-0.247,0.01c-1.494,10.43-2.861,19.197-4.832,28.489l-7.863,39.307l-20.045-0.745l-18.616-89.321
		l18.971-0.687l6.058,37.104c1.79,10.741,3.472,22.447,4.795,31.635h0.242c1.327-9.816,3.251-20.746,5.304-31.97l6.971-37.606
		l20.197-0.727l6.879,39.237c1.919,10.987,3.339,21.029,4.63,31.517h0.252c1.289-10.456,3.237-21.49,5.052-32.693l7.192-38.932
		l20.706-0.745L112.826,352.193z M207.756,309.079c-7.806,7.323-19.203,10.494-32.281,10.354c-2.875-0.033-5.455-0.21-7.449-0.532
		v35.339l-21.168-0.786v-95.967c6.52-1.391,15.783-2.596,29.038-3.081c13.679-0.504,23.608,1.834,30.349,7.026
		c6.504,4.95,10.924,13.342,10.924,23.368C217.173,294.822,213.819,303.337,207.756,309.079z M312.062,346.597
		c-12.272,9.134-30.567,12.951-52.315,12.127c-12.72-0.473-21.6-1.575-27.565-2.578V254.486c8.814-1.698,20.452-2.898,32.939-3.355
		c21.245-0.779,35.361,2.41,46.605,9.971c12.299,8.155,20.131,21.615,20.131,41.169
		C331.857,323.484,323.485,337.926,312.062,346.597z"/>
	<rect x="413.744" y="214.981" width="69.438" height="10.751"/>
	<rect x="413.744" y="242.299" width="69.438" height="10.751"/>
	<rect x="357.983" y="268.735" width="125.188" height="10.75"/>
	<rect x="357.983" y="294.713" width="53.964" height="10.751"/>
	<rect x="357.983" y="321.589" width="53.964" height="10.751"/>
	<rect x="357.983" y="349.027" width="123.734" height="10.751"/>
	<rect x="398.01" y="391.359" width="123.734" height="10.751"/>
	<path d="M455.733,330.083l-2.184-6.939c-18.143-48.886-30.301,5.595-30.301,5.595l-0.792,3.359h53.654h2.919
		C463.797,302.313,455.733,330.083,455.733,330.083z"/>
</g>
<g>
</g>
<g>
</g>
<g>
</g>
<g>
</g>
<g>
</g>
<g>
</g>
<g>
</g>
<g>
</g>
<g>
</g>
<g>
</g>
<g>
</g>
<g>
</g>
<g>
</g>
<g>
</g>
<g>
</g>
</svg>
